0
SECTION
2
HEADER
9
$INSUNITS
70
4
9
$ACADVER
1
AC1014
9
$HANDSEED
5
FFFF
0
ENDSEC
0
SECTION
2
TABLES
0
TABLE
2
VPORT
5
8
100
AcDbSymbolTable
0
ENDTAB
0
TABLE
2
LTYPE
5
5
100
AcDbSymbolTable
0
LTYPE
5
14
100
AcDbSymbolTableRecord
100
AcDbLinetypeTableRecord
2
BYBLOCK
70
0
0
LTYPE
5
15
100
AcDbSymbolTableRecord
100
AcDbLinetypeTableRecord
2
BYLAYER
70
0
0
ENDTAB
0
TABLE
2
LAYER
5
2
100
AcDbSymbolTable
70
2
0
LAYER
5
50
100
AcDbSymbolTableRecord
100
AcDbLayerTableRecord
2
0
70
0
6
CONTINUOUS
0
ENDTAB
0
TABLE
2
STYLE
5
3
100
AcDbSymbolTable
70
1
0
STYLE
5
11
100
AcDbSymbolTableRecord
100
AcDbTextStyleTableRecord
2
STANDARD
70
0
0
ENDTAB
0
TABLE
2
VIEW
5
6
100
AcDbSymbolTable
70
0
0
ENDTAB
0
TABLE
2
UCS
5
7
100
AcDbSymbolTable
70
0
0
ENDTAB
0
TABLE
2
APPID
5
9
100
AcDbSymbolTable
70
2
0
APPID
5
12
100
AcDbSymbolTableRecord
100
AcDbRegAppTableRecord
2
ACAD
70
0
0
ENDTAB
0
TABLE
2
DIMSTYLE
5
A
100
AcDbSymbolTable
70
1
0
ENDTAB
0
TABLE
2
BLOCK_RECORD
5
1
100
AcDbSymbolTable
70
1
0
BLOCK_RECORD
5
1F
100
AcDbSymbolTableRecord
100
AcDbBlockTableRecord
2
*MODEL_SPACE
0
BLOCK_RECORD
5
1B
100
AcDbSymbolTableRecord
100
AcDbBlockTableRecord
2
*PAPER_SPACE
0
ENDTAB
0
ENDSEC
0
SECTION
2
BLOCKS
0
BLOCK
5
20
100
AcDbEntity
100
AcDbBlockBegin
2
*MODEL_SPACE
0
ENDBLK
5
21
100
AcDbEntity
100
AcDbBlockEnd
0
BLOCK
5
1C
100
AcDbEntity
100
AcDbBlockBegin
2
*PAPER_SPACE
0
ENDBLK
5
1D
100
AcDbEntity
100
AcDbBlockEnd
0
ENDSEC
0
SECTION
2
ENTITIES
0
CIRCLE
5
100
100
AcDbEntity
8
0
100
AcDbCircle
10
-45.657525649050413
20
69.345603853860283
30
0
40
1.749999999999998
210
0
220
-0
230
1
0
CIRCLE
5
101
100
AcDbEntity
8
0
100
AcDbCircle
10
32.137853880005814
20
59.361470467911687
30
0
40
1.749999999999998
210
0
220
-0
230
1
0
CIRCLE
5
102
100
AcDbEntity
8
0
100
AcDbCircle
10
45.657523672914948
20
69.345601132488085
30
0
40
1.749999999999998
210
0
220
-0
230
1
0
CIRCLE
5
103
100
AcDbEntity
8
0
100
AcDbCircle
10
42.405227192140501
20
93.31691543757195
30
0
40
1.749999999999998
210
0
220
-0
230
1
0
CIRCLE
5
104
100
AcDbEntity
8
0
100
AcDbCircle
10
-42.405227739489192
20
93.316917965094149
30
0
40
1.749999999999998
210
0
220
-0
230
1
0
CIRCLE
5
105
100
AcDbEntity
8
0
100
AcDbCircle
10
-32.137856451235656
20
59.361472383457169
30
0
40
1.749999999999998
210
0
220
-0
230
1
0
LWPOLYLINE
5
106
100
AcDbEntity
8
0
100
AcDbPolyline
90
26
70
1
43
0.0
10
-42.12199229426475
20
62.274535671122123
10
-32.844966919617889
20
52.997511168693464
42
0.41421354860431042
10
-30.016539861353291
20
52.997511235175061
10
-28.779104910555073
20
54.234946185973278
42
-0.41421356237309048
10
-25.950677785808892
20
54.234946185973278
10
-9.6107230073644345
20
37.894991407528813
42
0.25293763099925259
10
-7.788262706096778
20
37.351314625632874
42
-0.10308491892061138
10
7.778989540692427
20
37.353244460882692
42
0.25287168265630738
10
9.6009643993974993
20
37.897022401354704
10
25.938888184016065
20
54.234946185973278
42
-0.41421356237309592
10
28.767315308762242
20
54.234946185973278
10
30.010644563400952
20
52.991616931334569
42
0.41421353114669479
10
32.839071537372696
20
52.991616780560157
10
42.121989896665177
20
62.274533160481965
10
47.778844285275042
20
67.931387549091838
42
0.41421356100920781
10
47.778844291860494
20
70.759814667252584
10
40.884553200810323
20
77.654105822510829
42
-0.41421356237309692
10
40.884553200810323
20
84.725173634376318
10
42.807002410886057
20
86.64762284445203
42
0.53774961779422437
10
40.137094747234357
20
99.725942588934885
42
0.19368759468951119
10
-40.137094912579258
20
99.725944981267261
42
0.53774961779422414
10
-42.807003355751434
20
86.647625395921622
10
-40.884554260261403
20
84.725176071260236
42
-0.41421356237309581
10
-40.88455468172549
20
77.654108259394775
10
-47.778846210044925
20
70.759817488722263
42
0.41421356237309875
10
-47.778846365459685
20
67.931390363976078
0
ENDSEC
0
SECTION
2
OBJECTS
0
DICTIONARY
5
C
100
AcDbDictionary
3
ACAD_GROUP
350
D
3
ACAD_MLINESTYLE
350
17
0
DICTIONARY
5
D
100
AcDbDictionary
0
DICTIONARY
5
1A
330
C
100
AcDbDictionary
0
DICTIONARY
5
17
100
AcDbDictionary
0
ENDSEC
0
EOF
