0
SECTION
2
HEADER
9
$INSUNITS
70
4
9
$ACADVER
1
AC1014
9
$HANDSEED
5
FFFF
0
ENDSEC
0
SECTION
2
TABLES
0
TABLE
2
VPORT
5
8
100
AcDbSymbolTable
0
ENDTAB
0
TABLE
2
LTYPE
5
5
100
AcDbSymbolTable
0
LTYPE
5
14
100
AcDbSymbolTableRecord
100
AcDbLinetypeTableRecord
2
BYBLOCK
70
0
0
LTYPE
5
15
100
AcDbSymbolTableRecord
100
AcDbLinetypeTableRecord
2
BYLAYER
70
0
0
LTYPE
5
16
100
AcDbSymbolTableRecord
100
AcDbLinetypeTableRecord
2
DASHED
70
0
3
Dashed __ __ __ __ __ __ __ __ __ __ __ __ __ _
72
65
73
2
40
0.75
49
0.5
74
0
49
-0.25
74
0
0
ENDTAB
0
TABLE
2
LAYER
5
2
100
AcDbSymbolTable
70
3
0
LAYER
5
50
100
AcDbSymbolTableRecord
100
AcDbLayerTableRecord
2
1
70
0
62
7
6
DASHED
0
LAYER
5
51
100
AcDbSymbolTableRecord
100
AcDbLayerTableRecord
2
0
70
0
62
7
6
CONTINUOUS
0
ENDTAB
0
TABLE
2
STYLE
5
3
100
AcDbSymbolTable
70
1
0
STYLE
5
11
100
AcDbSymbolTableRecord
100
AcDbTextStyleTableRecord
2
STANDARD
70
0
0
ENDTAB
0
TABLE
2
VIEW
5
6
100
AcDbSymbolTable
70
0
0
ENDTAB
0
TABLE
2
UCS
5
7
100
AcDbSymbolTable
70
0
0
ENDTAB
0
TABLE
2
APPID
5
9
100
AcDbSymbolTable
70
2
0
APPID
5
12
100
AcDbSymbolTableRecord
100
AcDbRegAppTableRecord
2
ACAD
70
0
0
ENDTAB
0
TABLE
2
DIMSTYLE
5
A
100
AcDbSymbolTable
70
1
0
ENDTAB
0
TABLE
2
BLOCK_RECORD
5
1
100
AcDbSymbolTable
70
1
0
BLOCK_RECORD
5
1F
100
AcDbSymbolTableRecord
100
AcDbBlockTableRecord
2
*MODEL_SPACE
0
BLOCK_RECORD
5
1B
100
AcDbSymbolTableRecord
100
AcDbBlockTableRecord
2
*PAPER_SPACE
0
ENDTAB
0
ENDSEC
0
SECTION
2
BLOCKS
0
BLOCK
5
20
100
AcDbEntity
100
AcDbBlockBegin
2
*MODEL_SPACE
0
ENDBLK
5
21
100
AcDbEntity
100
AcDbBlockEnd
0
BLOCK
5
1C
100
AcDbEntity
100
AcDbBlockBegin
2
*PAPER_SPACE
0
ENDBLK
5
1D
100
AcDbEntity
100
AcDbBlockEnd
0
ENDSEC
0
SECTION
2
ENTITIES
0
CIRCLE
5
100
100
AcDbEntity
8
0
100
AcDbCircle
10
39.208926160654194
20
15.520848990904774
30
0
40
1.749999999999998
210
0
220
-0
230
1
0
CIRCLE
5
101
100
AcDbEntity
8
0
100
AcDbCircle
10
93.316915437571907
20
-42.405227192140515
30
0
40
1.7499999999999893
210
0
220
-0
230
1
0
CIRCLE
5
102
100
AcDbEntity
8
0
100
AcDbCircle
10
39.208926160654144
20
-15.520848990904845
30
0
40
1.7500000000000027
210
0
220
-0
230
1
0
CIRCLE
5
103
100
AcDbEntity
8
0
100
AcDbCircle
10
93.316915437571907
20
42.405227192140543
30
0
40
1.7500000000000071
210
0
220
-0
230
1
0
LWPOLYLINE
5
104
100
AcDbEntity
8
0
100
AcDbPolyline
90
29
70
1
43
0.0
10
86.116254800598583
20
-32.080049064912551
42
1.8160467855431446
10
99.536252443745155
20
-33.729413548768143
42
-0.17854243926210828
10
98.924774152685302
20
-26.835406813387497
42
0.13322793547255365
10
98.924774152685288
20
26.8354068133875
42
-0.17854243926210897
10
99.536252443745155
20
33.729413548768179
42
1.8160467855431435
10
86.116254800598568
20
32.080049064912593
42
-0.092532542983882332
10
87.881701410754744
20
28.862719157258301
42
-0.033704958076592226
10
90.96285736659631
20
16.793111078774846
42
-0.46883697683813769
10
81.126278727200614
20
4.9776399906369972
10
67.004421079189768
20
4.9815322873895944
10
61.351966131772791
20
4.9815322873895944
42
-0.34568252326408311
10
51.63740603588252
20
12.609334541977869
42
0.041401406790063322
10
48.854274047717624
20
20.944615703722445
42
0.53055928635194283
10
42.34945945418302
20
22.196916190366423
10
41.922005559234876
20
21.7694622954183
42
-0.11783895174850394
10
37.960567844987295
20
19.336309957477233
42
0.67255779996590714
10
37.437116073307813
20
11.918512265096052
42
-0.2619409456003966
10
42.984047014271141
20
3.8334949817187427
42
-0.044503748368375368
10
42.984047014271141
20
-3.8334949817187787
42
-0.26194094560039755
10
37.437116073307777
20
-11.918512265096075
42
0.67255797523404737
10
37.960569686791509
20
-19.336310560085984
42
-0.11783910002178051
10
41.922012711937604
20
-21.769465122119634
10
42.349460436856575
20
-22.196912934450758
42
0.53055934014783035
10
48.854275423094862
20
-20.944612495591848
42
0.041222080226207623
10
51.628364283382865
20
-12.64630464319241
42
-0.34548214063417537
10
61.341223351766665
20
-5.0254575844121252
10
81.120192457728209
20
-5.0254575844121261
42
-0.46893267929924881
10
90.952943058665113
20
-16.846725170401587
42
-0.033557431774169713
10
87.881701410754815
20
-28.862719157258077
42
-0.092532542983880098
0
ENDSEC
0
SECTION
2
OBJECTS
0
DICTIONARY
5
C
100
AcDbDictionary
3
ACAD_GROUP
350
D
3
ACAD_MLINESTYLE
350
17
0
DICTIONARY
5
D
100
AcDbDictionary
0
DICTIONARY
5
1A
330
C
100
AcDbDictionary
0
DICTIONARY
5
17
100
AcDbDictionary
0
ENDSEC
0
EOF
