0
SECTION
2
HEADER
9
$INSUNITS
70
4
9
$ACADVER
1
AC1014
9
$HANDSEED
5
FFFF
0
ENDSEC
0
SECTION
2
TABLES
0
TABLE
2
VPORT
5
8
100
AcDbSymbolTable
0
ENDTAB
0
TABLE
2
LTYPE
5
5
100
AcDbSymbolTable
0
LTYPE
5
14
100
AcDbSymbolTableRecord
100
AcDbLinetypeTableRecord
2
BYBLOCK
70
0
0
LTYPE
5
15
100
AcDbSymbolTableRecord
100
AcDbLinetypeTableRecord
2
BYLAYER
70
0
0
LTYPE
5
16
100
AcDbSymbolTableRecord
100
AcDbLinetypeTableRecord
2
DASHED
70
0
3
Dashed __ __ __ __ __ __ __ __ __ __ __ __ __ _
72
65
73
2
40
0.75
49
0.5
74
0
49
-0.25
74
0
0
ENDTAB
0
TABLE
2
LAYER
5
2
100
AcDbSymbolTable
70
3
0
LAYER
5
50
100
AcDbSymbolTableRecord
100
AcDbLayerTableRecord
2
1
70
0
62
7
6
DASHED
0
LAYER
5
51
100
AcDbSymbolTableRecord
100
AcDbLayerTableRecord
2
0
70
0
62
7
6
CONTINUOUS
0
ENDTAB
0
TABLE
2
STYLE
5
3
100
AcDbSymbolTable
70
1
0
STYLE
5
11
100
AcDbSymbolTableRecord
100
AcDbTextStyleTableRecord
2
STANDARD
70
0
0
ENDTAB
0
TABLE
2
VIEW
5
6
100
AcDbSymbolTable
70
0
0
ENDTAB
0
TABLE
2
UCS
5
7
100
AcDbSymbolTable
70
0
0
ENDTAB
0
TABLE
2
APPID
5
9
100
AcDbSymbolTable
70
2
0
APPID
5
12
100
AcDbSymbolTableRecord
100
AcDbRegAppTableRecord
2
ACAD
70
0
0
ENDTAB
0
TABLE
2
DIMSTYLE
5
A
100
AcDbSymbolTable
70
1
0
ENDTAB
0
TABLE
2
BLOCK_RECORD
5
1
100
AcDbSymbolTable
70
1
0
BLOCK_RECORD
5
1F
100
AcDbSymbolTableRecord
100
AcDbBlockTableRecord
2
*MODEL_SPACE
0
BLOCK_RECORD
5
1B
100
AcDbSymbolTableRecord
100
AcDbBlockTableRecord
2
*PAPER_SPACE
0
ENDTAB
0
ENDSEC
0
SECTION
2
BLOCKS
0
BLOCK
5
20
100
AcDbEntity
100
AcDbBlockBegin
2
*MODEL_SPACE
0
ENDBLK
5
21
100
AcDbEntity
100
AcDbBlockEnd
0
BLOCK
5
1C
100
AcDbEntity
100
AcDbBlockBegin
2
*PAPER_SPACE
0
ENDBLK
5
1D
100
AcDbEntity
100
AcDbBlockEnd
0
ENDSEC
0
SECTION
2
ENTITIES
0
LWPOLYLINE
5
100
100
AcDbEntity
8
0
100
AcDbPolyline
90
32
70
1
43
0.0
10
-83.395135734346837
20
-39.932795256492007
42
0.38010064482390848
10
-78.375140279278611
20
-27.633084992509261
42
-0.01546373660523667
10
-79.933296269351928
20
-22.735833996487798
42
-0.49791501781932168
10
-70.314813418940332
20
-9.9999999999999609
10
-59.904173960687352
20
-9.9999999999999645
42
-0.32269035516736189
10
-50.418859395774192
20
-16.833170733265426
42
0.020698853991092492
10
-48.854275423094855
20
-20.944612495591887
42
0.53055934014782657
10
-42.349460436856589
20
-22.196912934450758
10
-41.922012711937604
20
-21.769465122119634
42
-0.11783910002178062
10
-37.960569686791501
20
-19.336310560085984
42
0.67255797523404737
10
-37.437116073307777
20
-11.918512265096075
42
-0.26194094560039777
10
-42.984047014271795
20
-3.8334949817188209
42
-0.044503748368387823
10
-42.984047014271155
20
3.8334949817187609
42
-0.26194094560039732
10
-37.437116073307827
20
11.918512265096041
42
0.67255779996590903
10
-37.96056784498731
20
19.336309957477237
42
-0.11783895174850202
10
-41.922005559234876
20
21.769462295418293
10
-42.349459454183027
20
22.196916190366419
42
0.53055928635194094
10
-48.854274047717624
20
20.944615703722448
42
0.020698870414962125
10
-50.418859395774206
20
16.833170733265497
42
-0.32269035516736189
10
-59.904173960687352
20
10.000000000000034
10
-70.314813418940346
20
10.000000000000037
42
-0.49791501781931941
10
-79.933296269352297
20
22.735833996488065
42
-0.015463736816566631
10
-78.375140255925317
20
27.633085058745763
42
0.38010064926094389
10
-83.395135839773346
20
39.932795395375429
42
-0.08232901798346591
10
-84.72517363437629
20
40.884553200810387
10
-86.647622844452002
20
42.807002410886092
42
0.84144323522622111
10
-99.536252443745155
20
33.729413548768179
42
-0.17854243926210828
10
-98.924774152685302
20
26.835406813387529
42
0.13322793547256931
10
-98.924774152685288
20
-26.835406813387479
42
-0.17854243926210861
10
-99.536252443745155
20
-33.729413548768143
42
0.84144323522622189
10
-86.647622844452002
20
-42.807002410885993
10
-84.725173463154775
20
-40.884553029588851
42
-0.082329014292987654
0
CIRCLE
5
101
100
AcDbEntity
8
0
100
AcDbCircle
10
-39.208926160654194
20
15.520848990904774
30
0
40
1.749999999999998
210
0
220
-0
230
1
0
CIRCLE
5
102
100
AcDbEntity
8
0
100
AcDbCircle
10
-93.316915437571907
20
-42.405227192140515
30
0
40
1.7499999999999893
210
0
220
-0
230
1
0
CIRCLE
5
103
100
AcDbEntity
8
0
100
AcDbCircle
10
-39.208926160654144
20
-15.520848990904845
30
0
40
1.7500000000000027
210
0
220
-0
230
1
0
CIRCLE
5
104
100
AcDbEntity
8
0
100
AcDbCircle
10
-93.316915437571907
20
42.405227192140543
30
0
40
1.7500000000000071
210
0
220
-0
230
1
0
ENDSEC
0
SECTION
2
OBJECTS
0
DICTIONARY
5
C
100
AcDbDictionary
3
ACAD_GROUP
350
D
3
ACAD_MLINESTYLE
350
17
0
DICTIONARY
5
D
100
AcDbDictionary
0
DICTIONARY
5
1A
330
C
100
AcDbDictionary
0
DICTIONARY
5
17
100
AcDbDictionary
0
ENDSEC
0
EOF
