0
SECTION
2
HEADER
9
$INSUNITS
70
4
9
$ACADVER
1
AC1014
9
$HANDSEED
5
FFFF
0
ENDSEC
0
SECTION
2
TABLES
0
TABLE
2
VPORT
5
8
100
AcDbSymbolTable
0
ENDTAB
0
TABLE
2
LTYPE
5
5
100
AcDbSymbolTable
0
LTYPE
5
14
100
AcDbSymbolTableRecord
100
AcDbLinetypeTableRecord
2
BYBLOCK
70
0
0
LTYPE
5
15
100
AcDbSymbolTableRecord
100
AcDbLinetypeTableRecord
2
BYLAYER
70
0
0
ENDTAB
0
TABLE
2
LAYER
5
2
100
AcDbSymbolTable
70
2
0
LAYER
5
50
100
AcDbSymbolTableRecord
100
AcDbLayerTableRecord
2
0
70
0
6
CONTINUOUS
0
ENDTAB
0
TABLE
2
STYLE
5
3
100
AcDbSymbolTable
70
1
0
STYLE
5
11
100
AcDbSymbolTableRecord
100
AcDbTextStyleTableRecord
2
STANDARD
70
0
0
ENDTAB
0
TABLE
2
VIEW
5
6
100
AcDbSymbolTable
70
0
0
ENDTAB
0
TABLE
2
UCS
5
7
100
AcDbSymbolTable
70
0
0
ENDTAB
0
TABLE
2
APPID
5
9
100
AcDbSymbolTable
70
2
0
APPID
5
12
100
AcDbSymbolTableRecord
100
AcDbRegAppTableRecord
2
ACAD
70
0
0
ENDTAB
0
TABLE
2
DIMSTYLE
5
A
100
AcDbSymbolTable
70
1
0
ENDTAB
0
TABLE
2
BLOCK_RECORD
5
1
100
AcDbSymbolTable
70
1
0
BLOCK_RECORD
5
1F
100
AcDbSymbolTableRecord
100
AcDbBlockTableRecord
2
*MODEL_SPACE
0
BLOCK_RECORD
5
1B
100
AcDbSymbolTableRecord
100
AcDbBlockTableRecord
2
*PAPER_SPACE
0
ENDTAB
0
ENDSEC
0
SECTION
2
BLOCKS
0
BLOCK
5
20
100
AcDbEntity
100
AcDbBlockBegin
2
*MODEL_SPACE
0
ENDBLK
5
21
100
AcDbEntity
100
AcDbBlockEnd
0
BLOCK
5
1C
100
AcDbEntity
100
AcDbBlockBegin
2
*PAPER_SPACE
0
ENDBLK
5
1D
100
AcDbEntity
100
AcDbBlockEnd
0
ENDSEC
0
SECTION
2
ENTITIES
0
LWPOLYLINE
5
100
100
AcDbEntity
8
0
100
AcDbPolyline
90
9
70
1
43
0.0
10
14.949999679252503
20
-25.00000037252903
10
26.96000032074749
20
-25.000000372529033
42
-0.41421356237310375
10
27.560000320747488
20
-25.600000372529035
10
27.560000320747488
20
-30.900000469386583
42
-0.41421356237310375
10
26.96000032074749
20
-31.500000469386581
10
20.954999999999995
20
-31.500000469386581
10
14.947640476710438
20
-31.499999351535628
42
-0.41306237039218296
10
14.349999679252498
20
-30.900003989750729
10
14.349999679252504
20
-25.600000372529024
42
-0.41421356237309287
0
CIRCLE
5
101
100
AcDbEntity
8
0
100
AcDbCircle
10
-33.559601441346032
20
-53.387705327300679
30
0
40
1.7499999999999893
210
-0
220
0
230
1
0
CIRCLE
5
102
100
AcDbEntity
8
0
100
AcDbCircle
10
33.559600919279411
20
-53.387705327300701
30
0
40
1.7499999999999893
210
-0
220
0
230
1
0
LWPOLYLINE
5
103
100
AcDbEntity
8
0
100
AcDbPolyline
90
21
70
1
43
0.0
10
42.121988843618645
20
-31.190950152043001
42
0.41421356237309692
10
42.121988810691434
20
-24.119882340177515
10
35.673391045663088
20
-17.671284635206405
10
17.234545168279542
20
0.76756279768191826
42
0.28442437915741997
10
12.111811318529387
20
1.9734208276327614
42
-0.16293357704074557
10
-12.111811345531526
20
1.9734206619079813
42
0.28442437190718611
10
-17.234545083922143
20
0.76756265672310442
10
-35.673391567729681
20
-17.671284635206387
10
-42.121989183762373
20
-24.119882191181844
42
0.41421356373698448
10
-42.121989200225997
20
-31.190950019510922
10
-33.813924745965274
20
-39.499014473771609
42
-0.40960430112841412
10
-33.758637029104285
20
-46.513916148894161
10
-33.813485649978155
20
-46.570521724067305
10
-37.09513534727877
20
-49.852171421367913
42
0.54786385778427338
10
-35.280606630080143
20
-58.082185185639673
42
0.17752424203075048
10
35.280606108013544
20
-58.082185185639752
42
0.54786385778427282
10
37.095134825212178
20
-49.852171421367913
10
33.813485127911534
20
-46.570521724067326
10
33.75863650703775
20
-46.513916148894154
42
-0.40960430112841467
10
33.813924223898738
20
-39.499014473771616
10
38.586455729699118
20
-34.726482967971222
0
CIRCLE
5
104
100
AcDbEntity
8
0
100
AcDbCircle
10
-32.137857678260566
20
-21.206818557602695
30
0
40
1.749999999999998
210
1.8991135491519602e-65
220
-1.8991135491519602e-65
230
1
0
CIRCLE
5
105
100
AcDbEntity
8
0
100
AcDbCircle
10
32.137857156193952
20
-21.206818557602766
30
0
40
1.749999999999998
210
1.8991135491519602e-65
220
-1.8991135491519602e-65
230
1
0
ENDSEC
0
SECTION
2
OBJECTS
0
DICTIONARY
5
C
100
AcDbDictionary
3
ACAD_GROUP
350
D
3
ACAD_MLINESTYLE
350
17
0
DICTIONARY
5
D
100
AcDbDictionary
0
DICTIONARY
5
1A
330
C
100
AcDbDictionary
0
DICTIONARY
5
17
100
AcDbDictionary
0
ENDSEC
0
EOF
