0
SECTION
2
HEADER
9
$INSUNITS
70
4
9
$ACADVER
1
AC1014
9
$HANDSEED
5
FFFF
0
ENDSEC
0
SECTION
2
TABLES
0
TABLE
2
VPORT
5
8
100
AcDbSymbolTable
0
ENDTAB
0
TABLE
2
LTYPE
5
5
100
AcDbSymbolTable
0
LTYPE
5
14
100
AcDbSymbolTableRecord
100
AcDbLinetypeTableRecord
2
BYBLOCK
70
0
0
LTYPE
5
15
100
AcDbSymbolTableRecord
100
AcDbLinetypeTableRecord
2
BYLAYER
70
0
0
ENDTAB
0
TABLE
2
LAYER
5
2
100
AcDbSymbolTable
70
2
0
LAYER
5
50
100
AcDbSymbolTableRecord
100
AcDbLayerTableRecord
2
0
70
0
6
CONTINUOUS
0
ENDTAB
0
TABLE
2
STYLE
5
3
100
AcDbSymbolTable
70
1
0
STYLE
5
11
100
AcDbSymbolTableRecord
100
AcDbTextStyleTableRecord
2
STANDARD
70
0
0
ENDTAB
0
TABLE
2
VIEW
5
6
100
AcDbSymbolTable
70
0
0
ENDTAB
0
TABLE
2
UCS
5
7
100
AcDbSymbolTable
70
0
0
ENDTAB
0
TABLE
2
APPID
5
9
100
AcDbSymbolTable
70
2
0
APPID
5
12
100
AcDbSymbolTableRecord
100
AcDbRegAppTableRecord
2
ACAD
70
0
0
ENDTAB
0
TABLE
2
DIMSTYLE
5
A
100
AcDbSymbolTable
70
1
0
ENDTAB
0
TABLE
2
BLOCK_RECORD
5
1
100
AcDbSymbolTable
70
1
0
BLOCK_RECORD
5
1F
100
AcDbSymbolTableRecord
100
AcDbBlockTableRecord
2
*MODEL_SPACE
0
BLOCK_RECORD
5
1B
100
AcDbSymbolTableRecord
100
AcDbBlockTableRecord
2
*PAPER_SPACE
0
ENDTAB
0
ENDSEC
0
SECTION
2
BLOCKS
0
BLOCK
5
20
100
AcDbEntity
100
AcDbBlockBegin
2
*MODEL_SPACE
0
ENDBLK
5
21
100
AcDbEntity
100
AcDbBlockEnd
0
BLOCK
5
1C
100
AcDbEntity
100
AcDbBlockBegin
2
*PAPER_SPACE
0
ENDBLK
5
1D
100
AcDbEntity
100
AcDbBlockEnd
0
ENDSEC
0
SECTION
2
ENTITIES
0
LWPOLYLINE
5
100
100
AcDbEntity
8
0
100
AcDbPolyline
90
30
70
1
43
0.0
10
-10.000000149011612
20
-102.913798486416
42
0.38335883284893185
10
-10.893719920159043
20
-101.91946226915599
42
-0.061303211258200645
10
-35.280602831825306
20
-96.236837095948701
42
-0.58292775242076678
10
-36.700131740853649
20
-87.651721610775454
10
-34.204937132079571
20
-85.076617312423053
42
0.4453893505520346
10
-33.813920749200989
20
-77.653666185571026
10
-43.908501371487532
20
-67.559086615132529
42
0.95439176701883177
10
-47.609078623678883
20
-70.929576799793693
10
-40.884549663588821
20
-77.654105822510815
42
-0.41421356237309653
10
-40.884549663588814
20
-84.72517363437629
10
-42.807000642275256
20
-86.647624613062732
42
0.53774960716526876
10
-40.137094991987624
20
-99.725942490428068
42
0.19368759711118386
10
40.137095240336826
20
-99.725943814113464
42
0.53774961779422437
10
42.807002410886028
20
-86.647622844452002
10
40.884549663588814
20
-84.725173634376304
42
-0.41421356237309503
10
40.884549663588814
20
-77.6541058225108
10
47.609078623678883
20
-70.929576799793693
42
0.95439149162533365
10
43.908502392808046
20
-67.55908559384649
10
33.81510591391956
20
-77.652481814890706
42
0.40970213574503261
10
33.758633230849561
20
-84.668568059203139
10
34.922963259198006
20
-85.870194825675611
42
-0.039693887876155284
10
35.164217099594531
20
-86.075908882247475
10
37.095131549023975
20
-88.006823331676912
42
-0.54786342599236582
10
35.28060990626517
20
-96.236837095949738
42
-0.061303228569406475
10
10.893719963626541
20
-101.91946302066577
42
0.38335885262994029
10
10.000000123884149
20
-102.91379924525765
10
10.000000123884142
20
-105.70000132068644
42
-0.41421356237309503
10
9.0000001238841456
20
-106.70000132068644
10
-9.0000001490116119
20
-106.70000132068644
42
-0.41421356237309503
10
-10.000000149011612
20
-105.70000132068644
0
CIRCLE
5
101
100
AcDbEntity
8
0
100
AcDbCircle
10
-42.40522365491902
20
-93.316915437571936
30
0
40
1.4499999999999957
210
5.310416783694222e-166
220
-1.1869459682199748e-66
230
1
0
CIRCLE
5
102
100
AcDbEntity
8
0
100
AcDbCircle
10
42.405227192140501
20
-93.31691543757195
30
0
40
1.4500000000000046
210
0
220
-0
230
1
0
CIRCLE
5
103
100
AcDbEntity
8
0
100
AcDbCircle
10
-45.68009243852952
20
-69.330736467863375
30
0
40
1.4499999999999957
210
5.310416783694222e-166
220
-1.1869459682199748e-66
230
1
0
CIRCLE
5
104
100
AcDbEntity
8
0
100
AcDbCircle
10
45.68009243852952
20
-69.330736467863375
30
0
40
1.4500000000000046
210
0
220
-0
230
1
0
ENDSEC
0
SECTION
2
OBJECTS
0
DICTIONARY
5
C
100
AcDbDictionary
3
ACAD_GROUP
350
D
3
ACAD_MLINESTYLE
350
17
0
DICTIONARY
5
D
100
AcDbDictionary
0
DICTIONARY
5
1A
330
C
100
AcDbDictionary
0
DICTIONARY
5
17
100
AcDbDictionary
0
ENDSEC
0
EOF
