0
SECTION
2
HEADER
9
$INSUNITS
70
4
9
$ACADVER
1
AC1014
9
$HANDSEED
5
FFFF
0
ENDSEC
0
SECTION
2
TABLES
0
TABLE
2
VPORT
5
8
100
AcDbSymbolTable
0
ENDTAB
0
TABLE
2
LTYPE
5
5
100
AcDbSymbolTable
0
LTYPE
5
14
100
AcDbSymbolTableRecord
100
AcDbLinetypeTableRecord
2
BYBLOCK
70
0
0
LTYPE
5
15
100
AcDbSymbolTableRecord
100
AcDbLinetypeTableRecord
2
BYLAYER
70
0
0
LTYPE
5
16
100
AcDbSymbolTableRecord
100
AcDbLinetypeTableRecord
2
DASHED
70
0
3
Dashed __ __ __ __ __ __ __ __ __ __ __ __ __ _
72
65
73
2
40
0.75
49
0.5
74
0
49
-0.25
74
0
0
ENDTAB
0
TABLE
2
LAYER
5
2
100
AcDbSymbolTable
70
3
0
LAYER
5
50
100
AcDbSymbolTableRecord
100
AcDbLayerTableRecord
2
1
70
0
62
7
6
DASHED
0
LAYER
5
51
100
AcDbSymbolTableRecord
100
AcDbLayerTableRecord
2
0
70
0
62
7
6
CONTINUOUS
0
ENDTAB
0
TABLE
2
STYLE
5
3
100
AcDbSymbolTable
70
1
0
STYLE
5
11
100
AcDbSymbolTableRecord
100
AcDbTextStyleTableRecord
2
STANDARD
70
0
0
ENDTAB
0
TABLE
2
VIEW
5
6
100
AcDbSymbolTable
70
0
0
ENDTAB
0
TABLE
2
UCS
5
7
100
AcDbSymbolTable
70
0
0
ENDTAB
0
TABLE
2
APPID
5
9
100
AcDbSymbolTable
70
2
0
APPID
5
12
100
AcDbSymbolTableRecord
100
AcDbRegAppTableRecord
2
ACAD
70
0
0
ENDTAB
0
TABLE
2
DIMSTYLE
5
A
100
AcDbSymbolTable
70
1
0
ENDTAB
0
TABLE
2
BLOCK_RECORD
5
1
100
AcDbSymbolTable
70
1
0
BLOCK_RECORD
5
1F
100
AcDbSymbolTableRecord
100
AcDbBlockTableRecord
2
*MODEL_SPACE
0
BLOCK_RECORD
5
1B
100
AcDbSymbolTableRecord
100
AcDbBlockTableRecord
2
*PAPER_SPACE
0
ENDTAB
0
ENDSEC
0
SECTION
2
BLOCKS
0
BLOCK
5
20
100
AcDbEntity
100
AcDbBlockBegin
2
*MODEL_SPACE
0
ENDBLK
5
21
100
AcDbEntity
100
AcDbBlockEnd
0
BLOCK
5
1C
100
AcDbEntity
100
AcDbBlockBegin
2
*PAPER_SPACE
0
ENDBLK
5
1D
100
AcDbEntity
100
AcDbBlockEnd
0
ENDSEC
0
SECTION
2
ENTITIES
0
LWPOLYLINE
5
100
100
AcDbEntity
8
0
100
AcDbPolyline
90
8
70
1
43
0.0
10
26.132500000000039
20
8.3200000000000287
10
19.68250000000004
20
8.3200000000000287
10
19.68250000000004
20
6.3200000000000252
10
5.0825000000000387
20
6.3200000000000252
10
5.0825000000000387
20
8.3200000000000287
10
-1.367499999999966
20
8.3200000000000287
10
-1.367499999999966
20
-19.48
10
26.132500000000039
20
-19.48
0
LWPOLYLINE
5
101
100
AcDbEntity
8
0
100
AcDbPolyline
90
4
70
1
43
0.0
10
15.19250000000004
20
-16.779999999999994
10
17.192500000000042
20
-16.779999999999994
10
17.192500000000042
20
-18.779999999999998
10
15.19250000000004
20
-18.779999999999998
0
LWPOLYLINE
5
102
100
AcDbEntity
8
0
100
AcDbPolyline
90
4
70
1
43
0.0
10
-1.3574999999999626
20
-15.509999999999998
10
-1.3574999999999626
20
4.3500000000000245
10
26.122500000000038
20
4.3500000000000245
10
26.122500000000038
20
-15.509999999999998
0
LINE
5
103
100
AcDbEntity
8
0
100
AcDbLine
10
15.753032084000038
20
-15.670000067999993
30
-4.4408920985006262e-15
11
15.753032084000038
21
-16.470000049999992
31
-4.4408920985006262e-15
0
LINE
5
104
100
AcDbEntity
8
0
100
AcDbLine
10
15.753032084000038
20
-16.470000049999992
30
-4.4408920985006262e-15
11
15.477452244000034
21
-16.470000049999992
31
-4.4408920985006262e-15
0
SPLINE
5
105
100
AcDbEntity
8
0
100
AcDbSpline
70
0
71
3
72
11
73
7
74
0
42
0.000000001
43
0.0000000001
44
0.0000000001
40
0
40
0
40
0
40
0
40
8.2357658520388268e-05
40
8.2357658520388268e-05
40
8.2357658520388268e-05
40
0.000143151
40
0.000143151
40
0.000143151
40
0.000143151
10
15.477452244000034
20
-16.470000049999992
30
-4.4408920985006262e-15
10
15.450000015257643
20
-16.469886703943647
30
-4.4408920985006262e-15
10
15.42249199064476
20
-16.469776076423134
30
-4.4408920985006262e-15
10
15.395187704691189
20
-16.467135153358651
30
-4.4408920985006262e-15
10
15.375032702598439
20
-16.465185722782728
30
-2.2204460492503131e-15
10
15.355014455001577
20
-16.461860048594922
30
-4.4408920985006262e-15
10
15.335023965000039
20
-16.458540311999993
30
-4.4408920985006262e-15
0
SPLINE
5
106
100
AcDbEntity
8
0
100
AcDbSpline
70
0
71
3
72
11
73
7
74
0
42
0.000000001
43
0.0000000001
44
0.0000000001
40
0
40
0
40
0
40
0
40
6.7610139158619535e-05
40
6.7610139158619535e-05
40
6.7610139158619535e-05
40
0.00013181099999999999
40
0.00013181099999999999
40
0.00013181099999999999
40
0.00013181099999999999
10
15.335023965000039
20
-16.458540311999993
30
-4.4408920985006262e-15
10
15.313331195701156
20
-16.452430053021402
30
-4.4408920985006262e-15
10
15.291476078438748
20
-16.446309058624347
30
-6.6613381477509392e-15
10
15.271313153533006
20
-16.436302861195657
30
-6.6613381477509392e-15
10
15.252166955164856
20
-16.426801231755675
30
-4.4408920985006262e-15
10
15.234894325036468
20
-16.413973712032433
30
-4.4408920985006262e-15
10
15.217697885000039
20
-16.401241547999991
30
-4.4408920985006262e-15
0
SPLINE
5
107
100
AcDbEntity
8
0
100
AcDbSpline
70
0
71
3
72
11
73
7
74
0
42
0.000000001
43
0.0000000001
44
0.0000000001
40
0
40
0
40
0
40
0
40
8.2630114977387081e-05
40
8.2630114977387081e-05
40
8.2630114977387081e-05
40
0.00016791199999999999
40
0.00016791199999999999
40
0.00016791199999999999
40
0.00016791199999999999
10
15.217697885000039
20
-16.401241547999991
30
-4.4408920985006262e-15
10
15.197950797972286
20
-16.382040076612419
30
-4.4408920985006262e-15
10
15.17812848195752
20
-16.362836991741453
30
-2.2204460492503131e-15
10
15.162377025493017
20
-16.340327462897321
30
-2.2204460492503131e-15
10
15.146120072449794
20
-16.31709555705616
30
-6.6613381477509392e-15
10
15.13451077574345
20
-16.290655895644722
30
-4.4408920985006262e-15
10
15.123018291000037
20
-16.264542988999992
30
-4.4408920985006262e-15
0
SPLINE
5
108
100
AcDbEntity
8
0
100
AcDbSpline
70
0
71
3
72
11
73
7
74
0
42
0.000000001
43
0.0000000001
44
0.0000000001
40
0
40
0
40
0
40
0
40
9.2340144011464754e-05
40
9.2340144011464754e-05
40
9.2340144011464754e-05
40
0.00019377500000000001
40
0.00019377500000000001
40
0.00019377500000000001
40
0.00019377500000000001
10
15.123018291000037
20
-16.264542988999992
30
-4.4408920985006262e-15
10
15.113902501710941
20
-16.235143553055934
30
-4.4408920985006262e-15
10
15.104758039930033
20
-16.205732991824068
30
-4.4408920985006262e-15
10
15.099485184594466
20
-16.175388893886812
30
-4.4408920985006262e-15
10
15.093692998245434
20
-16.142056162631967
30
-4.4408920985006262e-15
10
15.092678771426185
20
-16.108155965286745
30
-4.4408920985006262e-15
10
15.091640617000044
20
-16.074365726999989
30
-4.4408920985006262e-15
0
SPLINE
5
109
100
AcDbEntity
8
0
100
AcDbSpline
70
0
71
3
72
11
73
7
74
0
42
0.000000001
43
0.0000000001
44
0.0000000001
40
0
40
0
40
0
40
0
40
8.1716000000000002e-05
40
8.1716000000000002e-05
40
8.1716000000000002e-05
40
0.00016343099999999999
40
0.00016343099999999999
40
0.00016343099999999999
40
0.00016343099999999999
10
15.091640617000044
20
-16.074365726999989
30
-4.4408920985006262e-15
10
15.092281434138037
20
-16.047134676003235
30
-4.4408920985006262e-15
10
15.092913211356169
20
-16.019887153432293
30
-4.4408920985006262e-15
10
15.096362738991873
20
-15.992891912308092
30
-4.4408920985006262e-15
10
15.099812224413967
20
-15.965897001538298
30
-4.4408920985006262e-15
10
15.106374198516486
20
-15.939311738127744
30
-4.4408920985006262e-15
10
15.11292305200004
20
-15.912837735999993
30
-4.4408920985006262e-15
0
SPLINE
5
110
100
AcDbEntity
8
0
100
AcDbSpline
70
0
71
3
72
11
73
7
74
0
42
0.000000001
43
0.0000000001
44
0.0000000001
40
0
40
0
40
0
40
0
40
6.4605999999999998e-05
40
6.4605999999999998e-05
40
6.4605999999999998e-05
40
0.00012921100000000001
40
0.00012921100000000001
40
0.00012921100000000001
40
0.00012921100000000001
10
15.11292305200004
20
-15.912837735999993
30
-4.4408920985006262e-15
10
15.11964516404662
20
-15.892378371015301
30
-4.4408920985006262e-15
10
15.126372040481622
20
-15.871869132948246
30
-2.2204460492503131e-15
10
15.135408661696372
20
-15.852324112856975
30
-2.2204460492503131e-15
10
15.144445143038343
20
-15.832779395292098
30
-4.4408920985006262e-15
10
15.155979695759783
20
-15.814528459480663
30
-4.4408920985006262e-15
10
15.167493190000041
20
-15.796330175999994
30
-4.4408920985006262e-15
0
SPLINE
5
111
100
AcDbEntity
8
0
100
AcDbSpline
70
0
71
3
72
11
73
7
74
0
42
0.000000001
43
0.0000000001
44
0.0000000001
40
0
40
0
40
0
40
0
40
5.4061391616921139e-05
40
5.4061391616921139e-05
40
5.4061391616921139e-05
40
0.000103354
40
0.000103354
40
0.000103354
40
0.000103354
10
15.167493190000041
20
-15.796330175999994
30
-4.4408920985006262e-15
10
15.178485635722874
20
-15.782050342306686
30
-4.4408920985006262e-15
10
15.1894987299801
20
-15.767726110148793
30
-6.6613381477509392e-15
10
15.202349689828196
20
-15.755129656044575
30
-6.6613381477509392e-15
10
15.214067059880891
20
-15.743644341652839
30
-2.2204460492503131e-15
10
15.227240314522161
20
-15.73367575348076
30
-4.4408920985006262e-15
10
15.240344669000043
20
-15.723751834999993
30
-4.4408920985006262e-15
0
SPLINE
5
112
100
AcDbEntity
8
0
100
AcDbSpline
70
0
71
3
72
11
73
7
74
0
42
0.000000001
43
0.0000000001
44
0.0000000001
40
0
40
0
40
0
40
0
40
4.9547733461754858e-05
40
4.9547733461754858e-05
40
4.9547733461754858e-05
40
0.000104094
40
0.000104094
40
0.000104094
40
0.000104094
10
15.240344669000043
20
-15.723751834999993
30
-4.4408920985006262e-15
10
15.254587688468471
20
-15.715389934632306
30
-4.4408920985006262e-15
10
15.268855928036658
20
-15.707004495313548
30
-6.6613381477509392e-15
10
15.284000896967216
20
-15.700491123354695
30
-6.6613381477509392e-15
10
15.300673738574346
20
-15.693320661698662
30
-4.4408920985006262e-15
10
15.318306023369281
20
-15.688471954518981
30
-4.4408920985006262e-15
10
15.335842635000034
20
-15.683642676999995
30
-4.4408920985006262e-15
0
SPLINE
5
113
100
AcDbEntity
8
0
100
AcDbSpline
70
0
71
3
72
11
73
7
74
0
42
0.000000001
43
0.0000000001
44
0.0000000001
40
0
40
0
40
0
40
0
40
6.0985964101202497e-05
40
6.0985964101202497e-05
40
6.0985964101202497e-05
40
0.00012951999999999999
40
0.00012951999999999999
40
0.00012951999999999999
40
0.00012951999999999999
10
15.335842635000034
20
-15.683642676999995
30
-4.4408920985006262e-15
10
15.355780137075001
20
-15.679673622111423
30
-4.4408920985006262e-15
10
15.375743571438401
20
-15.675696083846429
30
-4.4408920985006262e-15
10
15.395937826872901
20
-15.67341064588112
30
-4.4408920985006262e-15
10
15.418631471997575
20
-15.67084234529152
30
-4.4408920985006262e-15
10
15.441513389156425
20
-15.670422928982086
30
-4.4408920985006262e-15
10
15.464355614000036
20
-15.670000067999993
30
-4.4408920985006262e-15
0
LINE
5
114
100
AcDbEntity
8
0
100
AcDbLine
10
15.464355614000036
20
-15.670000067999993
30
-4.4408920985006262e-15
11
15.753032084000038
21
-15.670000067999993
31
-4.4408920985006262e-15
0
LINE
5
115
100
AcDbEntity
8
0
100
AcDbLine
10
13.319198455000034
20
-15.95049118199999
30
-4.4408920985006262e-15
11
13.213331964000039
21
-15.923751792999994
31
-4.4408920985006262e-15
0
SPLINE
5
116
100
AcDbEntity
8
0
100
AcDbSpline
70
0
71
3
72
11
73
7
74
0
42
0.000000001
43
0.0000000001
44
0.0000000001
40
0
40
0
40
0
40
0
40
0.00012443536169552024
40
0.00012443536169552024
40
0.00012443536169552024
40
0.00023625600000000001
40
0.00023625600000000001
40
0.00023625600000000001
40
0.00023625600000000001
10
13.213331964000039
20
-15.923751792999994
30
-4.4408920985006262e-15
10
13.225617740672995
20
-15.884134419262882
30
-4.4408920985006262e-15
10
13.237934184751516
20
-15.843883238255039
30
-4.4408920985006262e-15
10
13.259921339792884
20
-15.808813173684456
30
-4.4408920985006262e-15
10
13.279679531336877
20
-15.777298361879929
30
-4.4408920985006262e-15
10
13.306607014778802
20
-15.750956542900663
30
-4.4408920985006262e-15
10
13.333113756000046
20
-15.724843195999995
30
-4.4408920985006262e-15
0
SPLINE
5
117
100
AcDbEntity
8
0
100
AcDbSpline
70
0
71
3
72
11
73
7
74
0
42
0.000000001
43
0.0000000001
44
0.0000000001
40
0
40
0
40
0
40
0
40
0.00010932629728775195
40
0.00010932629728775195
40
0.00010932629728775195
40
0.000226195
40
0.000226195
40
0.000226195
40
0.000226195
10
13.333113756000046
20
-15.724843195999995
30
-4.4408920985006262e-15
10
13.363777942339699
20
-15.705152159660972
30
-4.4408920985006262e-15
10
13.394697194619765
20
-15.685111226745963
30
-4.4408920985006262e-15
10
13.429225349074327
20
-15.673478894014581
30
-4.4408920985006262e-15
10
13.466135595906641
20
-15.661044048331885
30
-6.6613381477509392e-15
10
13.505662909334992
20
-15.658766229731814
30
-4.4408920985006262e-15
10
13.544573452000037
20
-15.65635745899999
30
-4.4408920985006262e-15
0
SPLINE
5
118
100
AcDbEntity
8
0
100
AcDbSpline
70
0
71
3
72
11
73
7
74
0
42
0.000000001
43
0.0000000001
44
0.0000000001
40
0
40
0
40
0
40
0
40
0.00011831817979486632
40
0.00011831817979486632
40
0.00011831817979486632
40
0.000219593
40
0.000219593
40
0.000219593
40
0.000219593
10
13.544573452000037
20
-15.65635745899999
30
-4.4408920985006262e-15
10
13.58398757006861
20
-15.657776221596297
30
-4.4408920985006262e-15
10
13.623838256248018
20
-15.659101964283471
30
-6.6613381477509392e-15
10
13.661831284071573
20
-15.66952263474251
30
-6.6613381477509392e-15
10
13.69435153639925
20
-15.678442240579802
30
-2.2204460492503131e-15
10
13.724778195280161
20
-15.693835784202651
30
-4.4408920985006262e-15
10
13.754941787000039
20
-15.709017864999989
30
-4.4408920985006262e-15
0
SPLINE
5
119
100
AcDbEntity
8
0
100
AcDbSpline
70
0
71
3
72
11
73
7
74
0
42
0.000000001
43
0.0000000001
44
0.0000000001
40
0
40
0
40
0
40
0
40
9.6505049522701707e-05
40
9.6505049522701707e-05
40
9.6505049522701707e-05
40
0.000199204
40
0.000199204
40
0.000199204
40
0.000199204
10
13.754941787000039
20
-15.709017864999989
30
-4.4408920985006262e-15
10
13.780288451312606
20
-15.72882596104613
30
-4.4408920985006262e-15
10
13.805757579971871
20
-15.748564933992238
30
-2.2204460492503131e-15
10
13.826292419847368
20
-15.773478945397045
30
-2.2204460492503131e-15
10
13.848145229766269
20
-15.79999199146156
30
-6.6613381477509392e-15
10
13.863179971409343
20
-15.830882259052665
30
-4.4408920985006262e-15
10
13.878270652000033
20
-15.861541679999993
30
-4.4408920985006262e-15
0
SPLINE
5
120
100
AcDbEntity
8
0
100
AcDbSpline
70
0
71
3
72
11
73
7
74
0
42
0.000000001
43
0.0000000001
44
0.0000000001
40
0
40
0
40
0
40
0
40
0.00010842931851569184
40
0.00010842931851569184
40
0.00010842931851569184
40
0.00021991299999999999
40
0.00021991299999999999
40
0.00021991299999999999
40
0.00021991299999999999
10
13.878270652000033
20
-15.861541679999993
30
-4.4408920985006262e-15
10
13.890543719293191
20
-15.895537369834729
30
-4.4408920985006262e-15
10
13.902891504404193
20
-15.929633196329164
30
-4.4408920985006262e-15
10
13.909989561110327
20
-15.965088656149064
30
-4.4408920985006262e-15
10
13.917287564121112
20
-16.001542866537463
30
-6.6613381477509392e-15
10
13.918911618203715
20
-16.038862691796311
30
-4.4408920985006262e-15
10
13.920562532000034
20
-16.076002768999999
30
-4.4408920985006262e-15
0
SPLINE
5
121
100
AcDbEntity
8
0
100
AcDbSpline
70
0
71
3
72
11
73
7
74
0
42
0.000000001
43
0.0000000001
44
0.0000000001
40
0
40
0
40
0
40
0
40
0.00011780127449124627
40
0.00011780127449124627
40
0.00011780127449124627
40
0.00022512000000000001
40
0.00022512000000000001
40
0.00022512000000000001
40
0.00022512000000000001
10
13.920562532000034
20
-16.076002768999999
30
-4.4408920985006262e-15
10
13.918980285433236
20
-16.115238095159544
30
-4.4408920985006262e-15
10
13.917448238611048
20
-16.154744255530332
30
-4.4408920985006262e-15
10
13.908625210541166
20
-16.192987764233898
30
-4.4408920985006262e-15
10
13.900587299816722
20
-16.227828173480518
30
-4.4408920985006262e-15
10
13.88663330449976
20
-16.261018032263856
30
-4.4408920985006262e-15
10
13.872813549000043
20
-16.294010928999999
30
-4.4408920985006262e-15
0
SPLINE
5
122
100
AcDbEntity
8
0
100
AcDbSpline
70
0
71
3
72
11
73
7
74
0
42
0.000000001
43
0.0000000001
44
0.0000000001
40
0
40
0
40
0
40
0
40
0.00010057935806169362
40
0.00010057935806169362
40
0.00010057935806169362
40
0.00019925300000000001
40
0.00019925300000000001
40
0.00019925300000000001
40
0.00019925300000000001
10
13.872813549000043
20
-16.294010928999999
30
-4.4408920985006262e-15
10
13.855562454262174
20
-16.322758477627165
30
-4.4408920985006262e-15
10
13.838389401579168
20
-16.351664071939712
30
-4.4408920985006262e-15
10
13.814969030251509
20
-16.375866433705312
30
-4.4408920985006262e-15
10
13.791992413786831
20
-16.399610223931699
30
-4.4408920985006262e-15
10
13.764398389265855
20
-16.417427037842668
30
-4.4408920985006262e-15
10
13.736933734000036
20
-16.435347995999997
30
-4.4408920985006262e-15
0
SPLINE
5
123
100
AcDbEntity
8
0
100
AcDbSpline
70
0
71
3
72
11
73
7
74
0
42
0.000000001
43
0.0000000001
44
0.0000000001
40
0
40
0
40
0
40
0
40
9.9638237652743849e-05
40
9.9638237652743849e-05
40
9.9638237652743849e-05
40
0.00020214199999999999
40
0.00020214199999999999
40
0.00020214199999999999
40
0.00020214199999999999
10
13.736933734000036
20
-16.435347995999997
30
-4.4408920985006262e-15
10
13.706807135729218
20
-16.449329315570541
30
-4.4408920985006262e-15
10
13.676499035206922
20
-16.463451149470934
30
-6.6613381477509392e-15
10
13.644368912792588
20
-16.471568993741158
30
-6.6613381477509392e-15
10
13.611314750959416
20
-16.47992030142634
30
-2.2204460492503131e-15
10
13.576988547091631
20
-16.481758585545364
30
-4.4408920985006262e-15
10
13.542936410000044
20
-16.483642659999994
30
-4.4408920985006262e-15
0
SPLINE
5
124
100
AcDbEntity
8
0
100
AcDbSpline
70
0
71
3
72
11
73
7
74
0
42
0.000000001
43
0.0000000001
44
0.0000000001
40
0
40
0
40
0
40
0
40
0.00011193225732365763
40
0.00011193225732365763
40
0.00011193225732365763
40
0.00021428500000000001
40
0.00021428500000000001
40
0.00021428500000000001
40
0.00021428500000000001
10
13.542936410000044
20
-16.483642659999994
30
-4.4408920985006262e-15
10
13.505681725914815
20
-16.481597831335741
30
-4.4408920985006262e-15
10
13.46800826959857
20
-16.479692746757987
30
-4.4408920985006262e-15
10
13.432431780279055
20
-16.468363007706511
30
-4.4408920985006262e-15
10
13.399900038815824
20
-16.458002903358974
30
-4.4408920985006262e-15
10
13.370321385536252
20
-16.440109579704622
30
-4.4408920985006262e-15
10
13.341026570000034
20
-16.422523981999998
30
-4.4408920985006262e-15
0
SPLINE
5
125
100
AcDbEntity
8
0
100
AcDbSpline
70
0
71
3
72
11
73
7
74
0
42
0.000000001
43
0.0000000001
44
0.0000000001
40
0
40
0
40
0
40
0
40
0.00010150043111514219
40
0.00010150043111514219
40
0.00010150043111514219
40
0.000209466
40
0.000209466
40
0.000209466
40
0.000209466
10
13.341026570000034
20
-16.422523981999998
30
-4.4408920985006262e-15
10
13.315964317141757
20
-16.399795224071919
30
-4.4408920985006262e-15
10
13.290650620963973
20
-16.37705177842529
30
-2.2204460492503131e-15
10
13.271585668224111
20
-16.348990550160071
30
-2.2204460492503131e-15
10
13.25130636058268
20
-16.319141943213523
30
-6.6613381477509392e-15
10
13.23912566991301
20
-16.284629092090665
30
-4.4408920985006262e-15
10
13.226974573000039
20
-16.250627688999998
30
-4.4408920985006262e-15
0
LINE
5
126
100
AcDbEntity
8
0
100
AcDbLine
10
13.226974573000048
20
-16.250627688999998
30
-4.4408920985006262e-15
11
13.331203725000043
21
-16.226071021999996
31
-4.4408920985006262e-15
0
SPLINE
5
127
100
AcDbEntity
8
0
100
AcDbSpline
70
0
71
3
72
11
73
7
74
0
42
0.000000001
43
0.0000000001
44
0.0000000001
40
0
40
0
40
0
40
0
40
8.3177762126836405e-05
40
8.3177762126836405e-05
40
8.3177762126836405e-05
40
0.00015340800000000001
40
0.00015340800000000001
40
0.00015340800000000001
40
0.00015340800000000001
10
13.331203725000043
20
-16.226071021999996
30
-4.4408920985006262e-15
10
13.340530782810855
20
-16.252181277883238
30
-4.4408920985006262e-15
10
13.349990368296805
20
-16.278772550823174
30
-4.4408920985006262e-15
10
13.365310098677261
20
-16.301514409125563
30
-4.4408920985006262e-15
10
13.378245146233985
20
-16.320716249586468
30
-4.4408920985006262e-15
10
13.395180743704955
20
-16.337008909122911
30
-4.4408920985006262e-15
10
13.411967721000044
20
-16.353219724999995
30
-4.4408920985006262e-15
0
SPLINE
5
128
100
AcDbEntity
8
0
100
AcDbSpline
70
0
71
3
72
11
73
7
74
0
42
0.000000001
43
0.0000000001
44
0.0000000001
40
0
40
0
40
0
40
0
40
6.700644088598648e-05
40
6.700644088598648e-05
40
6.700644088598648e-05
40
0.00014189899999999999
40
0.00014189899999999999
40
0.00014189899999999999
40
0.00014189899999999999
10
13.411967721000044
20
-16.353219724999995
30
-4.4408920985006262e-15
10
13.43113577871951
20
-16.364686361740549
30
-4.4408920985006262e-15
10
13.450603312613358
20
-16.37638304135773
30
-4.4408920985006262e-15
10
13.471721974964526
20
-16.3830969260488
30
-4.4408920985006262e-15
10
13.495326133723449
20
-16.390600980874911
30
-4.4408920985006262e-15
10
13.520320510353976
20
-16.391781432361473
30
-4.4408920985006262e-15
10
13.545119133000041
20
-16.393056042000001
30
-4.4408920985006262e-15
0
SPLINE
5
129
100
AcDbEntity
8
0
100
AcDbSpline
70
0
71
3
72
11
73
7
74
0
42
0.000000001
43
0.0000000001
44
0.0000000001
40
0
40
0
40
0
40
0
40
8.5774763444049524e-05
40
8.5774763444049524e-05
40
8.5774763444049524e-05
40
0.00016339800000000001
40
0.00016339800000000001
40
0.00016339800000000001
40
0.00016339800000000001
10
13.545119133000041
20
-16.393056042000001
30
-4.4408920985006262e-15
10
13.573675854054255
20
-16.39164067819317
30
-4.4408920985006262e-15
10
13.602730885082037
20
-16.390240002028222
30
-4.4408920985006262e-15
10
13.629771435584006
20
-16.382005564943803
30
-4.4408920985006262e-15
10
13.654242211881584
20
-16.374553680123093
30
-4.4408920985006262e-15
10
13.676853185950817
20
-16.361622724532147
30
-4.4408920985006262e-15
10
13.69928028800004
20
-16.348854130999996
30
-4.4408920985006262e-15
0
SPLINE
5
130
100
AcDbEntity
8
0
100
AcDbSpline
70
0
71
3
72
11
73
7
74
0
42
0.000000001
43
0.0000000001
44
0.0000000001
40
0
40
0
40
0
40
0
40
7.4160791446777034e-05
40
7.4160791446777034e-05
40
7.4160791446777034e-05
40
0.00015012399999999999
40
0.00015012399999999999
40
0.00015012399999999999
40
0.00015012399999999999
10
13.69928028800004
20
-16.348854130999996
30
-4.4408920985006262e-15
10
13.718199476626678
20
-16.332942631313788
30
-4.4408920985006262e-15
10
13.737467336886908
20
-16.316792505320215
30
-6.6613381477509392e-15
10
13.752008643948281
20
-16.297080566788548
30
-6.6613381477509392e-15
10
13.766903365530796
20
-16.27688954578597
30
-4.4408920985006262e-15
10
13.776608546660354
20
-16.253427311816782
30
-4.4408920985006262e-15
10
13.786319758000039
20
-16.230163774999994
30
-4.4408920985006262e-15
0
SPLINE
5
131
100
AcDbEntity
8
0
100
AcDbSpline
70
0
71
3
72
11
73
7
74
0
42
0.000000001
43
0.0000000001
44
0.0000000001
40
0
40
0
40
0
40
0
40
7.8024314580391654e-05
40
7.8024314580391654e-05
40
7.8024314580391654e-05
40
0.000156336
40
0.000156336
40
0.000156336
40
0.000156336
10
13.786319758000039
20
-16.230163774999994
30
-4.4408920985006262e-15
10
13.793617417647468
20
-16.205200393125093
30
-4.4408920985006262e-15
10
13.800950053976715
20
-16.180151547675955
30
-4.4408920985006262e-15
10
13.805146481822836
20
-16.154515717734071
30
-4.4408920985006262e-15
10
13.809358365504716
20
-16.128785468635748
30
-4.4408920985006262e-15
10
13.810386655826958
20
-16.102621572656307
30
-4.4408920985006262e-15
10
13.811421957000043
20
-16.076548448999993
30
-4.4408920985006262e-15
0
SPLINE
5
132
100
AcDbEntity
8
0
100
AcDbSpline
70
0
71
3
72
11
73
7
74
0
42
0.000000001
43
0.0000000001
44
0.0000000001
40
0
40
0
40
0
40
0
40
9.6020193633695631e-05
40
9.6020193633695631e-05
40
9.6020193633695631e-05
40
0.00018162399999999999
40
0.00018162399999999999
40
0.00018162399999999999
40
0.00018162399999999999
10
13.811421957000043
20
-16.076548448999993
30
-4.4408920985006262e-15
10
13.810493054147202
20
-16.044555171193643
30
-4.4408920985006262e-15
10
13.809589031603897
20
-16.012486754982831
30
-4.4408920985006262e-15
10
13.803986873829048
20
-15.980982387381136
30
-4.4408920985006262e-15
10
13.798992444936067
20
-15.952895651853858
30
-4.4408920985006262e-15
10
13.790311435633464
20
-15.92558377335461
30
-4.4408920985006262e-15
10
13.781681325000044
20
-15.898376605999992
30
-4.4408920985006262e-15
0
SPLINE
5
133
100
AcDbEntity
8
0
100
AcDbSpline
70
0
71
3
72
11
73
7
74
0
42
0.000000001
43
0.0000000001
44
0.0000000001
40
0
40
0
40
0
40
0
40
7.6929566681348515e-05
40
7.6929566681348515e-05
40
7.6929566681348515e-05
40
0.00014975500000000001
40
0.00014975500000000001
40
0.00014975500000000001
40
0.00014975500000000001
10
13.781681325000044
20
-15.898376605999992
30
-4.4408920985006262e-15
10
13.770869211998713
20
-15.875123959856069
30
-4.4408920985006262e-15
10
13.759899526824162
20
-15.85140237078118
30
-6.6613381477509392e-15
10
13.743686640715724
20
-15.831868996339225
30
-6.6613381477509392e-15
10
13.728338699642775
20
-15.813377712437893
30
-4.4408920985006262e-15
10
13.708651647713275
20
-15.798954694873037
30
-4.4408920985006262e-15
10
13.689184751000036
20
-15.784597596999994
30
-4.4408920985006262e-15
0
SPLINE
5
134
100
AcDbEntity
8
0
100
AcDbSpline
70
0
71
3
72
11
73
7
74
0
42
0.000000001
43
0.0000000001
44
0.0000000001
40
0
40
0
40
0
40
0
40
7.1358599990458755e-05
40
7.1358599990458755e-05
40
7.1358599990458755e-05
40
0.00014276999999999999
40
0.00014276999999999999
40
0.00014276999999999999
40
0.00014276999999999999
10
13.689184751000036
20
-15.784597596999994
30
-4.4408920985006262e-15
10
13.668033075333597
20
-15.773716296662492
30
-4.4408920985006262e-15
10
13.646688056969607
20
-15.762688256838672
30
-4.4408920985006262e-15
10
13.623836900425088
20
-15.756357512660042
30
-4.4408920985006262e-15
10
13.600968835736342
20
-15.750022084204902
30
-4.4408920985006262e-15
10
13.577038746252166
20
-15.748500582193973
30
-4.4408920985006262e-15
10
13.553304638000041
20
-15.746944150999994
30
-4.4408920985006262e-15
0
SPLINE
5
135
100
AcDbEntity
8
0
100
AcDbSpline
70
0
71
3
72
11
73
7
74
0
42
0.000000001
43
0.0000000001
44
0.0000000001
40
0
40
0
40
0
40
0
40
8.3563365158764499e-05
40
8.3563365158764499e-05
40
8.3563365158764499e-05
40
0.00016272500000000001
40
0.00016272500000000001
40
0.00016272500000000001
40
0.00016272500000000001
10
13.553304638000041
20
-15.746944150999994
30
-4.4408920985006262e-15
10
13.525511984313212
20
-15.748801777936588
30
-4.4408920985006262e-15
10
13.497143181468791
20
-15.750627896659717
30
-6.6613381477509392e-15
10
13.471176591332013
20
-15.759768239462787
30
-6.6613381477509392e-15
10
13.446577800670871
20
-15.768427111420911
30
-4.4408920985006262e-15
10
13.4244946937888
20
-15.783475728440681
30
-4.4408920985006262e-15
10
13.402690854000037
20
-15.798240206999989
30
-4.4408920985006262e-15
0
SPLINE
5
136
100
AcDbEntity
8
0
100
AcDbSpline
70
0
71
3
72
11
73
7
74
0
42
0.000000001
43
0.0000000001
44
0.0000000001
40
0
40
0
40
0
40
0
40
8.2579229969596937e-05
40
8.2579229969596937e-05
40
8.2579229969596937e-05
40
0.000176551
40
0.000176551
40
0.000176551
40
0.000176551
10
13.402690854000037
20
-15.798240206999989
30
-4.4408920985006262e-15
10
13.383774225433855
20
-15.818237015260891
30
-4.4408920985006262e-15
10
13.364721157012491
20
-15.838227725990714
30
-4.4408920985006262e-15
10
13.350985613513933
20
-15.861950864389446
30
-4.4408920985006262e-15
10
13.335355129488304
20
-15.888946820961408
30
-2.2204460492503131e-15
10
13.327226895304669
20
-15.920052387050001
30
-4.4408920985006262e-15
10
13.319198455000034
20
-15.95049118199999
30
-4.4408920985006262e-15
0
LINE
5
137
100
AcDbEntity
8
0
100
AcDbLine
10
8.7767704980000349
20
-15.670000067999993
30
-4.4408920985006262e-15
11
8.7767704980000349
21
-16.470000049999992
31
-4.4408920985006262e-15
0
LINE
5
138
100
AcDbEntity
8
0
100
AcDbLine
10
8.7767704980000349
20
-16.470000049999992
30
-4.4408920985006262e-15
11
8.5011908070000342
21
-16.470000049999992
31
-4.4408920985006262e-15
0
SPLINE
5
139
100
AcDbEntity
8
0
100
AcDbSpline
70
0
71
3
72
14
73
10
74
0
42
0.000000001
43
0.0000000001
44
0.0000000001
40
0
40
0
40
0
40
0
40
7.1575999999999994e-05
40
7.1575999999999994e-05
40
7.1575999999999994e-05
40
8.2357658520401807e-05
40
8.2357658520401807e-05
40
8.2357658520401807e-05
40
0.000143151
40
0.000143151
40
0.000143151
40
0.000143151
10
8.5011908070000342
20
-16.470000049999992
30
-4.4408920985006262e-15
10
8.4773324220026147
20
-16.469901542375144
30
-4.4408920985006262e-15
10
8.4534451712983838
20
-16.469805567730841
30
-4.4408920985006262e-15
10
8.429662033352745
20
-16.468048035334174
30
-4.4408920985006262e-15
10
8.4260795242453046
20
-16.467783294162
30
-4.4408920985006262e-15
10
8.4225007438550747
20
-16.467480883569682
30
-2.2204460492503131e-15
10
8.4189262676911891
20
-16.467135153358651
30
-2.2204460492503131e-15
10
8.3987712655984215
20
-16.465185722782735
30
-4.4408920985006262e-15
10
8.3787530180015679
20
-16.461860048594922
30
-4.4408920985006262e-15
10
8.3587625280000388
20
-16.458540311999993
30
-4.4408920985006262e-15
0
SPLINE
5
140
100
AcDbEntity
8
0
100
AcDbSpline
70
0
71
3
72
11
73
7
74
0
42
0.000000001
43
0.0000000001
44
0.0000000001
40
0
40
0
40
0
40
0
40
6.7610010091082685e-05
40
6.7610010091082685e-05
40
6.7610010091082685e-05
40
0.00013181099999999999
40
0.00013181099999999999
40
0.00013181099999999999
40
0.00013181099999999999
10
8.3587625280000388
20
-16.458540311999993
30
-4.4408920985006262e-15
10
8.3370697639745739
20
-16.452430037815247
30
-4.4408920985006262e-15
10
8.3152146562968099
20
-16.446309027426732
30
-4.4408920985006262e-15
10
8.2950517166271975
20
-16.43630286130827
30
-4.4408920985006262e-15
10
8.2759054291984668
20
-16.426801224359359
30
-6.6613381477509392e-15
10
8.2586326945323751
20
-16.413973708693138
30
-4.4408920985006262e-15
10
8.2414361500000322
20
-16.401241547999991
30
-4.4408920985006262e-15
0
SPLINE
5
141
100
AcDbEntity
8
0
100
AcDbSpline
70
0
71
3
72
11
73
7
74
0
42
0.000000001
43
0.0000000001
44
0.0000000001
40
0
40
0
40
0
40
0
40
8.2630106870693935e-05
40
8.2630106870693935e-05
40
8.2630106870693935e-05
40
0.000167911
40
0.000167911
40
0.000167911
40
0.000167911
10
8.2414361500000322
20
-16.401241547999991
30
-4.4408920985006262e-15
10
8.2216890661671105
20
-16.382040139264028
30
-4.4408920985006262e-15
10
8.2018667340222606
20
-16.362837129742957
30
-4.4408920985006262e-15
10
8.1861152894431033
20
-16.340327461747876
30
-4.4408920985006262e-15
10
8.1698585361523168
20
-16.317095680217349
30
-4.4408920985006262e-15
10
8.1582494262911087
20
-16.290655953909216
30
-4.4408920985006262e-15
10
8.1467571520000348
20
-16.264542988999992
30
-4.4408920985006262e-15
0
SPLINE
5
142
100
AcDbEntity
8
0
100
AcDbSpline
70
0
71
3
72
11
73
7
74
0
42
0.000000001
43
0.0000000001
44
0.0000000001
40
0
40
0
40
0
40
0
40
9.2340989119245995e-05
40
9.2340989119245995e-05
40
9.2340989119245995e-05
40
0.00019377500000000001
40
0.00019377500000000001
40
0.00019377500000000001
40
0.00019377500000000001
10
8.1467571520000348
20
-16.264542988999992
30
-4.4408920985006262e-15
10
8.1376408648622878
20
-16.235143694038662
30
-4.4408920985006262e-15
10
8.128495870959922
20
-16.205733277210147
30
-4.4408920985006262e-15
10
8.1232228543046059
20
-16.175388897107577
30
-4.4408920985006262e-15
10
8.1174305920179357
20
-16.142056438674416
30
-4.4408920985006262e-15
10
8.1164166880061561
20
-16.108156095327239
30
-4.4408920985006262e-15
10
8.1153788820000372
20
-16.074365726999989
30
-4.4408920985006262e-15
0
SPLINE
5
143
100
AcDbEntity
8
0
100
AcDbSpline
70
0
71
3
72
11
73
7
74
0
42
0.000000001
43
0.0000000001
44
0.0000000001
40
0
40
0
40
0
40
0
40
8.1716000000000002e-05
40
8.1716000000000002e-05
40
8.1716000000000002e-05
40
0.00016343099999999999
40
0.00016343099999999999
40
0.00016343099999999999
40
0.00016343099999999999
10
8.1153788820000372
20
-16.074365726999989
30
-4.4408920985006262e-15
10
8.1160195555359493
20
-16.047134664012606
30
-4.4408920985006262e-15
10
8.1166511865832103
20
-16.019887128467637
30
-4.4408920985006262e-15
10
8.1201007098357536
20
-15.992891880851996
30
-4.4408920985006262e-15
10
8.1235501908747132
20
-15.965896963590858
30
-4.4408920985006262e-15
10
8.13011231611525
20
-15.939311713028497
30
-4.4408920985006262e-15
10
8.1366613170000335
20
-15.912837735999993
30
-4.4408920985006262e-15
0
SPLINE
5
144
100
AcDbEntity
8
0
100
AcDbSpline
70
0
71
3
72
11
73
7
74
0
42
0.000000001
43
0.0000000001
44
0.0000000001
40
0
40
0
40
0
40
0
40
6.8822198946252755e-05
40
6.8822198946252755e-05
40
6.8822198946252755e-05
40
0.000129212
40
0.000129212
40
0.000129212
40
0.000129212
10
8.1366613170000335
20
-15.912837735999993
30
-4.4408920985006262e-15
10
8.1438222311745179
20
-15.891043208358813
30
-4.4408920985006262e-15
10
8.1509987579830412
20
-15.86916646903874
30
-4.4408920985006262e-15
10
8.1609454413619797
20
-15.848512998829282
30
-4.4408920985006262e-15
10
8.1696734134348947
20
-15.83039008244306
30
-4.4408920985006262e-15
10
8.1804696392385789
20
-15.813340859284125
30
-4.4408920985006262e-15
10
8.1912317530000411
20
-15.796330175999994
30
-4.4408920985006262e-15
0
SPLINE
5
145
100
AcDbEntity
8
0
100
AcDbSpline
70
0
71
3
72
11
73
7
74
0
42
0.000000001
43
0.0000000001
44
0.0000000001
40
0
40
0
40
0
40
0
40
5.1677e-05
40
5.1677e-05
40
5.1677e-05
40
0.000103353
40
0.000103353
40
0.000103353
40
0.000103353
10
8.1912317530000411
20
-15.796330175999994
30
-4.4408920985006262e-15
10
8.2017394394486587
20
-15.782680268575549
30
-4.4408920985006262e-15
10
8.2122586576847567
20
-15.768998677508424
30
-4.4408920985006262e-15
10
8.2243981497919094
20
-15.756806986376596
30
-4.4408920985006262e-15
10
8.236537406988127
20
-15.744615531165792
30
-4.4408920985006262e-15
10
8.2503448433785209
20
-15.734155913499755
30
-4.4408920985006262e-15
10
8.2640829340000366
20
-15.723751834999993
30
-4.4408920985006262e-15
0
SPLINE
5
146
100
AcDbEntity
8
0
100
AcDbSpline
70
0
71
3
72
11
73
7
74
0
42
0.000000001
43
0.0000000001
44
0.0000000001
40
0
40
0
40
0
40
0
40
4.9547192494651321e-05
40
4.9547192494651321e-05
40
4.9547192494651321e-05
40
0.000104094
40
0.000104094
40
0.000104094
40
0.000104094
10
8.2640829340000366
20
-15.723751834999993
30
-4.4408920985006262e-15
10
8.2783257439892033
20
-15.715389917897271
30
-4.4408920985006262e-15
10
8.2925937776312164
20
-15.707004458500457
30
-4.4408920985006262e-15
10
8.3077385698411543
20
-15.700491121685936
30
-4.4408920985006262e-15
10
8.3244115642892957
20
-15.69332054931742
30
-2.2204460492503131e-15
10
8.3420440745782809
20
-15.688471897447119
30
-4.4408920985006262e-15
10
8.3595809000000365
20
-15.683642676999995
30
-4.4408920985006262e-15
0
SPLINE
5
147
100
AcDbEntity
8
0
100
AcDbSpline
70
0
71
3
72
11
73
7
74
0
42
0.000000001
43
0.0000000001
44
0.0000000001
40
0
40
0
40
0
40
0
40
6.0985964101200939e-05
40
6.0985964101200939e-05
40
6.0985964101200939e-05
40
0.00012951999999999999
40
0.00012951999999999999
40
0.00012951999999999999
40
0.00012951999999999999
10
8.3595809000000365
20
-15.683642676999995
30
-4.4408920985006262e-15
10
8.3795184020749947
20
-15.679673622111423
30
-4.4408920985006262e-15
10
8.3994818364384027
20
-15.675696083846429
30
-4.4408920985006262e-15
10
8.419676091872903
20
-15.67341064588112
30
-4.4408920985006262e-15
10
8.442369736997577
20
-15.67084234529152
30
-4.4408920985006262e-15
10
8.4652516541564182
20
-15.670422928982086
30
-4.4408920985006262e-15
10
8.4880938790000382
20
-15.670000067999993
30
-4.4408920985006262e-15
0
LINE
5
148
100
AcDbEntity
8
0
100
AcDbLine
10
8.4880938790000382
20
-15.670000067999993
30
-4.4408920985006262e-15
11
8.7767704980000349
21
-15.670000067999993
31
-4.4408920985006262e-15
0
LWPOLYLINE
5
149
100
AcDbEntity
8
0
100
AcDbPolyline
90
6
70
1
43
0.0
10
10.417151715000044
20
-15.670000067999993
10
10.417151715000044
20
-16.470000049999992
10
10.311285522000038
20
-16.470000049999992
10
10.311285522000038
20
-15.764406672999996
10
9.9172880910000405
20
-15.764406672999996
10
9.9172880910000405
20
-15.670000067999993
0
LINE
5
150
100
AcDbEntity
8
0
100
AcDbLine
10
12.001326944000033
20
-15.927026024999996
30
-4.4408920985006262e-15
11
11.901463534000039
21
-15.935757211999997
31
-4.4408920985006262e-15
0
SPLINE
5
151
100
AcDbEntity
8
0
100
AcDbSpline
70
0
71
3
72
11
73
7
74
0
42
0.000000001
43
0.0000000001
44
0.0000000001
40
0
40
0
40
0
40
0
40
5.6024368956886715e-05
40
5.6024368956886715e-05
40
5.6024368956886715e-05
40
0.00010497600000000001
40
0.00010497600000000001
40
0.00010497600000000001
40
0.00010497600000000001
10
11.901463534000039
20
-15.935757211999997
30
-4.4408920985006262e-15
10
11.898666652113601
20
-15.917292506287293
30
-4.4408920985006262e-15
10
11.895879381620027
20
-15.89870348879149
30
-4.4408920985006262e-15
10
11.889663007028366
20
-15.881118826607175
30
-4.4408920985006262e-15
10
11.884231412150958
20
-15.865754121724427
30
-4.4408920985006262e-15
10
11.876317243642029
20
-15.851493753789123
30
-4.4408920985006262e-15
10
11.868448522000037
20
-15.83725785399999
30
-4.4408920985006262e-15
0
SPLINE
5
152
100
AcDbEntity
8
0
100
AcDbSpline
70
0
71
3
72
11
73
7
74
0
42
0.000000001
43
0.0000000001
44
0.0000000001
40
0
40
0
40
0
40
0
40
4.8104887945753138e-05
40
4.8104887945753138e-05
40
4.8104887945753138e-05
40
0.00010308500000000001
40
0.00010308500000000001
40
0.00010308500000000001
40
0.00010308500000000001
10
11.868448522000037
20
-15.83725785399999
30
-4.4408920985006262e-15
10
11.858178430988442
20
-15.824941981497421
30
-4.4408920985006262e-15
10
11.847824864199064
20
-15.812481597533431
30
-4.4408920985006262e-15
10
11.835365557772084
20
-15.802469303514579
30
-4.4408920985006262e-15
10
11.821125548227807
20
-15.791026037131815
30
-4.4408920985006262e-15
10
11.804445815687892
20
-15.783015510528395
30
-4.4408920985006262e-15
10
11.787957217000038
20
-15.775047889999993
30
-4.4408920985006262e-15
0
SPLINE
5
153
100
AcDbEntity
8
0
100
AcDbSpline
70
0
71
3
72
11
73
7
74
0
42
0.000000001
43
0.0000000001
44
0.0000000001
40
0
40
0
40
0
40
0
40
6.0736817734025116e-05
40
6.0736817734025116e-05
40
6.0736817734025116e-05
40
0.00012588000000000001
40
0.00012588000000000001
40
0.00012588000000000001
40
0.00012588000000000001
10
11.787957217000038
20
-15.775047889999993
30
-4.4408920985006262e-15
10
11.76891873846432
20
-15.768160640743293
30
-4.4408920985006262e-15
10
11.749825553910913
20
-15.761232153061027
30
-4.4408920985006262e-15
10
11.729976200911247
20
-15.757244280642784
30
-4.4408920985006262e-15
10
11.708686807285451
20
-15.75296709409454
30
-4.4408920985006262e-15
10
11.68688057557727
20
-15.752147567900657
30
-4.4408920985006262e-15
10
11.665174033000039
20
-15.751309743999995
30
-4.4408920985006262e-15
0
SPLINE
5
154
100
AcDbEntity
8
0
100
AcDbSpline
70
0
71
3
72
11
73
7
74
0
42
0.000000001
43
0.0000000001
44
0.0000000001
40
0
40
0
40
0
40
0
40
5.7310832729151055e-05
40
5.7310832729151055e-05
40
5.7310832729151055e-05
40
0.000109054
40
0.000109054
40
0.000109054
40
0.000109054
10
11.665174033000039
20
-15.751309743999995
30
-4.4408920985006262e-15
10
11.646079144449564
20
-15.751895024936204
30
-4.4408920985006262e-15
10
11.626930418545198
20
-15.752468735980806
30
-2.2204460492503131e-15
10
11.608148483166101
20
-15.755811832029888
30
-2.2204460492503131e-15
10
11.591191185955232
20
-15.758830151077658
30
-6.6613381477509392e-15
10
11.574661541384614
20
-15.764091311419257
30
-4.4408920985006262e-15
10
11.558216478000034
20
-15.769317946999998
30
-4.4408920985006262e-15
0
SPLINE
5
155
100
AcDbEntity
8
0
100
AcDbSpline
70
0
71
3
72
11
73
7
74
0
42
0.000000001
43
0.0000000001
44
0.0000000001
40
0
40
0
40
0
40
0
40
4.6014589677832778e-05
40
4.6014589677832778e-05
40
4.6014589677832778e-05
40
8.6094999999999995e-05
40
8.6094999999999995e-05
40
8.6094999999999995e-05
40
8.6094999999999995e-05
10
11.558216478000034
20
-15.769317946999998
30
-4.4408920985006262e-15
10
11.544150461779559
20
-15.7754375340346
30
-4.4408920985006262e-15
10
11.529948924393212
20
-15.781589502405771
30
-4.4408920985006262e-15
10
11.517765788047383
20
-15.790668478359432
30
-4.4408920985006262e-15
10
11.507153825468341
20
-15.798576602371295
30
-4.4408920985006262e-15
10
11.498111526435695
20
-15.808709643812557
30
-4.4408920985006262e-15
10
11.489185359000036
20
-15.818703970999998
30
-4.4408920985006262e-15
0
SPLINE
5
156
100
AcDbEntity
8
0
100
AcDbSpline
70
0
71
3
72
11
73
7
74
0
42
0.000000001
43
0.0000000001
44
0.0000000001
40
0
40
0
40
0
40
0
40
3.7160838927851338e-05
40
3.7160838927851338e-05
40
3.7160838927851338e-05
40
7.3447000000000003e-05
40
7.3447000000000003e-05
40
7.3447000000000003e-05
40
7.3447000000000003e-05
10
11.489185359000036
20
-15.818703970999998
30
-4.4408920985006262e-15
10
11.482644908694155
20
-15.829226893727197
30
-4.4408920985006262e-15
10
11.476000156668285
20
-15.839881622993005
30
-4.4408920985006262e-15
10
11.472200418858938
20
-15.851514393400326
30
-4.4408920985006262e-15
10
11.46849011784961
20
-15.862873356031253
30
-4.4408920985006262e-15
10
11.467514390573763
20
-15.875122033366855
30
-4.4408920985006262e-15
10
11.466538574000031
20
-15.88718970799999
30
-4.4408920985006262e-15
0
SPLINE
5
157
100
AcDbEntity
8
0
100
AcDbSpline
70
0
71
3
72
11
73
7
74
0
42
0.000000001
43
0.0000000001
44
0.0000000001
40
0
40
0
40
0
40
0
40
3.5894648932178717e-05
40
3.5894648932178717e-05
40
3.5894648932178717e-05
40
7.0642000000000006e-05
40
7.0642000000000006e-05
40
7.0642000000000006e-05
40
7.0642000000000006e-05
10
11.466538574000031
20
-15.88718970799999
30
-4.4408920985006262e-15
10
11.467381019742744
20
-15.899128616179343
30
-4.4408920985006262e-15
10
11.468210535683108
20
-15.911250991923026
30
-6.6613381477509392e-15
10
11.47199538030395
20
-15.922455840431557
30
-6.6613381477509392e-15
10
11.475659250231365
20
-15.933302549241084
30
-4.4408920985006262e-15
10
11.482075839952417
20
-15.943204633116373
30
-4.4408920985006262e-15
10
11.488366391000033
20
-15.952946892999996
30
-4.4408920985006262e-15
0
SPLINE
5
158
100
AcDbEntity
8
0
100
AcDbSpline
70
0
71
3
72
11
73
7
74
0
42
0.000000001
43
0.0000000001
44
0.0000000001
40
0
40
0
40
0
40
0
40
3.8952086368422968e-05
40
3.8952086368422968e-05
40
3.8952086368422968e-05
40
8.7307999999999998e-05
40
8.7307999999999998e-05
40
8.7307999999999998e-05
40
8.7307999999999998e-05
10
11.488366391000033
20
-15.952946892999996
30
-4.4408920985006262e-15
10
11.497521834139599
20
-15.962155780121794
30
-4.4408920985006262e-15
10
11.506746080594903
20
-15.971444028971572
30
-6.6613381477509392e-15
10
11.517288946288602
20
-15.978799511795376
30
-6.6613381477509392e-15
10
11.53037707456221
20
-15.98793075803421
30
-4.4408920985006262e-15
10
11.545475894288062
20
-15.994068325904976
30
-4.4408920985006262e-15
10
11.56039920000004
20
-16.000150195999993
30
-4.4408920985006262e-15
0
SPLINE
5
159
100
AcDbEntity
8
0
100
AcDbSpline
70
0
71
3
72
11
73
7
74
0
42
0.000000001
43
0.0000000001
44
0.0000000001
40
0
40
0
40
0
40
0
40
5.4137105702598164e-05
40
5.4137105702598164e-05
40
5.4137105702598164e-05
40
0.000147739
40
0.000147739
40
0.000147739
40
0.000147739
10
11.56039920000004
20
-16.000150195999993
30
-4.4408920985006262e-15
10
11.577583474956565
20
-16.005659242192749
30
-4.4408920985006262e-15
10
11.594773053003165
20
-16.011170062263936
30
-4.4408920985006262e-15
10
11.612104441790869
20
-16.016180119545499
30
-4.4408920985006262e-15
10
11.642070041175634
20
-16.024842401099086
30
-2.2204460492503131e-15
10
11.672459616961284
20
-16.03200753398637
30
-4.4408920985006262e-15
10
11.702827479000035
20
-16.039167842999994
30
-4.4408920985006262e-15
0
SPLINE
5
160
100
AcDbEntity
8
0
100
AcDbSpline
70
0
71
3
72
11
73
7
74
0
42
0.000000001
43
0.0000000001
44
0.0000000001
40
0
40
0
40
0
40
0
40
9.7270243471439782e-05
40
9.7270243471439782e-05
40
9.7270243471439782e-05
40
0.000162602
40
0.000162602
40
0.000162602
40
0.000162602
10
11.702827479000035
20
-16.039167842999994
30
-4.4408920985006262e-15
10
11.734363330535258
20
-16.04670249777433
30
-4.4408920985006262e-15
10
11.76593910998605
20
-16.054240211819547
30
-4.4408920985006262e-15
10
11.796552207965627
20
-16.064884118489161
30
-4.4408920985006262e-15
10
11.817113557381553
20
-16.072033120015568
30
-4.4408920985006262e-15
10
11.837209043551695
20
-16.080576124106866
30
-4.4408920985006262e-15
10
11.857261326000037
20
-16.089099696999995
30
-4.4408920985006262e-15
0
SPLINE
5
161
100
AcDbEntity
8
0
100
AcDbSpline
70
0
71
3
72
11
73
7
74
0
42
0.000000001
43
0.0000000001
44
0.0000000001
40
0
40
0
40
0
40
0
40
5.7281999999999998e-05
40
5.7281999999999998e-05
40
5.7281999999999998e-05
40
0.000114565
40
0.000114565
40
0.000114565
40
0.000114565
10
11.857261326000037
20
-16.089099696999995
30
-4.4408920985006262e-15
10
11.873795290943585
20
-16.098651326097716
30
-4.4408920985006262e-15
10
11.890414449400915
20
-16.1081978723136
30
-4.4408920985006262e-15
10
11.904914896883367
20
-16.120667160712191
30
-4.4408920985006262e-15
10
11.919415597507239
20
-16.133136666793281
30
-4.4408920985006262e-15
10
11.931064002131766
20
-16.148413525899286
30
-4.4408920985006262e-15
10
11.942664053000041
20
-16.163588068999989
30
-4.4408920985006262e-15
0
SPLINE
5
162
100
AcDbEntity
8
0
100
AcDbSpline
70
0
71
3
72
11
73
7
74
0
42
0.000000001
43
0.0000000001
44
0.0000000001
40
0
40
0
40
0
40
0
40
5.1755885426826559e-05
40
5.1755885426826559e-05
40
5.1755885426826559e-05
40
0.000104879
40
0.000104879
40
0.000104879
40
0.000104879
10
11.942664053000041
20
-16.163588068999989
30
-4.4408920985006262e-15
10
11.950778853324771
20
-16.178813520188381
30
-4.4408920985006262e-15
10
11.959007541223183
20
-16.194171894157417
30
-4.4408920985006262e-15
10
11.963742044843864
20
-16.21072312717104
30
-4.4408920985006262e-15
10
11.968601619290595
20
-16.227711592163171
30
-4.4408920985006262e-15
10
11.969666695379582
20
-16.245520170323712
30
-4.4408920985006262e-15
10
11.970767643000038
20
-16.263178787999998
30
-4.4408920985006262e-15
0
SPLINE
5
163
100
AcDbEntity
8
0
100
AcDbSpline
70
0
71
3
72
11
73
7
74
0
42
0.000000001
43
0.0000000001
44
0.0000000001
40
0
40
0
40
0
40
0
40
5.9375528593454462e-05
40
5.9375528593454462e-05
40
5.9375528593454462e-05
40
0.000120023
40
0.000120023
40
0.000120023
40
0.000120023
10
11.970767643000038
20
-16.263178787999998
30
-4.4408920985006262e-15
10
11.969294363952194
20
-16.282916205293919
30
-4.4408920985006262e-15
10
11.967853088899174
20
-16.302862313977137
30
-6.6613381477509392e-15
10
11.962172652652105
20
-16.321773582821638
30
-6.6613381477509392e-15
10
11.95637053007685
20
-16.341089968943635
30
-4.4408920985006262e-15
10
11.946311522346251
20
-16.358815673144345
30
-4.4408920985006262e-15
10
11.936388280000036
20
-16.376412114999997
30
-4.4408920985006262e-15
0
SPLINE
5
164
100
AcDbEntity
8
0
100
AcDbSpline
70
0
71
3
72
11
73
7
74
0
42
0.000000001
43
0.0000000001
44
0.0000000001
40
0
40
0
40
0
40
0
40
6.2886428416792392e-05
40
6.2886428416792392e-05
40
6.2886428416792392e-05
40
0.00013031300000000001
40
0.00013031300000000001
40
0.00013031300000000001
40
0.00013031300000000001
10
11.936388280000036
20
-16.376412114999997
30
-4.4408920985006262e-15
10
11.92340117946709
20
-16.39286734750382
30
-4.4408920985006262e-15
10
11.910303512241178
20
-16.40954374231416
30
-4.4408920985006262e-15
10
11.894096399576348
20
-16.422728650480213
30
-4.4408920985006262e-15
10
11.876719199602297
20
-16.436865455139934
30
-4.4408920985006262e-15
10
11.856224935627084
20
-16.446634813948716
30
-4.4408920985006262e-15
10
11.835978891000041
20
-16.456357589999996
30
-4.4408920985006262e-15
0
SPLINE
5
165
100
AcDbEntity
8
0
100
AcDbSpline
70
0
71
3
72
11
73
7
74
0
42
0.000000001
43
0.0000000001
44
0.0000000001
40
0
40
0
40
0
40
0
40
7.2738703459339791e-05
40
7.2738703459339791e-05
40
7.2738703459339791e-05
40
0.00015026300000000001
40
0.00015026300000000001
40
0.00015026300000000001
40
0.00015026300000000001
10
11.835978891000041
20
-16.456357589999996
30
-4.4408920985006262e-15
10
11.813062127471508
20
-16.464276784735127
30
-4.4408920985006262e-15
10
11.790028257412697
20
-16.472251088778652
30
-6.6613381477509392e-15
10
11.766265892908647
20
-16.476821355569054
30
-6.6613381477509392e-15
10
11.740940165273832
20
-16.481692307360593
30
-4.4408920985006262e-15
10
11.714995038239877
20
-16.48266087904862
30
-4.4408920985006262e-15
10
11.689185168000042
20
-16.483642659999994
30
-4.4408920985006262e-15
0
SPLINE
5
166
100
AcDbEntity
8
0
100
AcDbSpline
70
0
71
3
72
11
73
7
74
0
42
0.000000001
43
0.0000000001
44
0.0000000001
40
0
40
0
40
0
40
0
40
8.4127864820826107e-05
40
8.4127864820826107e-05
40
8.4127864820826107e-05
40
0.000160531
40
0.000160531
40
0.000160531
40
0.000160531
10
11.689185168000042
20
-16.483642659999994
30
-4.4408920985006262e-15
10
11.661158385801933
20
-16.482701261195732
30
-4.4408920985006262e-15
10
11.632966999851568
20
-16.481773563164396
30
-4.4408920985006262e-15
10
11.605487730932271
20
-16.476480342205221
30
-4.4408920985006262e-15
10
11.580531644119221
20
-16.471673151658571
30
-4.4408920985006262e-15
10
11.556351799625526
20
-16.463303257779177
30
-4.4408920985006262e-15
10
11.532295610000034
20
-16.454993314999996
30
-4.4408920985006262e-15
0
SPLINE
5
167
100
AcDbEntity
8
0
100
AcDbSpline
70
0
71
3
72
11
73
7
74
0
42
0.000000001
43
0.0000000001
44
0.0000000001
40
0
40
0
40
0
40
0
40
6.9952366475527114e-05
40
6.9952366475527114e-05
40
6.9952366475527114e-05
40
0.00013625700000000001
40
0.00013625700000000001
40
0.00013625700000000001
40
0.00013625700000000001
10
11.532295610000034
20
-16.454993314999996
30
-4.4408920985006262e-15
10
11.511372503789286
20
-16.444699971268676
30
-4.4408920985006262e-15
10
11.490171780293235
20
-16.434336103680277
30
-4.4408920985006262e-15
10
11.47220042113795
20
-16.419590839136081
30
-4.4408920985006262e-15
10
11.455166195667621
20
-16.405614480492559
30
-6.6613381477509392e-15
10
11.441440095095592
20
-16.388051600898027
30
-4.4408920985006262e-15
10
11.427793767000036
20
-16.370682245999998
30
-4.4408920985006262e-15
0
SPLINE
5
168
100
AcDbEntity
8
0
100
AcDbSpline
70
0
71
3
72
11
73
7
74
0
42
0.000000001
43
0.0000000001
44
0.0000000001
40
0
40
0
40
0
40
0
40
6.5814148514421834e-05
40
6.5814148514421834e-05
40
6.5814148514421834e-05
40
0.000133659
40
0.000133659
40
0.000133659
40
0.000133659
10
11.427793767000036
20
-16.370682245999998
30
-4.4408920985006262e-15
10
11.417108871337041
20
-16.351521818947653
30
-4.4408920985006262e-15
10
11.406294438619371
20
-16.332221774777768
30
-4.4408920985006262e-15
10
11.399690177592072
20
-16.311337106926459
30
-4.4408920985006262e-15
10
11.392882141346332
20
-16.28980804029441
30
-6.6613381477509392e-15
10
11.390709337292719
20
-16.267126130319745
30
-4.4408920985006262e-15
10
11.388502981000039
20
-16.244624904999995
30
-4.4408920985006262e-15
0
LINE
5
169
100
AcDbEntity
8
0
100
AcDbLine
10
11.38850298100003
20
-16.244624904999995
30
-4.4408920985006262e-15
11
11.490003731000042
21
-16.236985078999989
31
-4.4408920985006262e-15
0
SPLINE
5
170
100
AcDbEntity
8
0
100
AcDbSpline
70
0
71
3
72
11
73
7
74
0
42
0.000000001
43
0.0000000001
44
0.0000000001
40
0
40
0
40
0
40
0
40
6.938241415753423e-05
40
6.938241415753423e-05
40
6.938241415753423e-05
40
0.000130753
40
0.000130753
40
0.000130753
40
0.000130753
10
11.490003731000042
20
-16.236985078999989
30
-4.4408920985006262e-15
10
11.493745572791578
20
-16.259808676493947
30
-4.4408920985006262e-15
10
11.497489838721933
20
-16.283248029746705
30
-4.4408920985006262e-15
10
11.507944132281418
20
-16.303560858996256
30
-4.4408920985006262e-15
10
11.51719123225778
20
-16.321528095309649
30
-2.2204460492503131e-15
10
11.531452903901362
20
-16.33666591126547
30
-4.4408920985006262e-15
10
11.545392539000039
20
-16.351582682999993
30
-4.4408920985006262e-15
0
SPLINE
5
171
100
AcDbEntity
8
0
100
AcDbSpline
70
0
71
3
72
11
73
7
74
0
42
0.000000001
43
0.0000000001
44
0.0000000001
40
0
40
0
40
0
40
0
40
6.5447557687150555e-05
40
6.5447557687150555e-05
40
6.5447557687150555e-05
40
0.000147923
40
0.000147923
40
0.000147923
40
0.000147923
10
11.545392539000039
20
-16.351582682999993
30
-4.4408920985006262e-15
10
11.564162348096065
20
-16.362702525263199
30
-4.4408920985006262e-15
10
11.583275756179106
20
-16.374065823587575
30
-6.6613381477509392e-15
10
11.603850987831343
20
-16.380641363361178
30
-6.6613381477509392e-15
10
11.629779401223317
20
-16.388927700857
30
-4.4408920985006262e-15
10
11.657470825178429
20
-16.389572506896904
30
-4.4408920985006262e-15
10
11.68481972400004
20
-16.390327564999993
30
-4.4408920985006262e-15
0
SPLINE
5
172
100
AcDbEntity
8
0
100
AcDbSpline
70
0
71
3
72
11
73
7
74
0
42
0.000000001
43
0.0000000001
44
0.0000000001
40
0
40
0
40
0
40
0
40
8.3940220699788319e-05
40
8.3940220699788319e-05
40
8.3940220699788319e-05
40
0.00014719200000000001
40
0.00014719200000000001
40
0.00014719200000000001
40
0.00014719200000000001
10
11.68481972400004
20
-16.390327564999993
30
-4.4408920985006262e-15
10
11.712796844664082
20
-16.389902597434464
30
-4.4408920985006262e-15
10
11.741360934027005
20
-16.389522082611453
30
-4.4408920985006262e-15
10
11.767834686252696
20
-16.381528131986883
30
-4.4408920985006262e-15
10
11.787783548896469
20
-16.375504421345827
30
-4.4408920985006262e-15
10
11.806356032274028
20
-16.365257370285335
30
-4.4408920985006262e-15
10
11.824792292000037
20
-16.355129755999997
30
-4.4408920985006262e-15
0
SPLINE
5
173
100
AcDbEntity
8
0
100
AcDbSpline
70
0
71
3
72
11
73
7
74
0
42
0.000000001
43
0.0000000001
44
0.0000000001
40
0
40
0
40
0
40
0
40
5.1319438344247857e-05
40
5.1319438344247857e-05
40
5.1319438344247857e-05
40
9.8961000000000003e-05
40
9.8961000000000003e-05
40
9.8961000000000003e-05
40
9.8961000000000003e-05
10
11.824792292000037
20
-16.355129755999997
30
-4.4408920985006262e-15
10
11.837270937862936
20
-16.343425286463354
30
-4.4408920985006262e-15
10
11.850139024244681
20
-16.331644839212537
30
-4.4408920985006262e-15
10
11.857738760328376
20
-16.316316623607264
30
-4.4408920985006262e-15
10
11.864793851086981
20
-16.30208692522411
30
-4.4408920985006262e-15
10
11.8666891684581
20
-16.286027446931865
30
-4.4408920985006262e-15
10
11.868721511000038
20
-16.270272931999997
30
-4.4408920985006262e-15
0
SPLINE
5
174
100
AcDbEntity
8
0
100
AcDbSpline
70
0
71
3
72
11
73
7
74
0
42
0.000000001
43
0.0000000001
44
0.0000000001
40
0
40
0
40
0
40
0
40
4.0390456260891771e-05
40
4.0390456260891771e-05
40
4.0390456260891771e-05
40
7.9882999999999994e-05
40
7.9882999999999994e-05
40
7.9882999999999994e-05
40
7.9882999999999994e-05
10
11.868721511000038
20
-16.270272931999997
30
-4.4408920985006262e-15
10
11.867499467653806
20
-16.256860899780229
30
-4.4408920985006262e-15
10
11.86635668425974
20
-16.243186321839925
30
-4.4408920985006262e-15
10
11.860945488542569
20
-16.230982368706307
30
-4.4408920985006262e-15
10
11.855654588084299
20
-16.219049719324822
30
-4.4408920985006262e-15
10
11.846476254489202
20
-16.209076996506969
30
-4.4408920985006262e-15
10
11.837616231000032
20
-16.199331632999993
30
-4.4408920985006262e-15
0
SPLINE
5
175
100
AcDbEntity
8
0
100
AcDbSpline
70
0
71
3
72
11
73
7
74
0
42
0.000000001
43
0.0000000001
44
0.0000000001
40
0
40
0
40
0
40
0
40
6.2105448443587944e-05
40
6.2105448443587944e-05
40
6.2105448443587944e-05
40
0.000170669
40
0.000170669
40
0.000170669
40
0.000170669
10
11.837616231000032
20
-16.199331632999993
30
-4.4408920985006262e-15
10
11.819533082092795
20
-16.189253612741567
30
-4.4408920985006262e-15
10
11.801421410382993
20
-16.179153631049509
30
-4.4408920985006262e-15
10
11.782431867401231
20
-16.171159647226613
30
-4.4408920985006262e-15
10
11.74923715936516
20
-16.157185748049518
30
-6.6613381477509392e-15
10
11.713447924193892
20
-16.149717222439758
30
-4.4408920985006262e-15
10
11.677997973000043
20
-16.142305633999992
30
-4.4408920985006262e-15
0
SPLINE
5
176
100
AcDbEntity
8
0
100
AcDbSpline
70
0
71
3
72
11
73
7
74
0
42
0.000000001
43
0.0000000001
44
0.0000000001
40
0
40
0
40
0
40
0
40
0.00011223319119418561
40
0.00011223319119418561
40
0.00011223319119418561
40
0.000184532
40
0.000184532
40
0.000184532
40
0.000184532
10
11.677997973000043
20
-16.142305633999992
30
-4.4408920985006262e-15
10
11.641486929491105
20
-16.134148640955445
30
-4.4408920985006262e-15
10
11.604926504774813
20
-16.125983138697034
30
-4.4408920985006262e-15
10
11.569198636110398
20
-16.114952318307431
30
-4.4408920985006262e-15
10
11.546183320247723
20
-16.107846441999062
30
-4.4408920985006262e-15
10
11.523543137236345
20
-16.099561137050419
30
-4.4408920985006262e-15
10
11.500917937000033
20
-16.091282418999992
30
-4.4408920985006262e-15
0
SPLINE
5
177
100
AcDbEntity
8
0
100
AcDbSpline
70
0
71
3
72
11
73
7
74
0
42
0.000000001
43
0.0000000001
44
0.0000000001
40
0
40
0
40
0
40
0
40
7.1020935684027229e-05
40
7.1020935684027229e-05
40
7.1020935684027229e-05
40
0.000133101
40
0.000133101
40
0.000133101
40
0.000133101
10
11.500917937000033
20
-16.091282418999992
30
-4.4408920985006262e-15
10
11.479808116770984
20
-16.08056603143028
30
-4.4408920985006262e-15
10
11.458447314307243
20
-16.069774578171373
30
-6.6613381477509392e-15
10
11.440208223315578
20
-16.054788582502045
30
-6.6613381477509392e-15
10
11.424265263244413
20
-16.041689183486373
30
-4.4408920985006262e-15
10
11.410986715575779
20
-16.025623141329547
30
-4.4408920985006262e-15
10
11.397779848000038
20
-16.009699902999998
30
-4.4408920985006262e-15
0
SPLINE
5
178
100
AcDbEntity
8
0
100
AcDbSpline
70
0
71
3
72
11
73
7
74
0
42
0.000000001
43
0.0000000001
44
0.0000000001
40
0
40
0
40
0
40
0
40
5.8866367953374192e-05
40
5.8866367953374192e-05
40
5.8866367953374192e-05
40
0.000120343
40
0.000120343
40
0.000120343
40
0.000120343
10
11.397779848000038
20
-16.009699902999998
30
-4.4408920985006262e-15
10
11.388178215472164
20
-15.992586832822093
30
-4.4408920985006262e-15
10
11.37842396152088
20
-15.975294767420802
30
-4.4408920985006262e-15
10
11.372813846176477
20
-15.956562210975221
30
-4.4408920985006262e-15
10
11.366954965991436
20
-15.93699901181861
30
-6.6613381477509392e-15
10
11.365745654342785
20
-15.916354453016698
30
-4.4408920985006262e-15
10
11.364491846000035
20
-15.895920894999996
30
-4.4408920985006262e-15
0
SPLINE
5
179
100
AcDbEntity
8
0
100
AcDbSpline
70
0
71
3
72
11
73
7
74
0
42
0.000000001
43
0.0000000001
44
0.0000000001
40
0
40
0
40
0
40
0
40
6.2837917217391741e-05
40
6.2837917217391741e-05
40
6.2837917217391741e-05
40
0.00012749500000000001
40
0.00012749500000000001
40
0.00012749500000000001
40
0.00012749500000000001
10
11.364491846000035
20
-15.895920894999996
30
-4.4408920985006262e-15
10
11.366081838691491
20
-15.875035003739661
30
-4.4408920985006262e-15
10
11.367633590274533
20
-15.853953266992033
30
-4.4408920985006262e-15
10
11.373632218413263
20
-15.833915523976332
30
-4.4408920985006262e-15
10
11.37980450758711
20
-15.813297685793373
30
-6.6613381477509392e-15
10
11.390500444592684
20
-15.794379237526034
30
-4.4408920985006262e-15
10
11.401053931000034
20
-15.775593570999993
30
-4.4408920985006262e-15
0
SPLINE
5
180
100
AcDbEntity
8
0
100
AcDbSpline
70
0
71
3
72
11
73
7
74
0
42
0.000000001
43
0.0000000001
44
0.0000000001
40
0
40
0
40
0
40
0
40
6.7276986678203724e-05
40
6.7276986678203724e-05
40
6.7276986678203724e-05
40
0.00013881000000000001
40
0.00013881000000000001
40
0.00013881000000000001
40
0.00013881000000000001
10
11.401053931000034
20
-15.775593570999993
30
-4.4408920985006262e-15
10
11.414759924509248
20
-15.757843240844567
30
-4.4408920985006262e-15
10
11.428574629767088
20
-15.739879525691563
30
-4.4408920985006262e-15
10
11.445597078051186
20
-15.725388876836529
30
-4.4408920985006262e-15
10
11.463696387785438
20
-15.709981531341892
30
-4.4408920985006262e-15
10
11.485013738194247
20
-15.698830423455505
30
-4.4408920985006262e-15
10
11.506101753000042
20
-15.687735429999993
30
-4.4408920985006262e-15
0
SPLINE
5
181
100
AcDbEntity
8
0
100
AcDbSpline
70
0
71
3
72
11
73
7
74
0
42
0.000000001
43
0.0000000001
44
0.0000000001
40
0
40
0
40
0
40
0
40
7.6602022684997418e-05
40
7.6602022684997418e-05
40
7.6602022684997418e-05
40
0.00015853899999999999
40
0.00015853899999999999
40
0.00015853899999999999
40
0.00015853899999999999
10
11.506101753000042
20
-15.687735429999993
30
-4.4408920985006262e-15
10
11.529959757588522
20
-15.678636856176889
30
-4.4408920985006262e-15
10
11.553960758977526
20
-15.669463002144006
30
-4.4408920985006262e-15
10
11.578884389090431
20
-15.664202026116204
30
-4.4408920985006262e-15
10
11.605543827622053
20
-15.658574648948665
30
-2.2204460492503131e-15
10
11.632994185685357
20
-15.657475190007331
30
-4.4408920985006262e-15
10
11.660262610000043
20
-15.65635745899999
30
-4.4408920985006262e-15
0
SPLINE
5
182
100
AcDbEntity
8
0
100
AcDbSpline
70
0
71
3
72
11
73
7
74
0
42
0.000000001
43
0.0000000001
44
0.0000000001
40
0
40
0
40
0
40
0
40
0.00010031324977123761
40
0.00010031324977123761
40
0.00010031324977123761
40
0.00018597199999999999
40
0.00018597199999999999
40
0.00018597199999999999
40
0.00018597199999999999
10
11.660262610000043
20
-15.65635745899999
30
-4.4408920985006262e-15
10
11.693689590978611
20
-15.657205848853636
30
-4.4408920985006262e-15
10
11.727317408531297
20
-15.658038610657403
30
-4.4408920985006262e-15
10
11.760058070088126
20
-15.664270124548491
30
-4.4408920985006262e-15
10
11.788015734275232
20
-15.669591292920181
30
-6.6613381477509392e-15
10
11.815217429146694
20
-15.678833937543089
30
-4.4408920985006262e-15
10
11.842254664000036
20
-15.68800827099999
30
-4.4408920985006262e-15
0
SPLINE
5
183
100
AcDbEntity
8
0
100
AcDbSpline
70
0
71
3
72
11
73
7
74
0
42
0.000000001
43
0.0000000001
44
0.0000000001
40
0
40
0
40
0
40
0
40
7.6807562921074661e-05
40
7.6807562921074661e-05
40
7.6807562921074661e-05
40
0.00015208299999999999
40
0.00015208299999999999
40
0.00015208299999999999
40
0.00015208299999999999
10
11.842254664000036
20
-15.68800827099999
30
-4.4408920985006262e-15
10
11.865070288711506
20
-15.699624871243589
30
-4.4408920985006262e-15
10
11.888251706726338
20
-15.711393177367139
30
-6.6613381477509392e-15
10
11.907738710395241
20
-15.727639845703862
30
-6.6613381477509392e-15
10
11.92683699528736
20
-15.743562432147321
30
-4.4408920985006262e-15
10
11.942129766971235
20
-15.763465627700231
30
-4.4408920985006262e-15
10
11.957397725000041
20
-15.783233395999993
30
-4.4408920985006262e-15
0
SPLINE
5
184
100
AcDbEntity
8
0
100
AcDbSpline
70
0
71
3
72
11
73
7
74
0
42
0.000000001
43
0.0000000001
44
0.0000000001
40
0
40
0
40
0
40
0
40
7.5044797771376949e-05
40
7.5044797771376949e-05
40
7.5044797771376949e-05
40
0.000152375
40
0.000152375
40
0.000152375
40
0.000152375
10
11.957397725000041
20
-15.783233395999993
30
-4.4408920985006262e-15
10
11.969554014963402
20
-15.805096112191613
30
-4.4408920985006262e-15
10
11.981884169925205
20
-15.827190893944945
30
-6.6613381477509392e-15
10
11.989253428322177
20
-15.850968712980427
30
-6.6613381477509392e-15
10
11.99684710915065
20
-15.875470658607234
30
-4.4408920985006262e-15
10
11.999073185770941
20
-15.901376652429251
30
-4.4408920985006262e-15
10
12.001326944000033
20
-15.927026024999996
30
-4.4408920985006262e-15
0
LINE
5
185
100
AcDbEntity
8
0
100
AcDbLine
10
12.512104179000039
20
-15.95049118199999
30
-4.4408920985006262e-15
11
12.406237986000042
21
-15.923751792999994
31
-4.4408920985006262e-15
0
SPLINE
5
186
100
AcDbEntity
8
0
100
AcDbSpline
70
0
71
3
72
11
73
7
74
0
42
0.000000001
43
0.0000000001
44
0.0000000001
40
0
40
0
40
0
40
0
40
0.00012443556881615756
40
0.00012443556881615756
40
0.00012443556881615756
40
0.00023625600000000001
40
0.00023625600000000001
40
0.00023625600000000001
40
0.00023625600000000001
10
12.406237986000042
20
-15.923751792999994
30
-4.4408920985006262e-15
10
12.418524015222783
20
-15.884134425060861
30
-4.4408920985006262e-15
10
12.43084071795951
20
-15.843883270787614
30
-4.4408920985006262e-15
10
12.452827956164603
20
-15.808813176834366
30
-4.4408920985006262e-15
10
12.47258615295693
20
-15.777298449455222
30
-4.4408920985006262e-15
10
12.499513475217618
20
-15.75095658966697
30
-4.4408920985006262e-15
10
12.526020076000037
20
-15.724843195999995
30
-4.4408920985006262e-15
0
SPLINE
5
187
100
AcDbEntity
8
0
100
AcDbSpline
70
0
71
3
72
11
73
7
74
0
42
0.000000001
43
0.0000000001
44
0.0000000001
40
0
40
0
40
0
40
0
40
0.00010932616485736675
40
0.00010932616485736675
40
0.00010932616485736675
40
0.000226195
40
0.000226195
40
0.000226195
40
0.000226195
10
12.526020076000037
20
-15.724843195999995
30
-4.4408920985006262e-15
10
12.556684159929565
20
-15.705152161468273
30
-4.4408920985006262e-15
10
12.587603310663713
20
-15.685111228579602
30
-4.4408920985006262e-15
10
12.622131372378798
20
-15.673478893728667
30
-4.4408920985006262e-15
10
12.659041606608996
20
-15.661044016626825
30
-6.6613381477509392e-15
10
12.698568928629665
20
-15.658766214706432
30
-4.4408920985006262e-15
10
12.73747947400004
20
-15.65635745899999
30
-4.4408920985006262e-15
0
SPLINE
5
188
100
AcDbEntity
8
0
100
AcDbSpline
70
0
71
3
72
11
73
7
74
0
42
0.000000001
43
0.0000000001
44
0.0000000001
40
0
40
0
40
0
40
0
40
0.00011831869155354277
40
0.00011831869155354277
40
0.00011831869155354277
40
0.000219593
40
0.000219593
40
0.000219593
40
0.000219593
10
12.73747947400004
20
-15.65635745899999
30
-4.4408920985006262e-15
10
12.776893452115665
20
-15.657776230615216
30
-4.4408920985006262e-15
10
12.816744005763381
20
-15.659101922412777
30
-4.4408920985006262e-15
10
12.854737307476496
20
-15.669522634928384
30
-4.4408920985006262e-15
10
12.887257489250574
20
-15.678442193112136
30
-4.4408920985006262e-15
10
12.917684336256707
20
-15.693835742935921
30
-4.4408920985006262e-15
10
12.94784810700004
20
-15.709017864999989
30
-4.4408920985006262e-15
0
SPLINE
5
189
100
AcDbEntity
8
0
100
AcDbSpline
70
0
71
3
72
11
73
7
74
0
42
0.000000001
43
0.0000000001
44
0.0000000001
40
0
40
0
40
0
40
0
40
9.6504941372172132e-05
40
9.6504941372172132e-05
40
9.6504941372172132e-05
40
0.000199204
40
0.000199204
40
0.000199204
40
0.000199204
10
12.94784810700004
20
-15.709017864999989
30
-4.4408920985006262e-15
10
12.973194660744598
20
-15.72882598123098
30
-4.4408920985006262e-15
10
12.998663675850528
20
-15.748564977361807
30
-4.4408920985006262e-15
10
13.019198442311604
20
-15.773478945520893
30
-4.4408920985006262e-15
10
13.041051221606716
20
-15.799992003196923
30
-4.4408920985006262e-15
10
13.056085981603394
20
-15.830882266997417
30
-4.4408920985006262e-15
10
13.071176674000036
20
-15.861541679999993
30
-4.4408920985006262e-15
0
SPLINE
5
190
100
AcDbEntity
8
0
100
AcDbSpline
70
0
71
3
72
11
73
7
74
0
42
0.000000001
43
0.0000000001
44
0.0000000001
40
0
40
0
40
0
40
0
40
0.00010842926342996349
40
0.00010842926342996349
40
0.00010842926342996349
40
0.00021991299999999999
40
0.00021991299999999999
40
0.00021991299999999999
40
0.00021991299999999999
10
13.071176674000036
20
-15.861541679999993
30
-4.4408920985006262e-15
10
13.083449598958117
20
-15.895537389685948
30
-4.4408920985006262e-15
10
13.095797235516491
20
-15.929633231638434
30
-6.6613381477509392e-15
10
13.102895286573739
20
-15.965088661091226
30
-6.6613381477509392e-15
10
13.110193291090182
20
-16.0015428767896
30
-4.4408920985006262e-15
10
13.111817493597941
20
-16.038862692744434
30
-4.4408920985006262e-15
10
13.113468554000036
20
-16.076002768999999
30
-4.4408920985006262e-15
0
SPLINE
5
191
100
AcDbEntity
8
0
100
AcDbSpline
70
0
71
3
72
11
73
7
74
0
42
0.000000001
43
0.0000000001
44
0.0000000001
40
0
40
0
40
0
40
0
40
0.00011780125988765289
40
0.00011780125988765289
40
0.00011780125988765289
40
0.00022512000000000001
40
0.00022512000000000001
40
0.00022512000000000001
40
0.00022512000000000001
10
13.113468554000036
20
-16.076002768999999
30
-4.4408920985006262e-15
10
13.111886430739537
20
-16.11523809132667
30
-4.4408920985006262e-15
10
13.110354510394915
20
-16.154744253591357
30
-4.4408920985006262e-15
10
13.1015315307845
20
-16.192987763992214
30
-4.4408920985006262e-15
10
13.093493662117144
20
-16.227828183845169
30
-6.6613381477509392e-15
10
13.079539643311113
20
-16.261018039118746
30
-4.4408920985006262e-15
10
13.065719869000034
20
-16.294010928999999
30
-4.4408920985006262e-15
0
SPLINE
5
192
100
AcDbEntity
8
0
100
AcDbSpline
70
0
71
3
72
11
73
7
74
0
42
0.000000001
43
0.0000000001
44
0.0000000001
40
0
40
0
40
0
40
0
40
0.00010057923284151414
40
0.00010057923284151414
40
0.00010057923284151414
40
0.00019925300000000001
40
0.00019925300000000001
40
0.00019925300000000001
40
0.00019925300000000001
10
13.065719869000034
20
-16.294010928999999
30
-4.4408920985006262e-15
10
13.048468783725049
20
-16.322758483288759
30
-4.4408920985006262e-15
10
13.031295745652347
20
-16.351664083030165
30
-2.2204460492503131e-15
10
13.007875351311258
20
-16.375866432812799
30
-2.2204460492503131e-15
10
12.984898654505308
20
-16.399610270975732
30
-6.6613381477509392e-15
10
12.957304521524406
20
-16.417427057890727
30
-4.4408920985006262e-15
10
12.929839756000039
20
-16.435347995999997
30
-4.4408920985006262e-15
0
SPLINE
5
193
100
AcDbEntity
8
0
100
AcDbSpline
70
0
71
3
72
11
73
7
74
0
42
0.000000001
43
0.0000000001
44
0.0000000001
40
0
40
0
40
0
40
0
40
9.9637639872728162e-05
40
9.9637639872728162e-05
40
9.9637639872728162e-05
40
0.000202141
40
0.000202141
40
0.000202141
40
0.000202141
10
12.929839756000039
20
-16.435347995999997
30
-4.4408920985006262e-15
10
12.89971341045363
20
-16.449329289885203
30
-4.4408920985006262e-15
10
12.869405564934988
20
-16.463451120540121
30
-2.2204460492503131e-15
10
12.83727553394999
20
-16.471568992544888
30
-2.2204460492503131e-15
10
12.804221397569764
20
-16.479920346095977
30
-6.6613381477509392e-15
10
12.769895028760576
20
-16.481758617338386
30
-4.4408920985006262e-15
10
12.735842731000035
20
-16.483642659999994
30
-4.4408920985006262e-15
0
SPLINE
5
194
100
AcDbEntity
8
0
100
AcDbSpline
70
0
71
3
72
11
73
7
74
0
42
0.000000001
43
0.0000000001
44
0.0000000001
40
0
40
0
40
0
40
0
40
0.00011193230443055777
40
0.00011193230443055777
40
0.00011193230443055777
40
0.000214286
40
0.000214286
40
0.000214286
40
0.000214286
10
12.735842731000035
20
-16.483642659999994
30
-4.4408920985006262e-15
10
12.698587985259904
20
-16.481597812886669
30
-4.4408920985006262e-15
10
12.660914478444036
20
-16.479692676151426
30
-4.4408920985006262e-15
10
12.625338101382129
20
-16.46836300821192
30
-4.4408920985006262e-15
10
12.592806173394191
20
-16.458002876799608
30
-4.4408920985006262e-15
10
12.563227467645222
20
-16.440109556932573
30
-4.4408920985006262e-15
10
12.533932592000037
20
-16.422523981999998
30
-4.4408920985006262e-15
0
SPLINE
5
195
100
AcDbEntity
8
0
100
AcDbSpline
70
0
71
3
72
11
73
7
74
0
42
0.000000001
43
0.0000000001
44
0.0000000001
40
0
40
0
40
0
40
0
40
0.00010150066118453974
40
0.00010150066118453974
40
0.00010150066118453974
40
0.000209466
40
0.000209466
40
0.000209466
40
0.000209466
10
12.533932592000037
20
-16.422523981999998
30
-4.4408920985006262e-15
10
12.508870198158002
20
-16.399795273189589
30
-4.4408920985006262e-15
10
12.48355634513107
20
-16.377051879632209
30
-4.4408920985006262e-15
10
12.464491394094042
20
-16.348990552921872
30
-4.4408920985006262e-15
10
12.444212177444696
20
-16.319141972523109
30
-4.4408920985006262e-15
10
12.432031742993495
20
-16.284629098793996
30
-4.4408920985006262e-15
10
12.419880893000039
20
-16.250627688999998
30
-4.4408920985006262e-15
0
LINE
5
196
100
AcDbEntity
8
0
100
AcDbLine
10
12.419880893000039
20
-16.250627688999991
30
-4.4408920985006262e-15
11
12.524109747000036
21
-16.226071021999996
31
-4.4408920985006262e-15
0
SPLINE
5
197
100
AcDbEntity
8
0
100
AcDbSpline
70
0
71
3
72
11
73
7
74
0
42
0.000000001
43
0.0000000001
44
0.0000000001
40
0
40
0
40
0
40
0
40
8.317765367597013e-05
40
8.317765367597013e-05
40
8.317765367597013e-05
40
0.00015340699999999999
40
0.00015340699999999999
40
0.00015340699999999999
40
0.00015340699999999999
10
12.524109747000036
20
-16.226071021999996
30
-4.4408920985006262e-15
10
12.533436798620299
20
-16.252181202436478
30
-4.4408920985006262e-15
10
12.542896347621131
20
-16.27877241294183
30
-4.4408920985006262e-15
10
12.558216120823165
20
-16.30151440901788
30
-4.4408920985006262e-15
10
12.571151057194436
20
-16.320716147080198
30
-4.4408920985006262e-15
10
12.588086549862014
20
-16.337008860529188
30
-4.4408920985006262e-15
10
12.60487344500004
20
-16.353219724999995
30
-4.4408920985006262e-15
0
SPLINE
5
198
100
AcDbEntity
8
0
100
AcDbSpline
70
0
71
3
72
11
73
7
74
0
42
0.000000001
43
0.0000000001
44
0.0000000001
40
0
40
0
40
0
40
0
40
6.700738336519063e-05
40
6.700738336519063e-05
40
6.700738336519063e-05
40
0.00014189899999999999
40
0.00014189899999999999
40
0.00014189899999999999
40
0.00014189899999999999
10
12.60487344500004
20
-16.353219724999995
30
-4.4408920985006262e-15
10
12.62404162627754
20
-16.36468631730089
30
-4.4408920985006262e-15
10
12.643509267859629
20
-16.376382988792667
30
-4.4408920985006262e-15
10
12.664628291071569
20
-16.383096924567205
30
-4.4408920985006262e-15
10
12.688232224110862
20
-16.390600836507719
30
-4.4408920985006262e-15
10
12.713226703187361
20
-16.391781394476453
30
-4.4408920985006262e-15
10
12.738025453000041
20
-16.393056042000001
30
-4.4408920985006262e-15
0
SPLINE
5
199
100
AcDbEntity
8
0
100
AcDbSpline
70
0
71
3
72
11
73
7
74
0
42
0.000000001
43
0.0000000001
44
0.0000000001
40
0
40
0
40
0
40
0
40
8.5774716673008735e-05
40
8.5774716673008735e-05
40
8.5774716673008735e-05
40
0.00016339699999999999
40
0.00016339699999999999
40
0.00016339699999999999
40
0.00016339699999999999
10
12.738025453000041
20
-16.393056042000001
30
-4.4408920985006262e-15
10
12.766582112318341
20
-16.391640696377475
30
-4.4408920985006262e-15
10
12.795637092920149
20
-16.390240070311869
30
-4.4408920985006262e-15
10
12.822677755710652
20
-16.382005565026464
30
-4.4408920985006262e-15
10
12.847148346461497
20
-16.374553705934257
30
-4.4408920985006262e-15
10
12.869759269639589
20
-16.361622745838954
30
-4.4408920985006262e-15
10
12.892186310000042
20
-16.348854130999996
30
-4.4408920985006262e-15
0
SPLINE
5
200
100
AcDbEntity
8
0
100
AcDbSpline
70
0
71
3
72
11
73
7
74
0
42
0.000000001
43
0.0000000001
44
0.0000000001
40
0
40
0
40
0
40
0
40
7.4160972753053504e-05
40
7.4160972753053504e-05
40
7.4160972753053504e-05
40
0.00015012399999999999
40
0.00015012399999999999
40
0.00015012399999999999
40
0.00015012399999999999
10
12.892186310000042
20
-16.348854130999996
30
-4.4408920985006262e-15
10
12.911105625387833
20
-16.332942667885867
30
-4.4408920985006262e-15
10
12.93037362773819
20
-16.316792573611657
30
-4.4408920985006262e-15
10
12.944914962554597
20
-16.297080569109305
30
-4.4408920985006262e-15
10
12.959809640602371
20
-16.276889578086436
30
-6.6613381477509392e-15
10
12.969514696354025
20
-16.253427320169887
30
-4.4408920985006262e-15
10
12.979225781000041
20
-16.230163774999994
30
-4.4408920985006262e-15
0
SPLINE
5
201
100
AcDbEntity
8
0
100
AcDbSpline
70
0
71
3
72
11
73
7
74
0
42
0.000000001
43
0.0000000001
44
0.0000000001
40
0
40
0
40
0
40
0
40
7.8024394245868818e-05
40
7.8024394245868818e-05
40
7.8024394245868818e-05
40
0.000156336
40
0.000156336
40
0.000156336
40
0.000156336
10
12.979225781000041
20
-16.230163774999994
30
-4.4408920985006262e-15
10
12.986523708348114
20
-16.205200418755513
30
-4.4408920985006262e-15
10
12.993856619459132
20
-16.18015158930454
30
-6.6613381477509392e-15
10
12.998053099505347
20
-16.154515720710702
30
-6.6613381477509392e-15
10
13.002265026994309
20
-16.128785485264597
30
-4.4408920985006262e-15
10
13.003293145706589
20
-16.102621575206296
30
-4.4408920985006262e-15
10
13.004328277000035
20
-16.076548448999993
30
-4.4408920985006262e-15
0
SPLINE
5
202
100
AcDbEntity
8
0
100
AcDbSpline
70
0
71
3
72
11
73
7
74
0
42
0.000000001
43
0.0000000001
44
0.0000000001
40
0
40
0
40
0
40
0
40
9.602015315571251e-05
40
9.602015315571251e-05
40
9.602015315571251e-05
40
0.00018162399999999999
40
0.00018162399999999999
40
0.00018162399999999999
40
0.00018162399999999999
10
13.004328277000035
20
-16.076548448999993
30
-4.4408920985006262e-15
10
13.003399401203213
20
-16.044555169871021
30
-4.4408920985006262e-15
10
13.002495406423211
20
-16.012486747722544
30
-4.4408920985006262e-15
10
12.996893193771042
20
-15.980982388349062
30
-4.4408920985006262e-15
10
12.991898711486805
20
-15.952895635036327
30
-4.4408920985006262e-15
10
12.98321757861193
20
-15.925583762650444
30
-4.4408920985006262e-15
10
12.974587347000046
20
-15.898376605999992
30
-4.4408920985006262e-15
0
SPLINE
5
203
100
AcDbEntity
8
0
100
AcDbSpline
70
0
71
3
72
11
73
7
74
0
42
0.000000001
43
0.0000000001
44
0.0000000001
40
0
40
0
40
0
40
0
40
7.6929858497649633e-05
40
7.6929858497649633e-05
40
7.6929858497649633e-05
40
0.00014975500000000001
40
0.00014975500000000001
40
0.00014975500000000001
40
0.00014975500000000001
10
12.974587347000046
20
-15.898376605999992
30
-4.4408920985006262e-15
10
12.963775097661028
20
-15.87512397531539
30
-4.4408920985006262e-15
10
12.952805275198198
20
-15.851402419144932
30
-4.4408920985006262e-15
10
12.936592368884225
20
-15.831869000813402
30
-4.4408920985006262e-15
10
12.921244528402811
20
-15.813377819602374
30
-6.6613381477509392e-15
10
12.901557736374389
20
-15.798954753598471
30
-4.4408920985006262e-15
10
12.882091071000037
20
-15.784597596999994
30
-4.4408920985006262e-15
0
SPLINE
5
204
100
AcDbEntity
8
0
100
AcDbSpline
70
0
71
3
72
11
73
7
74
0
42
0.000000001
43
0.0000000001
44
0.0000000001
40
0
40
0
40
0
40
0
40
7.1358585714829275e-05
40
7.1358585714829275e-05
40
7.1358585714829275e-05
40
0.00014276999999999999
40
0.00014276999999999999
40
0.00014276999999999999
40
0.00014276999999999999
10
12.882091071000037
20
-15.784597596999994
30
-4.4408920985006262e-15
10
12.860939294407272
20
-15.773716296222769
30
-4.4408920985006262e-15
10
12.839594173439952
20
-15.762688256732694
30
-4.4408920985006262e-15
10
12.816742925217239
20
-15.756357513565536
30
-4.4408920985006262e-15
10
12.793874759636061
20
-15.750022083588689
30
-4.4408920985006262e-15
10
12.76994457004033
20
-15.748500581376668
30
-4.4408920985006262e-15
10
12.746210362000037
20
-15.746944150999994
30
-4.4408920985006262e-15
0
SPLINE
5
205
100
AcDbEntity
8
0
100
AcDbSpline
70
0
71
3
72
11
73
7
74
0
42
0.000000001
43
0.0000000001
44
0.0000000001
40
0
40
0
40
0
40
0
40
8.3563365675909908e-05
40
8.3563365675909908e-05
40
8.3563365675909908e-05
40
0.00016272500000000001
40
0.00016272500000000001
40
0.00016272500000000001
40
0.00016272500000000001
10
12.746210362000037
20
-15.746944150999994
30
-4.4408920985006262e-15
10
12.718417708141221
20
-15.748801777948085
30
-4.4408920985006262e-15
10
12.69004890519918
20
-15.750627896754619
30
-4.4408920985006262e-15
10
12.664082315332008
20
-15.759768239462781
30
-4.4408920985006262e-15
10
12.639483525239203
20
-15.768427111220852
30
-4.4408920985006262e-15
10
12.617400418313443
20
-15.783475728085419
30
-4.4408920985006262e-15
10
12.595596578000041
20
-15.798240206999989
30
-4.4408920985006262e-15
0
SPLINE
5
206
100
AcDbEntity
8
0
100
AcDbSpline
70
0
71
3
72
11
73
7
74
0
42
0.000000001
43
0.0000000001
44
0.0000000001
40
0
40
0
40
0
40
0
40
8.2579229969594186e-05
40
8.2579229969594186e-05
40
8.2579229969594186e-05
40
0.000176551
40
0.000176551
40
0.000176551
40
0.000176551
10
12.595596578000041
20
-15.798240206999989
30
-4.4408920985006262e-15
10
12.57667994943386
20
-15.818237015260891
30
-4.4408920985006262e-15
10
12.557626881012505
20
-15.838227725990714
30
-4.4408920985006262e-15
10
12.543891337513946
20
-15.861950864389446
30
-4.4408920985006262e-15
10
12.528260853488309
20
-15.888946820961408
30
-2.2204460492503131e-15
10
12.520132619304674
20
-15.920052387050001
30
-4.4408920985006262e-15
10
12.512104179000039
20
-15.95049118199999
30
-4.4408920985006262e-15
0
LINE
5
207
100
AcDbEntity
8
0
100
AcDbLine
10
14.406783547000046
20
-15.670000067999993
30
-4.4408920985006262e-15
11
14.716742601000039
21
-16.470000049999992
31
-4.4408920985006262e-15
0
LINE
5
208
100
AcDbEntity
8
0
100
AcDbLine
10
14.716742601000039
20
-16.470000049999992
30
-4.4408920985006262e-15
11
14.60214492300004
21
-16.470000049999992
31
-4.4408920985006262e-15
0
LINE
5
209
100
AcDbEntity
8
0
100
AcDbLine
10
14.60214492300004
20
-16.470000049999992
30
-4.4408920985006262e-15
11
14.394232299000045
21
-15.888826749999993
31
-4.4408920985006262e-15
0
SPLINE
5
210
100
AcDbEntity
8
0
100
AcDbSpline
70
0
71
3
72
11
73
7
74
0
42
0.000000001
43
0.0000000001
44
0.0000000001
40
0
40
0
40
0
40
0
40
7.1490767023607045e-05
40
7.1490767023607045e-05
40
7.1490767023607045e-05
40
0.000137575
40
0.000137575
40
0.000137575
40
0.000137575
10
14.394232299000045
20
-15.888826749999993
30
-4.4408920985006262e-15
10
14.386328237751123
20
-15.866345450297228
30
-4.4408920985006262e-15
10
14.378422010516978
20
-15.84385816638159
30
-4.4408920985006262e-15
10
14.371176328779356
20
-15.821159684081959
30
-4.4408920985006262e-15
10
14.364478606262772
20
-15.800177788727488
30
-4.4408920985006262e-15
10
14.358345290430403
20
-15.779015433770084
30
-4.4408920985006262e-15
10
14.352213408000036
20
-15.757858208999998
30
-4.4408920985006262e-15
0
SPLINE
5
211
100
AcDbEntity
8
0
100
AcDbSpline
70
0
71
3
72
11
73
7
74
0
42
0.000000001
43
0.0000000001
44
0.0000000001
40
0
40
0
40
0
40
0
40
6.8490757865082475e-05
40
6.8490757865082475e-05
40
6.8490757865082475e-05
40
0.00013792000000000001
40
0.00013792000000000001
40
0.00013792000000000001
40
0.00013792000000000001
10
14.352213408000036
20
-15.757858208999998
30
-4.4408920985006262e-15
10
14.345752347962044
20
-15.779755110685789
30
-4.4408920985006262e-15
10
14.33928937769803
20
-15.801658732102176
30
-4.4408920985006262e-15
10
14.332158531091279
20
-15.82334255634786
30
-4.4408920985006262e-15
10
14.324929975135428
20
-15.845323499921742
30
-6.6613381477509392e-15
10
14.317015117841185
20
-15.867078582684385
30
-4.4408920985006262e-15
10
14.30910285900004
20
-15.88882674999998
30
2.2204460492503131e-15
0
LINE
5
212
100
AcDbEntity
8
0
100
AcDbLine
10
14.30910285900004
20
-15.88882674999998
30
2.2204460492503131e-15
11
14.093004729000036
21
-16.470000049999992
31
-4.4408920985006262e-15
0
LINE
5
213
100
AcDbEntity
8
0
100
AcDbLine
10
14.093004729000036
20
-16.470000049999992
30
-4.4408920985006262e-15
11
13.984955515000044
21
-16.470000049999992
31
-4.4408920985006262e-15
0
LINE
5
214
100
AcDbEntity
8
0
100
AcDbLine
10
13.984955515000044
20
-16.470000049999992
30
-4.4408920985006262e-15
11
14.298188653000032
21
-15.670000067999993
31
-4.4408920985006262e-15
0
LINE
5
215
100
AcDbEntity
8
0
100
AcDbLine
10
14.298188653000032
20
-15.670000067999993
30
-4.4408920985006262e-15
11
14.406783547000046
21
-15.670000067999993
31
-4.4408920985006262e-15
0
LWPOLYLINE
5
216
100
AcDbEntity
8
0
100
AcDbPolyline
90
10
70
1
43
0.0
10
16.561217572000039
20
-15.670000067999993
10
16.561217572000039
20
-16.470000049999992
10
16.452622678000033
20
-16.470000049999992
10
16.032431688000042
20
-15.841896436999994
10
16.032431688000042
20
-16.470000049999992
10
15.930930938000039
20
-16.470000049999992
10
15.930930938000039
20
-15.670000067999993
10
16.039525833000035
20
-15.670000067999993
10
16.459716823000043
20
-16.298649436999991
10
16.459716823000043
20
-15.670000067999993
0
LINE
5
217
100
AcDbEntity
8
0
100
AcDbLine
10
9.5582165980000422
20
-15.927026024999996
30
-4.4408920985006262e-15
11
9.4583531880000393
21
-15.935757211999997
31
-4.4408920985006262e-15
0
SPLINE
5
218
100
AcDbEntity
8
0
100
AcDbSpline
70
0
71
3
72
11
73
7
74
0
42
0.000000001
43
0.0000000001
44
0.0000000001
40
0
40
0
40
0
40
0
40
5.6024650312935342e-05
40
5.6024650312935342e-05
40
5.6024650312935342e-05
40
0.00010497600000000001
40
0.00010497600000000001
40
0.00010497600000000001
40
0.00010497600000000001
10
9.4583531880000393
20
-15.935757211999997
30
-4.4408920985006262e-15
10
9.4555560105748793
20
-15.917292508509044
30
-4.4408920985006262e-15
10
9.4527684398486045
20
-15.898703524963565
30
-6.6613381477509392e-15
10
9.446552063334126
20
-15.881118825046352
30
-6.6613381477509392e-15
10
9.441120525272817
20
-15.865754252666484
30
-2.2204460492503131e-15
10
9.4332066208696297
20
-15.851493792378676
30
-4.4408920985006262e-15
10
9.4253381750000376
20
-15.83725785399999
30
-4.4408920985006262e-15
0
SPLINE
5
219
100
AcDbEntity
8
0
100
AcDbSpline
70
0
71
3
72
11
73
7
74
0
42
0.000000001
43
0.0000000001
44
0.0000000001
40
0
40
0
40
0
40
0
40
4.8104887774443123e-05
40
4.8104887774443123e-05
40
4.8104887774443123e-05
40
0.00010308500000000001
40
0.00010308500000000001
40
0.00010308500000000001
40
0.00010308500000000001
10
9.4253381750000376
20
-15.83725785399999
30
-4.4408920985006262e-15
10
9.4150680840250089
20
-15.824941981541279
30
-4.4408920985006262e-15
10
9.4047145172970037
20
-15.812481597613729
30
-4.4408920985006262e-15
10
9.3922552109902746
20
-15.802469303514579
30
-4.4408920985006262e-15
10
9.3780152014883544
20
-15.791026036963629
30
-4.4408920985006262e-15
10
9.3613354689265993
20
-15.783015510165534
30
-4.4408920985006262e-15
10
9.3448468700000387
20
-15.775047889999993
30
-4.4408920985006262e-15
0
SPLINE
5
220
100
AcDbEntity
8
0
100
AcDbSpline
70
0
71
3
72
11
73
7
74
0
42
0.000000001
43
0.0000000001
44
0.0000000001
40
0
40
0
40
0
40
0
40
6.0736817734020447e-05
40
6.0736817734020447e-05
40
6.0736817734020447e-05
40
0.00012588000000000001
40
0.00012588000000000001
40
0.00012588000000000001
40
0.00012588000000000001
10
9.3448468700000387
20
-15.775047889999993
30
-4.4408920985006262e-15
10
9.3258083914643208
20
-15.768160640743289
30
-4.4408920985006262e-15
10
9.3067152069109138
20
-15.761232153061027
30
-6.6613381477509392e-15
10
9.286865853911257
20
-15.757244280642787
30
-6.6613381477509392e-15
10
9.2655764602854607
20
-15.75296709409454
30
-4.4408920985006262e-15
10
9.2437702285772794
20
-15.752147567900657
30
-4.4408920985006262e-15
10
9.2220636860000393
20
-15.751309743999995
30
-4.4408920985006262e-15
0
SPLINE
5
221
100
AcDbEntity
8
0
100
AcDbSpline
70
0
71
3
72
11
73
7
74
0
42
0.000000001
43
0.0000000001
44
0.0000000001
40
0
40
0
40
0
40
0
40
5.7310832656784063e-05
40
5.7310832656784063e-05
40
5.7310832656784063e-05
40
0.000109054
40
0.000109054
40
0.000109054
40
0.000109054
10
9.2220636860000393
20
-15.751309743999995
30
-4.4408920985006262e-15
10
9.2029687974746111
20
-15.751895024965972
30
-4.4408920985006262e-15
10
9.1838200724753793
20
-15.752468735899733
30
-4.4408920985006262e-15
10
9.1650381366673717
20
-15.755811832029881
30
-4.4408920985006262e-15
10
9.1480808390241197
20
-15.758830151158879
30
-4.4408920985006262e-15
10
9.1315511945457306
20
-15.764091311685874
30
-4.4408920985006262e-15
10
9.1151061320000348
20
-15.769317946999998
30
-4.4408920985006262e-15
0
SPLINE
5
222
100
AcDbEntity
8
0
100
AcDbSpline
70
0
71
3
72
11
73
7
74
0
42
0.000000001
43
0.0000000001
44
0.0000000001
40
0
40
0
40
0
40
0
40
4.6014095180861101e-05
40
4.6014095180861101e-05
40
4.6014095180861101e-05
40
8.6094999999999995e-05
40
8.6094999999999995e-05
40
8.6094999999999995e-05
40
8.6094999999999995e-05
10
9.1151061320000348
20
-15.769317946999998
30
-4.4408920985006262e-15
10
9.1010403537174689
20
-15.775437613022678
30
-4.4408920985006262e-15
10
9.0868390732746018
20
-15.781589659315291
30
-4.4408920985006262e-15
10
9.0746560361224748
20
-15.790668478775945
30
-4.4408920985006262e-15
10
9.0640439149760521
20
-15.79857664902776
30
-4.4408920985006262e-15
10
9.0550014031225157
20
-15.808709658377161
30
-4.4408920985006262e-15
10
9.0460750120000366
20
-15.818703970999998
30
-4.4408920985006262e-15
0
SPLINE
5
223
100
AcDbEntity
8
0
100
AcDbSpline
70
0
71
3
72
11
73
7
74
0
42
0.000000001
43
0.0000000001
44
0.0000000001
40
0
40
0
40
0
40
0
40
3.7160838927852022e-05
40
3.7160838927852022e-05
40
3.7160838927852022e-05
40
7.3447000000000003e-05
40
7.3447000000000003e-05
40
7.3447000000000003e-05
40
7.3447000000000003e-05
10
9.0460750120000366
20
-15.818703970999998
30
-4.4408920985006262e-15
10
9.0395345616941647
20
-15.829226893727203
30
-4.4408920985006262e-15
10
9.0328898096682941
20
-15.839881622993005
30
-4.4408920985006262e-15
10
9.0290900718589562
20
-15.851514393400326
30
-4.4408920985006262e-15
10
9.0253797708496197
20
-15.862873356031253
30
-4.4408920985006262e-15
10
9.0244040435737727
20
-15.875122033366855
30
-4.4408920985006262e-15
10
9.023428227000041
20
-15.88718970799999
30
-4.4408920985006262e-15
0
SPLINE
5
224
100
AcDbEntity
8
0
100
AcDbSpline
70
0
71
3
72
11
73
7
74
0
42
0.000000001
43
0.0000000001
44
0.0000000001
40
0
40
0
40
0
40
0
40
3.5894648932177294e-05
40
3.5894648932177294e-05
40
3.5894648932177294e-05
40
7.0642000000000006e-05
40
7.0642000000000006e-05
40
7.0642000000000006e-05
40
7.0642000000000006e-05
10
9.023428227000041
20
-15.88718970799999
30
-4.4408920985006262e-15
10
9.0242706727427446
20
-15.899128616179343
30
-4.4408920985006262e-15
10
9.0251001886831084
20
-15.911250991923014
30
-4.4408920985006262e-15
10
9.0288850333039594
20
-15.922455840431544
30
-4.4408920985006262e-15
10
9.0325489032313655
20
-15.933302549241084
30
-4.4408920985006262e-15
10
9.0389654929524177
20
-15.943204633116373
30
-4.4408920985006262e-15
10
9.045256044000034
20
-15.952946892999996
30
-4.4408920985006262e-15
0
SPLINE
5
225
100
AcDbEntity
8
0
100
AcDbSpline
70
0
71
3
72
11
73
7
74
0
42
0.000000001
43
0.0000000001
44
0.0000000001
40
0
40
0
40
0
40
0
40
3.8952086101331843e-05
40
3.8952086101331843e-05
40
3.8952086101331843e-05
40
8.7307999999999998e-05
40
8.7307999999999998e-05
40
8.7307999999999998e-05
40
8.7307999999999998e-05
10
9.045256044000034
20
-15.952946892999996
30
-4.4408920985006262e-15
10
9.0544114875769566
20
-15.962155779561416
30
-4.4408920985006262e-15
10
9.0636357341988028
20
-15.971444029006122
30
-4.4408920985006262e-15
10
9.0741785995950774
20
-15.978799511795373
30
-4.4408920985006262e-15
10
9.0872667276614738
20
-15.987930758104358
30
-6.6613381477509392e-15
10
9.1023655471143439
20
-15.994068325831066
30
-4.4408920985006262e-15
10
9.1172888540000407
20
-16.000150195999993
30
-4.4408920985006262e-15
0
SPLINE
5
226
100
AcDbEntity
8
0
100
AcDbSpline
70
0
71
3
72
11
73
7
74
0
42
0.000000001
43
0.0000000001
44
0.0000000001
40
0
40
0
40
0
40
0
40
5.4137104833190015e-05
40
5.4137104833190015e-05
40
5.4137104833190015e-05
40
0.000147739
40
0.000147739
40
0.000147739
40
0.000147739
10
9.1172888540000407
20
-16.000150195999993
30
-4.4408920985006262e-15
10
9.1344731282551272
20
-16.005659242288392
30
-4.4408920985006262e-15
10
9.1516627062526812
20
-16.01117006233607
30
-4.4408920985006262e-15
10
9.168994094790861
20
-16.016180119545499
30
-4.4408920985006262e-15
10
9.1989596945037544
20
-16.024842401193951
30
-4.4408920985006262e-15
10
9.2293492700263879
20
-16.032007534001615
30
-4.4408920985006262e-15
10
9.2597171330000361
20
-16.039167842999994
30
-4.4408920985006262e-15
0
SPLINE
5
227
100
AcDbEntity
8
0
100
AcDbSpline
70
0
71
3
72
11
73
7
74
0
42
0.000000001
43
0.0000000001
44
0.0000000001
40
0
40
0
40
0
40
0
40
9.7270243467012524e-05
40
9.7270243467012524e-05
40
9.7270243467012524e-05
40
0.000162602
40
0.000162602
40
0.000162602
40
0.000162602
10
9.2597171330000361
20
-16.039167842999994
30
-4.4408920985006262e-15
10
9.2912529844798897
20
-16.046702497999654
30
-4.4408920985006262e-15
10
9.3228287629778528
20
-16.05424021181669
30
-4.4408920985006262e-15
10
9.3534418609656367
20
-16.06488411848915
30
-4.4408920985006262e-15
10
9.3740032103893789
20
-16.072033120018293
30
-4.4408920985006262e-15
10
9.394098696550337
20
-16.08057612410629
30
-4.4408920985006262e-15
10
9.4141509790000377
20
-16.089099696999995
30
-4.4408920985006262e-15
0
SPLINE
5
228
100
AcDbEntity
8
0
100
AcDbSpline
70
0
71
3
72
11
73
7
74
0
42
0.000000001
43
0.0000000001
44
0.0000000001
40
0
40
0
40
0
40
0
40
6.0403070787061167e-05
40
6.0403070787061167e-05
40
6.0403070787061167e-05
40
0.000114565
40
0.000114565
40
0.000114565
40
0.000114565
10
9.4141509790000377
20
-16.089099696999995
30
-4.4408920985006262e-15
10
9.4315858146355946
20
-16.099171756783544
30
-4.4408920985006262e-15
10
9.4491701263653383
20
-16.109276933655195
30
-4.4408920985006262e-15
10
9.4641509332781926
20
-16.122728639381062
30
-4.4408920985006262e-15
10
9.4775838497341525
20
-16.134790448885528
30
-4.4408920985006262e-15
10
9.4885856852260986
20
-16.149240312610495
30
-4.4408920985006262e-15
10
9.4995537060000412
20
-16.163588068999989
30
-4.4408920985006262e-15
0
SPLINE
5
229
100
AcDbEntity
8
0
100
AcDbSpline
70
0
71
3
72
11
73
7
74
0
42
0.000000001
43
0.0000000001
44
0.0000000001
40
0
40
0
40
0
40
0
40
5.1755885426592615e-05
40
5.1755885426592615e-05
40
5.1755885426592615e-05
40
0.000104879
40
0.000104879
40
0.000104879
40
0.000104879
10
9.4995537060000412
20
-16.163588068999989
30
-4.4408920985006262e-15
10
9.5076685065430766
20
-16.178813520597984
30
-4.4408920985006262e-15
10
9.5158971942263992
20
-16.194171894168644
30
-4.4408920985006262e-15
10
9.5206316978438554
20
-16.21072312717104
30
-4.4408920985006262e-15
10
9.5254912722873364
20
-16.227711592151802
30
-4.4408920985006262e-15
10
9.5265563483795646
20
-16.24552017032363
30
-4.4408920985006262e-15
10
9.5276572960000383
20
-16.263178787999998
30
-4.4408920985006262e-15
0
SPLINE
5
230
100
AcDbEntity
8
0
100
AcDbSpline
70
0
71
3
72
11
73
7
74
0
42
0.000000001
43
0.0000000001
44
0.0000000001
40
0
40
0
40
0
40
0
40
5.9375528518358649e-05
40
5.9375528518358649e-05
40
5.9375528518358649e-05
40
0.000120023
40
0.000120023
40
0.000120023
40
0.000120023
10
9.5276572960000383
20
-16.263178787999998
30
-4.4408920985006262e-15
10
9.526184016954069
20
-16.28291620526895
30
-4.4408920985006262e-15
10
9.5247427418809139
20
-16.302862314028776
30
-6.6613381477509392e-15
10
9.5190623058971457
20
-16.321773582821638
30
-6.6613381477509392e-15
10
9.5132601835762998
20
-16.341089968939229
30
-4.4408920985006262e-15
10
9.5032011761094015
20
-16.358815673545998
30
-4.4408920985006262e-15
10
9.4932779330000372
20
-16.376412114999997
30
-4.4408920985006262e-15
0
SPLINE
5
231
100
AcDbEntity
8
0
100
AcDbSpline
70
0
71
3
72
11
73
7
74
0
42
0.000000001
43
0.0000000001
44
0.0000000001
40
0
40
0
40
0
40
0
40
6.2886910610969937e-05
40
6.2886910610969937e-05
40
6.2886910610969937e-05
40
0.00013031300000000001
40
0.00013031300000000001
40
0.00013031300000000001
40
0.00013031300000000001
10
9.4932779330000372
20
-16.376412114999997
30
-4.4408920985006262e-15
10
9.4802906016835564
20
-16.392867333775719
30
-4.4408920985006262e-15
10
9.4671927275787304
20
-16.409543682592499
30
-4.4408920985006262e-15
10
9.4509854562339601
20
-16.422728650545565
30
-4.4408920985006262e-15
10
9.4336083436388751
20
-16.436865309814696
30
-6.6613381477509392e-15
10
9.4131143508558335
20
-16.446634736920899
30
-4.4408920985006262e-15
10
9.3928685450000327
20
-16.456357589999996
30
-4.4408920985006262e-15
0
SPLINE
5
232
100
AcDbEntity
8
0
100
AcDbSpline
70
0
71
3
72
11
73
7
74
0
42
0.000000001
43
0.0000000001
44
0.0000000001
40
0
40
0
40
0
40
0
40
7.2738702967977889e-05
40
7.2738702967977889e-05
40
7.2738702967977889e-05
40
0.00015026300000000001
40
0.00015026300000000001
40
0.00015026300000000001
40
0.00015026300000000001
10
9.3928685450000327
20
-16.456357589999996
30
-4.4408920985006262e-15
10
9.3699517806552457
20
-16.464276784673228
30
-4.4408920985006262e-15
10
9.3469179107607392
20
-16.472251088804835
30
-6.6613381477509392e-15
10
9.3231555464081506
20
-16.476821355569054
30
-6.6613381477509392e-15
10
9.2978298186031694
20
-16.481692307396468
30
-4.4408920985006262e-15
10
9.2718846924020326
20
-16.482660879004602
30
-4.4408920985006262e-15
10
9.2460748220000344
20
-16.483642659999994
30
-4.4408920985006262e-15
0
SPLINE
5
233
100
AcDbEntity
8
0
100
AcDbSpline
70
0
71
3
72
11
73
7
74
0
42
0.000000001
43
0.0000000001
44
0.0000000001
40
0
40
0
40
0
40
0
40
8.4127864105203653e-05
40
8.4127864105203653e-05
40
8.4127864105203653e-05
40
0.000160531
40
0.000160531
40
0.000160531
40
0.000160531
10
9.2460748220000344
20
-16.483642659999994
30
-4.4408920985006262e-15
10
9.2180480389934161
20
-16.482701261168579
30
-4.4408920985006262e-15
10
9.1898566533520398
20
-16.481773563067939
30
-4.4408920985006262e-15
10
9.1623773846576029
20
-16.476480342205221
30
-4.4408920985006262e-15
10
9.1374212976027192
20
-16.471673151660248
30
-4.4408920985006262e-15
10
9.1132414528943517
20
-16.463303257870351
30
-4.4408920985006262e-15
10
9.0891852640000348
20
-16.454993314999996
30
-4.4408920985006262e-15
0
SPLINE
5
234
100
AcDbEntity
8
0
100
AcDbSpline
70
0
71
3
72
11
73
7
74
0
42
0.000000001
43
0.0000000001
44
0.0000000001
40
0
40
0
40
0
40
0
40
6.9952366509636033e-05
40
6.9952366509636033e-05
40
6.9952366509636033e-05
40
0.00013625700000000001
40
0.00013625700000000001
40
0.00013625700000000001
40
0.00013625700000000001
10
9.0891852640000348
20
-16.454993314999996
30
-4.4408920985006262e-15
10
9.0682621567597277
20
-16.444699971248568
30
-4.4408920985006262e-15
10
9.0470614334875332
20
-16.434336103418175
30
-4.4408920985006262e-15
10
9.0290900746375868
20
-16.419590839136081
30
-4.4408920985006262e-15
10
9.0120558494737413
20
-16.405614480754998
30
-6.6613381477509392e-15
10
8.99832974846003
20
-16.38805160136187
30
-4.4408920985006262e-15
10
8.9846834200000369
20
-16.370682245999998
30
-4.4408920985006262e-15
0
SPLINE
5
235
100
AcDbEntity
8
0
100
AcDbSpline
70
0
71
3
72
11
73
7
74
0
42
0.000000001
43
0.0000000001
44
0.0000000001
40
0
40
0
40
0
40
0
40
6.5814325154487825e-05
40
6.5814325154487825e-05
40
6.5814325154487825e-05
40
0.000133659
40
0.000133659
40
0.000133659
40
0.000133659
10
8.9846834200000369
20
-16.370682245999998
30
-4.4408920985006262e-15
10
8.9739982450367783
20
-16.351521870211382
30
-4.4408920985006262e-15
10
8.9631835112195279
20
-16.332221860483195
30
-4.4408920985006262e-15
10
8.9565792340042627
20
-16.311337105604874
30
-4.4408920985006262e-15
10
8.949771217068605
20
-16.289808063095951
30
-4.4408920985006262e-15
10
8.9475987065058771
20
-16.267126132735289
30
-4.4408920985006262e-15
10
8.94539263400004
20
-16.244624904999995
30
-4.4408920985006262e-15
0
LINE
5
236
100
AcDbEntity
8
0
100
AcDbLine
10
8.94539263400004
20
-16.244624904999995
30
-4.4408920985006262e-15
11
9.0468933840000343
21
-16.236985078999989
31
-4.4408920985006262e-15
0
SPLINE
5
237
100
AcDbEntity
8
0
100
AcDbSpline
70
0
71
3
72
11
73
7
74
0
42
0.000000001
43
0.0000000001
44
0.0000000001
40
0
40
0
40
0
40
0
40
6.9382177542036324e-05
40
6.9382177542036324e-05
40
6.9382177542036324e-05
40
0.000130753
40
0.000130753
40
0.000130753
40
0.000130753
10
9.0468933840000343
20
-16.236985078999989
30
-4.4408920985006262e-15
10
9.0506349548684195
20
-16.259808680421418
30
-4.4408920985006262e-15
10
9.0543789336949221
20
-16.28324807320659
30
-4.4408920985006262e-15
10
9.0648331911264979
20
-16.303560862282648
30
-4.4408920985006262e-15
10
9.074080326334597
20
-16.321528193608593
30
-6.6613381477509392e-15
10
9.0883423071098868
20
-16.336665983160795
30
-4.4408920985006262e-15
10
9.1022821920000307
20
-16.351582682999993
30
-4.4408920985006262e-15
0
SPLINE
5
238
100
AcDbEntity
8
0
100
AcDbSpline
70
0
71
3
72
11
73
7
74
0
42
0.000000001
43
0.0000000001
44
0.0000000001
40
0
40
0
40
0
40
0
40
6.5447557881336083e-05
40
6.5447557881336083e-05
40
6.5447557881336083e-05
40
0.000147923
40
0.000147923
40
0.000147923
40
0.000147923
10
9.1022821920000307
20
-16.351582682999993
30
-4.4408920985006262e-15
10
9.1210520011517549
20
-16.362702525296196
30
-4.4408920985006262e-15
10
9.140165409293548
20
-16.374065823624594
30
-4.4408920985006262e-15
10
9.1607406410290348
20
-16.380641363361178
30
-4.4408920985006262e-15
10
9.1866690543879237
20
-16.388927700766263
30
-4.4408920985006262e-15
10
9.2143604782435773
20
-16.389572506871467
30
-4.4408920985006262e-15
10
9.2417093770000402
20
-16.390327564999993
30
-4.4408920985006262e-15
0
SPLINE
5
239
100
AcDbEntity
8
0
100
AcDbSpline
70
0
71
3
72
11
73
7
74
0
42
0.000000001
43
0.0000000001
44
0.0000000001
40
0
40
0
40
0
40
0
40
8.3939635210236106e-05
40
8.3939635210236106e-05
40
8.3939635210236106e-05
40
0.00014719200000000001
40
0.00014719200000000001
40
0.00014719200000000001
40
0.00014719200000000001
10
9.2417093770000402
20
-16.390327564999993
30
-4.4408920985006262e-15
10
9.269686292266055
20
-16.389902529168531
30
-4.4408920985006262e-15
10
9.2982501553929087
20
-16.389521939584434
30
-6.6613381477509392e-15
10
9.3247237438649844
20
-16.38152813164012
30
-8.8817841970012523e-15
10
9.3446728069165097
20
-16.375504430740207
30
-4.4408920985006262e-15
10
9.3632454825829736
20
-16.36525737765616
30
-4.4408920985006262e-15
10
9.3816819450000377
20
-16.355129755999997
30
-4.4408920985006262e-15
0
SPLINE
5
240
100
AcDbEntity
8
0
100
AcDbSpline
70
0
71
3
72
11
73
7
74
0
42
0.000000001
43
0.0000000001
44
0.0000000001
40
0
40
0
40
0
40
0
40
5.1320301683898765e-05
40
5.1320301683898765e-05
40
5.1320301683898765e-05
40
9.8961000000000003e-05
40
9.8961000000000003e-05
40
9.8961000000000003e-05
40
9.8961000000000003e-05
10
9.3816819450000377
20
-16.355129755999997
30
-4.4408920985006262e-15
10
9.3941607572214458
20
-16.343425456958723
30
-4.4408920985006262e-15
10
9.4070291393219296
20
-16.331645236044356
30
-4.4408920985006262e-15
10
9.4146290075351224
20
-16.316316628300186
30
-4.4408920985006262e-15
10
9.4216839744177516
20
-16.302087063134266
30
-4.4408920985006262e-15
10
9.4235790624069615
20
-16.28602754923676
30
-4.4408920985006262e-15
10
9.4256111640000384
20
-16.270272931999997
30
-4.4408920985006262e-15
0
SPLINE
5
241
100
AcDbEntity
8
0
100
AcDbSpline
70
0
71
3
72
11
73
7
74
0
42
0.000000001
43
0.0000000001
44
0.0000000001
40
0
40
0
40
0
40
0
40
4.0390556516760549e-05
40
4.0390556516760549e-05
40
4.0390556516760549e-05
40
7.9882000000000005e-05
40
7.9882000000000005e-05
40
7.9882000000000005e-05
40
7.9882000000000005e-05
10
9.4256111640000384
20
-16.270272931999997
30
-4.4408920985006262e-15
10
9.424388859656716
20
-16.256860945375781
30
-4.4408920985006262e-15
10
9.4232458192319246
20
-16.243186418845571
30
-4.4408920985006262e-15
10
9.4178345456802059
20
-16.230982368849677
30
-4.4408920985006262e-15
10
9.4125437296561287
20
-16.21904998682172
30
-4.4408920985006262e-15
10
9.4033656851692093
20
-16.209077109974771
30
-4.4408920985006262e-15
10
9.3945058840000328
20
-16.199331632999993
30
-4.4408920985006262e-15
0
SPLINE
5
242
100
AcDbEntity
8
0
100
AcDbSpline
70
0
71
3
72
11
73
7
74
0
42
0.000000001
43
0.0000000001
44
0.0000000001
40
0
40
0
40
0
40
0
40
6.2104897044998884e-05
40
6.2104897044998884e-05
40
6.2104897044998884e-05
40
0.000170669
40
0.000170669
40
0.000170669
40
0.000170669
10
9.3945058840000328
20
-16.199331632999993
30
-4.4408920985006262e-15
10
9.3764229395169618
20
-16.189253605779331
30
-4.4408920985006262e-15
10
9.3583114706058623
20
-16.17915361618676
30
-4.4408920985006262e-15
10
9.3393221174946373
20
-16.171159647158401
30
-4.4408920985006262e-15
10
9.3061272780486792
20
-16.157185578801364
30
-4.4408920985006262e-15
10
9.2703377992674341
20
-16.149717136494036
30
-4.4408920985006262e-15
10
9.2348876260000434
20
-16.142305633999992
30
-4.4408920985006262e-15
0
SPLINE
5
243
100
AcDbEntity
8
0
100
AcDbSpline
70
0
71
3
72
11
73
7
74
0
42
0.000000001
43
0.0000000001
44
0.0000000001
40
0
40
0
40
0
40
0
40
0.00011223262575576852
40
0.00011223262575576852
40
0.00011223262575576852
40
0.000184532
40
0.000184532
40
0.000184532
40
0.000184532
10
9.2348876260000434
20
-16.142305633999992
30
-4.4408920985006262e-15
10
9.1983767932111782
20
-16.134148587108378
30
-4.4408920985006262e-15
10
9.1618165835527687
20
-16.125983031577388
30
-4.4408920985006262e-15
10
9.1260888815415075
20
-16.114952317408168
30
-4.4408920985006262e-15
10
9.1030733770818717
20
-16.107846418151773
30
-4.4408920985006262e-15
10
9.080432992412204
20
-16.099561125179566
30
-4.4408920985006262e-15
10
9.0578075910000333
20
-16.091282418999992
30
-4.4408920985006262e-15
0
SPLINE
5
244
100
AcDbEntity
8
0
100
AcDbSpline
70
0
71
3
72
11
73
7
74
0
42
0.000000001
43
0.0000000001
44
0.0000000001
40
0
40
0
40
0
40
0
40
7.1020479079906003e-05
40
7.1020479079906003e-05
40
7.1020479079906003e-05
40
0.000133101
40
0.000133101
40
0.000133101
40
0.000133101
10
9.0578075910000333
20
-16.091282418999992
30
-4.4408920985006262e-15
10
9.0366980081198811
20
-16.080565950432298
30
-4.4408920985006262e-15
10
9.0153374735536485
20
-16.06977442232818
30
-4.4408920985006262e-15
10
8.9970984705498136
20
-16.054788580414609
30
-4.4408920985006262e-15
10
8.9811553676278155
20
-16.041689135233817
30
-6.6613381477509392e-15
10
8.9678765961769979
20
-16.02562312329605
30
-4.4408920985006262e-15
10
8.9546695010000388
20
-16.009699902999998
30
-4.4408920985006262e-15
0
SPLINE
5
245
100
AcDbEntity
8
0
100
AcDbSpline
70
0
71
3
72
11
73
7
74
0
42
0.000000001
43
0.0000000001
44
0.0000000001
40
0
40
0
40
0
40
0
40
5.8866367962464082e-05
40
5.8866367962464082e-05
40
5.8866367962464082e-05
40
0.000120343
40
0.000120343
40
0.000120343
40
0.000120343
10
8.9546695010000388
20
-16.009699902999998
30
-4.4408920985006262e-15
10
8.9450678684706819
20
-15.992586832819452
30
-4.4408920985006262e-15
10
8.9353136145591083
20
-15.975294767548437
30
-4.4408920985006262e-15
10
8.9297034991764779
20
-15.956562210975221
30
-4.4408920985006262e-15
10
8.9238446189532894
20
-15.936999011691228
30
-4.4408920985006262e-15
10
8.922635307346436
20
-15.916354453076135
30
-4.4408920985006262e-15
10
8.9213814990000362
20
-15.895920894999996
30
-4.4408920985006262e-15
0
SPLINE
5
246
100
AcDbEntity
8
0
100
AcDbSpline
70
0
71
3
72
11
73
7
74
0
42
0.000000001
43
0.0000000001
44
0.0000000001
40
0
40
0
40
0
40
0
40
6.2837450158240919e-05
40
6.2837450158240919e-05
40
6.2837450158240919e-05
40
0.00012749500000000001
40
0.00012749500000000001
40
0.00012749500000000001
40
0.00012749500000000001
10
8.9213814990000362
20
-15.895920894999996
30
-4.4408920985006262e-15
10
8.9229717789435448
20
-15.875034894438706
30
-4.4408920985006262e-15
10
8.9245238603372812
20
-15.853953121127127
30
-4.4408920985006262e-15
10
8.9305224671645078
20
-15.833915524214625
30
-4.4408920985006262e-15
10
8.9366948248737099
20
-15.813297534181361
30
-4.4408920985006262e-15
10
8.9473904397544501
20
-15.794379186659411
30
-4.4408920985006262e-15
10
8.9579435840000343
20
-15.775593570999993
30
-4.4408920985006262e-15
0
SPLINE
5
247
100
AcDbEntity
8
0
100
AcDbSpline
70
0
71
3
72
11
73
7
74
0
42
0.000000001
43
0.0000000001
44
0.0000000001
40
0
40
0
40
0
40
0
40
6.7276986439439312e-05
40
6.7276986439439312e-05
40
6.7276986439439312e-05
40
0.00013881000000000001
40
0.00013881000000000001
40
0.00013881000000000001
40
0.00013881000000000001
10
8.9579435840000343
20
-15.775593570999993
30
-4.4408920985006262e-15
10
8.971649577460612
20
-15.757843240907562
30
-4.4408920985006262e-15
10
8.9854642832131049
20
-15.739879525309943
30
-6.6613381477509392e-15
10
9.0024867312864298
20
-15.725388876836535
30
-6.6613381477509392e-15
10
9.0205860409212058
20
-15.709981531641555
30
-4.4408920985006262e-15
10
9.0419033913384883
20
-15.698830423900464
30
-4.4408920985006262e-15
10
9.0629914060000427
20
-15.687735429999993
30
-4.4408920985006262e-15
0
SPLINE
5
248
100
AcDbEntity
8
0
100
AcDbSpline
70
0
71
3
72
11
73
7
74
0
42
0.000000001
43
0.0000000001
44
0.0000000001
40
0
40
0
40
0
40
0
40
7.6602606844457371e-05
40
7.6602606844457371e-05
40
7.6602606844457371e-05
40
0.00015853899999999999
40
0.00015853899999999999
40
0.00015853899999999999
40
0.00015853899999999999
10
9.0629914060000427
20
-15.687735429999993
30
-4.4408920985006262e-15
10
9.0868496129671517
20
-15.678636853854307
30
-4.4408920985006262e-15
10
9.1108508118234433
20
-15.669462999717357
30
-6.6613381477509392e-15
10
9.1357746385726291
20
-15.664202026472811
30
-6.6613381477509392e-15
10
9.1624338940677941
20
-15.658574735315192
30
-4.4408920985006262e-15
10
9.1898840403490833
20
-15.657475232995157
30
-4.4408920985006262e-15
10
9.2171522640000347
20
-15.65635745899999
30
-4.4408920985006262e-15
0
SPLINE
5
249
100
AcDbEntity
8
0
100
AcDbSpline
70
0
71
3
72
11
73
7
74
0
42
0.000000001
43
0.0000000001
44
0.0000000001
40
0
40
0
40
0
40
0
40
0.00010031325035372268
40
0.00010031325035372268
40
0.00010031325035372268
40
0.00018597199999999999
40
0.00018597199999999999
40
0.00018597199999999999
40
0.00018597199999999999
10
9.2171522640000347
20
-15.65635745899999
30
-4.4408920985006262e-15
10
9.2505792451727142
20
-15.65720584885856
30
-4.4408920985006262e-15
10
9.2842070626231088
20
-15.658038610674883
30
-4.4408920985006262e-15
10
9.316947724088136
20
-15.664270124548491
30
-4.4408920985006262e-15
10
9.3449053878443511
20
-15.669591292838177
30
-6.6613381477509392e-15
10
9.3721070833305475
20
-15.678833937605475
30
-4.4408920985006262e-15
10
9.3991443180000367
20
-15.68800827099999
30
-4.4408920985006262e-15
0
SPLINE
5
250
100
AcDbEntity
8
0
100
AcDbSpline
70
0
71
3
72
11
73
7
74
0
42
0.000000001
43
0.0000000001
44
0.0000000001
40
0
40
0
40
0
40
0
40
7.6807563696182016e-05
40
7.6807563696182016e-05
40
7.6807563696182016e-05
40
0.00015208299999999999
40
0.00015208299999999999
40
0.00015208299999999999
40
0.00015208299999999999
10
9.3991443180000367
20
-15.68800827099999
30
-4.4408920985006262e-15
10
9.4219599421396261
20
-15.699624870952412
30
-4.4408920985006262e-15
10
9.445141360462399
20
-15.71139317714707
30
-4.4408920985006262e-15
10
9.4646283643952511
20
-15.727639845703841
30
-4.4408920985006262e-15
10
9.4837266491566474
20
-15.743562432038352
30
-6.6613381477509392e-15
10
9.4990194207497325
20
-15.763465627423919
30
-4.4408920985006262e-15
10
9.5142873780000325
20
-15.783233395999993
30
-4.4408920985006262e-15
0
SPLINE
5
251
100
AcDbEntity
8
0
100
AcDbSpline
70
0
71
3
72
11
73
7
74
0
42
0.000000001
43
0.0000000001
44
0.0000000001
40
0
40
0
40
0
40
0
40
7.5044797771372111e-05
40
7.5044797771372111e-05
40
7.5044797771372111e-05
40
0.000152375
40
0.000152375
40
0.000152375
40
0.000152375
10
9.5142873780000325
20
-15.783233395999993
30
-4.4408920985006262e-15
10
9.5264436679634024
20
-15.805096112191613
30
-4.4408920985006262e-15
10
9.5387738229252239
20
-15.827190893944998
30
-4.4408920985006262e-15
10
9.5461430813221693
20
-15.850968712980421
30
-4.4408920985006262e-15
10
9.5537367621506242
20
-15.875470658607181
30
-6.6613381477509392e-15
10
9.5559628387800721
20
-15.901376652427128
30
-4.4408920985006262e-15
10
9.5582165980000422
20
-15.927026024999996
30
-4.4408920985006262e-15
0
LINE
5
252
100
AcDbEntity
8
0
100
AcDbLine
10
10.649075772000041
20
-15.95049118199999
30
-4.4408920985006262e-15
11
10.543209579000035
21
-15.923751792999994
31
-4.4408920985006262e-15
0
SPLINE
5
253
100
AcDbEntity
8
0
100
AcDbSpline
70
0
71
3
72
11
73
7
74
0
42
0.000000001
43
0.0000000001
44
0.0000000001
40
0
40
0
40
0
40
0
40
0.00012443546549952751
40
0.00012443546549952751
40
0.00012443546549952751
40
0.00023625600000000001
40
0.00023625600000000001
40
0.00023625600000000001
40
0.00023625600000000001
10
10.543209579000035
20
-15.923751792999994
30
-4.4408920985006262e-15
10
10.555495370993357
20
-15.88413442618247
30
-4.4408920985006262e-15
10
10.567811832106022
20
-15.843883258430465
30
-4.4408920985006262e-15
10
10.589798953677834
20
-15.808813175124655
30
-4.4408920985006262e-15
10
10.609557080321377
20
-15.777298402029306
30
-4.4408920985006262e-15
10
10.636484444034471
20
-15.750956562759054
30
-4.4408920985006262e-15
10
10.662991073000034
20
-15.724843195999995
30
-4.4408920985006262e-15
0
SPLINE
5
254
100
AcDbEntity
8
0
100
AcDbSpline
70
0
71
3
72
11
73
7
74
0
42
0.000000001
43
0.0000000001
44
0.0000000001
40
0
40
0
40
0
40
0
40
0.00010932658372259045
40
0.00010932658372259045
40
0.00010932658372259045
40
0.00022619599999999999
40
0.00022619599999999999
40
0.00022619599999999999
40
0.00022619599999999999
10
10.662991073000034
20
-15.724843195999995
30
-4.4408920985006262e-15
10
10.693655404057818
20
-15.705152129699567
30
-4.4408920985006262e-15
10
10.724574811244469
20
-15.685111192346604
30
-4.4408920985006262e-15
10
10.759102966720553
20
-15.673478893448763
30
-4.4408920985006262e-15
10
10.796013343302562
20
-15.661044040589879
30
-6.6613381477509392e-15
10
10.835540588455626
20
-15.658766241016174
30
-4.4408920985006262e-15
10
10.874451067000042
20
-15.65635745899999
30
-4.4408920985006262e-15
0
SPLINE
5
255
100
AcDbEntity
8
0
100
AcDbSpline
70
0
71
3
72
11
73
7
74
0
42
0.000000001
43
0.0000000001
44
0.0000000001
40
0
40
0
40
0
40
0
40
0.00011831869155354292
40
0.00011831869155354292
40
0.00011831869155354292
40
0.000219593
40
0.000219593
40
0.000219593
40
0.000219593
10
10.874451067000042
20
-15.65635745899999
30
-4.4408920985006262e-15
10
10.913865045115667
20
-15.657776230615216
30
-4.4408920985006262e-15
10
10.953715598763392
20
-15.659101922412781
30
-6.6613381477509392e-15
10
10.991708900476498
20
-15.669522634928388
30
-6.6613381477509392e-15
10
11.024229082250576
20
-15.678442193112136
30
-2.2204460492503131e-15
10
11.0546559292567
20
-15.693835742935915
30
-4.4408920985006262e-15
10
11.084819700000033
20
-15.709017864999989
30
-4.4408920985006262e-15
0
SPLINE
5
256
100
AcDbEntity
8
0
100
AcDbSpline
70
0
71
3
72
11
73
7
74
0
42
0.000000001
43
0.0000000001
44
0.0000000001
40
0
40
0
40
0
40
0
40
9.6504941372171034e-05
40
9.6504941372171034e-05
40
9.6504941372171034e-05
40
0.000199204
40
0.000199204
40
0.000199204
40
0.000199204
10
11.084819700000033
20
-15.709017864999989
30
-4.4408920985006262e-15
10
11.1101662537446
20
-15.728825981230976
30
-4.4408920985006262e-15
10
11.13563526885053
20
-15.748564977361807
30
-4.4408920985006262e-15
10
11.156170035311597
20
-15.773478945520893
30
-4.4408920985006262e-15
10
11.17802281460671
20
-15.799992003196923
30
-4.4408920985006262e-15
10
11.193057574603396
20
-15.830882266997413
30
-4.4408920985006262e-15
10
11.208148267000038
20
-15.861541679999993
30
-4.4408920985006262e-15
0
SPLINE
5
257
100
AcDbEntity
8
0
100
AcDbSpline
70
0
71
3
72
11
73
7
74
0
42
0.000000001
43
0.0000000001
44
0.0000000001
40
0
40
0
40
0
40
0
40
0.0001084293802218802
40
0.0001084293802218802
40
0.0001084293802218802
40
0.00021991299999999999
40
0.00021991299999999999
40
0.00021991299999999999
40
0.00021991299999999999
10
11.208148267000038
20
-15.861541679999993
30
-4.4408920985006262e-15
10
11.220421478575666
20
-15.895537351626716
30
-4.4408920985006262e-15
10
11.232769412714925
20
-15.929633165048633
30
-4.4408920985006262e-15
10
11.239867474463017
20
-15.965088657696263
30
-4.4408920985006262e-15
10
11.247165474465133
20
-16.001542860913929
30
-4.4408920985006262e-15
10
11.248789378910287
20
-16.038862694112609
30
-4.4408920985006262e-15
10
11.250440146000038
20
-16.076002768999999
30
-4.4408920985006262e-15
0
SPLINE
5
258
100
AcDbEntity
8
0
100
AcDbSpline
70
0
71
3
72
11
73
7
74
0
42
0.000000001
43
0.0000000001
44
0.0000000001
40
0
40
0
40
0
40
0
40
0.00011780125988762018
40
0.00011780125988762018
40
0.00011780125988762018
40
0.00022512000000000001
40
0.00022512000000000001
40
0.00022512000000000001
40
0.00022512000000000001
10
11.250440146000038
20
-16.076002768999999
30
-4.4408920985006262e-15
10
11.24885802373214
20
-16.115238091324485
30
-4.4408920985006262e-15
10
11.247326103394988
20
-16.15474425359103
30
-2.2204460492503131e-15
10
11.238503123784502
20
-16.192987763992207
30
-2.2204460492503131e-15
10
11.230465255117075
20
-16.227828183845489
30
-2.2204460492503131e-15
10
11.216511236311115
20
-16.261018039118738
30
-4.4408920985006262e-15
10
11.202691462000036
20
-16.294010928999999
30
-4.4408920985006262e-15
0
SPLINE
5
259
100
AcDbEntity
8
0
100
AcDbSpline
70
0
71
3
72
11
73
7
74
0
42
0.000000001
43
0.0000000001
44
0.0000000001
40
0
40
0
40
0
40
0
40
0.00010057923284129585
40
0.00010057923284129585
40
0.00010057923284129585
40
0.00019925300000000001
40
0.00019925300000000001
40
0.00019925300000000001
40
0.00019925300000000001
10
11.202691462000036
20
-16.294010928999999
30
-4.4408920985006262e-15
10
11.185440376725087
20
-16.322758483288705
30
-4.4408920985006262e-15
10
11.168267338663105
20
-16.351664083019063
30
-4.4408920985006262e-15
10
11.144846944311242
20
-16.37586643281281
30
-4.4408920985006262e-15
10
11.121870247494652
20
-16.399610270986734
30
-4.4408920985006262e-15
10
11.094276113829791
20
-16.417427058343964
30
-4.4408920985006262e-15
10
11.066811349000032
20
-16.435347995999997
30
-4.4408920985006262e-15
0
SPLINE
5
260
100
AcDbEntity
8
0
100
AcDbSpline
70
0
71
3
72
11
73
7
74
0
42
0.000000001
43
0.0000000001
44
0.0000000001
40
0
40
0
40
0
40
0
40
9.9638091072148911e-05
40
9.9638091072148911e-05
40
9.9638091072148911e-05
40
0.00020214199999999999
40
0.00020214199999999999
40
0.00020214199999999999
40
0.00020214199999999999
10
11.066811349000032
20
-16.435347995999997
30
-4.4408920985006262e-15
10
11.036684750643548
20
-16.449329315610296
30
-4.4408920985006262e-15
10
11.006376648717291
20
-16.463451149493547
30
-4.4408920985006262e-15
10
10.974246526324523
20
-16.471568993988658
30
-4.4408920985006262e-15
10
10.941192268618964
20
-16.479920326133438
30
-4.4408920985006262e-15
10
10.906865963466181
20
-16.481758597540882
30
-4.4408920985006262e-15
10
10.872813727000041
20
-16.483642659999994
30
-4.4408920985006262e-15
0
SPLINE
5
261
100
AcDbEntity
8
0
100
AcDbSpline
70
0
71
3
72
11
73
7
74
0
42
0.000000001
43
0.0000000001
44
0.0000000001
40
0
40
0
40
0
40
0
40
0.00011193239694063883
40
0.00011193239694063883
40
0.00011193239694063883
40
0.00021428500000000001
40
0.00021428500000000001
40
0.00021428500000000001
40
0.00021428500000000001
10
10.872813727000041
20
-16.483642659999994
30
-4.4408920985006262e-15
10
10.83555904132055
20
-16.48159784740773
30
-4.4408920985006262e-15
10
10.79788557939465
20
-16.479692779829808
30
-2.2204460492503131e-15
10
10.762309099217378
20
-16.468363008743317
30
-2.2204460492503131e-15
10
10.729777451067601
20
-16.458002902156984
30
-6.6613381477509392e-15
10
10.700198898920963
20
-16.440109578547638
30
-4.4408920985006262e-15
10
10.670904185000039
20
-16.422523981999998
30
-4.4408920985006262e-15
0
SPLINE
5
262
100
AcDbEntity
8
0
100
AcDbSpline
70
0
71
3
72
11
73
7
74
0
42
0.000000001
43
0.0000000001
44
0.0000000001
40
0
40
0
40
0
40
0
40
0.00010150032088998304
40
0.00010150032088998304
40
0.00010150032088998304
40
0.000209466
40
0.000209466
40
0.000209466
40
0.000209466
10
10.670904185000039
20
-16.422523981999998
30
-4.4408920985006262e-15
10
10.645842046908722
20
-16.399795204781299
30
-4.4408920985006262e-15
10
10.620528469979158
20
-16.377051740376643
30
-6.6613381477509392e-15
10
10.601463583649782
20
-16.348990554490118
30
-6.6613381477509392e-15
10
10.581184303922795
20
-16.319141929734013
30
-4.4408920985006262e-15
10
10.569003597375204
20
-16.284629087632535
30
-4.4408920985006262e-15
10
10.556852486000032
20
-16.250627688999998
30
-4.4408920985006262e-15
0
LINE
5
263
100
AcDbEntity
8
0
100
AcDbLine
10
10.556852486000032
20
-16.250627688999991
30
-4.4408920985006262e-15
11
10.661081340000038
21
-16.226071021999996
31
-4.4408920985006262e-15
0
SPLINE
5
264
100
AcDbEntity
8
0
100
AcDbSpline
70
0
71
3
72
11
73
7
74
0
42
0.000000001
43
0.0000000001
44
0.0000000001
40
0
40
0
40
0
40
0
40
8.3177347072281512e-05
40
8.3177347072281512e-05
40
8.3177347072281512e-05
40
0.00015340800000000001
40
0.00015340800000000001
40
0.00015340800000000001
40
0.00015340800000000001
10
10.661081340000038
20
-16.226071021999996
30
-4.4408920985006262e-15
10
10.670408109396146
20
-16.252181302681134
30
-4.4408920985006262e-15
10
10.679867403591263
20
-16.278772638822122
30
-4.4408920985006262e-15
10
10.69518711880824
20
-16.301514410502641
30
-4.4408920985006262e-15
10
10.708122294552895
20
-16.320716387123358
30
-4.4408920985006262e-15
10
10.725058293800291
20
-16.337008990946561
30
-4.4408920985006262e-15
10
10.741845634000038
20
-16.353219724999995
30
-4.4408920985006262e-15
0
SPLINE
5
265
100
AcDbEntity
8
0
100
AcDbSpline
70
0
71
3
72
11
73
7
74
0
42
0.000000001
43
0.0000000001
44
0.0000000001
40
0
40
0
40
0
40
0
40
6.7006440885982062e-05
40
6.7006440885982062e-05
40
6.7006440885982062e-05
40
0.00014189899999999999
40
0.00014189899999999999
40
0.00014189899999999999
40
0.00014189899999999999
10
10.741845634000038
20
-16.353219724999995
30
-4.4408920985006262e-15
10
10.761013691719503
20
-16.364686361740549
30
-4.4408920985006262e-15
10
10.78048122561337
20
-16.37638304135773
30
-4.4408920985006262e-15
10
10.801599887964519
20
-16.3830969260488
30
-4.4408920985006262e-15
10
10.825204046723451
20
-16.390600980874911
30
-6.6613381477509392e-15
10
10.850198423353969
20
-16.391781432361473
30
-4.4408920985006262e-15
10
10.874997046000034
20
-16.393056042000001
30
-4.4408920985006262e-15
0
SPLINE
5
266
100
AcDbEntity
8
0
100
AcDbSpline
70
0
71
3
72
11
73
7
74
0
42
0.000000001
43
0.0000000001
44
0.0000000001
40
0
40
0
40
0
40
0
40
8.5774136914159693e-05
40
8.5774136914159693e-05
40
8.5774136914159693e-05
40
0.00016339699999999999
40
0.00016339699999999999
40
0.00016339699999999999
40
0.00016339699999999999
10
10.874997046000034
20
-16.393056042000001
30
-4.4408920985006262e-15
10
10.903553499644127
20
-16.391640636517849
30
-4.4408920985006262e-15
10
10.932608258891348
20
-16.390239947403686
30
-6.6613381477509392e-15
10
10.959648755782174
20
-16.382005563953758
30
-6.6613381477509392e-15
10
10.984119544570516
20
-16.374553709092549
30
-4.4408920985006262e-15
10
11.006730659003017
20
-16.361622750902075
30
-4.4408920985006262e-15
10
11.029157903000035
20
-16.348854130999996
30
-4.4408920985006262e-15
0
SPLINE
5
267
100
AcDbEntity
8
0
100
AcDbSpline
70
0
71
3
72
11
73
7
74
0
42
0.000000001
43
0.0000000001
44
0.0000000001
40
0
40
0
40
0
40
0
40
7.4160606713319024e-05
40
7.4160606713319024e-05
40
7.4160606713319024e-05
40
0.00015012399999999999
40
0.00015012399999999999
40
0.00015012399999999999
40
0.00015012399999999999
10
11.029157903000035
20
-16.348854130999996
30
-4.4408920985006262e-15
10
11.04807696350453
20
-16.332942595886205
30
-4.4408920985006262e-15
10
11.067344681837836
20
-16.316792437987765
30
-4.4408920985006262e-15
10
11.081885960405469
20
-16.297080567092689
30
-4.4408920985006262e-15
10
11.096780726126498
20
-16.276889515972947
30
-6.6613381477509392e-15
10
11.106486033535345
20
-16.253427304521001
30
-4.4408920985006262e-15
10
11.116197373000034
20
-16.230163774999994
30
-4.4408920985006262e-15
0
SPLINE
5
268
100
AcDbEntity
8
0
100
AcDbSpline
70
0
71
3
72
11
73
7
74
0
42
0.000000001
43
0.0000000001
44
0.0000000001
40
0
40
0
40
0
40
0
40
7.8024300582970918e-05
40
7.8024300582970918e-05
40
7.8024300582970918e-05
40
0.000156336
40
0.000156336
40
0.000156336
40
0.000156336
10
11.116197373000034
20
-16.230163774999994
30
-4.4408920985006262e-15
10
11.123495008725426
20
-16.205200387722677
30
-4.4408920985006262e-15
10
11.130827619495296
20
-16.180151541706515
30
-4.4408920985006262e-15
10
11.135024096546777
20
-16.15451572005313
30
-4.4408920985006262e-15
10
11.139236031123714
20
-16.12878547005884
30
-4.4408920985006262e-15
10
11.140264446016195
20
-16.102621576338617
30
-4.4408920985006262e-15
10
11.141299870000037
20
-16.076548448999993
30
-4.4408920985006262e-15
0
SPLINE
5
269
100
AcDbEntity
8
0
100
AcDbSpline
70
0
71
3
72
11
73
7
74
0
42
0.000000001
43
0.0000000001
44
0.0000000001
40
0
40
0
40
0
40
0
40
9.602025184459179e-05
40
9.602025184459179e-05
40
9.602025184459179e-05
40
0.00018162399999999999
40
0.00018162399999999999
40
0.00018162399999999999
40
0.00018162399999999999
10
11.141299870000037
20
-16.076548448999993
30
-4.4408920985006262e-15
10
11.140370691890853
20
-16.044555169736103
30
-4.4408920985006262e-15
10
11.139466388415222
20
-16.012486757307364
30
-6.6613381477509392e-15
10
11.133864190313618
20
-15.980982385966062
30
-6.6613381477509392e-15
10
11.128869731892674
20
-15.952895683231102
30
-4.4408920985006262e-15
10
11.120188889620302
20
-15.925583793676786
30
-4.4408920985006262e-15
10
11.111558940000039
20
-15.898376605999992
30
-4.4408920985006262e-15
0
SPLINE
5
270
100
AcDbEntity
8
0
100
AcDbSpline
70
0
71
3
72
11
73
7
74
0
42
0.000000001
43
0.0000000001
44
0.0000000001
40
0
40
0
40
0
40
0
40
7.6929448011496413e-05
40
7.6929448011496413e-05
40
7.6929448011496413e-05
40
0.00014975599999999999
40
0.00014975599999999999
40
0.00014975599999999999
40
0.00014975599999999999
10
11.111558940000039
20
-15.898376605999992
30
-4.4408920985006262e-15
10
11.100746939378858
20
-15.875123891886513
30
-4.4408920985006262e-15
10
11.089777341369862
20
-15.851402233941325
30
-4.4408920985006262e-15
10
11.073564554244344
20
-15.831868996920813
30
-4.4408920985006262e-15
10
11.058216447440055
20
-15.813377530542873
30
-4.4408920985006262e-15
10
11.038529158194379
20
-15.798954607238684
30
-4.4408920985006262e-15
10
11.019062068000043
20
-15.784597596999994
30
-4.4408920985006262e-15
0
SPLINE
5
271
100
AcDbEntity
8
0
100
AcDbSpline
70
0
71
3
72
11
73
7
74
0
42
0.000000001
43
0.0000000001
44
0.0000000001
40
0
40
0
40
0
40
0
40
7.1357867985335287e-05
40
7.1357867985335287e-05
40
7.1357867985335287e-05
40
0.000142769
40
0.000142769
40
0.000142769
40
0.000142769
10
11.019062068000043
20
-15.784597596999994
30
-4.4408920985006262e-15
10
10.997910748450401
20
-15.773716324940178
30
-4.4408920985006262e-15
10
10.976566087787925
20
-15.762688287711114
30
-4.4408920985006262e-15
10
10.953715113063467
20
-15.756357512878058
30
-4.4408920985006262e-15
10
10.930847081565558
20
-15.750022012531396
30
-4.4408920985006262e-15
10
10.906916820603909
20
-15.748500536601671
30
-4.4408920985006262e-15
10
10.883182551000035
20
-15.746944150999994
30
-4.4408920985006262e-15
0
SPLINE
5
272
100
AcDbEntity
8
0
100
AcDbSpline
70
0
71
3
72
11
73
7
74
0
42
0.000000001
43
0.0000000001
44
0.0000000001
40
0
40
0
40
0
40
0
40
8.356384464177716e-05
40
8.356384464177716e-05
40
8.356384464177716e-05
40
0.000162726
40
0.000162726
40
0.000162726
40
0.000162726
10
10.883182551000035
20
-15.746944150999994
30
-4.4408920985006262e-15
10
10.855389634086583
20
-15.748801749245134
30
-4.4408920985006262e-15
10
10.827020567983441
20
-15.750627868970861
30
-4.4408920985006262e-15
10
10.801053907980798
20
-15.759768239427615
30
-4.4408920985006262e-15
10
10.77645503053474
20
-15.768427144833787
30
-4.4408920985006262e-15
10
10.754371968487071
20
-15.783475758740773
30
-4.4408920985006262e-15
10
10.732568171000034
20
-15.798240206999989
30
-4.4408920985006262e-15
0
SPLINE
5
273
100
AcDbEntity
8
0
100
AcDbSpline
70
0
71
3
72
11
73
7
74
0
42
0.000000001
43
0.0000000001
44
0.0000000001
40
0
40
0
40
0
40
0
40
8.2579229969603605e-05
40
8.2579229969603605e-05
40
8.2579229969603605e-05
40
0.000176551
40
0.000176551
40
0.000176551
40
0.000176551
10
10.732568171000034
20
-15.798240206999989
30
-4.4408920985006262e-15
10
10.713651542433853
20
-15.818237015260896
30
-4.4408920985006262e-15
10
10.694598474012498
20
-15.838227725990709
30
-4.4408920985006262e-15
10
10.680862930513939
20
-15.861950864389446
30
-4.4408920985006262e-15
10
10.665232446488302
20
-15.888946820961408
30
-2.2204460492503131e-15
10
10.657104212304667
20
-15.920052387050001
30
-4.4408920985006262e-15
10
10.649075772000041
20
-15.95049118199999
30
-4.4408920985006262e-15
0
LWPOLYLINE
5
274
100
AcDbEntity
8
0
100
AcDbPolyline
90
8
70
1
43
0.0
10
8.0575349590000389
20
-15.670000067999993
10
7.7503040090000308
20
-16.470000049999992
10
7.6362517140000374
20
-16.470000049999992
10
7.3088302870000366
20
-15.670000067999993
10
7.4294307490000389
20
-15.670000067999993
10
7.5227453970000369
20
-15.912292054999995
10
7.8572609680000394
20
-15.912292054999995
10
7.9451194070000408
20
-15.670000067999993
0
LINE
5
275
100
AcDbEntity
8
0
100
AcDbLine
10
17.055078264000045
20
-15.983779034999998
30
-4.4408920985006262e-15
11
17.055078264000045
21
-16.077639958999995
31
-4.4408920985006262e-15
0
LINE
5
276
100
AcDbEntity
8
0
100
AcDbLine
10
17.055078264000045
20
-16.077639958999995
30
-4.4408920985006262e-15
11
16.716197099000034
21
-16.07818563999999
31
-4.4408920985006262e-15
0
LINE
5
277
100
AcDbEntity
8
0
100
AcDbLine
10
16.716197099000034
20
-16.07818563999999
30
-4.4408920985006262e-15
11
16.716197099000034
21
-15.781323364999999
31
-4.4408920985006262e-15
0
SPLINE
5
278
100
AcDbEntity
8
0
100
AcDbSpline
70
0
71
3
72
11
73
7
74
0
42
0.000000001
43
0.0000000001
44
0.0000000001
40
0
40
0
40
0
40
0
40
9.6301561427816426e-05
40
9.6301561427816426e-05
40
9.6301561427816426e-05
40
0.000186947
40
0.000186947
40
0.000186947
40
0.000186947
10
16.716197099000034
20
-15.781323364999999
30
-4.4408920985006262e-15
10
16.74190093651606
20
-15.762094458095834
30
-4.4408920985006262e-15
10
16.767624874671263
20
-15.742829016050655
30
-6.6613381477509392e-15
10
16.795460251322119
20
-15.726821324272201
30
-6.6613381477509392e-15
10
16.821660760295487
20
-15.711753819443901
30
-4.4408920985006262e-15
10
16.849452241665617
20
-15.699738128935454
30
-4.4408920985006262e-15
10
16.877179261000038
20
-15.687735429999993
30
-4.4408920985006262e-15
0
SPLINE
5
279
100
AcDbEntity
8
0
100
AcDbSpline
70
0
71
3
72
11
73
7
74
0
42
0.000000001
43
0.0000000001
44
0.0000000001
40
0
40
0
40
0
40
0
40
8.74366590651415e-05
40
8.74366590651415e-05
40
8.74366590651415e-05
40
0.00017398399999999999
40
0.00017398399999999999
40
0.00017398399999999999
40
0.00017398399999999999
10
16.877179261000038
20
-15.687735429999993
30
-4.4408920985006262e-15
10
16.904860585296603
20
-15.678613578656574
30
-4.4408920985006262e-15
10
16.932561121471068
20
-15.669461639824039
30
-4.4408920985006262e-15
10
16.961217489396738
20
-15.664202026542014
30
-4.4408920985006262e-15
10
16.989582393446518
20
-15.65899590877892
30
-4.4408920985006262e-15
10
17.018583595132462
20
-15.657680067837054
30
-4.4408920985006262e-15
10
17.04743843900004
20
-15.65635745899999
30
-4.4408920985006262e-15
0
SPLINE
5
280
100
AcDbEntity
8
0
100
AcDbSpline
70
0
71
3
72
11
73
7
74
0
42
0.000000001
43
0.0000000001
44
0.0000000001
40
0
40
0
40
0
40
0
40
0.00011339397300690841
40
0.00011339397300690841
40
0.00011339397300690841
40
0.000222034
40
0.000222034
40
0.000222034
40
0.000222034
10
17.04743843900004
20
-15.65635745899999
30
-4.4408920985006262e-15
10
17.085188398481694
20
-15.658263307816291
30
-4.4408920985006262e-15
10
17.123167302849556
20
-15.660114033746616
30
-4.4408920985006262e-15
10
17.159921417010125
20
-15.668976805213095
30
-4.4408920985006262e-15
10
17.195134646149477
20
-15.677468012512911
30
-6.6613381477509392e-15
10
17.228479600525482
20
-15.692225995659893
30
-4.4408920985006262e-15
10
17.261626687000042
20
-15.706834993999998
30
-4.4408920985006262e-15
0
SPLINE
5
281
100
AcDbEntity
8
0
100
AcDbSpline
70
0
71
3
72
11
73
7
74
0
42
0.000000001
43
0.0000000001
44
0.0000000001
40
0
40
0
40
0
40
0
40
0.000104477
40
0.000104477
40
0.000104477
40
0.00020895500000000001
40
0.00020895500000000001
40
0.00020895500000000001
40
0.00020895500000000001
10
17.261626687000042
20
-15.706834993999998
30
-4.4408920985006262e-15
10
17.291234504298821
20
-15.725171265517552
30
-4.4408920985006262e-15
10
17.321072721080881
20
-15.743469650840991
30
-4.4408920985006262e-15
10
17.345775422738932
20
-15.768199467689769
30
-4.4408920985006262e-15
10
17.37047836083849
20
-15.792929521239621
30
-4.4408920985006262e-15
10
17.388802784903639
20
-15.823050534059124
30
-4.4408920985006262e-15
10
17.407056432000036
20
-15.852810493999993
30
-4.4408920985006262e-15
0
SPLINE
5
282
100
AcDbEntity
8
0
100
AcDbSpline
70
0
71
3
72
11
73
7
74
0
42
0.000000001
43
0.0000000001
44
0.0000000001
40
0
40
0
40
0
40
0
40
0.00010777665063039816
40
0.00010777665063039816
40
0.00010777665063039816
40
0.000220819
40
0.000220819
40
0.000220819
40
0.000220819
10
17.407056432000036
20
-15.852810493999993
30
-4.4408920985006262e-15
10
17.421279486981234
20
-15.885800540973779
30
-4.4408920985006262e-15
10
17.435624380104535
20
-15.918926550754637
30
-4.4408920985006262e-15
10
17.44389135739879
20
-15.953901908733901
30
-4.4408920985006262e-15
10
17.452562238615297
20
-15.990586075600222
30
-4.4408920985006262e-15
10
17.454343580314369
20
-16.028520070235924
30
-4.4408920985006262e-15
10
17.456169691000039
20
-16.066180146999997
30
-4.4408920985006262e-15
0
SPLINE
5
283
100
AcDbEntity
8
0
100
AcDbSpline
70
0
71
3
72
11
73
7
74
0
42
0.000000001
43
0.0000000001
44
0.0000000001
40
0
40
0
40
0
40
0
40
0.0001137250140653693
40
0.0001137250140653693
40
0.0001137250140653693
40
0.000225164
40
0.000225164
40
0.000225164
40
0.000225164
10
17.456169691000039
20
-16.066180146999997
30
-4.4408920985006262e-15
10
17.45422956253136
20
-16.104038858868023
30
-4.4408920985006262e-15
10
17.452333145867147
20
-16.142089594146686
30
-6.6613381477509392e-15
10
17.443959605042352
20
-16.179072385528283
30
-6.6613381477509392e-15
10
17.435754383826367
20
-16.215311772284732
30
-4.4408920985006262e-15
10
17.421478779266284
20
-16.249839130370706
30
-4.4408920985006262e-15
10
17.407329272000034
20
-16.284188381999996
30
-4.4408920985006262e-15
0
SPLINE
5
284
100
AcDbEntity
8
0
100
AcDbSpline
70
0
71
3
72
11
73
7
74
0
42
0.000000001
43
0.0000000001
44
0.0000000001
40
0
40
0
40
0
40
0
40
0.0001067775053458666
40
0.0001067775053458666
40
0.0001067775053458666
40
0.000208858
40
0.000208858
40
0.000208858
40
0.000208858
10
17.407329272000034
20
-16.284188381999996
30
-4.4408920985006262e-15
10
17.389822263341735
20
-16.315177749118707
30
-4.4408920985006262e-15
10
17.37232859859094
20
-16.346477357006112
30
-4.4408920985006262e-15
10
17.34777946239565
20
-16.372387611014542
30
-4.4408920985006262e-15
10
17.324310212406829
20
-16.397158104923623
30
-6.6613381477509392e-15
10
17.295375916004019
20
-16.415889221172645
30
-4.4408920985006262e-15
10
17.26681087500004
20
-16.434529474999998
30
-4.4408920985006262e-15
0
SPLINE
5
285
100
AcDbEntity
8
0
100
AcDbSpline
70
0
71
3
72
11
73
7
74
0
42
0.000000001
43
0.0000000001
44
0.0000000001
40
0
40
0
40
0
40
0
40
0.00010548244596086622
40
0.00010548244596086622
40
0.00010548244596086622
40
0.000218779
40
0.000218779
40
0.000218779
40
0.000218779
10
17.26681087500004
20
-16.434529474999998
30
-4.4408920985006262e-15
10
17.234651893347088
20
-16.448745038349873
30
-4.4408920985006262e-15
10
17.202359851730158
20
-16.463086820828185
30
-4.4408920985006262e-15
10
17.168175171255989
20
-16.471364400955025
30
-4.4408920985006262e-15
10
17.131458099866794
20
-16.480255181744305
30
-4.4408920985006262e-15
10
17.093385884023675
20
-16.481924479645333
30
-4.4408920985006262e-15
10
17.055624019000035
20
-16.483642659999994
30
-4.4408920985006262e-15
0
SPLINE
5
286
100
AcDbEntity
8
0
100
AcDbSpline
70
0
71
3
72
11
73
7
74
0
42
0.000000001
43
0.0000000001
44
0.0000000001
40
0
40
0
40
0
40
0
40
8.3013155633235926e-05
40
8.3013155633235926e-05
40
8.3013155633235926e-05
40
0.000160347
40
0.000160347
40
0.000160347
40
0.000160347
10
17.055624019000035
20
-16.483642659999994
30
-4.4408920985006262e-15
10
17.027970478565784
20
-16.482651828778071
30
-4.4408920985006262e-15
10
17.000172247734298
20
-16.481672444225662
30
-4.4408920985006262e-15
10
16.973018316310036
20
-16.476616762452455
30
-4.4408920985006262e-15
10
16.947722110055842
20
-16.471906963090724
30
-4.4408920985006262e-15
10
16.923171181803333
20
-16.463695919148012
30
-4.4408920985006262e-15
10
16.898734536000042
20
-16.455538994999998
30
-4.4408920985006262e-15
0
SPLINE
5
287
100
AcDbEntity
8
0
100
AcDbSpline
70
0
71
3
72
11
73
7
74
0
42
0.000000001
43
0.0000000001
44
0.0000000001
40
0
40
0
40
0
40
0
40
6.8254000000000001e-05
40
6.8254000000000001e-05
40
6.8254000000000001e-05
40
0.00013650700000000001
40
0.00013650700000000001
40
0.00013650700000000001
40
0.00013650700000000001
10
16.898734536000042
20
-16.455538994999998
30
-4.4408920985006262e-15
10
16.878019475832549
20
-16.446130714368778
30
-4.4408920985006262e-15
10
16.857129069658676
20
-16.436686581109118
30
-4.4408920985006262e-15
10
16.838559293992994
20
-16.423612637187009
30
-4.4408920985006262e-15
10
16.819989790396022
20
-16.410538884813285
30
-2.2204460492503131e-15
10
16.804335595013661
20
-16.393815630987213
30
-4.4408920985006262e-15
10
16.788775440000041
20
-16.377230710999996
30
-4.4408920985006262e-15
0
SPLINE
5
288
100
AcDbEntity
8
0
100
AcDbSpline
70
0
71
3
72
11
73
7
74
0
42
0.000000001
43
0.0000000001
44
0.0000000001
40
0
40
0
40
0
40
0
40
6.7719099491177714e-05
40
6.7719099491177714e-05
40
6.7719099491177714e-05
40
0.000145348
40
0.000145348
40
0.000145348
40
0.000145348
10
16.788775440000041
20
-16.377230710999996
30
-4.4408920985006262e-15
10
16.776159406936692
20
-16.358512167183314
30
-4.4408920985006262e-15
10
16.763455302613977
20
-16.339687046923167
30
-6.6613381477509392e-15
10
16.753714050069235
20
-16.319386189051318
30
-6.6613381477509392e-15
10
16.742547293123103
20
-16.296114567192518
30
-4.4408920985006262e-15
10
16.735364845355704
20
-16.271112576049319
30
-4.4408920985006262e-15
10
16.728202369000044
20
-16.246262020999996
30
-4.4408920985006262e-15
0
LINE
5
289
100
AcDbEntity
8
0
100
AcDbLine
10
16.728202369000034
20
-16.246262020999996
30
-4.4408920985006262e-15
11
16.823700335000034
21
-16.220068237999993
31
-4.4408920985006262e-15
0
SPLINE
5
290
100
AcDbEntity
8
0
100
AcDbSpline
70
0
71
3
72
11
73
7
74
0
42
0.000000001
43
0.0000000001
44
0.0000000001
40
0
40
0
40
0
40
0
40
5.3251999999999998e-05
40
5.3251999999999998e-05
40
5.3251999999999998e-05
40
0.00010650300000000001
40
0.00010650300000000001
40
0.00010650300000000001
40
0.00010650300000000001
10
16.823700335000034
20
-16.220068237999993
30
-4.4408920985006262e-15
10
16.829041254828407
20
-16.236996482054145
30
-4.4408920985006262e-15
10
16.834380399346792
20
-16.253955959030662
30
-4.4408920985006262e-15
10
16.841745474235719
20
-16.270085861411051
30
-4.4408920985006262e-15
10
16.849110410818557
20
-16.286215460893857
30
-4.4408920985006262e-15
10
16.858791167253166
20
-16.301211423835952
30
-4.4408920985006262e-15
10
16.868447926000041
20
-16.316111958999993
30
-4.4408920985006262e-15
0
SPLINE
5
291
100
AcDbEntity
8
0
100
AcDbSpline
70
0
71
3
72
11
73
7
74
0
42
0.000000001
43
0.0000000001
44
0.0000000001
40
0
40
0
40
0
40
0
40
4.5291437989650012e-05
40
4.5291437989650012e-05
40
4.5291437989650012e-05
40
9.5685000000000003e-05
40
9.5685000000000003e-05
40
9.5685000000000003e-05
40
9.5685000000000003e-05
10
16.868447926000041
20
-16.316111958999993
30
-4.4408920985006262e-15
10
16.878638877921492
20
-16.327252127907062
30
-4.4408920985006262e-15
10
16.888867013343727
20
-16.338473954143392
30
-4.4408920985006262e-15
10
16.900917260100492
20
-16.347558104995915
30
-4.4408920985006262e-15
10
16.91432497873631
20
-16.357665594173078
30
-6.6613381477509392e-15
10
16.929653288858955
20
-16.36486911403431
30
-4.4408920985006262e-15
10
16.944846328000036
20
-16.372046521999998
30
-4.4408920985006262e-15
0
SPLINE
5
292
100
AcDbEntity
8
0
100
AcDbSpline
70
0
71
3
72
11
73
7
74
0
42
0.000000001
43
0.0000000001
44
0.0000000001
40
0
40
0
40
0
40
0
40
5.4802153675149552e-05
40
5.4802153675149552e-05
40
5.4802153675149552e-05
40
0.000112991
40
0.000112991
40
0.000112991
40
0.000112991
10
16.944846328000036
20
-16.372046521999998
30
-4.4408920985006262e-15
10
16.96206541872759
20
-16.378146503137728
30
-4.4408920985006262e-15
10
16.979312293196696
20
-16.384275272496499
30
-4.4408920985006262e-15
10
16.997233742686085
20
-16.387803606145685
30
-4.4408920985006262e-15
10
17.01626271144594
20
-16.39154998563496
30
-4.4408920985006262e-15
10
17.035711699621288
20
-16.392294460891549
30
-4.4408920985006262e-15
10
17.055078264000045
20
-16.393056042000001
30
-4.4408920985006262e-15
0
SPLINE
5
293
100
AcDbEntity
8
0
100
AcDbSpline
70
0
71
3
72
11
73
7
74
0
42
0.000000001
43
0.0000000001
44
0.0000000001
40
0
40
0
40
0
40
0
40
6.7984206941204588e-05
40
6.7984206941204588e-05
40
6.7984206941204588e-05
40
0.000128233
40
0.000128233
40
0.000128233
40
0.000128233
10
17.055078264000045
20
-16.393056042000001
30
-4.4408920985006262e-15
10
17.077730021532762
20
-16.392382045310438
30
-4.4408920985006262e-15
10
17.100495088573837
20
-16.391723552014316
30
-4.4408920985006262e-15
10
17.122745331727309
20
-16.387530840439627
30
-4.4408920985006262e-15
10
17.142463886308974
20
-16.383815186122487
30
-4.4408920985006262e-15
10
17.16155826411379
20
-16.377366862604642
30
-4.4408920985006262e-15
10
17.180589851000043
20
-16.370955086999995
30
-4.4408920985006262e-15
0
SPLINE
5
294
100
AcDbEntity
8
0
100
AcDbSpline
70
0
71
3
72
11
73
7
74
0
42
0.000000001
43
0.0000000001
44
0.0000000001
40
0
40
0
40
0
40
0
40
5.4343766528809987e-05
40
5.4343766528809987e-05
40
5.4343766528809987e-05
40
0.00010419199999999999
40
0.00010419199999999999
40
0.00010419199999999999
40
0.00010419199999999999
10
17.180589851000043
20
-16.370955086999995
30
-4.4408920985006262e-15
10
17.197024528185167
20
-16.363335574125152
30
-4.4408920985006262e-15
10
17.213541937643157
20
-16.355703507568954
30
-4.4408920985006262e-15
10
17.228407083551627
20
-16.345375230141407
30
-4.4408920985006262e-15
10
17.242042525317267
20
-16.335901349005656
30
-6.6613381477509392e-15
10
17.254034748899841
20
-16.324338147264935
30
-4.4408920985006262e-15
10
17.265992354000037
20
-16.31283780099999
30
-4.4408920985006262e-15
0
SPLINE
5
295
100
AcDbEntity
8
0
100
AcDbSpline
70
0
71
3
72
11
73
7
74
0
42
0.000000001
43
0.0000000001
44
0.0000000001
40
0
40
0
40
0
40
0
40
4.7619320241978849e-05
40
4.7619320241978849e-05
40
4.7619320241978849e-05
40
9.4291999999999998e-05
40
9.4291999999999998e-05
40
9.4291999999999998e-05
40
9.4291999999999998e-05
10
17.265992354000037
20
-16.31283780099999
30
-4.4408920985006262e-15
10
17.276153483840435
20
-16.300642572964485
30
-4.4408920985006262e-15
10
17.286343696650867
20
-16.288424154512761
30
-4.4408920985006262e-15
10
17.294846366366006
20
-16.275047861600132
30
-4.4408920985006262e-15
10
17.303180008649992
20
-16.261937480513438
30
-4.4408920985006262e-15
10
17.30983789597208
20
-16.247790590474981
30
-4.4408920985006262e-15
10
17.316469814000044
20
-16.233710847000001
30
-4.4408920985006262e-15
0
SPLINE
5
296
100
AcDbEntity
8
0
100
AcDbSpline
70
0
71
3
72
11
73
7
74
0
42
0.000000001
43
0.0000000001
44
0.0000000001
40
0
40
0
40
0
40
0
40
8.0882708822819751e-05
40
8.0882708822819751e-05
40
8.0882708822819751e-05
40
0.00016479799999999999
40
0.00016479799999999999
40
0.00016479799999999999
40
0.00016479799999999999
10
17.316469814000044
20
-16.233710847000001
30
-4.4408920985006262e-15
10
17.325352438030581
20
-16.208255106333279
30
-4.4408920985006262e-15
10
17.334265851261961
20
-16.182775760593792
30
-4.4408920985006262e-15
10
17.339389290364764
20
-16.15635757987144
30
-4.4408920985006262e-15
10
17.344704825544007
20
-16.128948886963489
30
-4.4408920985006262e-15
10
17.345866517787734
20
-16.100736947581154
30
-4.4408920985006262e-15
10
17.347029116000037
20
-16.072728536999996
30
-4.4408920985006262e-15
0
SPLINE
5
297
100
AcDbEntity
8
0
100
AcDbSpline
70
0
71
3
72
11
73
7
74
0
42
0.000000001
43
0.0000000001
44
0.0000000001
40
0
40
0
40
0
40
0
40
9.8918401149301877e-05
40
9.8918401149301877e-05
40
9.8918401149301877e-05
40
0.000184394
40
0.000184394
40
0.000184394
40
0.000184394
10
17.347029116000037
20
-16.072728536999996
30
-4.4408920985006262e-15
10
17.345996765982719
20
-16.03977181227156
30
-4.4408920985006262e-15
10
17.345015202265685
20
-16.006661299992476
30
-4.4408920985006262e-15
10
17.33782034716657
20
-15.974502167169224
30
-4.4408920985006262e-15
10
17.331603257716111
20
-15.946713392738495
30
-4.4408920985006262e-15
10
17.320851513330176
20
-15.920156565035066
30
-4.4408920985006262e-15
10
17.310194190000033
20
-15.893738171999988
30
-4.4408920985006262e-15
0
SPLINE
5
298
100
AcDbEntity
8
0
100
AcDbSpline
70
0
71
3
72
11
73
7
74
0
42
0.000000001
43
0.0000000001
44
0.0000000001
40
0
40
0
40
0
40
0
40
7.7667863844706338e-05
40
7.7667863844706338e-05
40
7.7667863844706338e-05
40
0.00015453299999999999
40
0.00015453299999999999
40
0.00015453299999999999
40
0.00015453299999999999
10
17.310194190000033
20
-15.893738171999988
30
-4.4408920985006262e-15
10
17.29677803130933
20
-15.871595821356772
30
-4.4408920985006262e-15
10
17.283163051297528
20
-15.849036262013282
30
-6.6613381477509392e-15
10
17.264969018005232
20
-15.830982379773793
30
-6.6613381477509392e-15
10
17.246963027148794
20
-15.813115091454332
30
-4.4408920985006262e-15
10
17.224848029586674
20
-15.79992335707216
30
-4.4408920985006262e-15
10
17.202963646000036
20
-15.786780468999989
30
-4.4408920985006262e-15
0
SPLINE
5
299
100
AcDbEntity
8
0
100
AcDbSpline
70
0
71
3
72
11
73
7
74
0
42
0.000000001
43
0.0000000001
44
0.0000000001
40
0
40
0
40
0
40
0
40
7.7297687969153544e-05
40
7.7297687969153544e-05
40
7.7297687969153544e-05
40
0.00015491999999999999
40
0.00015491999999999999
40
0.00015491999999999999
40
0.00015491999999999999
10
17.202963646000036
20
-15.786780468999989
30
-4.4408920985006262e-15
10
17.179267942769592
20
-15.776660975657432
30
-4.4408920985006262e-15
10
17.155410575290535
20
-15.76644307357661
30
-6.6613381477509392e-15
10
17.130385157434517
20
-15.760586611657992
30
-6.6613381477509392e-15
10
17.10525464131484
20
-15.754705554586454
30
-4.4408920985006262e-15
10
17.079256274670609
20
-15.753290373821716
30
-4.4408920985006262e-15
10
17.053441148000033
20
-15.751855424999995
30
-4.4408920985006262e-15
0
SPLINE
5
300
100
AcDbEntity
8
0
100
AcDbSpline
70
0
71
3
72
11
73
7
74
0
42
0.000000001
43
0.0000000001
44
0.0000000001
40
0
40
0
40
0
40
0
40
6.8340698236600347e-05
40
6.8340698236600347e-05
40
6.8340698236600347e-05
40
0.000137665
40
0.000137665
40
0.000137665
40
0.000137665
10
17.053441148000033
20
-15.751855424999995
30
-4.4408920985006262e-15
10
17.03068876097425
20
-15.752983168675661
30
-4.4408920985006262e-15
10
17.007831565606022
20
-15.754100730049153
30
-4.4408920985006262e-15
10
16.985501168284152
20
-15.758472136169853
30
-4.4408920985006262e-15
10
16.962849377442375
20
-15.762906458394554
30
-4.4408920985006262e-15
10
16.940984622085047
20
-15.770637277711117
30
-4.4408920985006262e-15
10
16.919198300000033
20
-15.778321972999997
30
-4.4408920985006262e-15
0
SPLINE
5
301
100
AcDbEntity
8
0
100
AcDbSpline
70
0
71
3
72
11
73
7
74
0
42
0.000000001
43
0.0000000001
44
0.0000000001
40
0
40
0
40
0
40
0
40
6.3816769908852085e-05
40
6.3816769908852085e-05
40
6.3816769908852085e-05
40
0.000114838
40
0.000114838
40
0.000114838
40
0.000114838
10
16.919198300000033
20
-15.778321972999997
30
-4.4408920985006262e-15
10
16.899587831962279
20
-15.786565014898745
30
-4.4408920985006262e-15
10
16.879896686677167
20
-15.794831349319566
30
-4.4408920985006262e-15
10
16.861626768784657
20
-15.805675439403583
30
-4.4408920985006262e-15
10
16.84702004886022
20
-15.814345242279785
30
-4.4408920985006262e-15
10
16.833442641812919
20
-15.824584745499376
30
-4.4408920985006262e-15
10
16.819880571000034
20
-15.834802291999992
30
-4.4408920985006262e-15
0
LINE
5
302
100
AcDbEntity
8
0
100
AcDbLine
10
16.819880571000034
20
-15.834802291999988
30
-4.4408920985006262e-15
11
16.819880571000034
21
-15.983779034999998
31
-4.4408920985006262e-15
0
LINE
5
303
100
AcDbEntity
8
0
100
AcDbLine
10
16.819880571000034
20
-15.983779034999998
30
-4.4408920985006262e-15
11
17.055078264000045
21
-15.983779034999998
31
-4.4408920985006262e-15
0
CIRCLE
5
304
100
AcDbEntity
8
0
100
AcDbCircle
10
8.5725000000000318
20
-17.77999999999999
30
-4.4408920985006262e-15
40
1
210
0
220
0
230
1
0
CIRCLE
5
305
100
AcDbEntity
8
0
100
AcDbCircle
10
11.112500000000036
20
-17.77999999999999
30
-4.4408920985006262e-15
40
1
210
0
220
0
230
1
0
CIRCLE
5
306
100
AcDbEntity
8
0
100
AcDbCircle
10
13.652500000000041
20
-17.77999999999999
30
-4.4408920985006262e-15
40
1
210
0
220
0
230
1
0
CIRCLE
5
307
100
AcDbEntity
8
0
100
AcDbCircle
10
24.132500000000043
20
-17.479999999999997
30
-4.4408920985006262e-15
40
1.5000000000000002
210
0
220
0
230
1
0
CIRCLE
5
308
100
AcDbEntity
8
0
100
AcDbCircle
10
0.63250000000003581
20
-17.479999999999997
30
-4.4408920985006262e-15
40
1.5000000000000002
210
0
220
0
230
1
0
CIRCLE
5
309
100
AcDbEntity
8
0
100
AcDbCircle
10
24.132500000000043
20
6.3200000000000252
30
-4.4408920985006262e-15
40
1.5000000000000002
210
0
220
0
230
1
0
CIRCLE
5
310
100
AcDbEntity
8
0
100
AcDbCircle
10
0.63250000000003581
20
6.3200000000000252
30
-4.4408920985006262e-15
40
1.5000000000000002
210
0
220
0
230
1
0
ENDSEC
0
SECTION
2
OBJECTS
0
DICTIONARY
5
C
100
AcDbDictionary
3
ACAD_GROUP
350
D
3
ACAD_MLINESTYLE
350
17
0
DICTIONARY
5
D
100
AcDbDictionary
0
DICTIONARY
5
1A
330
C
100
AcDbDictionary
0
DICTIONARY
5
17
100
AcDbDictionary
0
ENDSEC
0
EOF
