0
SECTION
2
HEADER
9
$INSUNITS
70
4
9
$ACADVER
1
AC1014
9
$HANDSEED
5
FFFF
0
ENDSEC
0
SECTION
2
TABLES
0
TABLE
2
VPORT
5
8
100
AcDbSymbolTable
0
ENDTAB
0
TABLE
2
LTYPE
5
5
100
AcDbSymbolTable
0
LTYPE
5
14
100
AcDbSymbolTableRecord
100
AcDbLinetypeTableRecord
2
BYBLOCK
70
0
0
LTYPE
5
15
100
AcDbSymbolTableRecord
100
AcDbLinetypeTableRecord
2
BYLAYER
70
0
0
ENDTAB
0
TABLE
2
LAYER
5
2
100
AcDbSymbolTable
70
2
0
LAYER
5
50
100
AcDbSymbolTableRecord
100
AcDbLayerTableRecord
2
0
70
0
6
CONTINUOUS
0
ENDTAB
0
TABLE
2
STYLE
5
3
100
AcDbSymbolTable
70
1
0
STYLE
5
11
100
AcDbSymbolTableRecord
100
AcDbTextStyleTableRecord
2
STANDARD
70
0
0
ENDTAB
0
TABLE
2
VIEW
5
6
100
AcDbSymbolTable
70
0
0
ENDTAB
0
TABLE
2
UCS
5
7
100
AcDbSymbolTable
70
0
0
ENDTAB
0
TABLE
2
APPID
5
9
100
AcDbSymbolTable
70
2
0
APPID
5
12
100
AcDbSymbolTableRecord
100
AcDbRegAppTableRecord
2
ACAD
70
0
0
ENDTAB
0
TABLE
2
DIMSTYLE
5
A
100
AcDbSymbolTable
70
1
0
ENDTAB
0
TABLE
2
BLOCK_RECORD
5
1
100
AcDbSymbolTable
70
1
0
BLOCK_RECORD
5
1F
100
AcDbSymbolTableRecord
100
AcDbBlockTableRecord
2
*MODEL_SPACE
0
BLOCK_RECORD
5
1B
100
AcDbSymbolTableRecord
100
AcDbBlockTableRecord
2
*PAPER_SPACE
0
ENDTAB
0
ENDSEC
0
SECTION
2
BLOCKS
0
BLOCK
5
20
100
AcDbEntity
100
AcDbBlockBegin
2
*MODEL_SPACE
0
ENDBLK
5
21
100
AcDbEntity
100
AcDbBlockEnd
0
BLOCK
5
1C
100
AcDbEntity
100
AcDbBlockBegin
2
*PAPER_SPACE
0
ENDBLK
5
1D
100
AcDbEntity
100
AcDbBlockEnd
0
ENDSEC
0
SECTION
2
ENTITIES
0
CIRCLE
5
100
100
AcDbEntity
8
0
100
AcDbCircle
10
0
20
0
30
0
40
69.000000000000028
210
0
220
0
230
1
0
LINE
5
101
100
AcDbEntity
8
0
100
AcDbLine
10
43.103800288389166
20
-32.750000000000014
30
0
11
43.103800288389181
21
31.211331302815395
31
0
0
CIRCLE
5
102
100
AcDbEntity
8
0
100
AcDbCircle
10
35
20
-42.5
30
0
40
1.7499999999999982
210
0
220
0
230
1
0
CIRCLE
5
103
100
AcDbEntity
8
0
100
AcDbCircle
10
-35
20
-42.5
30
0
40
1.7499999999999982
210
0
220
0
230
1
0
CIRCLE
5
104
100
AcDbEntity
8
0
100
AcDbCircle
10
-35
20
42.5
30
0
40
1.7499999999999982
210
0
220
0
230
1
0
CIRCLE
5
105
100
AcDbEntity
8
0
100
AcDbCircle
10
35
20
42.5
30
0
40
1.7499999999999982
210
0
220
0
230
1
0
ARC
5
106
100
AcDbEntity
8
0
100
AcDbCircle
10
40.103800288389181
20
32.750000000000014
30
0
40
2.9999999999999982
210
0
220
0
230
1
100
AcDbArc
50
0
51
90.000000000000142
0
LINE
5
107
100
AcDbEntity
8
0
100
AcDbLine
10
43.103800288389181
20
31.211331302815395
30
0
11
43.103800288389181
21
32.750000000000014
31
0
0
ARC
5
108
100
AcDbEntity
8
0
100
AcDbCircle
10
40.103800288389166
20
-32.750000000000014
30
0
40
2.9999999999999982
210
0
220
0
230
1
100
AcDbArc
50
-90
51
0
0
ARC
5
109
100
AcDbEntity
8
0
100
AcDbCircle
10
-40.103800288389166
20
-32.750000000000014
30
0
40
2.9999999999999982
210
0
220
0
230
1
100
AcDbArc
50
180
51
270
0
LINE
5
110
100
AcDbEntity
8
0
100
AcDbLine
10
-43.103800288389181
20
2.0000000745057989
30
0
11
-43.103800288389166
21
-32.750000000000014
31
0
0
ARC
5
111
100
AcDbEntity
8
0
100
AcDbCircle
10
-46.103800288389181
20
2.000000074505794
30
0
40
2.9999999999999982
210
0
220
-0
230
1
100
AcDbArc
50
0
51
89.999999999999872
0
LINE
5
112
100
AcDbEntity
8
0
100
AcDbLine
10
-52.034301065463936
20
5.0000000745057882
30
0
11
-46.103800288389174
21
5.0000000745057926
31
0
0
ARC
5
113
100
AcDbEntity
8
0
100
AcDbCircle
10
-52.034301065463936
20
8.0000000745057953
30
0
40
3.0000000000000071
210
0
220
0
230
1
100
AcDbArc
50
180
51
270
0
ARC
5
114
100
AcDbEntity
8
0
100
AcDbCircle
10
-52.034301065463929
20
17.000000298023199
30
0
40
3.0000000000000115
210
0
220
0
230
1
100
AcDbArc
50
90.000000000000142
51
180
0
LINE
5
115
100
AcDbEntity
8
0
100
AcDbLine
10
-55.03430106546395
20
17.000000298023213
30
0
11
-55.03430106546395
21
8.0000000745057935
31
0
0
LINE
5
116
100
AcDbEntity
8
0
100
AcDbLine
10
-46.103800288389181
20
20.000000298023217
30
0
11
-52.034301065463936
21
20.00000029802321
31
0
0
ARC
5
117
100
AcDbEntity
8
0
100
AcDbCircle
10
-46.103800288389174
20
23.000000298023203
30
0
40
2.9999999999999893
210
0
220
0
230
1
100
AcDbArc
50
-90.000000000000142
51
0
0
LINE
5
118
100
AcDbEntity
8
0
100
AcDbLine
10
-43.103800288389181
20
32.750000000000014
30
0
11
-43.103800288389181
21
23.000000298023213
31
0
0
ARC
5
119
100
AcDbEntity
8
0
100
AcDbCircle
10
-40.103800288389181
20
32.750000000000014
30
0
40
2.9999999999999982
210
0
220
0
230
1
100
AcDbArc
50
90.00000000000027
51
180
0
LINE
5
120
100
AcDbEntity
8
0
100
AcDbLine
10
-27.629999999999946
20
35.750000000000014
30
0
11
-40.103800288389195
21
35.750000000000014
31
0
0
LINE
5
121
100
AcDbEntity
8
0
100
AcDbLine
10
-14.010000000000053
20
38.500000581145287
30
0
11
-14.010000000000055
21
36.75000000000005
31
0
0
LINE
5
122
100
AcDbEntity
8
0
100
AcDbLine
10
40.103800288389174
20
35.750000000000014
30
0
11
27.629999999999946
21
35.750000000000043
31
0
0
LINE
5
123
100
AcDbEntity
8
0
100
AcDbLine
10
13.009999999999948
20
35.750000000000043
30
0
11
-13.010000000000051
21
35.750000000000043
31
0
0
LINE
5
124
100
AcDbEntity
8
0
100
AcDbLine
10
40.103800288389166
20
-35.750000000000014
30
0
11
27.629999999999949
21
-35.750000000000014
31
0
0
ARC
5
125
100
AcDbEntity
8
0
100
AcDbCircle
10
13.00999999999995
20
-36.750000000000014
30
0
40
1.0000000000000009
210
0
220
-0
230
1
100
AcDbArc
50
0
51
89.999999999999702
0
ARC
5
126
100
AcDbEntity
8
0
100
AcDbCircle
10
21.050000000000054
20
-38.500000581145294
30
0
40
0.49999999999999822
210
0
220
0
230
1
100
AcDbArc
50
-90
51
0
0
LINE
5
127
100
AcDbEntity
8
0
100
AcDbLine
10
21.55000000000005
20
-38.500000581145294
30
0
11
21.55000000000005
21
-36.75000000000005
31
0
0
ARC
5
128
100
AcDbEntity
8
0
100
AcDbCircle
10
22.550000000000061
20
-36.750000000000057
30
0
40
1.0000000000000098
210
0
220
0
230
1
100
AcDbArc
50
90.000000000000398
51
180
0
ARC
5
129
100
AcDbEntity
8
0
100
AcDbCircle
10
14.510000000000048
20
-38.500000581145287
30
0
40
0.49999999999999822
210
0
220
0
230
1
100
AcDbArc
50
180
51
270.0000000000008
0
ARC
5
130
100
AcDbEntity
8
0
100
AcDbCircle
10
-26.129999999999956
20
-38.500000581145287
30
0
40
0.49999999999999822
210
0
220
0
230
1
100
AcDbArc
50
180
51
270
0
LINE
5
131
100
AcDbEntity
8
0
100
AcDbLine
10
-26.629999999999953
20
-38.500000581145287
30
0
11
-26.629999999999953
21
-36.750000000000036
31
0
0
ARC
5
132
100
AcDbEntity
8
0
100
AcDbCircle
10
-27.629999999999953
20
-36.750000000000036
30
0
40
1.0000000000000009
210
-0
220
0
230
1
100
AcDbArc
50
0
51
89.999999999999801
0
ARC
5
133
100
AcDbEntity
8
0
100
AcDbCircle
10
-14.50999999999995
20
-38.500000581145294
30
0
40
0.49999999999999378
210
0
220
0
230
1
100
AcDbArc
50
-90.000000000000398
51
0
0
LINE
5
134
100
AcDbEntity
8
0
100
AcDbLine
10
-14.009999999999955
20
-38.500000581145287
30
0
11
-14.009999999999954
21
-36.75000000000005
31
0
0
ARC
5
135
100
AcDbEntity
8
0
100
AcDbCircle
10
-13.009999999999946
20
-36.75000000000005
30
0
40
1.0000000000000053
210
0
220
0
230
1
100
AcDbArc
50
90.000000000000313
51
180
0
ARC
5
136
100
AcDbEntity
8
0
100
AcDbCircle
10
-13.009999999999946
20
36.750000000000014
30
0
40
1.0000000000000009
210
0
220
0
230
1
100
AcDbArc
50
180
51
269.99999999999983
0
ARC
5
137
100
AcDbEntity
8
0
100
AcDbCircle
10
-14.509999999999941
20
38.500000581145294
30
0
40
0.499999999999996
210
-0
220
0
230
1
100
AcDbArc
50
0
51
90.000000000000398
0
ARC
5
138
100
AcDbEntity
8
0
100
AcDbCircle
10
-27.629999999999953
20
36.750000000000028
30
0
40
1.0000000000000098
210
-0
220
0
230
1
100
AcDbArc
50
270.0000000000004
51
360
0
LINE
5
139
100
AcDbEntity
8
0
100
AcDbLine
10
-26.629999999999946
20
38.500000581145294
30
0
11
-26.629999999999946
21
36.750000000000014
31
0
0
ARC
5
140
100
AcDbEntity
8
0
100
AcDbCircle
10
-26.129999999999946
20
38.500000581145294
30
0
40
0.49999999999999822
210
0
220
-0
230
1
100
AcDbArc
50
90
51
180
0
LINE
5
141
100
AcDbEntity
8
0
100
AcDbLine
10
13.009999999999948
20
35.750000000000043
30
0
11
27.629999999999946
21
35.750000000000043
31
0
0
LINE
5
142
100
AcDbEntity
8
0
100
AcDbLine
10
-14.509999999999945
20
39.000000581145287
30
0
11
-26.129999999999946
21
39.000000581145294
31
0
0
LINE
5
143
100
AcDbEntity
8
0
100
AcDbLine
10
13.009999999999955
20
-35.750000000000014
30
0
11
-13.009999999999952
21
-35.750000000000043
31
0
0
LINE
5
144
100
AcDbEntity
8
0
100
AcDbLine
10
-27.629999999999949
20
-35.750000000000036
30
0
11
-40.103800288389166
21
-35.750000000000014
31
0
0
LINE
5
145
100
AcDbEntity
8
0
100
AcDbLine
10
14.50999999999995
20
-39.000000581145287
30
0
11
21.050000000000054
21
-39.000000581145294
31
0
0
LINE
5
146
100
AcDbEntity
8
0
100
AcDbLine
10
22.550000000000054
20
-35.75000000000005
30
0
11
27.629999999999949
21
-35.750000000000014
31
0
0
LINE
5
147
100
AcDbEntity
8
0
100
AcDbLine
10
14.009999999999952
20
-36.750000000000014
30
0
11
14.01000000000005
21
-38.500000581145287
31
0
0
LINE
5
148
100
AcDbEntity
8
0
100
AcDbLine
10
-26.129999999999956
20
-39.000000581145279
30
0
11
-14.509999999999954
21
-39.000000581145287
31
0
0
ENDSEC
0
SECTION
2
OBJECTS
0
DICTIONARY
5
C
100
AcDbDictionary
3
ACAD_GROUP
350
D
3
ACAD_MLINESTYLE
350
17
0
DICTIONARY
5
D
100
AcDbDictionary
0
DICTIONARY
5
1A
330
C
100
AcDbDictionary
0
DICTIONARY
5
17
100
AcDbDictionary
0
ENDSEC
0
EOF
