G04 #@! TF.GenerationSoftware,KiCad,Pcbnew,(6.0.10)*
G04 #@! TF.CreationDate,2025-01-22T22:04:58+09:00*
G04 #@! TF.ProjectId,LINE_,4c494e45-4d2e-46b6-9963-61645f706362,rev?*
G04 #@! TF.SameCoordinates,Original*
G04 #@! TF.FileFunction,Profile,NP*
%FSLAX46Y46*%
G04 Gerber Fmt 4.6, Leading zero omitted, Abs format (unit mm)*
G04 Created by KiCad (PCBNEW (6.0.10)) date 2025-01-22 22:04:58*
%MOMM*%
%LPD*%
G01*
G04 APERTURE LIST*
G04 #@! TA.AperFunction,Profile*
%ADD10C,0.200000*%
G04 #@! TD*
G04 APERTURE END LIST*
D10*
X92178518Y23784735D02*
G75*
G03*
X92196204Y-23800448I21121822J-23784745D01*
G01*
X53349541Y-7620000D02*
X59040028Y-7620000D01*
X84371065Y-38177211D02*
G75*
G03*
X83308230Y-36250913I-2975165J-385189D01*
G01*
X75845381Y-24873241D02*
G75*
G03*
X76707713Y-29574231I4751119J-1558059D01*
G01*
X67945116Y-13070336D02*
G75*
G03*
X59040028Y-7620000I-8905086J-4549664D01*
G01*
X40959274Y15520849D02*
G75*
G03*
X40959274Y15520849I-1750000J0D01*
G01*
X76707709Y-29574234D02*
G75*
G03*
X83308230Y-36250913I36592891J29574534D01*
G01*
X71937462Y15823044D02*
X71257352Y15663739D01*
X67945138Y-13070325D02*
G75*
G03*
X71257352Y-15663739I4452562J2274825D01*
G01*
X99519016Y-33692492D02*
G75*
G03*
X92196204Y-23800448I-27260716J-12523908D01*
G01*
X35476587Y-14043265D02*
G75*
G03*
X43198093Y-15974134I3732683J-1477585D01*
G01*
X59040028Y7620002D02*
G75*
G03*
X67945114Y13070337I2J9999998D01*
G01*
X95067263Y42405227D02*
G75*
G03*
X95067263Y42405227I-1750000J0D01*
G01*
X95067263Y-42405227D02*
G75*
G03*
X95067263Y-42405227I-1750000J0D01*
G01*
X75845413Y24873252D02*
X76304878Y23425836D01*
X76304887Y-23425839D02*
X75845413Y-24873252D01*
X86636270Y42795316D02*
G75*
G03*
X84371028Y38177241I5668330J-5645016D01*
G01*
X43198093Y-15974134D02*
X43296877Y-16072918D01*
X71937462Y15823046D02*
G75*
G03*
X76304878Y23425836I-1368372J5841884D01*
G01*
X71257346Y15663765D02*
G75*
G03*
X67945114Y13070337I1140354J-4868265D01*
G01*
X77901220Y30992866D02*
X76707713Y29574231D01*
X42941947Y16998427D02*
G75*
G03*
X35476595Y14043268I-3732677J-1477577D01*
G01*
X76707714Y29574230D02*
G75*
G03*
X75845413Y24873252I3888756J-3142890D01*
G01*
X84371018Y-38177217D02*
G75*
G03*
X99519019Y-33692490I7933802J1027067D01*
G01*
X86647971Y42807002D02*
X86636277Y42795309D01*
X53349541Y-7620001D02*
G75*
G03*
X43854037Y-14483855I-1J-9999999D01*
G01*
X35476595Y-14043268D02*
G75*
G03*
X35476595Y14043268I-35476245J14043268D01*
G01*
X71257352Y-15663739D02*
X71937462Y-15823044D01*
X83308239Y36250927D02*
G75*
G03*
X84371028Y38177241I-1912439J2311473D01*
G01*
X83308227Y36250941D02*
G75*
G03*
X77917145Y31011070I29992173J-36250941D01*
G01*
X76304850Y-23425828D02*
G75*
G03*
X71937462Y-15823044I-5735750J1760928D01*
G01*
X77917145Y31011070D02*
X77901220Y30992866D01*
X99519024Y33692487D02*
G75*
G03*
X86647971Y42807002I-7214194J3457663D01*
G01*
X40959274Y-15520849D02*
G75*
G03*
X40959274Y-15520849I-1750000J0D01*
G01*
X43854037Y14483855D02*
X42941954Y16998430D01*
X43296877Y-16072918D02*
X43854037Y-14483855D01*
X59040028Y7620000D02*
X53349541Y7620000D01*
X92178517Y23784736D02*
G75*
G03*
X99519019Y33692490I-19920317J22431764D01*
G01*
X43854032Y14483853D02*
G75*
G03*
X53349541Y7620000I9495518J3136167D01*
G01*
M02*
