%
M48
M72
T02C0.0315
T03C0.0320
T04C0.0400
T05C0.0550
T06C0.1260
%
T02
X17013Y8140
X17013Y9140
X17013Y10140
X17013Y11140
X17013Y12140
X11013Y12640
X10013Y12640
X9013Y12640
T03
X8513Y11390
X7513Y11390
X9513Y11390
X10513Y11390
X11513Y11390
X12513Y11390
X13513Y11390
X14513Y11390
X15513Y11390
X15513Y8390
X14513Y8390
X13513Y8390
X12513Y8390
X11513Y8390
X10513Y8390
X9513Y8390
X8513Y8390
X7513Y8390
X6638Y7640
X4638Y7640
X5013Y5640
X4013Y5640
X6013Y4140
X7013Y4140
X9513Y3015
X10513Y3015
X10513Y4140
X11513Y4140
X13013Y4140
X13013Y3140
X16013Y3140
X16013Y4140
X17763Y4140
X18263Y4640
X19263Y4640
X17763Y5390
X17763Y6390
X18263Y6890
X19263Y6890
X16013Y6390
X16013Y5390
X13013Y5390
X11513Y6140
X10513Y6140
X11013Y7140
X13013Y7140
X13013Y6390
X17763Y3140
T04
X20263Y2890
X21263Y2890
X21263Y3890
X20263Y3890
X20263Y4890
X21263Y4890
X21263Y5890
X20263Y5890
X20263Y8640
X21263Y8640
X22263Y8640
X22263Y9640
X21263Y9640
X20263Y9640
X20263Y11140
X21263Y11140
X21263Y12140
X20263Y12140
X9013Y5640
X8013Y5640
X7013Y5640
X5638Y8640
X4638Y8640
X4638Y9640
X5638Y9640
X5638Y10640
X4638Y10640
X4638Y11640
X5638Y11640
T05
X4638Y2890
X8013Y2890
T06
X2138Y2140
X2138Y13015
X24638Y13015
X24638Y2140
M30
