G04 #@! TF.GenerationSoftware,KiCad,Pcbnew,(6.0.10)*
G04 #@! TF.CreationDate,2025-01-19T12:07:14+09:00*
G04 #@! TF.ProjectId,LINE__V2,4c494e45-fae4-4563-922e-6b696361645f,rev?*
G04 #@! TF.SameCoordinates,Original*
G04 #@! TF.FileFunction,Copper,L1,Top*
G04 #@! TF.FilePolarity,Positive*
%FSLAX46Y46*%
G04 Gerber Fmt 4.6, Leading zero omitted, Abs format (unit mm)*
G04 Created by KiCad (PCBNEW (6.0.10)) date 2025-01-19 12:07:14*
%MOMM*%
%LPD*%
G01*
G04 APERTURE LIST*
G04 #@! TA.AperFunction,ComponentPad*
%ADD10C,2.000000*%
G04 #@! TD*
G04 #@! TA.AperFunction,ComponentPad*
%ADD11C,1.524000*%
G04 #@! TD*
G04 #@! TA.AperFunction,Conductor*
%ADD12C,1.000000*%
G04 #@! TD*
G04 APERTURE END LIST*
D10*
X-25400000Y-6350000D03*
X-22860000Y-6350000D03*
D11*
X26035000Y-25400000D03*
X23495000Y-22860000D03*
X20955000Y-25400000D03*
D10*
X-25400000Y-15875000D03*
X-22860000Y-15875000D03*
D11*
X8345255Y-25400000D03*
X5805255Y-22860000D03*
X3265255Y-25400000D03*
X-635000Y-16510001D03*
X-3175000Y-13970001D03*
X-5715000Y-16510001D03*
X26035000Y-16510001D03*
X23495000Y-13970001D03*
X20955000Y-16510001D03*
D10*
X-4445000Y-6350001D03*
X-1905000Y-6350001D03*
X635000Y-6350001D03*
X3175000Y-6350001D03*
D11*
X8255000Y-16510001D03*
X5715000Y-13970001D03*
X3175000Y-16510001D03*
D10*
X8255000Y-6350001D03*
X10795000Y-6350001D03*
X13335000Y-6350001D03*
X15875000Y-6350001D03*
D11*
X-635000Y-25400001D03*
X-3175000Y-22860001D03*
X-5715000Y-25400001D03*
D10*
X-16510000Y-15875000D03*
X-13970000Y-15875000D03*
X20955000Y-6350001D03*
X23495000Y-6350001D03*
X-25400000Y-25400000D03*
X-22860000Y-25400000D03*
X-16510000Y-6350000D03*
X-13970000Y-6350000D03*
D11*
X17145000Y-25400000D03*
X14605000Y-22860000D03*
X12065000Y-25400000D03*
X17145000Y-16510000D03*
X14605000Y-13970000D03*
X12065000Y-16510000D03*
D12*
X-4445000Y-12700001D02*
X-3175000Y-13970001D01*
X-4445000Y-6350001D02*
X-4445000Y-12700001D01*
X1905000Y-13970001D02*
X-1905000Y-10160001D01*
X5715000Y-13970001D02*
X1905000Y-13970001D01*
X-1905000Y-10160001D02*
X-1905000Y-6350001D01*
X10795000Y-13970001D02*
X14605000Y-13970000D01*
X3175000Y-11430001D02*
X8255000Y-11430001D01*
X635000Y-8890001D02*
X3175000Y-11430001D01*
X8255000Y-11430001D02*
X10795000Y-13970001D01*
X635000Y-6350001D02*
X635000Y-8890001D01*
X9525000Y-8890001D02*
X12065000Y-11430001D01*
X17145000Y-11430001D02*
X19685000Y-13970001D01*
X3175000Y-7620001D02*
X4445000Y-8890001D01*
X12065000Y-11430001D02*
X17145000Y-11430001D01*
X3175000Y-6350001D02*
X3175000Y-7620001D01*
X19685000Y-13970001D02*
X23495000Y-13970001D01*
X4445000Y-8890001D02*
X9525000Y-8890001D01*
X-635000Y-16510001D02*
X-635000Y-25400001D01*
X28575000Y-25400000D02*
X32385000Y-21590000D01*
X17145000Y-25400000D02*
X19685000Y-27940001D01*
X8345255Y-16600256D02*
X8255000Y-16510001D01*
X32385000Y-21590000D02*
X32385000Y-10160000D01*
X24130000Y-18415001D02*
X19050001Y-18415001D01*
X26035000Y-16510001D02*
X24130000Y-18415001D01*
X10795000Y-27940001D02*
X14604999Y-27940001D01*
X25400000Y-3175000D02*
X21590000Y-3175000D01*
X8345255Y-25400000D02*
X10795000Y-27849745D01*
X14604999Y-19050001D02*
X17145000Y-16510000D01*
X20955000Y-3810000D02*
X20955000Y-6350001D01*
X32385000Y-10160000D02*
X25400000Y-3175000D01*
X19685000Y-27940001D02*
X23494999Y-27940001D01*
X10795000Y-27849745D02*
X10795000Y-27940001D01*
X19050001Y-18415001D02*
X17145000Y-16510000D01*
X1905000Y-19050001D02*
X5715000Y-19050001D01*
X8345255Y-25400000D02*
X8345255Y-16600256D01*
X26035000Y-25400000D02*
X28575000Y-25400000D01*
X10795000Y-19050001D02*
X14604999Y-19050001D01*
X21590000Y-3175000D02*
X20955000Y-3810000D01*
X5715000Y-19050001D02*
X8255000Y-16510001D01*
X8255000Y-16510001D02*
X10795000Y-19050001D01*
X14604999Y-27940001D02*
X17145000Y-25400000D01*
X-635000Y-16510001D02*
X1905000Y-19050001D01*
X23494999Y-27940001D02*
X26035000Y-25400000D01*
X8255000Y-4445000D02*
X7620000Y-3810000D01*
X8255000Y-6350001D02*
X8255000Y-4445000D01*
X-5715000Y-22860001D02*
X-3175000Y-22860001D01*
X-5715000Y-3810001D02*
X-8255000Y-6350001D01*
X-8255000Y-20320001D02*
X-5715000Y-22860001D01*
X7620000Y-3810000D02*
X-5715000Y-3810001D01*
X-8255000Y-6350001D02*
X-8255000Y-20320001D01*
X-5715000Y-27940001D02*
X4445000Y-27940001D01*
X-10795000Y-6350001D02*
X-10795000Y-22860001D01*
X-5715000Y-1270001D02*
X-10795000Y-6350001D01*
X10795000Y-6350001D02*
X10795000Y-4445000D01*
X-10795000Y-22860001D02*
X-5715000Y-27940001D01*
X5805255Y-26579746D02*
X5805255Y-22860000D01*
X10795000Y-4445000D02*
X7620000Y-1270000D01*
X7620000Y-1270000D02*
X-5715000Y-1270001D01*
X4445000Y-27940001D02*
X5805255Y-26579746D01*
X22225000Y-20320001D02*
X27305000Y-20320001D01*
X28575000Y-12700001D02*
X27305000Y-11430001D01*
X17145000Y-8890000D02*
X14605000Y-8890001D01*
X27305000Y-20320001D02*
X28575000Y-19050001D01*
X13335000Y-7620001D02*
X13335000Y-6350001D01*
X14605000Y-22860000D02*
X19685001Y-22860000D01*
X27305000Y-11430001D02*
X19685001Y-11430001D01*
X19685001Y-22860000D02*
X22225000Y-20320001D01*
X19685001Y-11430001D02*
X17145000Y-8890000D01*
X14605000Y-8890001D02*
X13335000Y-7620001D01*
X28575000Y-19050001D02*
X28575000Y-12700001D01*
X17145000Y-6350000D02*
X15875000Y-6350001D01*
X28575000Y-22860000D02*
X30480000Y-20955000D01*
X28575000Y-8890001D02*
X19685001Y-8890001D01*
X30480000Y-20955000D02*
X30480000Y-10795001D01*
X23495000Y-22860000D02*
X28575000Y-22860000D01*
X19685001Y-8890001D02*
X17145000Y-6350000D01*
X30480000Y-10795001D02*
X28575000Y-8890001D01*
X-16510000Y-10160000D02*
X-16510000Y-15875000D01*
X-16510000Y-24130000D02*
X-17780000Y-25400000D01*
X-16510000Y-15875000D02*
X-16510000Y-24130000D01*
X-13970000Y-6350000D02*
X-13970000Y-7620000D01*
X-17780000Y-25400000D02*
X-22860000Y-25400000D01*
X-13970000Y-7620000D02*
X-16510000Y-10160000D01*
X-25400000Y-15875000D02*
X-25400000Y-25400000D01*
X-25400000Y-26670000D02*
X-24130000Y-27940000D01*
X-17780000Y-27940000D02*
X-13970000Y-24130000D01*
X-13970000Y-24130000D02*
X-13970000Y-15875000D01*
X-25400000Y-25400000D02*
X-25400000Y-26670000D01*
X-24130000Y-27940000D02*
X-17780000Y-27940000D01*
X-25400000Y-6350000D02*
X-25400000Y-7620000D01*
X-25400000Y-7620000D02*
X-22860000Y-10160000D01*
X-22860000Y-10160000D02*
X-22860000Y-15875000D01*
X-22860000Y-6350000D02*
X-16510000Y-6350000D01*
M02*
