G04 #@! TF.GenerationSoftware,KiCad,Pcbnew,(6.0.10)*
G04 #@! TF.CreationDate,2025-01-19T12:07:14+09:00*
G04 #@! TF.ProjectId,LINE__V2,4c494e45-fae4-4563-922e-6b696361645f,rev?*
G04 #@! TF.SameCoordinates,Original*
G04 #@! TF.FileFunction,Profile,NP*
%FSLAX46Y46*%
G04 Gerber Fmt 4.6, Leading zero omitted, Abs format (unit mm)*
G04 Created by KiCad (PCBNEW (6.0.10)) date 2025-01-19 12:07:14*
%MOMM*%
%LPD*%
G01*
G04 APERTURE LIST*
G04 #@! TA.AperFunction,Profile*
%ADD10C,0.200000*%
G04 #@! TD*
G04 APERTURE END LIST*
D10*
X-35038392Y-25269836D02*
G75*
G03*
X-33581248Y-21751980I-3517851J3517854D01*
G01*
X36972015Y-13512540D02*
G75*
G03*
X37554879Y-12105404I-1407115J1407140D01*
G01*
X-36909660Y-27141105D02*
G75*
G03*
X-35104204Y-35329968I3517856J-3517856D01*
G01*
X35038391Y-15446177D02*
X36972021Y-13512546D01*
X-35038392Y-25269836D02*
X-36909660Y-27141105D01*
X-37554880Y-6277400D02*
X-37554880Y-12105404D01*
X37554879Y-12105404D02*
X37554879Y-6277401D01*
X34795345Y-1457132D02*
G75*
G03*
X31277478Y0I-3517845J-3517868D01*
G01*
X33678678Y-5626200D02*
G75*
G03*
X33678678Y-5626200I-1750000J0D01*
G01*
X36909659Y-27141105D02*
X35038391Y-25269836D01*
X-35104204Y-35329968D02*
G75*
G03*
X35104203Y-35329968I35104203J95755655D01*
G01*
X35038394Y-15446180D02*
G75*
G03*
X33581247Y-18964033I3517856J-3517860D01*
G01*
X36097735Y-2759544D02*
X34795334Y-1457143D01*
X35104203Y-35329968D02*
G75*
G03*
X36909659Y-27141105I-1712403J4671008D01*
G01*
X1750000Y-36561815D02*
G75*
G03*
X1750000Y-36561815I-1750000J0D01*
G01*
X-37554880Y-12105404D02*
G75*
G03*
X-36972022Y-13512546I1989999J0D01*
G01*
X33581247Y-21751980D02*
X33581247Y-18964033D01*
X-30178679Y-5626200D02*
G75*
G03*
X-30178679Y-5626200I-1750000J0D01*
G01*
X-34795336Y-1457144D02*
X-36097736Y-2759544D01*
X37554885Y-6277401D02*
G75*
G03*
X36097735Y-2759544I-4974985J1D01*
G01*
X33581277Y-21751980D02*
G75*
G03*
X35038391Y-25269836I4975023J-20D01*
G01*
X-36097736Y-2759544D02*
G75*
G03*
X-37554880Y-6277400I3517862J-3517859D01*
G01*
X-31277479Y0D02*
G75*
G03*
X-34795336Y-1457144I-3J-4974995D01*
G01*
X31277478Y0D02*
X-31277479Y0D01*
X-33581248Y-18964033D02*
X-33581248Y-21751980D01*
X-36972022Y-13512546D02*
X-35038392Y-15446177D01*
X-33581248Y-18964033D02*
G75*
G03*
X-35038392Y-15446177I-4974995J2D01*
G01*
M02*
