0
SECTION
2
HEADER
9
$INSUNITS
70
4
9
$ACADVER
1
AC1014
9
$HANDSEED
5
FFFF
0
ENDSEC
0
SECTION
2
TABLES
0
TABLE
2
VPORT
5
8
100
AcDbSymbolTable
0
ENDTAB
0
TABLE
2
LTYPE
5
5
100
AcDbSymbolTable
0
LTYPE
5
14
100
AcDbSymbolTableRecord
100
AcDbLinetypeTableRecord
2
BYBLOCK
70
0
0
LTYPE
5
15
100
AcDbSymbolTableRecord
100
AcDbLinetypeTableRecord
2
BYLAYER
70
0
0
ENDTAB
0
TABLE
2
LAYER
5
2
100
AcDbSymbolTable
70
2
0
LAYER
5
50
100
AcDbSymbolTableRecord
100
AcDbLayerTableRecord
2
0
70
0
6
CONTINUOUS
0
ENDTAB
0
TABLE
2
STYLE
5
3
100
AcDbSymbolTable
70
1
0
STYLE
5
11
100
AcDbSymbolTableRecord
100
AcDbTextStyleTableRecord
2
STANDARD
70
0
0
ENDTAB
0
TABLE
2
VIEW
5
6
100
AcDbSymbolTable
70
0
0
ENDTAB
0
TABLE
2
UCS
5
7
100
AcDbSymbolTable
70
0
0
ENDTAB
0
TABLE
2
APPID
5
9
100
AcDbSymbolTable
70
2
0
APPID
5
12
100
AcDbSymbolTableRecord
100
AcDbRegAppTableRecord
2
ACAD
70
0
0
ENDTAB
0
TABLE
2
DIMSTYLE
5
A
100
AcDbSymbolTable
70
1
0
ENDTAB
0
TABLE
2
BLOCK_RECORD
5
1
100
AcDbSymbolTable
70
1
0
BLOCK_RECORD
5
1F
100
AcDbSymbolTableRecord
100
AcDbBlockTableRecord
2
*MODEL_SPACE
0
BLOCK_RECORD
5
1B
100
AcDbSymbolTableRecord
100
AcDbBlockTableRecord
2
*PAPER_SPACE
0
ENDTAB
0
ENDSEC
0
SECTION
2
BLOCKS
0
BLOCK
5
20
100
AcDbEntity
100
AcDbBlockBegin
2
*MODEL_SPACE
0
ENDBLK
5
21
100
AcDbEntity
100
AcDbBlockEnd
0
BLOCK
5
1C
100
AcDbEntity
100
AcDbBlockBegin
2
*PAPER_SPACE
0
ENDBLK
5
1D
100
AcDbEntity
100
AcDbBlockEnd
0
ENDSEC
0
SECTION
2
ENTITIES
0
CIRCLE
5
100
100
AcDbEntity
8
0
100
AcDbCircle
10
-34.999998168224089
20
42.500004421526825
30
0
40
1.7500008057440857
210
0
220
0
230
1
0
LWPOLYLINE
5
101
100
AcDbEntity
8
0
100
AcDbPolyline
90
16
70
1
43
0.0
10
-38.675960039160692
20
40.499013394790346
42
0.16928637833232399
10
-37.476356703790536
20
42.843003551742441
42
-0.39030311547074348
10
-34.861783603883566
20
44.99618084441957
42
0.16928637833236601
10
-32.331264516690936
20
45.724058912977632
42
-0.31783304510582616
10
32.331270292981067
20
45.7240548285898
42
0.16928637833236534
10
34.861789288221317
20
44.996176440352954
42
-0.39030311547074442
10
37.476362116118793
20
42.842998817378515
42
0.16928637833233326
10
38.675967022012152
20
40.499010463505741
42
-0.42776441257877035
10
38.675967022010198
20
-40.499010463507609
42
0.16928637833227614
10
37.476362116117393
20
-42.842998817379723
42
-0.3903031154707447
10
34.86178928821986
20
-44.99617644035407
42
0.16928637833236912
10
32.331270292979539
20
-45.724054828590887
42
-0.31783304510582627
10
-32.331264516692485
20
-45.724058912976531
42
0.16928637833236052
10
-34.86178360388503
20
-44.996180844418454
42
-0.39030311547074248
10
-37.476356703791929
20
-42.843003551741234
42
0.16928650422894112
10
-38.67596145534722
20
-40.499012042353058
42
-0.42776447695969622
0
LWPOLYLINE
5
102
100
AcDbEntity
8
0
100
AcDbPolyline
90
8
70
1
43
0.0
10
20.000000298023227
20
-36.000000581145301
10
20.000000298023227
20
-28.000000372529033
42
0.41421356237309465
10
17.00000029802322
20
-25.00000037252903
10
-17.000000298023224
20
-25.000000372529033
42
0.41421356237309503
10
-20.000000298023227
20
-28.000000372529033
10
-20.000000298023227
20
-36.000000581145301
42
0.41421356237309437
10
-17.000000298023235
20
-39.000000581145294
10
17.000000298023224
20
-39.000000581145294
42
0.41421356237309503
0
CIRCLE
5
103
100
AcDbEntity
8
0
100
AcDbCircle
10
-34.99999816822546
20
-42.500004421525695
30
0
40
1.7499953015754046
210
0
220
0
230
1
0
CIRCLE
5
104
100
AcDbEntity
8
0
100
AcDbCircle
10
35.000003537221502
20
42.499999999999659
30
0
40
1.7500000000000071
210
0
220
0
230
1
0
CIRCLE
5
105
100
AcDbEntity
8
0
100
AcDbCircle
10
35.000003537220124
20
-42.500000000000796
30
0
40
1.7499999999996918
210
0
220
0
230
1
0
LWPOLYLINE
5
106
100
AcDbEntity
8
0
100
AcDbPolyline
90
8
70
1
43
0.0
10
-23.510001140413802
20
42.480001993943013
42
0.41421356237310025
10
-24.510001140413806
20
41.480001993943006
10
-24.510001140413806
20
36.470001708483323
42
0.41421356237308982
10
-23.510001140413802
20
35.470001708483323
10
-9.3500004203524441
20
35.470001708483323
42
0.41421356237309243
10
-8.3500004203524423
20
36.470001708483323
10
-8.3500004203524423
20
41.480001993943006
42
0.41421356237309598
10
-9.3500004203524423
20
42.480001993943006
0
LWPOLYLINE
5
107
100
AcDbEntity
8
0
100
AcDbPolyline
90
8
70
1
43
0.0
10
8.3500004203524423
20
36.470001708483323
42
0.41421356237309243
10
9.3500004203524441
20
35.470001708483323
10
23.510001140413802
20
35.470001708483323
42
0.41421356237308982
10
24.510001140413806
20
36.470001708483323
10
24.510001140413806
20
41.480001993943006
42
0.41421356237310025
10
23.510001140413802
20
42.480001993943013
10
9.3500004203524423
20
42.480001993943006
42
0.41421356237309598
10
8.3500004203524423
20
41.480001993943006
0
ENDSEC
0
SECTION
2
OBJECTS
0
DICTIONARY
5
C
100
AcDbDictionary
3
ACAD_GROUP
350
D
3
ACAD_MLINESTYLE
350
17
0
DICTIONARY
5
D
100
AcDbDictionary
0
DICTIONARY
5
1A
330
C
100
AcDbDictionary
0
DICTIONARY
5
17
100
AcDbDictionary
0
ENDSEC
0
EOF
