0
SECTION
2
HEADER
9
$INSUNITS
70
4
9
$ACADVER
1
AC1014
9
$HANDSEED
5
FFFF
0
ENDSEC
0
SECTION
2
TABLES
0
TABLE
2
VPORT
5
8
100
AcDbSymbolTable
0
ENDTAB
0
TABLE
2
LTYPE
5
5
100
AcDbSymbolTable
0
LTYPE
5
14
100
AcDbSymbolTableRecord
100
AcDbLinetypeTableRecord
2
BYBLOCK
70
0
0
LTYPE
5
15
100
AcDbSymbolTableRecord
100
AcDbLinetypeTableRecord
2
BYLAYER
70
0
0
ENDTAB
0
TABLE
2
LAYER
5
2
100
AcDbSymbolTable
70
2
0
LAYER
5
50
100
AcDbSymbolTableRecord
100
AcDbLayerTableRecord
2
0
70
0
6
CONTINUOUS
0
ENDTAB
0
TABLE
2
STYLE
5
3
100
AcDbSymbolTable
70
1
0
STYLE
5
11
100
AcDbSymbolTableRecord
100
AcDbTextStyleTableRecord
2
STANDARD
70
0
0
ENDTAB
0
TABLE
2
VIEW
5
6
100
AcDbSymbolTable
70
0
0
ENDTAB
0
TABLE
2
UCS
5
7
100
AcDbSymbolTable
70
0
0
ENDTAB
0
TABLE
2
APPID
5
9
100
AcDbSymbolTable
70
2
0
APPID
5
12
100
AcDbSymbolTableRecord
100
AcDbRegAppTableRecord
2
ACAD
70
0
0
ENDTAB
0
TABLE
2
DIMSTYLE
5
A
100
AcDbSymbolTable
70
1
0
ENDTAB
0
TABLE
2
BLOCK_RECORD
5
1
100
AcDbSymbolTable
70
1
0
BLOCK_RECORD
5
1F
100
AcDbSymbolTableRecord
100
AcDbBlockTableRecord
2
*MODEL_SPACE
0
BLOCK_RECORD
5
1B
100
AcDbSymbolTableRecord
100
AcDbBlockTableRecord
2
*PAPER_SPACE
0
ENDTAB
0
ENDSEC
0
SECTION
2
BLOCKS
0
BLOCK
5
20
100
AcDbEntity
100
AcDbBlockBegin
2
*MODEL_SPACE
0
ENDBLK
5
21
100
AcDbEntity
100
AcDbBlockEnd
0
BLOCK
5
1C
100
AcDbEntity
100
AcDbBlockBegin
2
*PAPER_SPACE
0
ENDBLK
5
1D
100
AcDbEntity
100
AcDbBlockEnd
0
ENDSEC
0
SECTION
2
ENTITIES
0
LINE
5
100
100
AcDbEntity
8
0
100
AcDbLine
10
-50.435000341478741
20
-17.850000000000001
30
4.2685064393376419e-15
11
-22.26000034147873
21
-17.850000000000001
31
8.1806408273997295e-16
0
LINE
5
101
100
AcDbEntity
8
0
100
AcDbLine
10
-50.435000341478741
20
17.850000000000001
30
4.2685064393376419e-15
11
-50.435000341478741
21
-17.850000000000001
31
4.2685064393376419e-15
0
LINE
5
102
100
AcDbEntity
8
0
100
AcDbLine
10
-50.435000341478741
20
17.850000000000001
30
4.2685064393376419e-15
11
-41.760000341478722
21
17.850000000000001
31
3.2061253410773118e-15
0
LINE
5
103
100
AcDbEntity
8
0
100
AcDbLine
10
-41.760000341478722
20
17.850000000000001
30
3.2061253410773118e-15
11
-40.060000341478734
21
19.550000000000001
31
2.9979353852222623e-15
0
LINE
5
104
100
AcDbEntity
8
0
100
AcDbLine
10
-40.060000341478734
20
19.550000000000001
30
2.9979353852222623e-15
11
-40.060000341478734
21
24.550000000000001
31
2.9979353852222616e-15
0
LINE
5
105
100
AcDbEntity
8
0
100
AcDbLine
10
-22.260000341478726
20
24.550000000000001
30
8.1806408273997275e-16
11
-40.060000341478734
21
24.550000000000001
31
2.9979353852222616e-15
0
LINE
5
106
100
AcDbEntity
8
0
100
AcDbLine
10
-22.260000341478726
20
24.550000000000001
30
8.1806408273997275e-16
11
-22.260000341478726
21
19.549999999999997
31
8.1806408273997265e-16
0
LINE
5
107
100
AcDbEntity
8
0
100
AcDbLine
10
-20.56000034147873
20
17.849999999999998
30
6.0987412688492321e-16
11
-22.260000341478726
21
19.549999999999997
31
8.1806408273997265e-16
0
LINE
5
108
100
AcDbEntity
8
0
100
AcDbLine
10
-20.56000034147873
20
17.849999999999998
30
6.0987412688492321e-16
11
-11.885000341478735
21
17.850000000000001
31
-4.5250697137540491e-16
0
LINE
5
109
100
AcDbEntity
8
0
100
AcDbLine
10
-11.885000341478735
20
17.850000000000001
30
-4.5250697137540491e-16
11
-11.885000341478735
21
-17.850000000000001
31
-4.5250697137540491e-16
0
LINE
5
110
100
AcDbEntity
8
0
100
AcDbLine
10
-11.885000341478735
20
-17.850000000000001
30
-4.5250697137540491e-16
11
-22.260000341478726
21
-17.850000000000001
31
8.1806408273997275e-16
0
LINE
5
111
100
AcDbEntity
8
0
100
AcDbLine
10
-15.580000170739368
20
3.8150001812027767
30
0
11
-15.580000170739368
21
10.850000515347347
31
0
0
LINE
5
112
100
AcDbEntity
8
0
100
AcDbLine
10
-20.584999839193188
20
3.8150001812027767
30
6.1293568237055329e-16
11
-20.584999839193188
21
10.850000515347347
31
6.1293568237055329e-16
0
LINE
5
113
100
AcDbEntity
8
0
100
AcDbLine
10
-16.089999625692144
20
10.850000515347347
30
6.2456920007481158e-17
11
-20.584999839193188
21
10.850000515347347
31
6.1293568237055329e-16
0
LINE
5
114
100
AcDbEntity
8
0
100
AcDbLine
10
-16.299999635666609
20
3.2300001534167677
30
8.8174504011095199e-17
11
-20.584999839193188
21
3.2300001534167677
31
6.1293568237055329e-16
0
LINE
5
115
100
AcDbEntity
8
0
100
AcDbLine
10
-15.580000170739368
20
3.8150001812027767
30
0
11
-15.580000170739368
21
3.2300001534167677
31
0
0
LINE
5
116
100
AcDbEntity
8
0
100
AcDbLine
10
-16.299999635666609
20
3.2300001534167677
30
8.8174504011095199e-17
11
-15.580000170739368
21
3.2300001534167677
31
0
0
LWPOLYLINE
5
117
100
AcDbEntity
8
0
100
AcDbPolyline
90
7
70
1
43
0.0
10
-32.670000413199887
20
7.2300003434065729
10
-25.88500009092968
20
7.2300003434065729
10
-25.88500009092968
20
8.9600004255771637
10
-25.88500009092968
20
14.050000667339191
10
-32.160000388976187
20
14.050000667339191
10
-32.670000413199887
20
14.050000667339191
10
-32.670000413199887
20
13.300000631716102
0
LWPOLYLINE
5
118
100
AcDbEntity
8
0
100
AcDbPolyline
90
4
70
1
43
0.0
10
-45.435001019504853
20
-10.650000505847856
10
-51.060001286678016
20
-10.650000505847856
10
-51.060001286678016
20
-3.1500001496169716
10
-45.435001019504853
20
-3.1500001496169716
0
LWPOLYLINE
5
119
100
AcDbEntity
8
0
100
AcDbPolyline
90
4
70
1
43
0.0
10
-40.435000782017596
20
-10.850000515347347
10
-47.435001114499755
20
-10.850000515347347
10
-47.435001114499755
20
-22.350001061568037
10
-40.435000782017596
20
-22.350001061568037
0
CIRCLE
5
120
100
AcDbEntity
8
0
100
AcDbCircle
10
19.055000341476401
20
-12.630000000000903
30
1.9079997339811182e-15
40
0.99999999999999967
210
-1.2246467991473532e-16
220
0
230
-1
0
CIRCLE
5
121
100
AcDbEntity
8
0
100
AcDbCircle
10
16.515000341476402
20
-12.630000000000903
30
1.9079997339811186e-15
40
1.0000000000000002
210
-1.2246467991473532e-16
220
0
230
-1
0
CIRCLE
5
122
100
AcDbEntity
8
0
100
AcDbCircle
10
16.515000341476402
20
-10.090000000000902
30
1.9079997339811186e-15
40
0.99999999999999845
210
-1.2246467991473532e-16
220
0
230
-1
0
CIRCLE
5
123
100
AcDbEntity
8
0
100
AcDbCircle
10
19.055000341476401
20
-10.090000000000902
30
1.9079997339811182e-15
40
0.99999999999999933
210
-1.2246467991473532e-16
220
0
230
-1
0
CIRCLE
5
124
100
AcDbEntity
8
0
100
AcDbCircle
10
19.055000341476401
20
-7.5500000000009031
30
1.9079997339811182e-15
40
1.0000000000000009
210
-1.2246467991473532e-16
220
0
230
-1
0
CIRCLE
5
125
100
AcDbEntity
8
0
100
AcDbCircle
10
16.515000341476402
20
-7.5500000000009031
30
1.9079997339811186e-15
40
1.0000000000000009
210
-1.2246467991473532e-16
220
0
230
-1
0
CIRCLE
5
126
100
AcDbEntity
8
0
100
AcDbCircle
10
16.515000341476402
20
-5.0100000000009022
30
1.9079997339811186e-15
40
1.0000000000000009
210
-1.2246467991473532e-16
220
0
230
-1
0
CIRCLE
5
127
100
AcDbEntity
8
0
100
AcDbCircle
10
19.055000341476401
20
-5.0100000000009022
30
1.9079997339811182e-15
40
1.0000000000000009
210
-1.2246467991473532e-16
220
0
230
-1
0
CIRCLE
5
128
100
AcDbEntity
8
0
100
AcDbCircle
10
19.055000341476401
20
-2.4700000000009026
30
1.9079997339811182e-15
40
1.0000000000000009
210
-1.2246467991473532e-16
220
0
230
-1
0
CIRCLE
5
129
100
AcDbEntity
8
0
100
AcDbCircle
10
16.515000341476402
20
-2.4700000000009026
30
1.9079997339811186e-15
40
1.0000000000000009
210
-1.2246467991473532e-16
220
0
230
-1
0
LWPOLYLINE
5
130
100
AcDbEntity
8
0
100
AcDbPolyline
90
4
70
1
43
0.0
10
-22.18499991518911
20
2.7500001306179911
10
-22.18499991518911
20
-17.850000847829506
10
-13.384999497211538
20
-17.850000847829506
10
-13.384999497211538
20
2.7500001306179911
0
LINE
5
131
100
AcDbEntity
8
0
100
AcDbLine
10
-16.089999625692144
20
10.850000515347347
30
6.2456920007481158e-17
11
-15.580000170739368
21
10.850000515347347
31
0
0
LINE
5
132
100
AcDbEntity
8
0
100
AcDbLine
10
-20.584999839193188
20
3.8150001812027767
30
6.1293568237055329e-16
11
-20.584999839193188
21
3.2300001534167677
31
6.1293568237055329e-16
0
CIRCLE
5
133
100
AcDbEntity
8
0
100
AcDbCircle
10
31.160000341478732
20
-12.850000000000001
30
1.9079997339811182e-15
40
3.3499998584389701
210
-1.2246467991473532e-16
220
0
230
-1
0
LINE
5
134
100
AcDbEntity
8
0
100
AcDbLine
10
-31.160000341478732
20
-12.850000000000001
30
1.9079997339811178e-15
11
-31.160000341478732
21
-16.199999858438972
31
1.9079997339811178e-15
0
LINE
5
135
100
AcDbEntity
8
0
100
AcDbLine
10
-31.160000341478732
20
-12.850000000000001
30
1.9079997339811178e-15
11
-34.510000199917698
21
-12.850000000000001
31
2.318256394359255e-15
0
LINE
5
136
100
AcDbEntity
8
0
100
AcDbLine
10
-31.160000341478732
20
-12.850000000000001
30
1.9079997339811178e-15
11
-31.160000341478732
21
-9.5000001415610313
31
1.9079997339811178e-15
0
LINE
5
137
100
AcDbEntity
8
0
100
AcDbLine
10
-31.160000341478732
20
-12.850000000000001
30
1.9079997339811178e-15
11
-27.810000483039762
21
-12.850000000000001
31
1.497743073602981e-15
0
CIRCLE
5
138
100
AcDbEntity
8
0
100
AcDbCircle
10
31.160000341478732
20
-12.850000000000001
30
1.9079997339811182e-15
40
0.50000000000000044
210
-1.2246467991473532e-16
220
0
230
-1
0
CIRCLE
5
139
100
AcDbEntity
8
0
100
AcDbCircle
10
31.160000341478732
20
-12.850000000000001
30
1.9079997339811182e-15
40
2.5
210
-1.2246467991473532e-16
220
0
230
-1
0
ENDSEC
0
SECTION
2
OBJECTS
0
DICTIONARY
5
C
100
AcDbDictionary
3
ACAD_GROUP
350
D
3
ACAD_MLINESTYLE
350
17
0
DICTIONARY
5
D
100
AcDbDictionary
0
DICTIONARY
5
1A
330
C
100
AcDbDictionary
0
DICTIONARY
5
17
100
AcDbDictionary
0
ENDSEC
0
EOF
