G04 #@! TF.GenerationSoftware,KiCad,Pcbnew,(6.0.10)*
G04 #@! TF.CreationDate,2025-01-19T13:34:08+09:00*
G04 #@! TF.ProjectId,LINE____V2,4c494e45-b9ec-4fcd-9656-322e6b696361,rev?*
G04 #@! TF.SameCoordinates,Original*
G04 #@! TF.FileFunction,Profile,NP*
%FSLAX46Y46*%
G04 Gerber Fmt 4.6, Leading zero omitted, Abs format (unit mm)*
G04 Created by KiCad (PCBNEW (6.0.10)) date 2025-01-19 13:34:08*
%MOMM*%
%LPD*%
G01*
G04 APERTURE LIST*
G04 #@! TA.AperFunction,Profile*
%ADD10C,0.200000*%
G04 #@! TD*
G04 APERTURE END LIST*
D10*
X-33469261Y-58727021D02*
X-32756401Y-58943919D01*
X-39221117Y-48011063D02*
X-38758571Y-48411629D01*
X32756401Y-58943919D02*
X33469261Y-58727021D01*
X-35280606Y-58082185D02*
X-33469261Y-58727021D01*
X-10427413Y-910589D02*
X-24724508Y-15207684D01*
X10427413Y-910589D02*
G75*
G03*
X6093370Y489704I-3535533J-3535531D01*
G01*
X33469261Y-58727021D02*
X35280606Y-58082185D01*
X-38116655Y-51330217D02*
G75*
G03*
X-38758571Y-48411629I-2278532J1028744D01*
G01*
X35280609Y-58082192D02*
G75*
G03*
X38116655Y-51330217I-1721009J4694482D01*
G01*
X-39863033Y-45092476D02*
G75*
G03*
X-40884553Y-39499454I-4557053J2057488D01*
G01*
X40884553Y-39499454D02*
X41414882Y-38969125D01*
X-39863033Y-45092476D02*
G75*
G03*
X-39221117Y-48011063I2278525J-1028745D01*
G01*
X41414882Y-31898057D02*
X24724508Y-15207684D01*
X-32756401Y-58943919D02*
X-32756401Y-58970361D01*
X15066034Y-10870277D02*
G75*
G03*
X15066034Y-10870277I-1750000J0D01*
G01*
X41414881Y-38969124D02*
G75*
G03*
X41414882Y-31898057I-3535531J3535534D01*
G01*
X-41414882Y-38969125D02*
X-40884553Y-39499454D01*
X40884554Y-39499455D02*
G75*
G03*
X39863033Y-45092476I3535536J-3535535D01*
G01*
X-24724508Y-15207684D02*
X-41414882Y-31898057D01*
X31665390Y-37722679D02*
G75*
G03*
X31665390Y-37722679I-1750000J0D01*
G01*
X38758571Y-48411629D02*
X39221117Y-48011063D01*
X38758568Y-48411626D02*
G75*
G03*
X38116655Y-51330217I1636622J-1889844D01*
G01*
X24724508Y-15207684D02*
X10427413Y-910589D01*
X-41414882Y-31898057D02*
G75*
G03*
X-41414882Y-38969125I3535534J-3535534D01*
G01*
X-32756401Y-58970361D02*
G75*
G03*
X32756401Y-58970361I32756401J97125009D01*
G01*
X39221116Y-48011062D02*
G75*
G03*
X39863033Y-45092476I-1636606J1889842D01*
G01*
X-28165390Y-37722679D02*
G75*
G03*
X-28165390Y-37722679I-1750000J0D01*
G01*
X-6093370Y489704D02*
G75*
G03*
X-10427413Y-910589I-798510J-4935823D01*
G01*
X32756401Y-58970361D02*
X32756401Y-58943919D01*
X-38116655Y-51330217D02*
G75*
G03*
X-35280606Y-58082185I4557054J-2057488D01*
G01*
X-11566034Y-10870277D02*
G75*
G03*
X-11566034Y-10870277I-1750000J0D01*
G01*
X-6093370Y489704D02*
G75*
G03*
X6093370Y489704I6093370J37664944D01*
G01*
M02*
