0
SECTION
2
HEADER
9
$INSUNITS
70
4
9
$ACADVER
1
AC1014
9
$HANDSEED
5
FFFF
0
ENDSEC
0
SECTION
2
TABLES
0
TABLE
2
VPORT
5
8
100
AcDbSymbolTable
0
ENDTAB
0
TABLE
2
LTYPE
5
5
100
AcDbSymbolTable
0
LTYPE
5
14
100
AcDbSymbolTableRecord
100
AcDbLinetypeTableRecord
2
BYBLOCK
70
0
0
LTYPE
5
15
100
AcDbSymbolTableRecord
100
AcDbLinetypeTableRecord
2
BYLAYER
70
0
0
ENDTAB
0
TABLE
2
LAYER
5
2
100
AcDbSymbolTable
70
2
0
LAYER
5
50
100
AcDbSymbolTableRecord
100
AcDbLayerTableRecord
2
0
70
0
6
CONTINUOUS
0
ENDTAB
0
TABLE
2
STYLE
5
3
100
AcDbSymbolTable
70
1
0
STYLE
5
11
100
AcDbSymbolTableRecord
100
AcDbTextStyleTableRecord
2
STANDARD
70
0
0
ENDTAB
0
TABLE
2
VIEW
5
6
100
AcDbSymbolTable
70
0
0
ENDTAB
0
TABLE
2
UCS
5
7
100
AcDbSymbolTable
70
0
0
ENDTAB
0
TABLE
2
APPID
5
9
100
AcDbSymbolTable
70
2
0
APPID
5
12
100
AcDbSymbolTableRecord
100
AcDbRegAppTableRecord
2
ACAD
70
0
0
ENDTAB
0
TABLE
2
DIMSTYLE
5
A
100
AcDbSymbolTable
70
1
0
ENDTAB
0
TABLE
2
BLOCK_RECORD
5
1
100
AcDbSymbolTable
70
1
0
BLOCK_RECORD
5
1F
100
AcDbSymbolTableRecord
100
AcDbBlockTableRecord
2
*MODEL_SPACE
0
BLOCK_RECORD
5
1B
100
AcDbSymbolTableRecord
100
AcDbBlockTableRecord
2
*PAPER_SPACE
0
ENDTAB
0
ENDSEC
0
SECTION
2
BLOCKS
0
BLOCK
5
20
100
AcDbEntity
100
AcDbBlockBegin
2
*MODEL_SPACE
0
ENDBLK
5
21
100
AcDbEntity
100
AcDbBlockEnd
0
BLOCK
5
1C
100
AcDbEntity
100
AcDbBlockBegin
2
*PAPER_SPACE
0
ENDBLK
5
1D
100
AcDbEntity
100
AcDbBlockEnd
0
ENDSEC
0
SECTION
2
ENTITIES
0
CIRCLE
5
100
100
AcDbEntity
8
0
100
AcDbCircle
10
-39.5602578558983
20
3.8858729581439769e-14
30
0
40
1.749999999999998
210
0
220
-0
230
1
0
CIRCLE
5
101
100
AcDbEntity
8
0
100
AcDbCircle
10
-70.239242097159732
20
-36.342269863472367
30
0
40
2.0000000000000018
210
0
220
-0
230
1
0
CIRCLE
5
102
100
AcDbEntity
8
0
100
AcDbCircle
10
-94.380475500024346
20
-31.582805700372234
30
0
40
1.9999999999999929
210
0
220
-0
230
1
0
LWPOLYLINE
5
103
100
AcDbEntity
8
0
100
AcDbPolyline
90
26
70
1
43
0.0
10
-88.171510759653259
20
-31.602980043948861
42
0.21342265076283667
10
-87.8801662420654
20
-30.840228387966082
42
-0.97960143472612571
10
-80.902004191440597
20
-30.306892203281919
42
0.17384758597084515
10
-80.613801046043193
20
-30.917261452747166
10
-70.261220034735743
20
-41.26984246405484
10
-50.267687417899936
20
-21.629863309314501
10
-37.661942568918924
20
-9.0241184603333569
42
0.24942143671900158
10
-37.113036159914962
20
-7.2275961510285232
42
-0.028494055911848611
10
-37.694137530880859
20
-2.9610124843635539
42
0.55179763125306858
10
-37.694137530880873
20
2.9610124843636179
42
-0.028494055911843501
10
-37.113036159914977
20
7.2275961510285498
42
0.24942143671900122
10
-37.661942568918917
20
9.024118460333435
10
-50.267687417899936
20
21.629863309314583
10
-70.261220034735615
20
41.269842464054932
10
-80.613801046043179
20
30.917261452747343
42
0.17384758597084146
10
-80.902004191440568
20
30.3068922032821
42
-0.97960143472612693
10
-87.8801662420654
20
30.84022838796626
42
0.21342265076283812
10
-88.171510759653245
20
31.602980043949049
10
-92.521173096782903
20
35.952633265833683
42
0.30896033091761221
10
-94.738524805649575
20
36.370075835689448
42
-0.10348296346882147
10
-96.141336212131478
20
36.075476732197096
42
0.31741030777122953
10
-98.024897837070881
20
34.743623933490646
42
0.17197694098829722
10
-98.024897837070895
20
-34.743623933490525
42
0.31741030777123597
10
-96.141336212131449
20
-36.075476732197032
42
-0.10348296346881966
10
-94.738524805649604
20
-36.37007583568937
42
0.30896033091761388
10
-92.521173096782903
20
-35.952633265833583
0
ARC
5
104
100
AcDbEntity
8
0
100
AcDbCircle
10
-6.3860028376439004e-12
20
-8.4598994476436928e-13
30
0
40
37.810257855892203
210
0
220
0
230
1
100
AcDbArc
50
168.97984022413493
51
175.50843030783517
0
ARC
5
105
100
AcDbEntity
8
0
100
AcDbCircle
10
-79.906694264856583
20
30.21015467156079
30
0
40
1.0000000000000357
210
0
220
0
230
1
100
AcDbArc
50
135.00000000000173
51
174.44866627432251
0
ARC
5
106
100
AcDbEntity
8
0
100
AcDbCircle
10
-88.878616901374386
20
30.895872623297546
30
0
40
1.0000000000000728
210
-0
220
0
230
1
100
AcDbArc
50
-3.1898273853895489
51
45.000051814884273
0
ARC
5
107
100
AcDbEntity
8
0
100
AcDbCircle
10
-93.935385723425327
20
34.538418767730555
30
0
40
1.9999999999999816
210
0
220
-0
230
1
100
AcDbArc
50
45.000037910398646
51
113.67633480207307
0
ARC
5
108
100
AcDbEntity
8
0
100
AcDbCircle
10
-96.139803647895334
20
34.075477319384156
30
0
40
2.0000000000013136
210
0
220
0
230
1
100
AcDbArc
50
90.04390473557855
51
160.48380391700044
0
CIRCLE
5
109
100
AcDbEntity
8
0
100
AcDbCircle
10
-94.380475500024218
20
31.582805700372436
30
0
40
1.7500000000000013
210
0
220
0
230
1
0
CIRCLE
5
110
100
AcDbEntity
8
0
100
AcDbCircle
10
-70.23924209715959
20
36.342269863472481
30
0
40
1.7500000000000013
210
0
220
0
230
1
0
ARC
5
111
100
AcDbEntity
8
0
100
AcDbCircle
10
-96.144018199542785
20
39.575475704619187
30
0
40
3.5000000000017408
210
0
220
0
230
1
100
AcDbArc
50
270.04390473554673
51
293.67633480207337
0
ARC
5
112
100
AcDbEntity
8
0
100
AcDbCircle
10
-84.385588934484232
20
30.645473564306652
30
0
40
3.4999999999999858
210
0
220
0
230
1
100
AcDbArc
50
176.81017261460826
51
354.44866627432253
0
ARC
5
113
100
AcDbEntity
8
0
100
AcDbCircle
10
-39.5602578558983
20
3.8858729581439769e-14
30
0
40
3.5000000000000364
210
0
220
0
230
1
100
AcDbArc
50
0
51
57.779619724886857
0
ARC
5
114
100
AcDbEntity
8
0
100
AcDbCircle
10
-39.076156131291995
20
7.6099048979603605
30
0
40
1.9999999999999649
210
0
220
0
230
1
100
AcDbArc
50
-11.020159775862188
51
44.999999999999922
0
ARC
5
115
100
AcDbEntity
8
0
100
AcDbCircle
10
0
20
0
30
0
40
104.00000000000003
210
0
220
0
230
1
100
AcDbArc
50
160.48380391701411
51
180
0
LINE
5
116
100
AcDbEntity
8
0
100
AcDbLine
10
-37.661942568918917
20
9.024118460333435
30
0
11
-70.261220034735615
21
41.269842464054932
31
0
0
LINE
5
117
100
AcDbEntity
8
0
100
AcDbLine
10
-70.261220034735615
20
41.269842464054932
30
0
11
-80.613801046043179
21
30.917261452747343
31
0
0
LINE
5
118
100
AcDbEntity
8
0
100
AcDbLine
10
-92.521173096782903
20
35.952633265833683
30
0
11
-88.171510759653245
21
31.602980043949049
31
0
0
ARC
5
119
100
AcDbEntity
8
0
100
AcDbCircle
10
-39.5602578558983
20
1.8938578646256339e-14
30
0
40
3.5000000000000142
210
0
220
0
230
1
100
AcDbArc
50
-57.779619724887006
51
0
0
LWPOLYLINE
5
120
100
AcDbEntity
8
0
100
AcDbPolyline
90
6
70
1
43
0.0
10
-88.171510759653273
20
-31.602980043948925
42
0.21342265076283742
10
-87.880166242065457
20
-30.840228387966135
42
-0.97960143472612693
10
-80.902004191440568
20
-30.306892203281983
42
0.17384758597084285
10
-80.613801046043221
20
-30.917261452747233
42
-0.17384758597084285
10
-80.902004191440568
20
-30.306892203281983
42
0.97960143472612693
10
-87.880166242065414
20
-30.840228387966135
42
-0.21342265076283742
0
LINE
5
121
100
AcDbEntity
8
0
100
AcDbLine
10
-37.661942568918931
20
-9.0241184603333799
30
0
11
-70.261220034735672
21
-41.269842464054832
31
0
0
CIRCLE
5
122
100
AcDbEntity
8
0
100
AcDbCircle
10
-70.239242097159647
20
-36.342269863472374
30
0
40
1.7500000000000013
210
0
220
0
230
1
0
LWPOLYLINE
5
123
100
AcDbEntity
8
0
100
AcDbPolyline
90
4
70
1
43
0.0
10
-94.738524805649647
20
-36.37007583568932
42
0.10348296346882151
10
-96.141336212131534
20
-36.075476732196975
42
-0.31741030777122953
10
-98.02489783707091
20
-34.743623933490497
42
0.31741030777122953
10
-96.141336212131534
20
-36.075476732196975
42
-0.10348296346882147
0
LWPOLYLINE
5
124
100
AcDbEntity
8
0
100
AcDbPolyline
90
4
70
1
43
0.0
10
-37.694137530880873
20
-2.9610124843635557
42
0.028494055911848174
10
-37.113036159914984
20
-7.2275961510284938
42
-0.24942143671900091
10
-37.661942568918931
20
-9.0241184603333799
42
0.24942143671900097
10
-37.113036159914977
20
-7.2275961510284876
42
-0.028494055911843501
0
LINE
5
125
100
AcDbEntity
8
0
100
AcDbLine
10
-70.261220034735672
20
-41.269842464054832
30
0
11
-80.613801046043221
21
-30.91726145274723
31
0
0
ARC
5
126
100
AcDbEntity
8
0
100
AcDbCircle
10
-6.3860028376439004e-12
20
8.4657504353279489e-13
30
0
40
37.810257855891855
210
0
220
0
230
1
100
AcDbArc
50
168.97984022413746
51
175.50843030783776
0
LINE
5
127
100
AcDbEntity
8
0
100
AcDbLine
10
-37.661942568918931
20
-9.0241184603333799
30
0
11
-50.267687417899971
21
-21.629863309314512
31
0
0
LINE
5
128
100
AcDbEntity
8
0
100
AcDbLine
10
-92.52117309678296
20
-35.952633265833548
30
0
11
-88.171510759653273
21
-31.602980043948925
31
0
0
LINE
5
129
100
AcDbEntity
8
0
100
AcDbLine
10
-88.171510759653273
20
-31.602980043948925
30
0
11
-92.52117309678296
21
-35.952633265833548
31
0
0
ARC
5
130
100
AcDbEntity
8
0
100
AcDbCircle
10
0
20
5.8509876841649683e-16
30
0
40
104.00000000000004
210
0
220
0
230
1
100
AcDbArc
50
180
51
199.5161960829858
0
LINE
5
131
100
AcDbEntity
8
0
100
AcDbLine
10
-70.261220034735672
20
-41.269842464054832
30
0
11
-80.613801046043221
21
-30.91726145274723
31
0
0
LWPOLYLINE
5
132
100
AcDbEntity
8
0
100
AcDbPolyline
90
2
70
1
43
0.0
10
-94.738524805649647
20
-36.37007583568932
42
0.30896033091761271
10
-92.52117309678296
20
-35.952633265833541
42
-0.30896033091761271
0
CIRCLE
5
133
100
AcDbEntity
8
0
100
AcDbCircle
10
-94.380475500024247
20
-31.582805700372305
30
0
40
1.7500000000000013
210
0
220
0
230
1
0
LINE
5
134
100
AcDbEntity
8
0
100
AcDbLine
10
-50.267687417899971
20
-21.629863309314512
30
0
11
-70.261220034735672
21
-41.269842464054832
31
0
0
ARC
5
135
100
AcDbEntity
8
0
100
AcDbCircle
10
-39.076156131291981
20
7.6099048979603428
30
0
40
1.9999999999999649
210
-0
220
0
230
1
100
AcDbArc
50
-11.020159775862188
51
44.999999999999964
0
CIRCLE
5
136
100
AcDbEntity
8
0
100
AcDbCircle
10
-39.5602578558983
20
1.8938578646256339e-14
30
0
40
1.749999999999998
210
0
220
-0
230
1
0
ARC
5
137
100
AcDbEntity
8
0
100
AcDbCircle
10
-39.5602578558983
20
1.8938578646256339e-14
30
0
40
3.5000000000000142
210
-0
220
0
230
1
100
AcDbArc
50
-57.779619724887006
51
57.779619724886821
0
ENDSEC
0
SECTION
2
OBJECTS
0
DICTIONARY
5
C
100
AcDbDictionary
3
ACAD_GROUP
350
D
3
ACAD_MLINESTYLE
350
17
0
DICTIONARY
5
D
100
AcDbDictionary
0
DICTIONARY
5
1A
330
C
100
AcDbDictionary
0
DICTIONARY
5
17
100
AcDbDictionary
0
ENDSEC
0
EOF
