0
SECTION
2
HEADER
9
$INSUNITS
70
4
9
$ACADVER
1
AC1014
9
$HANDSEED
5
FFFF
0
ENDSEC
0
SECTION
2
TABLES
0
TABLE
2
VPORT
5
8
100
AcDbSymbolTable
0
ENDTAB
0
TABLE
2
LTYPE
5
5
100
AcDbSymbolTable
0
LTYPE
5
14
100
AcDbSymbolTableRecord
100
AcDbLinetypeTableRecord
2
BYBLOCK
70
0
0
LTYPE
5
15
100
AcDbSymbolTableRecord
100
AcDbLinetypeTableRecord
2
BYLAYER
70
0
0
ENDTAB
0
TABLE
2
LAYER
5
2
100
AcDbSymbolTable
70
2
0
LAYER
5
50
100
AcDbSymbolTableRecord
100
AcDbLayerTableRecord
2
0
70
0
6
CONTINUOUS
0
ENDTAB
0
TABLE
2
STYLE
5
3
100
AcDbSymbolTable
70
1
0
STYLE
5
11
100
AcDbSymbolTableRecord
100
AcDbTextStyleTableRecord
2
STANDARD
70
0
0
ENDTAB
0
TABLE
2
VIEW
5
6
100
AcDbSymbolTable
70
0
0
ENDTAB
0
TABLE
2
UCS
5
7
100
AcDbSymbolTable
70
0
0
ENDTAB
0
TABLE
2
APPID
5
9
100
AcDbSymbolTable
70
2
0
APPID
5
12
100
AcDbSymbolTableRecord
100
AcDbRegAppTableRecord
2
ACAD
70
0
0
ENDTAB
0
TABLE
2
DIMSTYLE
5
A
100
AcDbSymbolTable
70
1
0
ENDTAB
0
TABLE
2
BLOCK_RECORD
5
1
100
AcDbSymbolTable
70
1
0
BLOCK_RECORD
5
1F
100
AcDbSymbolTableRecord
100
AcDbBlockTableRecord
2
*MODEL_SPACE
0
BLOCK_RECORD
5
1B
100
AcDbSymbolTableRecord
100
AcDbBlockTableRecord
2
*PAPER_SPACE
0
ENDTAB
0
ENDSEC
0
SECTION
2
BLOCKS
0
BLOCK
5
20
100
AcDbEntity
100
AcDbBlockBegin
2
*MODEL_SPACE
0
ENDBLK
5
21
100
AcDbEntity
100
AcDbBlockEnd
0
BLOCK
5
1C
100
AcDbEntity
100
AcDbBlockBegin
2
*PAPER_SPACE
0
ENDBLK
5
1D
100
AcDbEntity
100
AcDbBlockEnd
0
ENDSEC
0
SECTION
2
ENTITIES
0
CIRCLE
5
100
100
AcDbEntity
8
0
100
AcDbCircle
10
32.454340742029125
20
-81.551596206675256
30
0
40
1.749999999999998
210
0
220
-0
230
1
0
LWPOLYLINE
5
101
100
AcDbEntity
8
0
100
AcDbPolyline
90
2
70
1
43
0.0
10
-33.690836129801916
20
-82.7899738372939
10
-33.692718372642091
20
-82.788091594453732
42
-2629.7067768868505
0
CIRCLE
5
102
100
AcDbEntity
8
0
100
AcDbCircle
10
74
20
27.800000000000004
30
0
40
1.800000000000006
210
0
220
-0
230
1
0
CIRCLE
5
103
100
AcDbEntity
8
0
100
AcDbCircle
10
-73.999999999999943
20
27.80000000000005
30
0
40
1.7999999999999972
210
0
220
-0
230
1
0
CIRCLE
5
104
100
AcDbEntity
8
0
100
AcDbCircle
10
-85.799800842264133
20
30.681009124832443
30
0
40
1.7500000000000071
210
0
220
-0
230
1
0
CIRCLE
5
105
100
AcDbEntity
8
0
100
AcDbCircle
10
-73.999999999999986
20
-27.799999999999955
30
0
40
1.7999999999999972
210
0
220
-0
230
1
0
CIRCLE
5
106
100
AcDbEntity
8
0
100
AcDbCircle
10
-96.144018199542813
20
-39.575475704618881
30
0
40
1.7500000000000071
210
0
220
-0
230
1
0
CIRCLE
5
107
100
AcDbEntity
8
0
100
AcDbCircle
10
85.799800842264204
20
30.681009124832386
30
0
40
1.7500000000000071
210
0
220
-0
230
1
0
CIRCLE
5
108
100
AcDbEntity
8
0
100
AcDbCircle
10
-96.144018199542742
20
39.575475704619009
30
0
40
1.7500000000000071
210
0
220
-0
230
1
0
CIRCLE
5
109
100
AcDbEntity
8
0
100
AcDbCircle
10
35
20
-42.5
30
0
40
1.7500000000000027
210
0
220
-0
230
1
0
CIRCLE
5
110
100
AcDbEntity
8
0
100
AcDbCircle
10
-34.999999999999993
20
-42.499999999999972
30
0
40
1.7500000000000027
210
0
220
-0
230
1
0
LWPOLYLINE
5
111
100
AcDbEntity
8
0
100
AcDbPolyline
90
8
70
1
43
0.0
10
-63.78155571655391
20
-44.921079657490502
42
0.4142135623730932
10
-63.78155571655391
20
-47.749506782236686
10
-46.576207219638739
20
-64.954855279151772
42
0.41416988527394766
10
-43.747991005563506
20
-64.955066158372958
10
-38.752211784871548
20
-59.960776709150238
42
0.46926532286989103
10
-39.034771792773412
20
-56.897159269817323
42
-0.086324454052977589
10
-55.954653155209648
20
-40.374211226586752
42
0.46199910425305174
10
-58.990740697913786
20
-40.130264638850321
0
CIRCLE
5
112
100
AcDbEntity
8
0
100
AcDbCircle
10
96.144018199542813
20
39.575475704618945
30
0
40
1.7500000000000071
210
0
220
-0
230
1
0
LWPOLYLINE
5
113
100
AcDbEntity
8
0
100
AcDbPolyline
90
26
70
1
43
0.0
10
35.459364285678475
20
45.969723973609867
42
0.20806454790759085
10
36.993272668931233
20
46.408562915867122
10
38.744118847702993
20
47.850436239561525
42
0.48418335896786036
10
38.68150123764471
20
50.987661096312408
42
0.33639697118834622
10
-38.68150123764466
20
50.987661096312422
42
0.48418335896785636
10
-38.744118847702921
20
47.850436239561546
10
-36.993272668931155
20
46.408562915867158
42
0.20806454790759088
10
-35.459364285678404
20
45.969723973609902
42
-2.5395651292954042
10
-38.493421628879105
20
42.285511485437624
42
0.2080645479075959
10
-39.218248053945011
20
43.706807091207494
10
-41.97147612662561
20
45.97417138635624
42
0.38234545426054428
10
-44.637822566773366
20
45.863546729048004
42
0.42216923390788985
10
-44.637822566773465
20
-45.863546729047954
42
0.38234545426055372
10
-41.971476126625689
20
-45.974171386356197
10
-39.218248053945061
20
-43.706807091207445
42
0.20806454790759712
10
-38.493421628879013
20
-42.285511485437574
42
-1.0388716860383496
10
-31.533068771734449
20
-42.979987352412564
42
0.32749116764389347
10
31.533068771734282
20
-42.979987352412564
42
-1.0388716860383436
10
38.493421628879176
20
-42.285511485437596
42
0.20806454790759499
10
39.218248053945075
20
-43.706807091207473
10
41.971476126625689
20
-45.974171386356218
42
0.38234545426055966
10
44.637822566773465
20
-45.863546729047982
42
0.42216923390788996
10
44.637822566773465
20
45.863546729047975
42
0.38234545426054622
10
41.971476126625682
20
45.974171386356218
10
39.218248053945068
20
43.706807091207466
42
0.2080645479075906
10
38.493421628879162
20
42.28551148543761
42
-2.5395651292954122
0
CIRCLE
5
114
100
AcDbEntity
8
0
100
AcDbCircle
10
35
20
42.5
30
0
40
1.7500000000000027
210
0
220
-0
230
1
0
LWPOLYLINE
5
115
100
AcDbEntity
8
0
100
AcDbPolyline
90
34
70
1
43
0.0
10
-92.521173096782903
20
35.952633265833668
42
0.30896033091761138
10
-94.738524805649575
20
36.370075835689448
42
-0.1034829634688255
10
-96.141336212131449
20
36.075476732197089
42
0.31741030777124002
10
-98.024897837070895
20
34.743623933490568
42
0.076892617702366092
10
-103.94110576923072
20
3.4995044605748218
42
-0.98331229692607725
10
-103.9411057692308
20
-3.499504460574681
42
0.076892617702366092
10
-98.024897837070938
20
-34.743623933490511
42
0.31741030777123364
10
-96.141336212131534
20
-36.075476732196982
42
-0.10348296346882438
10
-94.738524805649689
20
-36.370075835689335
42
0.30896033091761343
10
-92.521173096782974
20
-35.952633265833555
10
-92.033603275453331
20
-35.465064089715639
42
0.15501629299404934
10
-89.249211646538129
20
-30.088079868207224
42
-0.60828793286950678
10
-83.324927108110941
20
-28.20613539067903
10
-79.214213562373089
20
-32.3168489364176
42
0.66817863791929843
10
-75.799999999999969
20
-30.902635374044493
10
-75.799999999999997
20
-30.801666203960679
42
-3.6120367799781814
10
-72.199999999999989
20
-30.801666203960689
10
-72.200000000000003
20
-38.502635374044452
42
0.19891236737965662
10
-71.614213562373095
20
-39.916848936417537
10
-69.084856575453017
20
-42.446205923337608
42
0.41421356237310053
10
-66.256429450706833
20
-42.446205923337608
10
-60.310644979004365
20
-36.500421451635098
42
0.33758265974490576
10
-59.986130156940462
20
-34.097864019370022
42
-0.27145133467310223
10
-59.061863406637976
20
35.674871167594844
42
0.34497709543175337
10
-59.359587888512628
20
38.123138951301229
10
-64.969542155627934
20
43.733093218416521
42
0.41421356237309415
10
-67.797969280374119
20
43.733093218416514
10
-72.199999999999932
20
39.331062498790729
10
-72.199999999999932
20
30.801666203960785
42
-3.6120367799781876
10
-75.799999999999955
20
30.801666203960796
10
-75.799999999999955
20
35.731062498790735
10
-83.324927108111225
20
28.20613539067951
42
-0.60828793286950866
10
-89.249211646537546
20
30.088079868207437
42
0.15501629299404429
10
-92.03360327545326
20
35.465064089715753
0
CIRCLE
5
116
100
AcDbEntity
8
0
100
AcDbCircle
10
104.00000000000006
20
0
30
0
40
1.7500000000001459
210
0
220
-0
230
1
0
CIRCLE
5
117
100
AcDbEntity
8
0
100
AcDbCircle
10
96.144018199542813
20
-39.575475704618945
30
0
40
1.7500000000000071
210
0
220
-0
230
1
0
CIRCLE
5
118
100
AcDbEntity
8
0
100
AcDbCircle
10
74
20
-27.800000000000004
30
0
40
1.7999999999999972
210
0
220
-0
230
1
0
LWPOLYLINE
5
119
100
AcDbEntity
8
0
100
AcDbPolyline
90
10
70
1
43
0.0
10
30.91726145274729
20
80.613801046043164
10
62.494668421475062
20
49.03639407731557
42
-0.41421356237310053
10
62.494668421475055
20
46.207966952569357
10
57.894921422423295
20
41.608219953517661
42
-0.45416098790003279
10
54.889702027877547
20
41.810533997781846
42
0.16185383932524997
10
18.935072046040421
20
66.351060191229166
42
-0.57196665569531568
10
18.069701143490072
20
69.688492860921727
10
29.098455505394163
20
80.717247222825904
42
-0.25370863604434674
10
29.921115190339357
20
80.961365672770214
42
0.027901520082044957
10
30.30689220328204
20
80.902004191440525
42
-0.17384758597083944
0
LWPOLYLINE
5
120
100
AcDbEntity
8
0
100
AcDbPolyline
90
22
70
1
43
0.0
10
27.158462037432347
20
83.727001223169978
10
12.194121818829039
20
68.762661004566482
42
-0.23884683095765272
10
10.476248873347542
20
68.200061227483801
42
0.076357464429029326
10
-10.47624887334738
20
68.200061227483815
42
-0.23884683095766129
10
-12.194121818828947
20
68.762661004566482
10
-27.15846203743223
20
83.727001223169992
42
-0.01682478648080887
10
-27.199814238502505
20
83.771234142446588
42
0.48395367369238185
10
-30.840228387966114
20
87.8801662420654
42
-0.21342265076283337
10
-31.602980043948897
20
88.171510759653259
10
-35.952627025890735
20
92.521165608724914
42
-0.30896033091761393
10
-36.370069057641665
20
94.738517418896123
42
0.10348296346882473
10
-36.075469613716344
20
96.141328753884906
42
-0.31741030777123092
10
-34.743616357908941
20
98.024890055611436
42
-0.076892606321106588
10
-3.4995042945363641
20
103.94109590403977
42
0.98330952455524823
10
3.4995042945363863
20
103.94109590403978
42
-0.076892606321106588
10
34.743616357908962
20
98.024890055611436
42
-0.31741030777123486
10
36.075469613716436
20
96.141328753884892
42
0.10348296346882402
10
36.370069057641771
20
94.738517418896109
42
-0.3089603309176186
10
35.952627025890848
20
92.521165608724871
10
31.602980043949003
20
88.171510759653259
42
-0.21342265076283998
10
30.84022838796621
20
87.880166242065371
42
0.48395367369238418
10
27.199814238502587
20
83.771234142446559
42
-0.016824786480530568
0
LWPOLYLINE
5
121
100
AcDbEntity
8
0
100
AcDbPolyline
90
10
70
1
43
0.0
10
-62.494668421474984
20
49.03639407731562
10
-30.917261452747201
20
80.613801046043193
42
-0.17384758597082914
10
-30.306892203281954
20
80.902004191440554
42
0.027901520082045956
10
-29.921115190339258
20
80.961365672770214
42
-0.25370863604434185
10
-29.098455505394082
20
80.717247222825904
10
-18.069701143489969
20
69.688492860921741
42
-0.5719666556953148
10
-18.935072046040307
20
66.351060191229166
42
0.16185383932524997
10
-54.889702027877469
20
41.810533997781889
42
-0.45416098790002785
10
-57.894921422423224
20
41.60821995351769
10
-62.494668421474984
20
46.207966952569407
42
-0.41421356237309875
0
CIRCLE
5
122
100
AcDbEntity
8
0
100
AcDbCircle
10
39.575468585487386
20
96.144011590672676
30
0
40
1.749999999999998
210
0
220
-0
230
1
0
CIRCLE
5
123
100
AcDbEntity
8
0
100
AcDbCircle
10
-34.999999999999936
20
42.500000000000028
30
0
40
1.7500000000000027
210
0
220
-0
230
1
0
CIRCLE
5
124
100
AcDbEntity
8
0
100
AcDbCircle
10
85.799800842264204
20
-30.681009124832386
30
0
40
1.7500000000000071
210
0
220
-0
230
1
0
CIRCLE
5
125
100
AcDbEntity
8
0
100
AcDbCircle
10
-39.575468585487286
20
96.144011590672704
30
0
40
1.749999999999998
210
0
220
-0
230
1
0
LWPOLYLINE
5
126
100
AcDbEntity
8
0
100
AcDbPolyline
90
34
70
1
43
0.0
10
59.986130156940462
20
-34.0978640193701
42
0.33758265974489821
10
60.31064497900438
20
-36.500421451635141
10
66.256429450706833
20
-42.446205923337658
42
0.41421356237309875
10
69.084856575453017
20
-42.446205923337658
10
71.614213562373095
20
-39.916848936417594
42
0.19891236737965626
10
72.200000000000017
20
-38.502635374044502
10
72.200000000000017
20
-30.801666203960735
42
-3.6120367799781907
10
75.799999999999997
20
-30.801666203960735
10
75.799999999999997
20
-30.90263537404455
42
0.66817863791930343
10
79.214213562373104
20
-32.316848936417642
10
83.324927108111297
20
-28.206135390679457
42
-0.60828793286950955
10
89.249211646537617
20
-30.088079868207387
42
0.15501629299404435
10
92.033603275453331
20
-35.465064089715703
10
92.52117309678296
20
-35.952633265833597
42
0.30896033091761566
10
94.738524805649661
20
-36.370075835689384
42
-0.10348296346882505
10
96.141336212131534
20
-36.075476732197025
42
0.31741030777123719
10
98.024897837070966
20
-34.743623933490532
42
0.076892617702366092
10
103.94110576923077
20
-3.4995044605746979
42
-0.98331229692607547
10
103.94110576923083
20
3.4995044605746988
42
0.076892617702366092
10
98.024897837070938
20
34.743623933490575
42
0.31741030777123197
10
96.141336212131534
20
36.07547673219706
42
-0.10348296346882471
10
94.738524805649689
20
36.370075835689406
42
0.30896033091760883
10
92.521173096782974
20
35.952633265833605
10
92.033603275453331
20
35.465064089715696
42
0.1550162929940451
10
89.249211646537617
20
30.08807986820738
42
-0.60828793286950888
10
83.324927108111297
20
28.206135390679457
10
75.799999999999997
20
35.731062498790692
10
75.799999999999997
20
30.801666203960743
42
-3.6120367799781969
10
72.200000000000003
20
30.801666203960743
10
72.200000000000003
20
39.331062498790672
10
67.79796928037419
20
43.733093218416471
42
0.4142135623730932
10
64.969542155628005
20
43.733093218416471
10
59.359587888512678
20
38.123138951301186
42
0.3449770954317587
10
59.061863406638047
20
35.674871167594766
42
-0.27145133467310234
0
ARC
5
127
100
AcDbEntity
8
0
100
AcDbCircle
10
3.8321483222929371e-14
20
-1.2997205779963349e-29
30
0
40
104.00000000000004
210
0
220
0
230
1
100
AcDbArc
50
340.48380391701414
51
358.07168564483004
0
ARC
5
128
100
AcDbEntity
8
0
100
AcDbCircle
10
96.139803647895391
20
-34.075477319384085
30
0
40
2.0000000000013136
210
0
220
0
230
1
100
AcDbArc
50
270.04390473557851
51
340.48380391700175
0
ARC
5
129
100
AcDbEntity
8
0
100
AcDbCircle
10
96.144018199542813
20
-39.575475704618945
30
0
40
3.5000000000015676
210
0
220
0
230
1
100
AcDbArc
50
90.043904735546278
51
113.67633480207373
0
ARC
5
130
100
AcDbEntity
8
0
100
AcDbCircle
10
93.93538572342537
20
-34.538418767730477
30
0
40
1.9999999999999785
210
0
220
0
230
1
100
AcDbArc
50
225.00003791039879
51
293.67633480207388
0
ARC
5
131
100
AcDbEntity
8
0
100
AcDbCircle
10
85.799800842264204
20
-30.681009124832386
30
0
40
3.5000000000000062
210
0
220
-0
230
1
100
AcDbArc
50
9.7534215923816916
51
134.99999999999972
0
ARC
5
132
100
AcDbEntity
8
0
100
AcDbCircle
10
74
20
-27.800000000000004
30
0
40
3.5000000000000018
210
-0
220
0
230
1
100
AcDbArc
50
-59.050276921140764
51
239.05027692114075
0
ARC
5
133
100
AcDbEntity
8
0
100
AcDbCircle
10
70.199999999999989
20
-38.502635374044488
30
0
40
2.0000000000000213
210
0
220
0
230
1
100
AcDbArc
50
315
51
360
0
ARC
5
134
100
AcDbEntity
8
0
100
AcDbCircle
10
67.670643013079939
20
-41.03199236096458
30
0
40
1.9999999999999836
210
0
220
0
230
1
100
AcDbArc
50
224.99999999999943
51
315
0
CIRCLE
5
135
100
AcDbEntity
8
0
100
AcDbCircle
10
-2.3092638912203269e-14
20
104.00000000000006
30
0
40
1.7499999999999716
210
0
220
-0
230
1
0
LWPOLYLINE
5
136
100
AcDbEntity
8
0
100
AcDbPolyline
90
8
70
1
43
0.0
10
43.747991005563506
20
-64.955066158372986
42
0.41416988527394671
10
46.576207219638739
20
-64.954855279151815
10
63.78155571655391
20
-47.749506782236736
42
0.4142135623730932
10
63.78155571655391
20
-44.921079657490552
10
58.990740697913786
20
-40.130264638850349
42
0.46199910425305518
10
55.954653155209627
20
-40.374211226586823
42
-0.086324454052977478
10
39.034771792773391
20
-56.89715926981733
42
0.46926532286988876
10
38.752211784871534
20
-59.960776709150252
0
CIRCLE
5
137
100
AcDbEntity
8
0
100
AcDbCircle
10
-85.799800842264204
20
-30.681009124832329
30
0
40
1.7500000000000071
210
0
220
-0
230
1
0
CIRCLE
5
138
100
AcDbEntity
8
0
100
AcDbCircle
10
-104.00000000000003
20
7.0545776803722656e-14
30
0
40
1.7500000000000031
210
0
220
-0
230
1
0
CIRCLE
5
139
100
AcDbEntity
8
0
100
AcDbCircle
10
-30.645473564306496
20
84.385588934484247
30
0
40
1.749999999999998
210
0
220
-0
230
1
0
CIRCLE
5
140
100
AcDbEntity
8
0
100
AcDbCircle
10
30.645473564306585
20
84.385588934484232
30
0
40
1.749999999999998
210
0
220
-0
230
1
0
LWPOLYLINE
5
141
100
AcDbEntity
8
0
100
AcDbPolyline
90
71
70
1
43
0.0
10
-1.1921464482256283e-07
20
-62.200935114841215
42
0.13165164754718972
10
-1.7500000000000058
20
-62.669802987812758
10
-1.7500000000000004
20
-58.687101789737198
42
0.39564474844309039
10
-3.622463704533101
20
-56.691172308683861
42
-0.14370389115517165
10
-33.68363550229995
20
-45.743020892500503
42
-0.13002918520974599
10
-35.459364285678475
20
-45.969723973609852
42
0.2080645479075926
10
-36.993272668931233
20
-46.408562915867108
10
-38.744118847702957
20
-47.850436239561475
42
0.4841833589678608
10
-38.68150123764471
20
-50.987661096312351
42
0.15160386919447516
10
-3.0182698550006015
20
-63.928789830190802
42
0.46847267071727361
10
-1.1978497403877508
20
-68.98960282454388
42
-0.11934547795948319
10
-32.625019711144539
20
-60.799738739046283
42
0.33080511887752889
10
-34.984885997205268
20
-61.147836410739558
10
-41.26984250598818
20
-67.432792853112971
42
0.41421356392050973
10
-41.269842513459771
20
-70.26121998533074
10
-33.360206835385029
20
-78.170855663405447
42
-3.7320508075692089
10
-35.835080982782642
20
-80.645728984313195
10
-82.754312375696003
20
-33.726497591400523
42
0.35508676478087114
10
-83.883477371298028
20
-33.60978094158834
42
-0.12327339196175301
10
-85.489477190459482
20
-34.167224727908355
42
0.1759367336782714
10
-86.046075783063301
20
-34.427284065631426
10
-96.088838715187336
20
-44.470046997755517
42
-0.52485812657997077
10
-98.031673910213613
20
-44.113953692245062
42
-0.21463335352426896
10
-98.031674948790979
20
44.113951384279602
42
-0.52485813408714488
10
-96.088839742171331
20
44.470044715553399
10
-86.04607578306323
20
34.42728406563154
42
0.17593673367824234
10
-85.489477190459411
20
34.167224727908447
42
-0.12327339196175244
10
-83.883477371297971
20
33.60978094158844
42
0.35508676478086443
10
-82.754312375695918
20
33.726497591400637
10
-34.168014975341649
20
82.312794991754089
42
0.28699893989291175
10
-33.953719314161177
20
83.242999743843825
42
-0.1360849636306935
10
-34.06969636640892
20
85.109949481147126
42
0.25370880488173236
10
-34.31381469816737
20
85.932609724785479
10
-44.551957795323645
20
96.170749512755677
42
-0.52451082256379722
10
-44.220716361624241
20
97.983561093174842
42
-0.10638330118827706
10
-0.0002158314569546018
20
107.49999999994691
42
-5.0193362099997025e-07
10
7.1054273576010019e-14
20
107.50000000000001
42
-0.10638380880251201
10
44.220716361557173
20
97.983561093025813
42
-0.52451082256378279
10
44.55195779532378
20
96.170749512755606
10
34.313814698167455
20
85.932609724785465
42
0.25370880488173309
10
34.069696366409019
20
85.109949481147112
42
-0.13608496363069475
10
33.953719314161276
20
83.242999743843797
42
0.28699893989293424
10
34.168014975341734
20
82.31279499175406
10
82.754312375696003
20
33.72649759140058
42
0.35508676478087037
10
83.883477371298028
20
33.60978094158839
42
-0.12327339196175312
10
85.489477190459482
20
34.167224727908412
42
0.17593673367827051
10
86.046075783063301
20
34.427284065631483
10
96.088839742171416
20
44.470044715553342
42
-0.52485813408714332
10
98.031674948791022
20
44.113951384279559
42
-0.21463335352426907
10
98.031673910213613
20
-44.113953692245133
42
-0.52485812657997077
10
96.088838715187364
20
-44.470046997755531
10
86.046075783063301
20
-34.427284065631483
42
0.17593673367824095
10
85.489477190459482
20
-34.167224727908383
42
-0.12327339196175255
10
83.883477371298042
20
-33.609780941588376
42
0.35508676478086987
10
82.754312375695989
20
-33.726497591400587
10
35.835080982782628
20
-80.645728984313209
42
-3.7320508075692391
10
33.360206835385014
20
-78.170855663405462
10
41.269842513459743
20
-70.261219985330769
42
0.41421356392051245
10
41.269842505988166
20
-67.432792853113
10
34.984885997205254
20
-61.147836410739586
42
0.33080511887754144
10
32.625019711144517
20
-60.799738739046333
42
-0.1193454779594833
10
1.1978497403876918
20
-68.989602824543852
42
0.46847267071727527
10
3.0182698550006264
20
-63.928789830190823
42
0.15160386919447502
10
38.681501237644682
20
-50.987661096312365
42
0.48418335896786358
10
38.744118847702957
20
-47.850436239561496
10
36.993272668931226
20
-46.408562915867137
42
0.20806454790759296
10
35.459364285678433
20
-45.969723973609568
42
-0.13002918520974635
10
33.683635502300085
20
-45.743020892500247
42
-0.14370389115517279
10
3.6224637045331241
20
-56.691172308683669
42
0.39564474844309183
10
1.7499999999999982
20
-58.687101789737198
10
1.7500000000000018
20
-62.669802987812758
42
0.1316516648730347
0
ARC
5
142
100
AcDbEntity
8
0
100
AcDbCircle
10
104.00000000000006
20
0
30
0
40
3.5000000000000142
210
0
220
0
230
1
100
AcDbArc
50
180
51
269.03584282241457
0
ARC
5
143
100
AcDbEntity
8
0
100
AcDbCircle
10
77.799999999999997
20
-30.902635374044557
30
0
40
2.0000000000000009
210
0
220
0
230
1
100
AcDbArc
50
177.06091812897586
51
315.00000000000045
0
ARC
5
144
100
AcDbEntity
8
0
100
AcDbCircle
10
61.724858541377458
20
-35.086207889262063
30
0
40
1.9999999999999771
210
0
220
0
230
1
100
AcDbArc
50
150.38483839675507
51
225
0
ARC
5
145
100
AcDbEntity
8
0
100
AcDbCircle
10
3.8321483222929371e-14
20
-1.2997205779963349e-29
30
0
40
69.000001028180066
210
0
220
0
230
1
100
AcDbArc
50
-29.615161603244221
51
31.13304639149305
0
LINE
5
146
100
AcDbEntity
8
0
100
AcDbLine
10
79.214213562373104
20
-32.316848936417642
30
0
11
83.324927108111297
21
-28.206135390679453
31
0
0
LINE
5
147
100
AcDbEntity
8
0
100
AcDbLine
10
72.200000000000017
20
-38.502635374044502
30
0
11
72.200000000000003
21
-30.801666203960735
31
0
0
LINE
5
148
100
AcDbEntity
8
0
100
AcDbLine
10
71.614213562373095
20
-39.916848936417594
30
0
11
69.084856575453017
21
-42.446205923337658
31
0
0
LINE
5
149
100
AcDbEntity
8
0
100
AcDbLine
10
60.31064497900438
20
-36.500421451635141
30
0
11
66.256429450706833
21
-42.446205923337658
31
0
0
ARC
5
150
100
AcDbEntity
8
0
100
AcDbCircle
10
99.104671087318806
20
-28.393996277850189
30
0
40
10.000000000000028
210
0
220
0
230
1
100
AcDbArc
50
189.75342159238204
51
232.12051090041146
0
ARC
5
151
100
AcDbEntity
8
0
100
AcDbCircle
10
0
20
3.5943470422239443e-14
30
0
40
104.00000000000003
210
-0
220
0
230
1
100
AcDbArc
50
1.9283143551699611
51
19.516196082985807
0
ARC
5
152
100
AcDbEntity
8
0
100
AcDbCircle
10
104.00000000000006
20
3.5943470422239443e-14
30
0
40
3.4999999999999982
210
0
220
0
230
1
100
AcDbArc
50
90.964157177585435
51
180
0
ARC
5
153
100
AcDbEntity
8
0
100
AcDbCircle
10
96.144018199542813
20
39.575475704618981
30
0
40
3.5000000000015681
210
0
220
0
230
1
100
AcDbArc
50
246.32366519792626
51
269.95609526445372
0
ARC
5
154
100
AcDbEntity
8
0
100
AcDbCircle
10
96.139803647895391
20
34.07547731938412
30
0
40
2.0000000000013642
210
0
220
-0
230
1
100
AcDbArc
50
19.516196082998189
51
89.956095264421464
0
ARC
5
155
100
AcDbEntity
8
0
100
AcDbCircle
10
93.93538572342537
20
34.538418767730512
30
0
40
1.9999999999999682
210
0
220
-0
230
1
100
AcDbArc
50
66.323665197926104
51
134.99996208960121
0
ARC
5
156
100
AcDbEntity
8
0
100
AcDbCircle
10
99.104671087318806
20
28.393996277850224
30
0
40
10.000000000000016
210
0
220
0
230
1
100
AcDbArc
50
127.87948909958857
51
170.24657840761799
0
ARC
5
157
100
AcDbEntity
8
0
100
AcDbCircle
10
85.799800842264204
20
30.681009124832421
30
0
40
3.5000000000000089
210
0
220
0
230
1
100
AcDbArc
50
225.00000000000028
51
350.2465784076183
0
LINE
5
158
100
AcDbEntity
8
0
100
AcDbLine
10
79.214213562373104
20
32.316848936417685
30
0
11
83.324927108111297
21
28.206135390679488
31
0
0
ARC
5
159
100
AcDbEntity
8
0
100
AcDbCircle
10
77.799999999999997
20
30.902635374044593
30
0
40
2.0000000000000053
210
0
220
-0
230
1
100
AcDbArc
50
44.999999999999709
51
182.93908187102414
0
ARC
5
160
100
AcDbEntity
8
0
100
AcDbCircle
10
74
20
27.80000000000004
30
0
40
3.5000000000000018
210
0
220
0
230
1
100
AcDbArc
50
-239.05027692114075
51
59.050276921140735
0
LINE
5
161
100
AcDbEntity
8
0
100
AcDbLine
10
72.200000000000017
20
38.50263537404453
30
0
11
72.200000000000003
21
30.801666203960771
31
0
0
ARC
5
162
100
AcDbEntity
8
0
100
AcDbCircle
10
70.199999999999989
20
38.502635374044523
30
0
40
2.0000000000000284
210
0
220
-0
230
1
100
AcDbArc
50
0
51
45
0
LINE
5
163
100
AcDbEntity
8
0
100
AcDbLine
10
71.614213562373095
20
39.91684893641763
30
0
11
69.084856575453017
21
42.446205923337686
31
0
0
ARC
5
164
100
AcDbEntity
8
0
100
AcDbCircle
10
67.670643013079939
20
41.031992360964615
30
0
40
1.9999999999999836
210
0
220
-0
230
1
100
AcDbArc
50
44.999999999999858
51
135.00000000000071
0
LINE
5
165
100
AcDbEntity
8
0
100
AcDbLine
10
60.31064497900438
20
36.500421451635177
30
0
11
66.256429450706833
21
42.446205923337686
31
0
0
ARC
5
166
100
AcDbEntity
8
0
100
AcDbCircle
10
61.724858541377458
20
35.086207889262099
30
0
40
1.9999999999999742
210
0
220
0
230
1
100
AcDbArc
50
135
51
209.61516160324493
0
ENDSEC
0
SECTION
2
OBJECTS
0
DICTIONARY
5
C
100
AcDbDictionary
3
ACAD_GROUP
350
D
3
ACAD_MLINESTYLE
350
17
0
DICTIONARY
5
D
100
AcDbDictionary
0
DICTIONARY
5
1A
330
C
100
AcDbDictionary
0
DICTIONARY
5
17
100
AcDbDictionary
0
ENDSEC
0
EOF
