0
SECTION
2
HEADER
9
$INSUNITS
70
4
9
$ACADVER
1
AC1014
9
$HANDSEED
5
FFFF
0
ENDSEC
0
SECTION
2
TABLES
0
TABLE
2
VPORT
5
8
100
AcDbSymbolTable
0
ENDTAB
0
TABLE
2
LTYPE
5
5
100
AcDbSymbolTable
0
LTYPE
5
14
100
AcDbSymbolTableRecord
100
AcDbLinetypeTableRecord
2
BYBLOCK
70
0
0
LTYPE
5
15
100
AcDbSymbolTableRecord
100
AcDbLinetypeTableRecord
2
BYLAYER
70
0
0
ENDTAB
0
TABLE
2
LAYER
5
2
100
AcDbSymbolTable
70
2
0
LAYER
5
50
100
AcDbSymbolTableRecord
100
AcDbLayerTableRecord
2
0
70
0
6
CONTINUOUS
0
ENDTAB
0
TABLE
2
STYLE
5
3
100
AcDbSymbolTable
70
1
0
STYLE
5
11
100
AcDbSymbolTableRecord
100
AcDbTextStyleTableRecord
2
STANDARD
70
0
0
ENDTAB
0
TABLE
2
VIEW
5
6
100
AcDbSymbolTable
70
0
0
ENDTAB
0
TABLE
2
UCS
5
7
100
AcDbSymbolTable
70
0
0
ENDTAB
0
TABLE
2
APPID
5
9
100
AcDbSymbolTable
70
2
0
APPID
5
12
100
AcDbSymbolTableRecord
100
AcDbRegAppTableRecord
2
ACAD
70
0
0
ENDTAB
0
TABLE
2
DIMSTYLE
5
A
100
AcDbSymbolTable
70
1
0
ENDTAB
0
TABLE
2
BLOCK_RECORD
5
1
100
AcDbSymbolTable
70
1
0
BLOCK_RECORD
5
1F
100
AcDbSymbolTableRecord
100
AcDbBlockTableRecord
2
*MODEL_SPACE
0
BLOCK_RECORD
5
1B
100
AcDbSymbolTableRecord
100
AcDbBlockTableRecord
2
*PAPER_SPACE
0
ENDTAB
0
ENDSEC
0
SECTION
2
BLOCKS
0
BLOCK
5
20
100
AcDbEntity
100
AcDbBlockBegin
2
*MODEL_SPACE
0
ENDBLK
5
21
100
AcDbEntity
100
AcDbBlockEnd
0
BLOCK
5
1C
100
AcDbEntity
100
AcDbBlockBegin
2
*PAPER_SPACE
0
ENDBLK
5
1D
100
AcDbEntity
100
AcDbBlockEnd
0
ENDSEC
0
SECTION
2
ENTITIES
0
LWPOLYLINE
5
100
100
AcDbEntity
8
0
100
AcDbPolyline
90
4
70
1
43
0.0
10
-1.3500000641215593
20
3.8500001828651875
10
0.24999999441206455
20
3.8500001828651875
10
0.24999999441206455
20
2.9999999329447746
10
-1.3500000641215593
20
2.9999999329447746
0
LWPOLYLINE
5
101
100
AcDbEntity
8
0
100
AcDbPolyline
90
4
70
1
43
0.0
10
-3.899999912828207
20
5.7999998703598976
10
-5.5000002612359822
20
5.7999998703598976
10
-5.5000002612359822
20
6.6500003158580512
10
-3.899999912828207
20
6.6500003158580512
0
LWPOLYLINE
5
102
100
AcDbEntity
8
0
100
AcDbPolyline
90
4
70
1
43
0.0
10
-5.5000002612359822
20
5.4500002588611096
10
-3.899999912828207
20
5.4500002588611096
10
-3.899999912828207
20
4.5999998971819878
10
-5.5000002612359822
20
4.5999998971819878
0
LWPOLYLINE
5
103
100
AcDbEntity
8
0
100
AcDbPolyline
90
4
70
1
43
0.0
10
-10.5
20
6.2716531259491214e-16
10
-10.5
20
12.000000000000002
10
10.5
20
12.000000000000002
10
10.5
20
6.2716531259491214e-16
0
LWPOLYLINE
5
104
100
AcDbEntity
8
0
100
AcDbPolyline
90
4
70
1
43
0.0
10
-2.799999937415123
20
10.499999765306711
10
4.1999999061226845
20
10.499999765306711
10
4.1999999061226845
20
9.0999997965991497
10
-2.799999937415123
20
9.0999997965991497
0
LWPOLYLINE
5
105
100
AcDbEntity
8
0
100
AcDbPolyline
90
4
70
1
43
0.0
10
1.5500000736210495
20
3.0000001424923539
10
1.5500000736210495
20
3.8500001828651875
10
3.1500001496169716
20
3.8500001828651875
10
3.1500001496169716
20
3.0000001424923539
0
LWPOLYLINE
5
106
100
AcDbEntity
8
0
100
AcDbPolyline
90
4
70
1
43
0.0
10
7.1999998390674591
20
4.7000002232380211
10
7.1999998390674591
20
3.0999999307096004
10
6.3500003016088158
20
3.0999999307096004
10
6.3500003016088158
20
4.7000002232380211
0
LWPOLYLINE
5
107
100
AcDbEntity
8
0
100
AcDbPolyline
90
4
70
1
43
0.0
10
4.4999998994171619
20
3.100000147242099
10
4.4999998994171619
20
4.6999998949468136
10
5.3500002541113645
20
4.6999998949468136
10
5.3500002541113645
20
3.100000147242099
0
LWPOLYLINE
5
108
100
AcDbEntity
8
0
100
AcDbPolyline
90
4
70
1
43
0.0
10
-2.6999999396502972
20
8.399999812245369
10
2.5000001187436283
20
8.399999812245369
10
2.5000001187436283
20
4.600000218488276
10
-2.6999999396502972
20
4.600000218488276
0
LWPOLYLINE
5
109
100
AcDbEntity
8
0
100
AcDbPolyline
90
4
70
1
43
0.0
10
5.8999998681247234
20
9.6500004583504051
10
5.8999998681247234
20
10.499999765306711
10
7.5000003562308848
20
10.499999765306711
10
7.5000003562308848
20
9.6500004583504051
0
LWPOLYLINE
5
110
100
AcDbEntity
8
0
100
AcDbPolyline
90
4
70
1
43
0.0
10
6.3500003016088158
20
3.450000163866207
10
6.3500003016088158
20
4.3500002066139132
10
7.2000003419816494
20
4.3500002066139132
10
7.2000003419816494
20
3.450000163866207
0
LWPOLYLINE
5
111
100
AcDbEntity
8
0
100
AcDbPolyline
90
4
70
1
43
0.0
10
4.4999998994171619
20
3.4499999228864908
10
4.4999998994171619
20
4.3500002066139132
10
5.3499998804181814
20
4.3500002066139132
10
5.3499998804181814
20
3.4499999228864908
0
CIRCLE
5
112
100
AcDbEntity
8
0
100
AcDbCircle
10
8.8900000000000006
20
1.5000000000000002
30
0
40
0.99999999999999978
210
0
220
0
230
1
0
CIRCLE
5
113
100
AcDbEntity
8
0
100
AcDbCircle
10
6.3499999999999996
20
1.5000000000000002
30
0
40
0.99999999999999978
210
0
220
0
230
1
0
CIRCLE
5
114
100
AcDbEntity
8
0
100
AcDbCircle
10
3.8100000000000001
20
1.5000000000000002
30
0
40
0.99999999999999989
210
0
220
0
230
1
0
CIRCLE
5
115
100
AcDbEntity
8
0
100
AcDbCircle
10
1.27
20
1.5000000000000002
30
0
40
1
210
0
220
0
230
1
0
CIRCLE
5
116
100
AcDbEntity
8
0
100
AcDbCircle
10
-1.27
20
1.5000000000000002
30
0
40
1
210
0
220
0
230
1
0
CIRCLE
5
117
100
AcDbEntity
8
0
100
AcDbCircle
10
-3.8100000000000001
20
1.5000000000000002
30
0
40
0.99999999999999978
210
0
220
0
230
1
0
CIRCLE
5
118
100
AcDbEntity
8
0
100
AcDbCircle
10
-6.3499999999999996
20
1.5000000000000002
30
0
40
0.99999999999999967
210
0
220
0
230
1
0
CIRCLE
5
119
100
AcDbEntity
8
0
100
AcDbCircle
10
-8.8900000000000006
20
1.5000000000000002
30
0
40
1
210
0
220
0
230
1
0
LINE
5
120
100
AcDbEntity
8
0
100
AcDbLine
10
10.0769271435201
20
6.7934215667535298
30
0
11
9.7769271435200995
21
7.0934215667535305
31
0
0
LINE
5
121
100
AcDbEntity
8
0
100
AcDbLine
10
9.7769271435200995
20
6.6934215667535302
30
0
11
9.7769271435200995
21
6.49342156675353
31
0
0
LINE
5
122
100
AcDbEntity
8
0
100
AcDbLine
10
9.7769271435200995
20
6.8934215667535303
30
0
11
9.7769271435200995
21
7.0934215667535305
31
0
0
LINE
5
123
100
AcDbEntity
8
0
100
AcDbLine
10
8.0896288089082695
20
5.4183910839885696
30
0
11
8.3896288089082702
21
5.1183910839885707
31
0
0
LINE
5
124
100
AcDbEntity
8
0
100
AcDbLine
10
8.2505168504105395
20
5.4183910839885696
30
0
11
8.2505168504105377
21
6.4183910839885661
31
0
0
ARC
5
125
100
AcDbEntity
8
0
100
AcDbCircle
10
8.3896288089082809
20
6.7934215667535298
30
0
40
0.40000000000000391
210
0
220
0
230
1
100
AcDbArc
50
290.35158363351212
51
345.52248781375062
0
LINE
5
126
100
AcDbEntity
8
0
100
AcDbLine
10
8.7769271435284661
20
6.6934215667513701
30
0
11
9.7769271435200995
21
6.6934215667535302
31
0
0
ARC
5
127
100
AcDbEntity
8
0
100
AcDbCircle
10
8.3896288089082809
20
6.7934215667535298
30
0
40
0.39999999999999603
210
0
220
-0
230
1
100
AcDbArc
50
14.477512186249804
51
249.64841636648711
0
LINE
5
128
100
AcDbEntity
8
0
100
AcDbLine
10
9.7769271435200995
20
6.8934215667535303
30
0
11
8.7769271435284608
21
6.8934215667556913
31
0
0
LINE
5
129
100
AcDbEntity
8
0
100
AcDbLine
10
9.7769271435200995
20
6.49342156675353
30
0
11
10.0769271435201
21
6.7934215667535298
31
0
0
CIRCLE
5
130
100
AcDbEntity
8
0
100
AcDbCircle
10
8.3896288089082809
20
6.7934215667535298
30
0
40
0.19999999999999463
210
0
220
0
230
1
0
LINE
5
131
100
AcDbEntity
8
0
100
AcDbLine
10
8.6896288089082692
20
5.4183910839885696
30
0
11
8.3896288089082702
21
5.1183910839885707
31
0
0
LINE
5
132
100
AcDbEntity
8
0
100
AcDbLine
10
8.0896288089082695
20
5.4183910839885696
30
0
11
8.2505168504105395
21
5.4183910839885696
31
0
0
LINE
5
133
100
AcDbEntity
8
0
100
AcDbLine
10
8.5287407674060205
20
6.4183910839885607
30
0
11
8.5287407674060098
21
5.4183910839885696
31
0
0
ENDSEC
0
SECTION
2
OBJECTS
0
DICTIONARY
5
C
100
AcDbDictionary
3
ACAD_GROUP
350
D
3
ACAD_MLINESTYLE
350
17
0
DICTIONARY
5
D
100
AcDbDictionary
0
DICTIONARY
5
1A
330
C
100
AcDbDictionary
0
DICTIONARY
5
17
100
AcDbDictionary
0
ENDSEC
0
EOF
