0
SECTION
2
HEADER
9
$INSUNITS
70
4
9
$ACADVER
1
AC1014
9
$HANDSEED
5
FFFF
0
ENDSEC
0
SECTION
2
TABLES
0
TABLE
2
VPORT
5
8
100
AcDbSymbolTable
0
ENDTAB
0
TABLE
2
LTYPE
5
5
100
AcDbSymbolTable
0
LTYPE
5
14
100
AcDbSymbolTableRecord
100
AcDbLinetypeTableRecord
2
BYBLOCK
70
0
0
LTYPE
5
15
100
AcDbSymbolTableRecord
100
AcDbLinetypeTableRecord
2
BYLAYER
70
0
0
LTYPE
5
16
100
AcDbSymbolTableRecord
100
AcDbLinetypeTableRecord
2
DASHED
70
0
3
Dashed __ __ __ __ __ __ __ __ __ __ __ __ __ _
72
65
73
2
40
0.75
49
0.5
74
0
49
-0.25
74
0
0
ENDTAB
0
TABLE
2
LAYER
5
2
100
AcDbSymbolTable
70
3
0
LAYER
5
50
100
AcDbSymbolTableRecord
100
AcDbLayerTableRecord
2
1
70
0
62
7
6
DASHED
0
LAYER
5
51
100
AcDbSymbolTableRecord
100
AcDbLayerTableRecord
2
0
70
0
62
7
6
CONTINUOUS
0
ENDTAB
0
TABLE
2
STYLE
5
3
100
AcDbSymbolTable
70
1
0
STYLE
5
11
100
AcDbSymbolTableRecord
100
AcDbTextStyleTableRecord
2
STANDARD
70
0
0
ENDTAB
0
TABLE
2
VIEW
5
6
100
AcDbSymbolTable
70
0
0
ENDTAB
0
TABLE
2
UCS
5
7
100
AcDbSymbolTable
70
0
0
ENDTAB
0
TABLE
2
APPID
5
9
100
AcDbSymbolTable
70
2
0
APPID
5
12
100
AcDbSymbolTableRecord
100
AcDbRegAppTableRecord
2
ACAD
70
0
0
ENDTAB
0
TABLE
2
DIMSTYLE
5
A
100
AcDbSymbolTable
70
1
0
ENDTAB
0
TABLE
2
BLOCK_RECORD
5
1
100
AcDbSymbolTable
70
1
0
BLOCK_RECORD
5
1F
100
AcDbSymbolTableRecord
100
AcDbBlockTableRecord
2
*MODEL_SPACE
0
BLOCK_RECORD
5
1B
100
AcDbSymbolTableRecord
100
AcDbBlockTableRecord
2
*PAPER_SPACE
0
ENDTAB
0
ENDSEC
0
SECTION
2
BLOCKS
0
BLOCK
5
20
100
AcDbEntity
100
AcDbBlockBegin
2
*MODEL_SPACE
0
ENDBLK
5
21
100
AcDbEntity
100
AcDbBlockEnd
0
BLOCK
5
1C
100
AcDbEntity
100
AcDbBlockBegin
2
*PAPER_SPACE
0
ENDBLK
5
1D
100
AcDbEntity
100
AcDbBlockEnd
0
ENDSEC
0
SECTION
2
ENTITIES
0
LWPOLYLINE
5
100
100
AcDbEntity
8
0
100
AcDbPolyline
90
35
70
1
43
0.0
10
-24.873251698245141
20
-75.845065298982149
42
0.25444160334786403
10
-29.574230756410365
20
-76.707364913956809
42
0.050011330734879171
10
-36.250912934655858
20
-83.307882173361051
42
-0.18995194492335615
10
-38.17721634510989
20
-84.370680339174413
42
1.1732475454876143
10
-33.6924901212154
20
-99.518671496453251
42
0.10366522200851448
10
-23.800447948048919
20
-92.195856103876167
42
-0.44957424736689722
10
23.784732420207483
20
-92.178173295183797
42
0.1038644873824006
10
33.692490121217467
20
-99.518671496454203
42
0.84362841178174885
10
42.807002410886206
20
-86.647622844452016
10
42.795308528954934
20
-86.635928962520723
42
0.16512416789259132
10
38.177240568898114
20
-84.370680339174442
42
-0.18995194492335407
10
36.250937158444124
20
-83.307882173361065
42
0.040011121540029282
10
31.011069919714458
20
-77.916796897665364
42
-0.00020155291275270588
10
30.992866167728536
20
-77.900871984046262
42
0.0098518074486922264
10
29.574230756394048
20
-76.707364913963119
42
0.25444160334786298
10
24.873251698229634
20
-75.845065298987265
42
-0.0047564363894371684
10
23.425836316555667
20
-76.304529651540605
42
-0.43420951013346348
10
15.823044375786219
20
-71.937114440302622
10
15.663739429786641
20
-71.257003891426962
42
0.22057010756302903
10
13.07033687277843
20
-67.944766107536793
42
-0.28173353563945142
10
7.6200000000000863
20
-59.03967961560425
10
7.6200000000000943
20
-53.349193059072846
42
-0.32358306418007404
10
14.48385544179407
20
-43.853689001360372
42
0.014482621914089505
10
16.998429736637199
20
-42.941605628753948
42
0.99999999999999989
10
14.043268245184631
20
-35.476246692585434
42
-0.19072520520173
10
-14.043268245197165
20
-35.476246692556387
42
1.1414154087187038
10
-15.974133688839895
20
-43.197744764495425
10
-16.072917710687584
20
-43.296529003515793
42
0.0091160426825380985
10
-14.483855441818076
20
-43.853689001360323
42
-0.32358306418007649
10
-7.6200000000241399
20
-53.349193059072832
10
-7.6200000000241417
20
-59.039679615604229
42
-0.2817335356394513
10
-13.070336872802493
20
-67.944766107536779
42
0.22057010756302967
10
-15.663739429810713
20
-71.257003891426933
10
-15.823044375810298
20
-71.937114440302608
42
-0.43420950999280622
10
-23.425839122576871
20
-76.304538801138477
42
-0.0047564363983106043
0
CIRCLE
5
101
100
AcDbEntity
8
0
100
AcDbCircle
10
42.405227192140671
20
-93.316915437571893
30
0
40
1.7499999999999893
210
0
220
-0
230
1
0
CIRCLE
5
102
100
AcDbEntity
8
0
100
AcDbCircle
10
-15.520848990904842
20
-39.208926160654123
30
0
40
1.749999999999998
210
0
220
-0
230
1
0
CIRCLE
5
103
100
AcDbEntity
8
0
100
AcDbCircle
10
15.520848990904778
20
-39.20892616065418
30
0
40
1.749999999999998
210
0
220
-0
230
1
0
CIRCLE
5
104
100
AcDbEntity
8
0
100
AcDbCircle
10
-42.405227192140529
20
-93.316915437571879
30
0
40
1.7499999999999893
210
0
220
-0
230
1
0
ENDSEC
0
SECTION
2
OBJECTS
0
DICTIONARY
5
C
100
AcDbDictionary
3
ACAD_GROUP
350
D
3
ACAD_MLINESTYLE
350
17
0
DICTIONARY
5
D
100
AcDbDictionary
0
DICTIONARY
5
1A
330
C
100
AcDbDictionary
0
DICTIONARY
5
17
100
AcDbDictionary
0
ENDSEC
0
EOF
