0
SECTION
2
HEADER
9
$INSUNITS
70
4
9
$ACADVER
1
AC1014
9
$HANDSEED
5
FFFF
0
ENDSEC
0
SECTION
2
TABLES
0
TABLE
2
VPORT
5
8
100
AcDbSymbolTable
0
ENDTAB
0
TABLE
2
LTYPE
5
5
100
AcDbSymbolTable
0
LTYPE
5
14
100
AcDbSymbolTableRecord
100
AcDbLinetypeTableRecord
2
BYBLOCK
70
0
0
LTYPE
5
15
100
AcDbSymbolTableRecord
100
AcDbLinetypeTableRecord
2
BYLAYER
70
0
0
ENDTAB
0
TABLE
2
LAYER
5
2
100
AcDbSymbolTable
70
2
0
LAYER
5
50
100
AcDbSymbolTableRecord
100
AcDbLayerTableRecord
2
0
70
0
6
CONTINUOUS
0
ENDTAB
0
TABLE
2
STYLE
5
3
100
AcDbSymbolTable
70
1
0
STYLE
5
11
100
AcDbSymbolTableRecord
100
AcDbTextStyleTableRecord
2
STANDARD
70
0
0
ENDTAB
0
TABLE
2
VIEW
5
6
100
AcDbSymbolTable
70
0
0
ENDTAB
0
TABLE
2
UCS
5
7
100
AcDbSymbolTable
70
0
0
ENDTAB
0
TABLE
2
APPID
5
9
100
AcDbSymbolTable
70
2
0
APPID
5
12
100
AcDbSymbolTableRecord
100
AcDbRegAppTableRecord
2
ACAD
70
0
0
ENDTAB
0
TABLE
2
DIMSTYLE
5
A
100
AcDbSymbolTable
70
1
0
ENDTAB
0
TABLE
2
BLOCK_RECORD
5
1
100
AcDbSymbolTable
70
1
0
BLOCK_RECORD
5
1F
100
AcDbSymbolTableRecord
100
AcDbBlockTableRecord
2
*MODEL_SPACE
0
BLOCK_RECORD
5
1B
100
AcDbSymbolTableRecord
100
AcDbBlockTableRecord
2
*PAPER_SPACE
0
ENDTAB
0
ENDSEC
0
SECTION
2
BLOCKS
0
BLOCK
5
20
100
AcDbEntity
100
AcDbBlockBegin
2
*MODEL_SPACE
0
ENDBLK
5
21
100
AcDbEntity
100
AcDbBlockEnd
0
BLOCK
5
1C
100
AcDbEntity
100
AcDbBlockBegin
2
*PAPER_SPACE
0
ENDBLK
5
1D
100
AcDbEntity
100
AcDbBlockEnd
0
ENDSEC
0
SECTION
2
ENTITIES
0
LWPOLYLINE
5
100
100
AcDbEntity
8
0
100
AcDbPolyline
90
19
70
1
43
0.0
10
4.9500000000000002
20
-7.0000000000000018
10
3.1500001971144225
20
-7.0000000000000018
10
-3.1499999072402725
20
-7.0000000000000018
10
-4.1499999072402716
20
-7.0000000000000018
10
-4.9500000000000002
20
-7.0000000000000018
10
-4.9500000000000002
20
-9.6748006431620638e-16
10
-2.5
20
-1.1102230246251565e-15
10
-1.5000000000000002
20
-1.1102230246251563e-15
10
-1.5000000000000002
20
-4.0000000000000018
10
-1.5000000000000002
20
-1.1102230246251563e-15
10
1.5000000000000002
20
-9.6748006431620638e-16
10
2.5
20
-9.7144514654701099e-16
10
4.9500000000000002
20
-9.6748006431620638e-16
10
7.4900000000000011
20
-1.1102230246251565e-15
10
7.4900000000000011
20
-7.0000000000000018
10
7.4900000000000011
20
-11.499999742954968
10
6.6899999072402716
20
-11.499999742954968
10
6.6899999072402716
20
-8.0000000000000053
42
0.41421356237309503
10
5.6899999072402725
20
-7.0000000000000018
0
ARC
5
101
100
AcDbEntity
8
0
100
AcDbCircle
10
-3.1499999072402707
20
-8.0000000000000036
30
0
40
1.0000000000000009
210
0
220
0
230
1
100
AcDbArc
50
90.000000000000099
51
180
0
LINE
5
102
100
AcDbEntity
8
0
100
AcDbLine
10
-4.1499999072402716
20
-8.0000000000000053
30
0
11
-4.1499999072402716
21
-11.499999742954968
31
0
0
LINE
5
103
100
AcDbEntity
8
0
100
AcDbLine
10
-4.9500000000000002
20
-11.499999742954968
30
0
11
-4.9500000000000002
21
-7.0000000000000018
31
0
0
LINE
5
104
100
AcDbEntity
8
0
100
AcDbLine
10
-4.1499999072402716
20
-11.499999742954968
30
0
11
-4.9500000000000002
21
-11.499999742954968
31
0
0
LINE
5
105
100
AcDbEntity
8
0
100
AcDbLine
10
-2.5
20
-4.0000000000000018
30
0
11
-2.5
21
-1.1102230246251565e-15
31
0
0
LINE
5
106
100
AcDbEntity
8
0
100
AcDbLine
10
-1.5000000000000002
20
-4.0000000000000018
30
-1.1102230246251563e-15
11
-2.5
21
-4.0000000000000018
31
0
0
LINE
5
107
100
AcDbEntity
8
0
100
AcDbLine
10
1.5000000000000002
20
-9.6748006431620638e-16
30
0
11
-1.5000000000000002
21
-1.1102230246251563e-15
31
0
0
CIRCLE
5
108
100
AcDbEntity
8
0
100
AcDbCircle
10
0
20
-9.1999997943639755
30
0
40
0.29999999329447746
210
0
220
0
230
1
0
CIRCLE
5
109
100
AcDbEntity
8
0
100
AcDbCircle
10
2.54
20
-9.1999997943639755
30
0
40
0.29999999999999993
210
0
220
0
230
1
0
LINE
5
110
100
AcDbEntity
8
0
100
AcDbLine
10
4.04
20
-1.1102230246251565e-15
30
0
11
4.04
21
-4.0000000000000018
31
-1.1102230246251563e-15
0
LINE
5
111
100
AcDbEntity
8
0
100
AcDbLine
10
5.04
20
-4.0000000000000018
30
0
11
5.04
21
-1.1102230246251565e-15
31
0
0
LINE
5
112
100
AcDbEntity
8
0
100
AcDbLine
10
4.04
20
-4.0000000000000018
30
-1.1102230246251563e-15
11
5.04
21
-4.0000000000000018
31
0
0
ENDSEC
0
SECTION
2
OBJECTS
0
DICTIONARY
5
C
100
AcDbDictionary
3
ACAD_GROUP
350
D
3
ACAD_MLINESTYLE
350
17
0
DICTIONARY
5
D
100
AcDbDictionary
0
DICTIONARY
5
1A
330
C
100
AcDbDictionary
0
DICTIONARY
5
17
100
AcDbDictionary
0
ENDSEC
0
EOF
