0
SECTION
2
HEADER
9
$INSUNITS
70
4
9
$ACADVER
1
AC1014
9
$HANDSEED
5
FFFF
0
ENDSEC
0
SECTION
2
TABLES
0
TABLE
2
VPORT
5
8
100
AcDbSymbolTable
0
ENDTAB
0
TABLE
2
LTYPE
5
5
100
AcDbSymbolTable
0
LTYPE
5
14
100
AcDbSymbolTableRecord
100
AcDbLinetypeTableRecord
2
BYBLOCK
70
0
0
LTYPE
5
15
100
AcDbSymbolTableRecord
100
AcDbLinetypeTableRecord
2
BYLAYER
70
0
0
ENDTAB
0
TABLE
2
LAYER
5
2
100
AcDbSymbolTable
70
2
0
LAYER
5
50
100
AcDbSymbolTableRecord
100
AcDbLayerTableRecord
2
0
70
0
6
CONTINUOUS
0
ENDTAB
0
TABLE
2
STYLE
5
3
100
AcDbSymbolTable
70
1
0
STYLE
5
11
100
AcDbSymbolTableRecord
100
AcDbTextStyleTableRecord
2
STANDARD
70
0
0
ENDTAB
0
TABLE
2
VIEW
5
6
100
AcDbSymbolTable
70
0
0
ENDTAB
0
TABLE
2
UCS
5
7
100
AcDbSymbolTable
70
0
0
ENDTAB
0
TABLE
2
APPID
5
9
100
AcDbSymbolTable
70
2
0
APPID
5
12
100
AcDbSymbolTableRecord
100
AcDbRegAppTableRecord
2
ACAD
70
0
0
ENDTAB
0
TABLE
2
DIMSTYLE
5
A
100
AcDbSymbolTable
70
1
0
ENDTAB
0
TABLE
2
BLOCK_RECORD
5
1
100
AcDbSymbolTable
70
1
0
BLOCK_RECORD
5
1F
100
AcDbSymbolTableRecord
100
AcDbBlockTableRecord
2
*MODEL_SPACE
0
BLOCK_RECORD
5
1B
100
AcDbSymbolTableRecord
100
AcDbBlockTableRecord
2
*PAPER_SPACE
0
ENDTAB
0
ENDSEC
0
SECTION
2
BLOCKS
0
BLOCK
5
20
100
AcDbEntity
100
AcDbBlockBegin
2
*MODEL_SPACE
0
ENDBLK
5
21
100
AcDbEntity
100
AcDbBlockEnd
0
BLOCK
5
1C
100
AcDbEntity
100
AcDbBlockBegin
2
*PAPER_SPACE
0
ENDBLK
5
1D
100
AcDbEntity
100
AcDbBlockEnd
0
ENDSEC
0
SECTION
2
ENTITIES
0
CIRCLE
5
100
100
AcDbEntity
8
0
100
AcDbCircle
10
-8.1499999999999968
20
-5.4499999999999975
30
0
40
0.59999999999999987
210
0
220
0
230
1
0
CIRCLE
5
101
100
AcDbEntity
8
0
100
AcDbCircle
10
-6.1499999999999977
20
-5.4499999999999975
30
0
40
0.64999999999999958
210
0
220
0
230
1
0
SPLINE
5
102
100
AcDbEntity
8
0
100
AcDbSpline
70
0
71
3
72
13
73
9
74
0
42
0.000000001
43
0.0000000001
44
0.0000000001
40
0
40
0
40
0
40
0
40
0.21864421373117199
40
0.40225340325713205
40
0.55534553703678358
40
0.67801343783551771
40
0.86200728390641357
40
1
40
1
40
1
40
1
10
-9.3915670955882327
20
-5.2112362132352903
30
0
10
-9.392778606876675
20
-5.2083053917133695
30
0
10
-9.3950074997915358
20
-5.2029133764781452
30
0
10
-9.3978511501425004
20
-5.1953777578995961
30
0
10
-9.4001208492575525
20
-5.1891108693912047
30
0
10
-9.4021685363782819
20
-5.1827714046492082
30
0
10
-9.4039433034043345
20
-5.1765334093690916
30
0
10
-9.4042712274024822
20
-5.171865108438273
30
0
10
-9.4044117647058805
20
-5.1698644301470553
30
0
0
SPLINE
5
103
100
AcDbEntity
8
0
100
AcDbSpline
70
0
71
3
72
17
73
13
74
0
42
0.000000001
43
0.0000000001
44
0.0000000001
40
0
40
0
40
0
40
0
40
0.059094703340434603
40
0.11211882940231142
40
0.17012714041370755
40
0.25233755795005902
40
0.36743214250096046
40
0.52183743260428561
40
0.6182892292774379
40
0.73065722644528186
40
0.85732845189100815
40
1
40
1
40
1
40
1
10
-9.4044117647058805
20
-5.1698644301470553
30
0
10
-9.4043375637277933
20
-5.1682173283843627
30
0
10
-9.4041967841598577
20
-5.1650923254466905
30
0
10
-9.4027516579163013
20
-5.16041897804112
30
0
10
-9.3986386085845872
20
-5.1566200255394348
30
0
10
-9.3919404330824641
20
-5.1539697093465788
30
0
10
-9.3822901980294127
20
-5.1520604298443304
30
0
10
-9.3721276699620137
20
-5.1509365497052517
30
0
10
-9.3620008023750998
20
-5.1503468275758522
30
0
10
-9.3526321291604457
20
-5.1503699528636107
30
0
10
-9.3419838696803623
20
-5.1498885869633195
30
0
10
-9.3344636946805952
20
-5.149961420102195
30
0
10
-9.3304802389705852
20
-5.1499999999999968
30
0
0
SPLINE
5
104
100
AcDbEntity
8
0
100
AcDbSpline
70
0
71
3
72
15
73
11
74
0
42
0.000000001
43
0.0000000001
44
0.0000000001
40
0
40
0
40
0
40
0
40
0.24331209576321394
40
0.43162935176887285
40
0.57732333449657458
40
0.69118760053467565
40
0.78214090098421518
40
0.85338335717579861
40
0.9241169321661209
40
1
40
1
40
1
40
1
10
-9.3304802389705852
20
-5.1499999999999968
30
0
10
-9.324108367124726
20
-5.1500898028024498
30
0
10
-9.3128048316150913
20
-5.1502491106465067
30
0
10
-9.2976773021536161
20
-5.1505855426968665
30
0
10
-9.2860084820353457
20
-5.1520519568428655
30
0
10
-9.2770734432261932
20
-5.154200515285269
30
0
10
-9.2703550322409924
20
-5.1571534987024084
30
0
10
-9.2658957572824256
20
-5.1614819504564071
30
0
10
-9.2630749775095786
20
-5.1664957267763887
30
0
10
-9.2617270477468736
20
-5.1700934047175977
30
0
10
-9.261029411764703
20
-5.1719554227941158
30
0
0
LINE
5
105
100
AcDbEntity
8
0
100
AcDbLine
10
-9.261029411764703
20
-5.1719554227941158
30
0
11
-9.2018841911764682
21
-5.3165326286764669
31
0
0
SPLINE
5
106
100
AcDbEntity
8
0
100
AcDbSpline
70
0
71
3
72
15
73
11
74
0
42
0.000000001
43
0.0000000001
44
0.0000000001
40
0
40
0
40
0
40
0
40
0.15925258392242647
40
0.30094924360593162
40
0.42859407557144474
40
0.54339500259314877
40
0.65224763660821317
40
0.76030426261890238
40
0.87414993025025167
40
1
40
1
40
1
40
1
10
-9.2018841911764682
20
-5.3165326286764669
30
0
10
-9.1984097246368233
20
-5.324327299088262
30
0
10
-9.1918438149901167
20
-5.3390573593912727
30
0
10
-9.1815728963201924
20
-5.3596058970263547
30
0
10
-9.1710176537476684
20
-5.3773283980623274
30
0
10
-9.1590431480207215
20
-5.3919597366140204
30
0
10
-9.1453778468354141
20
-5.4035285563365711
30
0
10
-9.1295374170591419
20
-5.4117568296528464
30
0
10
-9.1114350986925015
20
-5.4168560226964253
30
0
10
-9.0985654540138299
20
-5.4173747209938261
30
0
10
-9.0918083639705838
20
-5.4176470588235262
30
0
0
LINE
5
107
100
AcDbEntity
8
0
100
AcDbLine
10
-9.0918083639705856
20
-5.4176470588235262
30
0
11
-9.0507352941176435
21
-5.4176470588235262
31
0
0
LINE
5
108
100
AcDbEntity
8
0
100
AcDbLine
10
-9.0507352941176435
20
-5.4176470588235262
30
0
11
-9.0507352941176435
21
-5.1710592830882334
31
0
0
SPLINE
5
109
100
AcDbEntity
8
0
100
AcDbSpline
70
0
71
3
72
15
73
11
74
0
42
0.000000001
43
0.0000000001
44
0.0000000001
40
0
40
0
40
0
40
0
40
0.063923278574799999
40
0.1289526300138143
40
0.20286055919430643
40
0.29695990550163665
40
0.41838874056855446
40
0.5694548213830225
40
0.7623570574827756
40
0.99999999999999989
40
0.99999999999999989
40
0.99999999999999989
40
0.99999999999999989
10
-9.0507352941176435
20
-5.1710592830882334
30
0
10
-9.0505373646948666
20
-5.1694403553476542
30
0
10
-9.05013808105058
20
-5.166174487347698
30
0
10
-9.0475743244486893
20
-5.1615321445897671
30
0
10
-9.0428139971332797
20
-5.157831612864662
30
0
10
-9.035937035540929
20
-5.1551203106261934
30
0
10
-9.0268701952717088
20
-5.1530235729803922
30
0
10
-9.0152033035199928
20
-5.1511595604898908
30
0
10
-9.0004638354871744
20
-5.1502891804389597
30
0
10
-8.9895492249694886
20
-5.1501028478182391
30
0
10
-8.9835248161764678
20
-5.1499999999999968
30
0
0
SPLINE
5
110
100
AcDbEntity
8
0
100
AcDbSpline
70
0
71
3
72
15
73
11
74
0
42
0.000000001
43
0.0000000001
44
0.0000000001
40
0
40
0
40
0
40
0
40
0.23504244429461862
40
0.42706888165126333
40
0.58289335641200268
40
0.70501062715530582
40
0.79783403454310731
40
0.87065070617211304
40
0.93604873878573958
40
1
40
1
40
1
40
1
10
-8.9835248161764678
20
-5.1499999999999968
30
0
10
-8.9775993888411225
20
-5.1500999116184349
30
0
10
-8.9668329690440256
20
-5.1502814496520353
30
0
10
-8.9521510268291458
20
-5.1511976279155549
30
0
10
-8.9404225839776092
20
-5.1529960654397167
30
0
10
-8.9313080957701114
20
-5.155097291418004
30
0
10
-8.9245021387495598
20
-5.1578184257840745
30
0
10
-8.9199317456629714
20
-5.1615859658253713
30
0
10
-8.9173198674926066
20
-5.1661558260102733
30
0
10
-8.9170467808102565
20
-5.1694370308170097
30
0
10
-8.9169117647058798
20
-5.1710592830882334
30
0
0
LINE
5
111
100
AcDbEntity
8
0
100
AcDbLine
10
-8.9169117647058798
20
-5.1710592830882334
30
0
11
-8.9169117647058798
21
-5.7584788602941153
31
0
0
SPLINE
5
112
100
AcDbEntity
8
0
100
AcDbSpline
70
0
71
3
72
15
73
11
74
0
42
0.000000001
43
0.0000000001
44
0.0000000001
40
0
40
0
40
0
40
0
40
0.15689248525071406
40
0.29642299611864409
40
0.41785550533887733
40
0.53366387942418336
40
0.64734968907567325
40
0.76161618393129882
40
0.87769855297547317
40
1
40
1
40
1
40
1
10
-8.9169117647058798
20
-5.7584788602941153
30
0
10
-8.9170580914557416
20
-5.7618725266235895
30
0
10
-8.9173345522023215
20
-5.7682843107163837
30
0
10
-8.9192731070214304
20
-5.7771982084203231
30
0
10
-8.9230031652868291
20
-5.7845431143868877
30
0
10
-8.9280314302366968
20
-5.7903349466219858
30
0
10
-8.9341395033400648
20
-5.7946701940901848
30
0
10
-8.9409074484655342
20
-5.7978616771984761
30
0
10
-8.9483827535403346
20
-5.7996739155976851
30
0
10
-8.9535444013819543
20
-5.7998894310404756
30
0
10
-8.9561925551470551
20
-5.7999999999999963
30
0
0
LINE
5
113
100
AcDbEntity
8
0
100
AcDbLine
10
-8.9561925551470551
20
-5.7999999999999963
30
0
11
-9.124666819852937
21
-5.7999999999999963
31
0
0
SPLINE
5
114
100
AcDbEntity
8
0
100
AcDbSpline
70
0
71
3
72
13
73
9
74
0
42
0.000000001
43
0.0000000001
44
0.0000000001
40
0
40
0
40
0
40
0
40
0.16879910691976313
40
0.32324341824356945
40
0.46122607459678777
40
0.58283599539575948
40
0.80151499268967752
40
1
40
1
40
1
40
1
10
-9.124666819852937
20
-5.7999999999999963
30
0
10
-9.1287496818722431
20
-5.8000311902365409
30
0
10
-9.1365681964332506
20
-5.8000909182698237
30
0
10
-9.1477171646771431
20
-5.7996865403682936
30
0
10
-9.1577291366841838
20
-5.799471645313778
30
0
10
-9.1692790699114965
20
-5.7988284049314585
30
0
10
-9.1822879231935577
20
-5.7980486008620336
30
0
10
-9.1923278306018545
20
-5.7970431753389224
30
0
10
-9.1971047794117631
20
-5.7965647977941153
30
0
0
SPLINE
5
115
100
AcDbEntity
8
0
100
AcDbSpline
70
0
71
3
72
23
73
19
74
0
42
0.000000001
43
0.0000000001
44
0.0000000001
40
0
40
0
40
0
40
0
40
0.071940692172784981
40
0.14127522558474456
40
0.20802365920102683
40
0.27272742921042836
40
0.33490912382115795
40
0.39504139527182963
40
0.45376679363397238
40
0.51140852176469931
40
0.56826779520622361
40
0.62499741312864576
40
0.68257256651247256
40
0.74134496818021733
40
0.80142619355084876
40
0.86433148310926922
40
0.93015182960807163
40
1
40
1
40
1
40
1
10
-9.1971047794117631
20
-5.7965647977941153
30
0
10
-9.2034886756235927
20
-5.7955350402855546
30
0
10
-9.2160252018953965
20
-5.7935128297684493
30
0
10
-9.2342915688119085
20
-5.7894189540555772
30
0
10
-9.2514977850254265
20
-5.7839266582586646
30
0
10
-9.2677879375862346
20
-5.7777696362383093
30
0
10
-9.2829529730074754
20
-5.7704496695016063
30
0
10
-9.2968639640457269
20
-5.7619847761474885
30
0
10
-9.3098629488686289
20
-5.7528370215412803
30
0
10
-9.321316891121775
20
-5.7422441297907518
30
0
10
-9.3317625934237629
20
-5.7309079178211828
30
0
10
-9.3407322618616249
20
-5.7183685232584489
30
0
10
-9.3485676840834184
20
-5.7048988205944653
30
0
10
-9.3549460202985983
20
-5.6903498863369553
30
0
10
-9.3601243270217527
20
-5.6748262272232211
30
0
10
-9.3636396420477261
20
-5.6581929837404559
30
0
10
-9.365743369017526
20
-5.6404417965995801
30
0
10
-9.3660292740140392
20
-5.6282459002058847
30
0
10
-9.3661764705882327
20
-5.6219669117647033
30
0
0
SPLINE
5
116
100
AcDbEntity
8
0
100
AcDbSpline
70
0
71
3
72
21
73
17
74
0
42
0.000000001
43
0.0000000001
44
0.0000000001
40
0
40
0
40
0
40
0
40
0.07028478570946961
40
0.13699446357084466
40
0.2023031457695314
40
0.26473282900265616
40
0.32537593429426298
40
0.38471828975178113
40
0.44352056088334518
40
0.50161841110755201
40
0.55987929133400638
40
0.61884630066857438
40
0.67845686333791233
40
0.73913905768213328
40
0.86611612673989591
40
1
40
1
40
1
40
1
10
-9.3661764705882327
20
-5.6219669117647033
30
0
10
-9.3661266668196355
20
-5.6166339542185266
30
0
10
-9.3660295926023114
20
-5.6062393054917816
30
0
10
-9.3642106885282725
20
-5.5909886513483622
30
0
10
-9.3618127981872679
20
-5.5764322468930168
30
0
10
-9.3581871431120032
20
-5.5625955017046369
30
0
10
-9.3535766799439006
20
-5.5495351224867004
30
0
10
-9.3478212541914036
20
-5.5372417034484673
30
0
10
-9.3412749236457397
20
-5.5255794242775371
30
0
10
-9.3337963809850564
20
-5.5145754655201333
30
0
10
-9.3251829116916749
20
-5.504426373909542
30
0
10
-9.3157976528860846
20
-5.4948331912918489
30
0
10
-9.3054410400346157
20
-5.4859992478665545
30
0
10
-9.2901956895382298
20
-5.4750667631556453
30
0
10
-9.2687897366372258
20
-5.4631223675165943
30
0
10
-9.2501395490546212
20
-5.4564626172850801
30
0
10
-9.2405675551470541
20
-5.4530445772058789
30
0
0
SPLINE
5
117
100
AcDbEntity
8
0
100
AcDbSpline
70
0
71
3
72
15
73
11
74
0
42
0.000000001
43
0.0000000001
44
0.0000000001
40
0
40
0
40
0
40
0
40
0.10780295337424337
40
0.21565929216940985
40
0.32540710211544188
40
0.44255883889723047
40
0.56656921219047207
40
0.69895047726201198
40
0.84265362858057935
40
1
40
1
40
1
40
1
10
-9.2405675551470541
20
-5.4530445772058789
30
0
10
-9.2454572957014545
20
-5.4505610970015574
30
0
10
-9.2552391982732036
20
-5.4455929067412985
30
0
10
-9.2689022730479032
20
-5.4361876200184049
30
0
10
-9.2818541928496678
20
-5.4251071691474131
30
0
10
-9.2939383388710102
20
-5.411923003651812
30
0
10
-9.3050798827529384
20
-5.3965154305923777
30
0
10
-9.315754911411938
20
-5.3791884096081679
30
0
10
-9.3259061774580783
20
-5.3596146382126868
30
0
10
-9.332147119929358
20
-5.3456417543455084
30
0
10
-9.3354090073529363
20
-5.338338694852939
30
0
0
LINE
5
118
100
AcDbEntity
8
0
100
AcDbLine
10
-9.3354090073529363
20
-5.338338694852939
30
0
11
-9.3915670955882327
21
-5.2112362132352903
31
0
0
SPLINE
5
119
100
AcDbEntity
8
0
100
AcDbSpline
70
0
71
3
72
31
73
27
74
0
42
0.000000001
43
0.0000000001
44
0.0000000001
40
0
40
0
40
0
40
0
40
0.023877778894722628
40
0.046243501907993936
40
0.06849245893580963
40
0.090673671002207787
40
0.11359159097531679
40
0.13742083774894362
40
0.16260810719749955
40
0.18893914432794684
40
0.24512170431132727
40
0.30647992465022361
40
0.37081398761497575
40
0.43693702619282798
40
0.50405144652336664
40
0.57212921340303313
40
0.63941934427230207
40
0.70611503076061066
40
0.73940337193507644
40
0.77282533555577682
40
0.80713775051366543
40
0.84229010411262861
40
0.87845216314440522
40
0.91657926161564063
40
0.95709548196272021
40
0.99999999999999989
40
0.99999999999999989
40
0.99999999999999989
40
0.99999999999999989
10
-9.6615441176470558
20
-5.6377987132352905
30
0
10
-9.6616776921815699
20
-5.6343014153590056
30
0
10
-9.6619363826681859
20
-5.6275282853401727
30
0
10
-9.6642419917655751
20
-5.6177015840188194
30
0
10
-9.6681903206093622
20
-5.6087146041039375
30
0
10
-9.6735023430705809
20
-5.6003668607966492
30
0
10
-9.6801885527860385
20
-5.59277565410056
30
0
10
-9.6878933018254951
20
-5.5855941905358044
30
0
10
-9.6965036988904743
20
-5.5786758533372875
30
0
10
-9.7098658410525012
20
-5.5702853765514551
30
0
10
-9.7283919356718602
20
-5.5602457170525845
30
0
10
-9.7527122317888519
20
-5.5494042161338433
30
0
10
-9.7786092091981622
20
-5.5385894497526422
30
0
10
-9.8051171387419931
20
-5.5270491250066867
30
0
10
-9.831773652906147
20
-5.5144869063679538
30
0
10
-9.8577694657982455
20
-5.5002339176479111
30
0
10
-9.8824058363280685
20
-5.4837365345248905
30
0
10
-9.9004057092828432
20
-5.4669970779174317
30
0
10
-9.9132656485497268
20
-5.4522882011958282
30
0
10
-9.9218355989737503
20
-5.4402101836331109
30
0
10
-9.929402805966939
20
-5.4271810133691822
30
0
10
-9.9362376416092832
20
-5.4132969452736281
30
0
10
-9.941676605885732
20
-5.3981917444770691
30
0
10
-9.9454915021473074
20
-5.381805507856404
30
0
10
-9.947953732930447
20
-5.3641522988783832
30
0
10
-9.9481882222225959
20
-5.3519387683076971
30
0
10
-9.948308823529409
20
-5.3456571691176435
30
0
0
SPLINE
5
120
100
AcDbEntity
8
0
100
AcDbSpline
70
0
71
3
72
23
73
19
74
0
42
0.000000001
43
0.0000000001
44
0.0000000001
40
0
40
0
40
0
40
0
40
0.068776627517140712
40
0.13407817093902066
40
0.19681425145623216
40
0.25727951455235537
40
0.31640844382167166
40
0.37453658120796096
40
0.43200493401677204
40
0.48985358243561022
40
0.54875782287015562
40
0.60840482879759361
40
0.66936259860144032
40
0.73229729881341032
40
0.79712463252048082
40
0.86303912614724487
40
0.93085638692253303
40
0.99999999999999989
40
0.99999999999999989
40
0.99999999999999989
40
0.99999999999999989
10
-9.948308823529409
20
-5.3456571691176435
30
0
10
-9.9480880983900359
20
-5.3374300092279467
30
0
10
-9.9476578007142766
20
-5.3213913840458895
30
0
10
-9.944054516716081
20
-5.2980581476522461
30
0
10
-9.9378971938917182
20
-5.276327481019198
30
0
10
-9.9295601980975761
20
-5.2561110938076165
30
0
10
-9.9187755166862495
20
-5.2377405938188328
30
0
10
-9.9065478103044242
20
-5.220761303777623
30
0
10
-9.8925620320705825
20
-5.2053732990535497
30
0
10
-9.8767336758275412
20
-5.1917595448169154
30
0
10
-9.859403092102216
20
-5.1796774428193793
30
0
10
-9.8406398192065296
20
-5.1691755616513548
30
0
10
-9.8204963223530815
20
-5.1603882428429291
30
0
10
-9.7991275296028366
20
-5.1530567402405207
30
0
10
-9.7766295115005342
20
-5.1474377278879544
30
0
10
-9.7532077191385049
20
-5.1434707921367764
30
0
10
-9.7290661559456879
20
-5.1407802819928907
30
0
10
-9.7126812546429573
20
-5.1405549390643825
30
0
10
-9.7044094669117609
20
-5.1404411764705848
30
0
0
SPLINE
5
121
100
AcDbEntity
8
0
100
AcDbSpline
70
0
71
3
72
21
73
17
74
0
42
0.000000001
43
0.0000000001
44
0.0000000001
40
0
40
0
40
0
40
0
40
0.13570566108875606
40
0.2626154461844864
40
0.37953767086628337
40
0.48308267640970481
40
0.5744158078913667
40
0.65186992326177495
40
0.71530685433570473
40
0.76131732775658367
40
0.80201367450841132
40
0.85015440687126731
40
0.87953847337497093
40
0.91425040404588531
40
0.9543875341874557
40
0.99999999999999989
40
0.99999999999999989
40
0.99999999999999989
40
0.99999999999999989
10
-9.7044094669117609
20
-5.1404411764705848
30
0
10
-9.6934413643938644
20
-5.140661347366188
30
0
10
-9.6722160661017682
20
-5.1410874185965403
30
0
10
-9.641788955465886
20
-5.1454035363069721
30
0
10
-9.6144344576256469
20
-5.1517218097788415
30
0
10
-9.590234613459991
20
-5.1587769409679733
30
0
10
-9.5696824197175694
20
-5.166702243049718
30
0
10
-9.5529025510698524
20
-5.17519223243709
30
0
10
-9.5401701453431116
20
-5.1832690295062323
30
0
10
-9.5303040102622809
20
-5.1904947026979933
30
0
10
-9.5239515724551236
20
-5.1995910455145777
30
0
10
-9.5211166904403832
20
-5.2088265467549908
30
0
10
-9.5196741474995825
20
-5.217775679703001
30
0
10
-9.5188146956435027
20
-5.2261560504912108
30
0
10
-9.5181889900352949
20
-5.2358706878006469
30
0
10
-9.5181712180776579
20
-5.2427990153305881
30
0
10
-9.51816176470588
20
-5.246484374999997
30
0
0
SPLINE
5
122
100
AcDbEntity
8
0
100
AcDbSpline
70
0
71
3
72
15
73
11
74
0
42
0.000000001
43
0.0000000001
44
0.0000000001
40
0
40
0
40
0
40
0
40
0.2231352309072572
40
0.40787590016828962
40
0.55725459555504386
40
0.67764666580679755
40
0.77542662116976213
40
0.85275778633452171
40
0.92402088251075476
40
1
40
1
40
1
40
1
10
-9.51816176470588
20
-5.246484374999997
30
0
10
-9.5182218353843666
20
-5.2513650180135505
30
0
10
-9.5183316404651759
20
-5.2602864987427909
30
0
10
-9.5190226238241209
20
-5.2724526074890052
30
0
10
-9.5202126639689695
20
-5.2823514492715509
30
0
10
-9.5223432889957937
20
-5.2901103615818936
30
0
10
-9.5248039592887075
20
-5.2961565644096869
30
0
10
-9.528464861074756
20
-5.3002703615806537
30
0
10
-9.5329795680571081
20
-5.3025230729064301
30
0
10
-9.5362099264562055
20
-5.3027988641760606
30
0
10
-9.5378768382352916
20
-5.3029411764705845
30
0
0
SPLINE
5
123
100
AcDbEntity
8
0
100
AcDbSpline
70
0
71
3
72
19
73
15
74
0
42
0.000000001
43
0.0000000001
44
0.0000000001
40
0
40
0
40
0
40
0
40
0.022334344085785371
40
0.049250231104994498
40
0.083284632602299929
40
0.12370404349517852
40
0.22110876105912061
40
0.33865760122159216
40
0.47524938920571991
40
0.63129830163025102
40
0.71584552488465703
40
0.80476973477553249
40
0.89929994561318249
40
1
40
1
40
1
40
1
10
-9.5378768382352916
20
-5.3029411764705845
30
0
10
-9.5392330472717468
20
-5.3027956398705065
30
0
10
-9.5422236705117012
20
-5.3024747121029128
30
0
10
-9.5469849530253423
20
-5.3006096223354016
30
0
10
-9.552452015924711
20
-5.2977578261995797
30
0
10
-9.5612573548903192
20
-5.2921011196361514
30
0
10
-9.5743639907803963
20
-5.2837600459667424
30
0
10
-9.5931519360916653
20
-5.2734908751515954
30
0
10
-9.6158921630862046
20
-5.2631499488919502
30
0
10
-9.6375799912349827
20
-5.2555261017562502
30
0
10
-9.656975622460271
20
-5.2503918427441976
30
0
10
-9.6730540672766612
20
-5.2475579676825292
30
0
10
-9.6902869744029267
20
-5.2459465159812835
30
0
10
-9.7021656835420611
20
-5.2457101521180851
30
0
10
-9.7082927389705862
20
-5.2455882352941154
30
0
0
SPLINE
5
124
100
AcDbEntity
8
0
100
AcDbSpline
70
0
71
3
72
15
73
11
74
0
42
0.000000001
43
0.0000000001
44
0.0000000001
40
0
40
0
40
0
40
0
40
0.1546870675241061
40
0.2962309204571934
40
0.42478454467363247
40
0.54215320076641671
40
0.65340680512342852
40
0.76472122516812435
40
0.87946150304279247
40
1
40
1
40
1
40
1
10
-9.7082927389705862
20
-5.2455882352941154
30
0
10
-9.7161298236907161
20
-5.2458604212940765
30
0
10
-9.7311381036814382
20
-5.2463816666095022
30
0
10
-9.7523319968698026
20
-5.2506894006472296
30
0
10
-9.7707283433253007
20
-5.2577111241076055
30
0
10
-9.7864275560598024
20
-5.2669429084047419
30
0
10
-9.798889828349413
20
-5.2790693206476362
30
0
10
-9.8080239638260043
20
-5.2936800000118458
30
0
10
-9.8135207102201427
20
-5.3105823026288554
30
0
10
-9.8141585266939941
20
-5.3225164091550425
30
0
10
-9.814485294117647
20
-5.3286305147058801
30
0
0
SPLINE
5
125
100
AcDbEntity
8
0
100
AcDbSpline
70
0
71
3
72
29
73
25
74
0
42
0.000000001
43
0.0000000001
44
0.0000000001
40
0
40
0
40
0
40
0
40
0.024102538013802192
40
0.047099731177964212
40
0.069243372184206994
40
0.091690470568495608
40
0.13886762734994496
40
0.1895327073948361
40
0.24485554792016054
40
0.30516658175450029
40
0.36919611774503536
40
0.4353164625914156
40
0.50256488784500197
40
0.57002442794313479
40
0.63671721661143499
40
0.70261867684026225
40
0.73574944677878917
40
0.76948559075693046
40
0.80363558699877025
40
0.83892667849651947
40
0.87566960599017751
40
0.9142753337003936
40
0.95560668387489278
40
0.99999999999999989
40
0.99999999999999989
40
0.99999999999999989
40
0.99999999999999989
10
-9.814485294117647
20
-5.3286305147058801
30
0
10
-9.8143638007964995
20
-5.3321808890084483
30
0
10
-9.8141263858502992
20
-5.3391188170862458
30
0
10
-9.8116311085619365
20
-5.3490558166623003
30
0
10
-9.8077443651903646
20
-5.3582594884425729
30
0
10
-9.7999945741019765
20
-5.3693838955622377
30
0
10
-9.7874478691126754
20
-5.3820101938391076
30
0
10
-9.7690486036275068
20
-5.3951244706982298
30
0
10
-9.7475024219777477
20
-5.4067661638334332
30
0
10
-9.7233619070135404
20
-5.4175081977436292
30
0
10
-9.6975380403306684
20
-5.4283301630923733
30
0
10
-9.6708753942107091
20
-5.4397970654970038
30
0
10
-9.644210023440154
20
-5.452502629314834
30
0
10
-9.6182488474683581
20
-5.4667837386317526
30
0
10
-9.5938179553339342
20
-5.4833008472993638
30
0
10
-9.5758665482381033
20
-5.4999242104002608
30
0
10
-9.5630274416325918
20
-5.5146499773262843
30
0
10
-9.5543755878056444
20
-5.5267527057782324
30
0
10
-9.5467310671559407
20
-5.539875069682183
30
0
10
-9.5399511257683471
20
-5.5539541245730852
30
0
10
-9.5343118718907469
20
-5.569255369045071
30
0
10
-9.530536755394202
20
-5.5860231355336012
30
0
10
-9.5280620909237594
20
-5.6041691242754279
30
0
10
-9.5278371012377558
20
-5.616780304365049
30
0
10
-9.5277205882352902
20
-5.6233111213235256
30
0
0
SPLINE
5
126
100
AcDbEntity
8
0
100
AcDbSpline
70
0
71
3
72
23
73
19
74
0
42
0.000000001
43
0.0000000001
44
0.0000000001
40
0
40
0
40
0
40
0
40
0.069190946987876742
40
0.1345112784203446
40
0.19725990568787125
40
0.25796349918048828
40
0.31740631107806866
40
0.37572650283394632
40
0.43305938887160106
40
0.49080192427701647
40
0.54896203131480881
40
0.60858081402925757
40
0.66964916228731586
40
0.73319408168340006
40
0.79824925783753964
40
0.86416824843341133
40
0.93130287338338846
40
1
40
1
40
1
40
1
10
-9.5277205882352902
20
-5.6233111213235256
30
0
10
-9.5278955555536875
20
-5.6308421139344524
30
0
10
-9.5282357023316102
20
-5.6454828073773013
30
0
10
-9.5316198749218994
20
-5.6667308789387345
30
0
10
-9.5370565282762261
20
-5.686585149321095
30
0
10
-9.5449772408895477
20
-5.7048927829570619
30
0
10
-9.5545264702911936
20
-5.7218310513640089
30
0
10
-9.5657449635612188
20
-5.7372795594777841
30
0
10
-9.5786057380365328
20
-5.7511287919129419
30
0
10
-9.5928204005453352
20
-5.7635436632649579
30
0
10
-9.6084630084298404
20
-5.7745636438980883
30
0
10
-9.6255821389607519
20
-5.7838572589489035
30
0
10
-9.643878436147304
20
-5.7921097747106556
30
0
10
-9.6635904577266505
20
-5.7983064563640756
30
0
10
-9.6841303222106472
20
-5.8034303524544253
30
0
10
-9.70540395443801
20
-5.8069866558357042
30
0
10
-9.7272675381027245
20
-5.8091023219995996
30
0
10
-9.7420426359589563
20
-5.8094054938692032
30
0
10
-9.7495151654411742
20
-5.8095588235294091
30
0
0
SPLINE
5
127
100
AcDbEntity
8
0
100
AcDbSpline
70
0
71
3
72
25
73
21
74
0
42
0.000000001
43
0.0000000001
44
0.0000000001
40
0
40
0
40
0
40
0
40
0.10961858914917458
40
0.22003231777892762
40
0.32744511162205908
40
0.42953763002821915
40
0.52448783203493554
40
0.61135667359894141
40
0.64920287845988955
40
0.68154314905210278
40
0.70693115507993931
40
0.72754411393300866
40
0.75754838584089312
40
0.78004558170764127
40
0.8009019406936051
40
0.82680534910371806
40
0.8576936813007181
40
0.89598180845028119
40
0.94245285072227547
40
1
40
1
40
1
40
1
10
-9.7495151654411742
20
-5.8095588235294091
30
0
10
-9.7573920691226093
20
-5.8094144297501957
30
0
10
-9.773203013118513
20
-5.8091245948037713
30
0
10
-9.7965382971276398
20
-5.8059174055739415
30
0
10
-9.8191068690511756
20
-5.8015694680416683
30
0
10
-9.8402079520969536
20
-5.7957603799701785
30
0
10
-9.8594543674945463
20
-5.7889791346297867
30
0
10
-9.8738471396084115
20
-5.7824628944200738
30
0
10
-9.8837669381796047
20
-5.7770884013752921
30
0
10
-9.8896666820940045
20
-5.7735824150226156
30
0
10
-9.894346541384774
20
-5.7704395679711613
30
0
10
-9.8983913535759687
20
-5.7667431445624278
30
0
10
-9.9017136953245775
20
-5.7626792054144618
30
0
10
-9.9048479638231317
20
-5.7583914177244688
30
0
10
-9.906493710303355
20
-5.7536589443765118
30
0
10
-9.9080536921744429
20
-5.7483058596648764
30
0
10
-9.9089952674200852
20
-5.7415240974884139
30
0
10
-9.9097773602845258
20
-5.73325627063761
30
0
10
-9.9099452497297236
20
-5.7230310387936125
30
0
10
-9.9100278381145177
20
-5.7155630981758732
30
0
10
-9.9100735294117612
20
-5.711431525735291
30
0
0
SPLINE
5
128
100
AcDbEntity
8
0
100
AcDbSpline
70
0
71
3
72
15
73
11
74
0
42
0.000000001
43
0.0000000001
44
0.0000000001
40
0
40
0
40
0
40
0
40
0.2150541820812443
40
0.39725746968080311
40
0.54704830603752042
40
0.66986080589490005
40
0.76640106226730853
40
0.84580229598042422
40
0.91879080074204811
40
1
40
1
40
1
40
1
10
-9.9100735294117612
20
-5.711431525735291
30
0
10
-9.9100598430984412
20
-5.7069008972200352
30
0
10
-9.9100345611432328
20
-5.6985317225189638
30
0
10
-9.9094908596053575
20
-5.687008883358291
30
0
10
-9.9084389246324118
20
-5.6774901903513033
30
0
10
-9.907157816979975
20
-5.6697849287577986
30
0
10
-9.9049089834714241
20
-5.6638809664430534
30
0
10
-9.9019419741027832
20
-5.6594087206412773
30
0
10
-9.8974336327164814
20
-5.6569694622331426
30
0
10
-9.8941688611768335
20
-5.6567390140544163
30
0
10
-9.8924494485294083
20
-5.6566176470588205
30
0
0
SPLINE
5
129
100
AcDbEntity
8
0
100
AcDbSpline
70
0
71
3
72
19
73
15
74
0
42
0.000000001
43
0.0000000001
44
0.0000000001
40
0
40
0
40
0
40
0
40
0.021788276502836379
40
0.050042064601454404
40
0.086030300664956719
40
0.12996995204354819
40
0.23500973781586595
40
0.35790685053083066
40
0.4980981046121154
40
0.65295932999575912
40
0.73507205626201544
40
0.82091150087722087
40
0.90869213056667753
40
0.99999999999999989
40
0.99999999999999989
40
0.99999999999999989
40
0.99999999999999989
10
-9.8924494485294083
20
-5.6566176470588205
30
0
10
-9.8913423845569852
20
-5.6567169335892071
30
0
10
-9.8887997434803108
20
-5.656944969201243
30
0
10
-9.8847490796197839
20
-5.6586991976775591
30
0
10
-9.8798097486857266
20
-5.661060053235289
30
0
10
-9.87170029583055
20
-5.6658095903926355
30
0
10
-9.8597431271359532
20
-5.6726680734001986
30
0
10
-9.8432382326061383
20
-5.6814461581252393
30
0
10
-9.8237347449926578
20
-5.689808005738155
30
0
10
-9.8057013779302693
20
-5.6962907442778201
30
0
10
-9.7898381270345389
20
-5.7004106875274632
30
0
10
-9.7770772772373853
20
-5.7028250736135133
30
0
10
-9.7636828030987726
20
-5.7041573041200504
30
0
10
-9.7545960804483549
20
-5.704325838056528
30
0
10
-9.7499632352941177
20
-5.7044117647058803
30
0
0
SPLINE
5
130
100
AcDbEntity
8
0
100
AcDbSpline
70
0
71
3
72
15
73
11
74
0
42
0.000000001
43
0.0000000001
44
0.0000000001
40
0
40
0
40
0
40
0
40
0.16814664807900478
40
0.31537632053511466
40
0.4467520906648893
40
0.5648367201945611
40
0.67506185432787391
40
0.78304001659459188
40
0.89035032137636294
40
1
40
1
40
1
40
1
10
-9.7499632352941177
20
-5.7044117647058803
30
0
10
-9.7429673754714106
20
-5.704257027629005
30
0
10
-9.7298459213415214
20
-5.7039668023374981
30
0
10
-9.7116454558417118
20
-5.6999146529987037
30
0
10
-9.6961520985787288
20
-5.6940873996695407
30
0
10
-9.683472035231393
20
-5.6860339624650482
30
0
10
-9.6732938655102423
20
-5.6762220302354995
30
0
10
-9.6667477985916541
20
-5.6642622097650772
30
0
10
-9.6622289633929608
20
-5.6514103729073115
30
0
10
-9.6617740346540373
20
-5.6423684314098823
30
0
10
-9.6615441176470558
20
-5.6377987132352905
30
0
0
SPLINE
5
131
100
AcDbEntity
8
0
100
AcDbSpline
70
0
71
3
72
15
73
11
74
0
42
0.000000001
43
0.0000000001
44
0.0000000001
40
0
40
0
40
0
40
0
40
0.070885939774898141
40
0.14453048028586349
40
0.22502213017013742
40
0.32145415411223571
40
0.44252503291793899
40
0.59499745043641028
40
0.77959778902989485
40
1
40
1
40
1
40
1
10
-10.520434283088232
20
-5.7999999999999963
30
0
10
-10.521902386162292
20
-5.7999023616536114
30
0
10
-10.52489572508221
20
-5.7997032852621269
30
0
10
-10.529083836152074
20
-5.7974224237921392
30
0
10
-10.532621244666323
20
-5.7935990636798698
30
0
10
-10.535503815269561
20
-5.7881140074635464
30
0
10
-10.537401749044687
20
-5.7807157307871515
30
0
10
-10.539081357246173
20
-5.7714412314304155
30
0
10
-10.539844590758143
20
-5.7599836949108365
30
0
10
-10.539945231404246
20
-5.7516583865400852
30
0
10
-10.540000000000001
20
-5.7471277573529385
30
0
0
SPLINE
5
132
100
AcDbEntity
8
0
100
AcDbSpline
70
0
71
3
72
15
73
11
74
0
42
0.000000001
43
0.0000000001
44
0.0000000001
40
0
40
0
40
0
40
0
40
0.21585619527962679
40
0.3979202942933685
40
0.54750925567789399
40
0.67012315845211001
40
0.7699462385235778
40
0.85325153536156406
40
0.92783466071042497
40
1
40
1
40
1
40
1
10
-10.540000000000001
20
-5.7471277573529385
30
0
10
-10.539943592930408
20
-5.7427466933961382
30
0
10
-10.539839609268027
20
-5.734670417166261
30
0
10
-10.539091052913381
20
-5.7235571604065596
30
0
10
-10.537372302143122
20
-5.7144910560948254
30
0
10
-10.53547588994395
20
-5.7071472561196881
30
0
10
-10.532612388995709
20
-5.7015828287966377
30
0
10
-10.529136730363378
20
-5.6975670875386166
30
0
10
-10.524878181930973
20
-5.6953407574342227
30
0
10
-10.521899222539293
20
-5.6950137507057006
30
0
10
-10.520434283088234
20
-5.6948529411764683
30
0
0
LINE
5
133
100
AcDbEntity
8
0
100
AcDbLine
10
-10.520434283088234
20
-5.6948529411764683
30
0
11
-10.358382352941174
21
-5.6948529411764675
31
0
0
LINE
5
134
100
AcDbEntity
8
0
100
AcDbLine
10
-10.358382352941174
20
-5.6948529411764675
30
0
11
-10.358382352941174
21
-5.1710592830882334
31
0
0
SPLINE
5
135
100
AcDbEntity
8
0
100
AcDbSpline
70
0
71
3
72
15
73
11
74
0
42
0.000000001
43
0.0000000001
44
0.0000000001
40
0
40
0
40
0
40
0
40
0.062311232400174457
40
0.12767274220059671
40
0.20195817993853296
40
0.29733771057595049
40
0.41938678253574091
40
0.57317405777109331
40
0.76706160418437319
40
1
40
1
40
1
40
1
10
-10.358382352941174
20
-5.1710592830882334
30
0
10
-10.358177384821985
20
-5.1694922587190657
30
0
10
-10.357757414925182
20
-5.1662815005523548
30
0
10
-10.355225432782913
20
-5.1616742097564305
30
0
10
-10.350428868367169
20
-5.1580034058826749
30
0
10
-10.343630476509485
20
-5.1550657502320476
30
0
10
-10.334459954410942
20
-5.1530298323487225
30
0
10
-10.322752049010951
20
-5.1511664306403357
30
0
10
-10.308110077112044
20
-5.1502975494736338
30
0
10
-10.297345376584158
20
-5.1501050537185256
30
0
10
-10.29147058823529
20
-5.1499999999999968
30
0
0
SPLINE
5
136
100
AcDbEntity
8
0
100
AcDbSpline
70
0
71
3
72
15
73
11
74
0
42
0.000000001
43
0.0000000001
44
0.0000000001
40
0
40
0
40
0
40
0
40
0.23279570381688153
40
0.42459733554079981
40
0.5802393863597034
40
0.70221369423450053
40
0.79753479785382864
40
0.87177473026598384
40
0.93807142309871205
40
0.99999999999999989
40
0.99999999999999989
40
0.99999999999999989
40
0.99999999999999989
10
-10.29147058823529
20
-5.1499999999999968
30
0
10
-10.285595296501528
20
-5.1501015591968837
30
0
10
-10.2748793203268
20
-5.1502867935619978
30
0
10
-10.260243411314843
20
-5.1511917970594459
30
0
10
-10.248525171472236
20
-5.1530117849776316
30
0
10
-10.239319636047743
20
-5.1550711301926624
30
0
10
-10.232489479016847
20
-5.1579919563019736
30
0
10
-10.227757892486608
20
-5.1617201371986869
30
0
10
-10.224966846568144
20
-5.1662224346556567
30
0
10
-10.224691706910834
20
-5.1694840368051986
30
0
10
-10.224558823529408
20
-5.1710592830882334
30
0
0
LINE
5
137
100
AcDbEntity
8
0
100
AcDbLine
10
-10.22455882352941
20
-5.1710592830882316
30
0
11
-10.224558823529408
21
-5.6948529411764675
31
0
0
LINE
5
138
100
AcDbEntity
8
0
100
AcDbLine
10
-10.224558823529408
20
-5.6948529411764675
30
0
11
-10.06250689338235
21
-5.6948529411764675
31
0
0
SPLINE
5
139
100
AcDbEntity
8
0
100
AcDbSpline
70
0
71
3
72
15
73
11
74
0
42
0.000000001
43
0.0000000001
44
0.0000000001
40
0
40
0
40
0
40
0
40
0.076971586647516688
40
0.14935686085862657
40
0.23098835666759998
40
0.32965025985544211
40
0.45292281448591099
40
0.60202803299091689
40
0.78423212347106241
40
1
40
1
40
1
40
1
10
-10.06250689338235
20
-5.6948529411764675
30
0
10
-10.0609366008414
20
-5.6949931869293788
30
0
10
-10.05788958083361
20
-5.6952653219640856
30
0
10
-10.05364783927919
20
-5.6975847914016811
30
0
10
-10.050314522243255
20
-5.7015984168699756
30
0
10
-10.047694128160664
20
-5.7072148373370819
30
0
10
-10.045444967100529
20
-5.7144346411681335
30
0
10
-10.044134791033573
20
-5.7235946040200334
30
0
10
-10.043008043696229
20
-5.7346537060062772
30
0
10
-10.042964684475548
20
-5.742742349432759
30
0
10
-10.042941176470585
20
-5.7471277573529376
30
0
0
SPLINE
5
140
100
AcDbEntity
8
0
100
AcDbSpline
70
0
71
3
72
15
73
11
74
0
42
0.000000001
43
0.0000000001
44
0.0000000001
40
0
40
0
40
0
40
0
40
0.22031978830061552
40
0.40505735293168349
40
0.557068593168491
40
0.67879412029287123
40
0.77405902954944239
40
0.85286519241270031
40
0.92434205671395464
40
1
40
1
40
1
40
1
10
-10.042941176470585
20
-5.7471277573529376
30
0
10
-10.042962574639812
20
-5.751662734425075
30
0
10
-10.043001915117813
20
-5.7600002778777721
30
0
10
-10.044146193147903
20
-5.7714041037904815
30
0
10
-10.045413529335971
20
-5.7807726909420767
30
0
10
-10.047664959546601
20
-5.7880457329612947
30
0
10
-10.050305321549979
20
-5.7935824934283211
30
0
10
-10.05370041219787
20
-5.7974084221821922
30
0
10
-10.057873142415378
20
-5.7997749984906903
30
0
10
-10.060933323028348
20
-5.7999235919868832
30
0
10
-10.062506893382352
20
-5.7999999999999972
30
0
0
LINE
5
141
100
AcDbEntity
8
0
100
AcDbLine
10
-10.06250689338235
20
-5.7999999999999972
30
0
11
-10.520434283088232
21
-5.7999999999999963
31
0
0
SPLINE
5
142
100
AcDbEntity
8
0
100
AcDbSpline
70
0
71
3
72
15
73
11
74
0
42
0.000000001
43
0.0000000001
44
0.0000000001
40
0
40
0
40
0
40
0
40
0.078520636752977241
40
0.15474260882851662
40
0.23567982860932235
40
0.33383062455053109
40
0.45395397311072955
40
0.60247808978701867
40
0.78324617076175174
40
1
40
1
40
1
40
1
10
-10.128170955882352
20
5.4129411764705848
30
0
10
-10.129663713169002
20
5.4130205466316585
30
0
10
-10.132605527785341
20
5.4131769634195903
30
0
10
-10.136692642560774
20
5.4152687605992789
30
0
10
-10.1399609047594
20
5.4188876270463737
30
0
10
-10.142755738829754
20
5.42384845945696
30
0
10
-10.144692778809175
20
5.4305350862761612
30
0
10
-10.14620047206745
20
5.4388902606558993
30
0
10
-10.146920381119667
20
5.4491887691121068
30
0
10
-10.147009972629865
20
5.4566907179124593
30
0
10
-10.147058823529409
20
5.4607812499999966
30
0
0
SPLINE
5
143
100
AcDbEntity
8
0
100
AcDbSpline
70
0
71
3
72
15
73
11
74
0
42
0.000000001
43
0.0000000001
44
0.0000000001
40
0
40
0
40
0
40
0
40
0.21245107354859369
40
0.39200953355208823
40
0.5375853148272336
40
0.66216365718678571
40
0.76355430494692256
40
0.84799687814377556
40
0.92270577649334728
40
1
40
1
40
1
40
1
10
-10.147058823529409
20
5.4607812499999966
30
0
10
-10.147007324838826
20
5.4648717548227976
30
0
10
-10.146912300712396
20
5.4724194544450944
30
0
10
-10.14621591972308
20
5.4827640097145665
30
0
10
-10.144653712746539
20
5.4912980190915377
30
0
10
-10.142693163139469
20
5.4981929584998515
30
0
10
-10.140153607484571
20
5.5036538645853517
30
0
10
-10.136782829265149
20
5.5075023935674041
30
0
10
-10.132595047543846
20
5.5095930117267722
30
0
10
-10.129662280298499
20
5.5098628076460887
30
0
10
-10.128170955882352
20
5.5099999999999962
30
0
0
LINE
5
144
100
AcDbEntity
8
0
100
AcDbLine
10
-10.128170955882352
20
5.5099999999999971
30
0
11
-9.8485753676470562
21
5.5099999999999962
31
0
0
SPLINE
5
145
100
AcDbEntity
8
0
100
AcDbSpline
70
0
71
3
72
15
73
11
74
0
42
0.000000001
43
0.0000000001
44
0.0000000001
40
0
40
0
40
0
40
0
40
0.12352587472096932
40
0.24082821597692036
40
0.35411323738820971
40
0.46737528708243803
40
0.58369749285047556
40
0.70612308092129372
40
0.84445511719467181
40
1
40
1
40
1
40
1
10
-9.8485753676470562
20
5.5099999999999962
30
0
10
-9.8460865533042838
20
5.5098950209160762
30
0
10
-9.8412343171276735
20
5.5096903518493479
30
0
10
-9.8342202674364962
20
5.5080674235073861
30
0
10
-9.8279652115169664
20
5.5050227767645401
30
0
10
-9.8221413454803006
20
5.5012382454299189
30
0
10
-9.8173414864617925
20
5.4958823186107955
30
0
10
-9.8139849401090533
20
5.4889769244993838
30
0
10
-9.8121454229837468
20
5.4807287051080076
30
0
10
-9.8118964720687494
20
5.4748070448544484
30
0
10
-9.8117647058823518
20
5.4716727941176435
30
0
0
LINE
5
146
100
AcDbEntity
8
0
100
AcDbLine
10
-9.8117647058823501
20
5.4716727941176435
30
0
11
-9.8117647058823518
21
4.9294393382352908
31
0
0
SPLINE
5
147
100
AcDbEntity
8
0
100
AcDbSpline
70
0
71
3
72
15
73
11
74
0
42
0.000000001
43
0.0000000001
44
0.0000000001
40
0
40
0
40
0
40
0
40
0.063822909273488437
40
0.12837178967914475
40
0.20382119794447262
40
0.29826410582970037
40
0.42013628385075652
40
0.57564801460338333
40
0.76744095682104119
40
1
40
1
40
1
40
1
10
-9.8117647058823518
20
4.9294393382352908
30
0
10
-9.8118703929639661
20
4.9279306255622144
30
0
10
-9.8120829692938045
20
4.9248960389512479
30
0
10
-9.8148117738607592
20
4.9208125671932423
30
0
10
-9.8189900110062354
20
4.9171895120989655
30
0
10
-9.8254476642240629
20
4.9147490586012497
30
0
10
-9.8338717900972146
20
4.912744598104493
30
0
10
-9.8447165083567345
20
4.9111541509360013
30
0
10
-9.8582027553894278
20
4.9100340312402739
30
0
10
-9.8681034828539147
20
4.9100120477086406
30
0
10
-9.8735294117647072
20
4.9099999999999975
30
0
0
SPLINE
5
148
100
AcDbEntity
8
0
100
AcDbSpline
70
0
71
3
72
15
73
11
74
0
42
0.000000001
43
0.0000000001
44
0.0000000001
40
0
40
0
40
0
40
0
40
0.23664635213719731
40
0.42855830580365389
40
0.58027001853394045
40
0.70221782073756478
40
0.79671933238143022
40
0.87221555854989208
40
0.9358035237054475
40
1
40
1
40
1
40
1
10
-9.8735294117647072
20
4.9099999999999975
30
0
10
-9.8790467726150464
20
4.9100124876299986
30
0
10
-9.889038521049681
20
4.9100351022932243
30
0
10
-9.9025320278975553
20
4.911123792086201
30
0
10
-9.9132708403747056
20
4.9127768242193115
30
0
10
-9.9216194879672166
20
4.9147431618770065
30
0
10
-9.9280478207998186
20
4.9172005143516078
30
0
10
-9.9322865956953308
20
4.9207678186076835
30
0
10
-9.9347766893158393
20
4.9249516996105145
30
0
10
-9.9351210948488067
20
4.9279387172882805
30
0
10
-9.9352941176470573
20
4.9294393382352908
30
0
0
LINE
5
149
100
AcDbEntity
8
0
100
AcDbLine
10
-9.9352941176470573
20
4.9294393382352908
30
0
11
-9.9352941176470573
21
5.4129411764705848
31
0
0
LINE
5
150
100
AcDbEntity
8
0
100
AcDbLine
10
-9.9352941176470573
20
5.4129411764705848
30
0
11
-10.128170955882352
21
5.4129411764705848
31
0
0
SPLINE
5
151
100
AcDbEntity
8
0
100
AcDbSpline
70
0
71
3
72
15
73
11
74
0
42
0.000000001
43
0.0000000001
44
0.0000000001
40
0
40
0
40
0
40
0
40
0.0708859397749
40
0.14453048028587367
40
0.22502213017015413
40
0.32145415411225559
40
0.44252503291794432
40
0.59499745043640662
40
0.77959778902990351
40
1
40
1
40
1
40
1
10
-10.199586397058821
20
5.7299999999999951
30
0
10
-10.200941569127192
20
5.7300901277043526
30
0
10
-10.203704651207115
20
5.7302738905272612
30
0
10
-10.207570599886981
20
5.7323793011149418
30
0
10
-10.210835900053981
20
5.7359085566031922
30
0
10
-10.213496734456967
20
5.7409716854182555
30
0
10
-10.215248673326318
20
5.747800863888779
30
0
10
-10.216799080896919
20
5.7563619402180688
30
0
10
-10.217503604138736
20
5.7669381277746048
30
0
10
-10.217596503196681
20
5.7746230278091462
30
0
10
-10.217647058823527
20
5.7788051470588186
30
0
0
SPLINE
5
152
100
AcDbEntity
8
0
100
AcDbSpline
70
0
71
3
72
15
73
11
74
0
42
0.000000001
43
0.0000000001
44
0.0000000001
40
0
40
0
40
0
40
0
40
0.21585619527963418
40
0.39792029429337372
40
0.54750925567790487
40
0.67012315845209092
40
0.7699462385235617
40
0.8532515353615544
40
0.92783466071042309
40
1
40
1
40
1
40
1
10
-10.217647058823527
20
5.7788051470588186
30
0
10
-10.217594990759288
20
5.7828492060958645
30
0
10
-10.217499005840168
20
5.7903042303080561
30
0
10
-10.216808030743579
20
5.8005626211631709
30
0
10
-10.215221491571034
20
5.8089313328355372
30
0
10
-10.213470957233326
20
5.8157102251202808
30
0
10
-10.210827725588803
20
5.8208466195723254
30
0
10
-10.207619425312798
20
5.8245534576566538
30
0
10
-10.203688457529053
20
5.8266085315991702
30
0
10
-10.200938648859799
20
5.8269103839639627
30
0
10
-10.199586397058823
20
5.8270588235294083
30
0
0
LINE
5
153
100
AcDbEntity
8
0
100
AcDbLine
10
-10.199586397058823
20
5.8270588235294092
30
0
11
-10.049999999999999
21
5.8270588235294074
31
0
0
LINE
5
154
100
AcDbEntity
8
0
100
AcDbLine
10
-10.049999999999999
20
5.8270588235294074
30
0
11
-10.049999999999999
21
6.3105606617647014
31
0
0
SPLINE
5
155
100
AcDbEntity
8
0
100
AcDbSpline
70
0
71
3
72
15
73
11
74
0
42
0.000000001
43
0.0000000001
44
0.0000000001
40
0
40
0
40
0
40
0
40
0.06231123240017581
40
0.12767274220059679
40
0.20195817993851181
40
0.29733771057593977
40
0.41938678253573253
40
0.57317405777109343
40
0.76706160418438873
40
0.99999999999999989
40
0.99999999999999989
40
0.99999999999999989
40
0.99999999999999989
10
-10.049999999999999
20
6.3105606617647014
30
0
10
-10.049810798659205
20
6.3120071457977778
30
0
10
-10.049423134139079
20
6.3149709225670536
30
0
10
-10.047085919853911
20
6.3192238063786688
30
0
10
-10.04265832193169
20
6.3226122407236804
30
0
10
-10.03638288329382
20
6.3253239228627169
30
0
10
-10.027917785972093
20
6.3272032316780979
30
0
10
-10.017110488679787
20
6.328923294793527
30
0
10
-10.003594822311573
20
6.329725338947406
30
0
10
-9.993658175670447
20
6.3299030273367372
30
0
10
-9.9882352941176471
20
6.3299999999999965
30
0
0
SPLINE
5
156
100
AcDbEntity
8
0
100
AcDbSpline
70
0
71
3
72
15
73
11
74
0
42
0.000000001
43
0.0000000001
44
0.0000000001
40
0
40
0
40
0
40
0
40
0.23279570381686712
40
0.42459733554081353
40
0.58023938635971528
40
0.70221369423451541
40
0.79753479785383197
40
0.8717747302659663
40
0.93807142309871194
40
1
40
1
40
1
40
1
10
-9.9882352941176471
20
6.3299999999999965
30
0
10
-9.9828119479018653
20
6.3299062530490247
30
0
10
-9.9729202775867272
20
6.3297352674812259
30
0
10
-9.9594102077295439
20
6.3288998796374294
30
0
10
-9.9485933709517447
20
6.3272198907898689
30
0
10
-9.9400959536368347
20
6.3253189567452299
30
0
10
-9.9337911933006158
20
6.3226228095674006
30
0
10
-9.9294235749650177
20
6.3191814118165901
30
0
10
-9.9268472248864299
20
6.3150254449332355
30
0
10
-9.9265932498181471
20
6.3120147352567324
30
0
10
-9.9264705882352935
20
6.3105606617647014
30
0
0
LINE
5
157
100
AcDbEntity
8
0
100
AcDbLine
10
-9.9264705882352935
20
6.3105606617647014
30
0
11
-9.9264705882352917
21
5.8270588235294074
31
0
0
LINE
5
158
100
AcDbEntity
8
0
100
AcDbLine
10
-9.9264705882352917
20
5.8270588235294074
30
0
11
-9.7768841911764675
21
5.8270588235294074
31
0
0
SPLINE
5
159
100
AcDbEntity
8
0
100
AcDbSpline
70
0
71
3
72
15
73
11
74
0
42
0.000000001
43
0.0000000001
44
0.0000000001
40
0
40
0
40
0
40
0
40
0.076971586647519949
40
0.14935686085862437
40
0.23098835666759626
40
0.32965025985543667
40
0.45292281448589089
40
0.60202803299090291
40
0.78423212347105098
40
1
40
1
40
1
40
1
10
-9.7768841911764675
20
5.8270588235294074
30
0
10
-9.7754346903694351
20
5.8269293659113339
30
0
10
-9.7726220565160933
20
5.8266781643408372
30
0
10
-9.7687066027735465
20
5.824537115629207
30
0
10
-9.7656296947403867
20
5.8208322305815576
30
0
10
-9.7632108694333795
20
5.8156478424580671
30
0
10
-9.7611347207624775
20
5.8089834081524874
30
0
10
-9.7599253274699098
20
5.8005280578276555
30
0
10
-9.7588852530046655
20
5.7903196559941978
30
0
10
-9.7588452291086512
20
5.782853215908216
30
0
10
-9.758823529411762
20
5.7788051470588186
30
0
0
SPLINE
5
160
100
AcDbEntity
8
0
100
AcDbSpline
70
0
71
3
72
15
73
11
74
0
42
0.000000001
43
0.0000000001
44
0.0000000001
40
0
40
0
40
0
40
0
40
0.22031978830061114
40
0.40505735293169615
40
0.55706859316849511
40
0.67879412029287578
40
0.77405902954944528
40
0.85286519241270164
40
0.92434205671395131
40
1
40
1
40
1
40
1
10
-9.758823529411762
20
5.7788051470588186
30
0
10
-9.7588432815679713
20
5.7746190143768459
30
0
10
-9.7588795958553618
20
5.7669228204205076
30
0
10
-9.7599358524985114
20
5.756396211885705
30
0
10
-9.7611057012875122
20
5.7477482852842279
30
0
10
-9.763183944558854
20
5.7410347080357216
30
0
10
-9.7656212017927437
20
5.7359238522200053
30
0
10
-9.7687551316215639
20
5.7323922256779669
30
0
10
-9.7726068825915711
20
5.7302076937008941
30
0
10
-9.7754316646958515
20
5.7300705304736415
30
0
10
-9.7768841911764675
20
5.7299999999999951
30
0
0
LINE
5
161
100
AcDbEntity
8
0
100
AcDbLine
10
-9.7768841911764675
20
5.729999999999996
30
0
11
-10.199586397058821
21
5.7299999999999951
31
0
0
SPLINE
5
162
100
AcDbEntity
8
0
100
AcDbSpline
70
0
71
3
72
29
73
25
74
0
42
0.000000001
43
0.0000000001
44
0.0000000001
40
0
40
0
40
0
40
0
40
0.063006924522463481
40
0.12321615667870139
40
0.15402151487345597
40
0.18789917115959331
40
0.22482841141664892
40
0.26490056670831208
40
0.306619110731157
40
0.34961298832607723
40
0.39424938376895047
40
0.44059428595080458
40
0.48680743395488341
40
0.53210084401534274
40
0.57656953794316856
40
0.62082140455732682
40
0.66470690275164845
40
0.70896071002435923
40
0.7538197322619643
40
0.79991938227774295
40
0.84699967194786485
40
0.89560396512378626
40
0.9464972862727592
40
1
40
1
40
1
40
1
10
-4.993290441176466
20
4.9099999999999966
30
0
10
-5.0002780964815656
20
4.9100710273456736
30
0
10
-5.0139431346883212
20
4.9102099282144245
30
0
10
-5.0309907158259817
20
4.9113421441229761
30
0
10
-5.0447887934589497
20
4.9125616207238103
30
0
10
-5.0559454455979624
20
4.9141623284805789
30
0
10
-5.0680937328098139
20
4.9160579576475012
30
0
10
-5.081031289241186
20
4.9185029085627701
30
0
10
-5.0945313760156798
20
4.9215735514025587
30
0
10
-5.1082358061926492
20
4.9258682312950057
30
0
10
-5.1220146447830786
20
4.9314530963610128
30
0
10
-5.1357747246197496
20
4.9379582540098266
30
0
10
-5.14912416418262
20
4.9454480044316371
30
0
10
-5.1615208313733767
20
4.9540578201155494
30
0
10
-5.1731109864664218
20
4.9633964702534561
30
0
10
-5.183402849086943
20
4.9739395604557739
30
0
10
-5.1927292505049385
20
4.9852984014940827
30
0
10
-5.2009169350230628
20
4.9976028547418281
30
0
10
-5.2077871137969813
20
5.0109548111974149
30
0
10
-5.2136321802048124
20
5.0251275604120149
30
0
10
-5.2179980601898936
20
5.0402605617327261
30
0
10
-5.2211690946537761
20
5.0562162511518451
30
0
10
-5.2231280989648674
20
5.0730950351186941
30
0
10
-5.2233934301686809
20
5.084672959557853
30
0
10
-5.2235294117647015
20
5.0906066176470555
30
0
0
SPLINE
5
163
100
AcDbEntity
8
0
100
AcDbSpline
70
0
71
3
72
23
73
19
74
0
42
0.000000001
43
0.0000000001
44
0.0000000001
40
0
40
0
40
0
40
0
40
0.067149730058666299
40
0.13098745199331932
40
0.19202254676621064
40
0.25049525270282919
40
0.30727310189900431
40
0.36291848610074207
40
0.41793345618058142
40
0.47319619520213235
40
0.52916840631675754
40
0.58663829051211047
40
0.64615187940672691
40
0.70862262586355507
40
0.77482964648547614
40
0.84483722209021561
40
0.91990878878255289
40
1
40
1
40
1
40
1
10
-5.2235294117647015
20
5.0906066176470555
30
0
10
-5.2233672071350004
20
5.0987052387989653
30
0
10
-5.2230507982510446
20
5.1145030349840139
30
0
10
-5.2199180158059724
20
5.1374881912924311
30
0
10
-5.2150108150778332
20
5.1590621535925116
30
0
10
-5.2081762598167458
20
5.179245747588431
30
0
10
-5.1990395079323779
20
5.197750669864444
30
0
10
-5.1885359905321762
20
5.2150431658280416
30
0
10
-5.1757614186710308
20
5.2305016114219427
30
0
10
-5.1615743901493651
20
5.2447064334871287
30
0
10
-5.1454338042871317
20
5.2571745368629372
30
0
10
-5.1275172645379765
20
5.2679106421374087
30
0
10
-5.107939511139973
20
5.2771879525537884
30
0
10
-5.0865793720301458
20
5.2849262787598406
30
0
10
-5.0633673039636404
20
5.2909727886231028
30
0
10
-5.0382201668542166
20
5.2951545050693607
30
0
10
-5.011179822086981
20
5.2978401702184907
30
0
10
-4.9924700330916574
20
5.2981007758814966
30
0
10
-4.9828124999999961
20
5.298235294117644
30
0
0
LINE
5
164
100
AcDbEntity
8
0
100
AcDbLine
10
-4.9828124999999961
20
5.298235294117644
30
0
11
-4.9323529411764655
21
5.298235294117644
31
0
0
LINE
5
165
100
AcDbEntity
8
0
100
AcDbLine
10
-4.9323529411764655
20
5.298235294117644
30
0
11
-4.9323529411764655
21
5.4904227941176442
31
0
0
SPLINE
5
166
100
AcDbEntity
8
0
100
AcDbSpline
70
0
71
3
72
15
73
11
74
0
42
0.000000001
43
0.0000000001
44
0.0000000001
40
0
40
0
40
0
40
0
40
0.063872469402297349
40
0.12885013251105004
40
0.20269931625787344
40
0.29751871422087917
40
0.41885103204454494
40
0.5697970385648109
40
0.76254594706300172
40
1
40
1
40
1
40
1
10
-4.9323529411764655
20
5.4904227941176442
30
0
10
-4.9321700079738218
20
5.4919166736098379
30
0
10
-4.9318009762513642
20
5.4949302813868055
30
0
10
-4.929438105003241
20
5.4992237829931376
30
0
10
-4.9250115172156477
20
5.5026120921283539
30
0
10
-4.9187358664133862
20
5.5053248508114949
30
0
10
-4.910314416709463
20
5.5071883313886891
30
0
10
-4.8995576668277803
20
5.5089374700639464
30
0
10
-4.8859472990981123
20
5.5097303256970775
30
0
10
-4.8758730592883524
20
5.5099040895926743
30
0
10
-4.8703124999999954
20
5.5099999999999962
30
0
0
SPLINE
5
167
100
AcDbEntity
8
0
100
AcDbSpline
70
0
71
3
72
15
73
11
74
0
42
0.000000001
43
0.0000000001
44
0.0000000001
40
0
40
0
40
0
40
0
40
0.23504244429461774
40
0.42706888165125695
40
0.58289335641199591
40
0.70501062715530294
40
0.7978340345431012
40
0.87065070617210316
40
0.93604873878573536
40
1
40
1
40
1
40
1
10
-4.8703124999999954
20
5.5099999999999962
30
0
10
-4.8648428747673682
20
5.5099077738906699
30
0
10
-4.8549046411085106
20
5.5097402003211924
30
0
10
-4.8413520790640012
20
5.5088944973087131
30
0
10
-4.8305258241241287
20
5.5072344011325622
30
0
10
-4.8221124503941235
20
5.5052948079218353
30
0
10
-4.8158300285290059
20
5.5027829915839277
30
0
10
-4.8116112041413821
20
5.4993052623150342
30
0
10
-4.8092002396764331
20
5.4950869298366651
30
0
10
-4.8089481596619565
20
5.4920581253996756
30
0
10
-4.8088235294117601
20
5.490560661764702
30
0
0
LINE
5
168
100
AcDbEntity
8
0
100
AcDbLine
10
-4.8088235294117601
20
5.4905606617647003
30
0
11
-4.8088235294117601
21
4.9534283088235256
31
0
0
SPLINE
5
169
100
AcDbEntity
8
0
100
AcDbSpline
70
0
71
3
72
15
73
11
74
0
42
0.000000001
43
0.0000000001
44
0.0000000001
40
0
40
0
40
0
40
0
40
0.14971593697370073
40
0.28288141532776012
40
0.4038619150686093
40
0.51861989272133169
40
0.63369698787527995
40
0.74747433871448565
40
0.86840430709228555
40
1
40
1
40
1
40
1
10
-4.8088235294117601
20
4.9534283088235256
30
0
10
-4.8089237206079263
20
4.95001257501991
30
0
10
-4.8091130272906204
20
4.9435587022239922
30
0
10
-4.8113647675140916
20
4.9345740229919315
30
0
10
-4.8149339319875146
20
4.9268937917247628
30
0
10
-4.8200750426252617
20
4.9206833580988807
30
0
10
-4.8262870332038386
20
4.9158150124750355
30
0
10
-4.8335781205553134
20
4.9124887724140534
30
0
10
-4.8416970894167148
20
4.9103374595803482
30
0
10
-4.8474576345082419
20
4.9101156098894752
30
0
10
-4.8504595588235242
20
4.9099999999999966
30
0
0
LINE
5
170
100
AcDbEntity
8
0
100
AcDbLine
10
-4.8504595588235242
20
4.9099999999999966
30
0
11
-4.993290441176466
21
4.9099999999999966
31
0
0
SPLINE
5
171
100
AcDbEntity
8
0
100
AcDbSpline
70
0
71
3
72
13
73
9
74
0
42
0.000000001
43
0.0000000001
44
0.0000000001
40
0
40
0
40
0
40
0
40
0.21864421373115492
40
0.40225340325712178
40
0.55534553703676748
40
0.67801343783548684
40
0.86200728390639736
40
1
40
1
40
1
40
1
10
-5.2116727941176446
20
6.2734742647058814
30
0
10
-5.212791112230053
20
6.2761796384184256
30
0
10
-5.2148485518437715
20
6.2811568832509419
30
0
10
-5.2174734598600399
20
6.2881128388619025
30
0
10
-5.2195685667354752
20
6.2938976590235001
30
0
10
-5.2214587394623049
20
6.2997494726314951
30
0
10
-5.223096985947894
20
6.3055076221208353
30
0
10
-5.2233996850231046
20
6.3098168229800518
30
0
10
-5.2235294117647024
20
6.3116636029411755
30
0
0
SPLINE
5
172
100
AcDbEntity
8
0
100
AcDbSpline
70
0
71
3
72
17
73
13
74
0
42
0.000000001
43
0.0000000001
44
0.0000000001
40
0
40
0
40
0
40
0
40
0.059094703340436046
40
0.11211882940230096
40
0.17012714041369528
40
0.25233755795005763
40
0.36743214250096196
40
0.52183743260427518
40
0.61828922927743357
40
0.73065722644528142
40
0.85732845189099871
40
1
40
1
40
1
40
1
10
-5.2235294117647024
20
6.3116636029411755
30
0
10
-5.2234609185541627
20
6.3131840045682779
30
0
10
-5.2233309681837605
20
6.3160686226645879
30
0
10
-5.2219970054973972
20
6.3203824818081964
30
0
10
-5.2182003445758198
20
6.3238892071943607
30
0
10
-5.2120174133430899
20
6.3263356529108448
30
0
10
-5.2031095040633515
20
6.3280980647590752
30
0
10
-5.193728708924211
20
6.3291354925797627
30
0
10
-5.1843808311516772
20
6.3296798514684376
30
0
10
-5.1757328251073798
20
6.3296585050489726
30
0
10
-5.1659036625103774
20
6.330102842803087
30
0
10
-5.1589619625105954
20
6.3300356122133552
30
0
10
-5.1552849264705847
20
6.3299999999999992
30
0
0
SPLINE
5
173
100
AcDbEntity
8
0
100
AcDbSpline
70
0
71
3
72
15
73
11
74
0
42
0.000000001
43
0.0000000001
44
0.0000000001
40
0
40
0
40
0
40
0
40
0.24331209576320759
40
0.4316293517688804
40
0.57732333449659323
40
0.69118760053467532
40
0.78214090098421529
40
0.85338335717580271
40
0.92411693216612267
40
1
40
1
40
1
40
1
10
-5.1552849264705847
20
6.3299999999999992
30
0
10
-5.1494031986128688
20
6.3299171051054257
30
0
10
-5.1389691658347436
20
6.3297700517109128
30
0
10
-5.1250052924856861
20
6.3294594990490438
30
0
10
-5.1142340739149796
20
6.3281058859911941
30
0
10
-5.1059863457834522
20
6.3261226012751317
30
0
10
-5.099784735643266
20
6.3233967704285412
30
0
10
-5.0956684818353635
20
6.3194012765017726
30
0
10
-5.0930646851219619
20
6.3147731752833298
30
0
10
-5.0918204422640789
20
6.3114522417991381
30
0
10
-5.0911764705882323
20
6.3097334558823528
30
0
0
LINE
5
174
100
AcDbEntity
8
0
100
AcDbLine
10
-5.0911764705882323
20
6.3097334558823528
30
0
11
-5.0365808823529381
21
6.1762775735294104
31
0
0
SPLINE
5
175
100
AcDbEntity
8
0
100
AcDbSpline
70
0
71
3
72
15
73
11
74
0
42
0.000000001
43
0.0000000001
44
0.0000000001
40
0
40
0
40
0
40
0
40
0.15925258392242758
40
0.30094924360592906
40
0.42859407557144569
40
0.54339500259314988
40
0.65224763660821916
40
0.76030426261890793
40
0.87414993025025045
40
1
40
1
40
1
40
1
10
-5.0365808823529381
20
6.1762775735294104
30
0
10
-5.0333736824701925
20
6.1690824931492898
30
0
10
-5.0273128427963094
20
6.1554855144080474
30
0
10
-5.0178319947932994
20
6.1365176335141305
30
0
10
-5.0080886939571281
20
6.120158401788613
30
0
10
-4.9970353040553217
20
6.1066525508178255
30
0
10
-4.9844211798842757
20
6.0959736403046971
30
0
10
-4.9697992447061772
20
6.0883783110896728
30
0
10
-4.9530894123677385
20
6.0836713636648332
30
0
10
-4.9412097403566548
20
6.0831925652364642
30
0
10
-4.9349724264705843
20
6.0829411764705865
30
0
0
LINE
5
176
100
AcDbEntity
8
0
100
AcDbLine
10
-4.9349724264705843
20
6.0829411764705874
30
0
11
-4.8970588235294077
21
6.0829411764705865
31
0
0
LINE
5
177
100
AcDbEntity
8
0
100
AcDbLine
10
-4.8970588235294077
20
6.0829411764705865
30
0
11
-4.8970588235294077
21
6.3105606617647041
31
0
0
SPLINE
5
178
100
AcDbEntity
8
0
100
AcDbSpline
70
0
71
3
72
15
73
11
74
0
42
0.000000001
43
0.0000000001
44
0.0000000001
40
0
40
0
40
0
40
0
40
0.063923278574800957
40
0.1289526300138136
40
0.20286055919431847
40
0.29695990550164264
40
0.41838874056853981
40
0.56945482138300407
40
0.76235705748275895
40
1
40
1
40
1
40
1
10
-4.8970588235294077
20
6.3105606617647041
30
0
10
-4.8968761194468442
20
6.3120550566021603
30
0
10
-4.8965075499290416
20
6.3150697039867376
30
0
10
-4.8941410053734478
20
6.3193549434555951
30
0
10
-4.8897468570822991
20
6.3227708188941554
30
0
10
-4.8833988925355172
20
6.3252735594219693
30
0
10
-4.8750295015177745
20
6.327209009556559
30
0
10
-4.8642600629777304
20
6.3289296364708658
30
0
10
-4.8506544001782075
20
6.3297330642101857
30
0
10
-4.8405793750849559
20
6.329905063552391
30
0
10
-4.8350183823529385
20
6.3299999999999992
30
0
0
SPLINE
5
179
100
AcDbEntity
8
0
100
AcDbSpline
70
0
71
3
72
15
73
11
74
0
42
0.000000001
43
0.0000000001
44
0.0000000001
40
0
40
0
40
0
40
0
40
0.23504244429461774
40
0.42706888165125695
40
0.58289335641199591
40
0.70501062715530294
40
0.7978340345431012
40
0.87065070617210316
40
0.93604873878573536
40
1
40
1
40
1
40
1
10
-4.8350183823529385
20
6.3299999999999992
30
0
10
-4.8295487571203104
20
6.3299077738906711
30
0
10
-4.8196105234614519
20
6.3297402003211944
30
0
10
-4.8060579614169452
20
6.3288944973087133
30
0
10
-4.79523170647707
20
6.3272344011325643
30
0
10
-4.7868183327470657
20
6.3252948079218365
30
0
10
-4.7805359108819472
20
6.3227829915839298
30
0
10
-4.7763170864943252
20
6.3193052623150381
30
0
10
-4.7739061220293744
20
6.3150869298366654
30
0
10
-4.7736540420148996
20
6.3120581253996777
30
0
10
-4.7735294117647022
20
6.3105606617647041
30
0
0
LINE
5
180
100
AcDbEntity
8
0
100
AcDbLine
10
-4.7735294117647022
20
6.3105606617647023
30
0
11
-4.7735294117647022
21
5.7683272058823523
31
0
0
SPLINE
5
181
100
AcDbEntity
8
0
100
AcDbSpline
70
0
71
3
72
15
73
11
74
0
42
0.000000001
43
0.0000000001
44
0.0000000001
40
0
40
0
40
0
40
0
40
0.15689248525072519
40
0.29642299611865064
40
0.41785550533888399
40
0.53366387942417726
40
0.64734968907566448
40
0.76161618393129149
40
0.87769855297546862
40
1
40
1
40
1
40
1
10
-4.7735294117647022
20
5.7683272058823523
30
0
10
-4.7736644826107284
20
5.7651945908089903
30
0
10
-4.7739196771460382
20
5.7592760208771789
30
0
10
-4.7757091123636695
20
5.7510478076120028
30
0
10
-4.7791522430701914
20
5.7442678944120997
30
0
10
-4.7837937184085346
20
5.7389215877335449
30
0
10
-4.7894319397347163
20
5.7349198208398269
30
0
10
-4.7956792736966927
20
5.7319738364321733
30
0
10
-4.802579555304197
20
5.7303010009867483
30
0
10
-4.8073441533118499
20
5.7301020636549413
30
0
10
-4.8097886029411745
20
5.7299999999999986
30
0
0
LINE
5
182
100
AcDbEntity
8
0
100
AcDbLine
10
-4.8097886029411754
20
5.7299999999999995
30
0
11
-4.9653033088235254
21
5.7299999999999986
31
0
0
SPLINE
5
183
100
AcDbEntity
8
0
100
AcDbSpline
70
0
71
3
72
13
73
9
74
0
42
0.000000001
43
0.0000000001
44
0.0000000001
40
0
40
0
40
0
40
0
40
0.16879910691977526
40
0.3232434182435705
40
0.46122607459678183
40
0.58283599539577102
40
0.80151499268969484
40
1
40
1
40
1
40
1
10
-4.9653033088235254
20
5.7299999999999986
30
0
10
-4.9690721045336534
20
5.7299712090124197
30
0
10
-4.9762891948976584
20
5.7299160754432377
30
0
10
-4.9865805501997187
20
5.7302893473523362
30
0
10
-4.9958223705139018
20
5.7304877120180482
30
0
10
-5.0064838473391209
20
5.7310814723709544
30
0
10
-5.0184920195994867
20
5.7318012915119656
30
0
10
-5.0277596264379101
20
5.732729376610223
30
0
10
-5.0321691176470553
20
5.7331709558823505
30
0
0
SPLINE
5
184
100
AcDbEntity
8
0
100
AcDbSpline
70
0
71
3
72
23
73
19
74
0
42
0.000000001
43
0.0000000001
44
0.0000000001
40
0
40
0
40
0
40
0
40
0.071940692172792822
40
0.1412752255847502
40
0.20802365920102842
40
0.27272742921042625
40
0.33490912382116017
40
0.39504139527183318
40
0.45376679363397338
40
0.51140852176470442
40
0.5682677952062235
40
0.62499741312864521
40
0.68257256651247245
40
0.74134496818021622
40
0.80142619355084987
40
0.86433148310926922
40
0.93015182960807041
40
1
40
1
40
1
40
1
10
-5.0321691176470553
20
5.7331709558823505
30
0
10
-5.0380619449195141
20
5.7341215012748705
30
0
10
-5.0496341230165651
20
5.7359881571368128
30
0
10
-5.066495384785652
20
5.7397671193333082
30
0
10
-5.0823780459058234
20
5.7448369308381517
30
0
10
-5.0974151098081002
20
5.7505203357800161
30
0
10
-5.1114136040431006
20
5.7572772281523612
30
0
10
-5.1242545188476365
20
5.7650909758638509
30
0
10
-5.136253581761089
20
5.7735350570388118
30
0
10
-5.1468264515332232
20
5.7833131109623794
30
0
10
-5.1564686382735161
20
5.7937773066265947
30
0
10
-5.1647483322161598
20
5.80535213237681
30
0
10
-5.1719810296516613
20
5.8177857040666439
30
0
10
-5.1778687246195201
20
5.8312154895351132
30
0
10
-5.1826487000562764
20
5.8455450210247131
30
0
10
-5.1858936062341012
20
5.860898784239577
30
0
10
-5.1878355080523733
20
5.8772844954465375
30
0
10
-5.1880994203568465
20
5.8885422459637935
30
0
10
-5.1882352941176437
20
5.894338235294116
30
0
0
SPLINE
5
185
100
AcDbEntity
8
0
100
AcDbSpline
70
0
71
3
72
21
73
17
74
0
42
0.000000001
43
0.0000000001
44
0.0000000001
40
0
40
0
40
0
40
0
40
0.070284785709469902
40
0.13699446357084277
40
0.20230314576952979
40
0.26473282900265793
40
0.32537593429426209
40
0.38471828975178463
40
0.44352056088334796
40
0.50161841110755379
40
0.55987929133400194
40
0.61884630066857416
40
0.67845686333791089
40
0.73913905768213917
40
0.86611612673989868
40
1
40
1
40
1
40
1
10
-5.1882352941176437
20
5.894338235294116
30
0
10
-5.1881893214081725
20
5.8992609653367412
30
0
10
-5.1880997144383301
20
5.9088560256998877
30
0
10
-5.1864207260622948
20
5.9229335526015072
30
0
10
-5.184207288824445
20
5.9363702336372128
30
0
10
-5.1808605302934341
20
5.9491426138110981
30
0
10
-5.1766047181382593
20
5.9611983484738085
30
0
10
-5.1712920174436476
20
5.9725461198937193
30
0
10
-5.1652492507861103
20
5.9833113006668857
30
0
10
-5.1583459806377903
20
5.9934688010583343
30
0
10
-5.1503950859054362
20
6.0028371933142655
30
0
10
-5.1417317700848955
20
6.011692438807521
30
0
10
-5.13217181976046
20
6.0198468481231782
30
0
10
-5.1180991885330265
20
6.0299383724717064
30
0
10
-5.0983398473936372
20
6.0409639684462144
30
0
10
-5.0811242896250777
20
6.0471114301983855
30
0
10
-5.0722886029411729
20
6.0502665441176458
30
0
0
SPLINE
5
186
100
AcDbEntity
8
0
100
AcDbSpline
70
0
71
3
72
15
73
11
74
0
42
0.000000001
43
0.0000000001
44
0.0000000001
40
0
40
0
40
0
40
0
40
0.10780295337423856
40
0.21565929216940527
40
0.32540710211543949
40
0.44255883889722536
40
0.56656921219046785
40
0.69895047726200432
40
0.84265362858057657
40
1
40
1
40
1
40
1
10
-5.0722886029411729
20
6.0502665441176458
30
0
10
-5.0768022096067718
20
6.0525589873831738
30
0
10
-5.0858316581345386
20
6.0571450091618741
30
0
10
-5.0984437271573437
20
6.0658268122907
30
0
10
-5.1103993454358889
20
6.0760549207869987
30
0
10
-5.1215539417632865
20
6.0882249197060148
30
0
10
-5.1318384438081424
20
6.1024472948378019
30
0
10
-5.1416923164164494
20
6.1184414680539936
30
0
10
-5.1510627158436559
20
6.1365095647267491
30
0
10
-5.1568235858171452
20
6.1494076113733733
30
0
10
-5.1598345588235262
20
6.1561488970588218
30
0
0
LINE
5
187
100
AcDbEntity
8
0
100
AcDbLine
10
-5.1598345588235262
20
6.1561488970588218
30
0
11
-5.2116727941176446
21
6.2734742647058814
31
0
0
LWPOLYLINE
5
188
100
AcDbEntity
8
0
100
AcDbPolyline
90
8
70
1
43
0.0
10
-7.5499999999999989
20
6.3599999999999968
10
-7.549999999999998
20
4.8599999999999968
42
-0.41421356237309503
10
-7.799999999999998
20
4.6099999999999968
10
-9.2999999999999972
20
4.6099999999999959
42
-0.41421356237309503
10
-9.5499999999999972
20
4.8599999999999959
10
-9.5499999999999972
20
6.3599999999999968
42
-0.41421356237309243
10
-9.2999999999999972
20
6.6099999999999968
10
-7.799999999999998
20
6.6099999999999959
42
-0.41421356237309243
0
LWPOLYLINE
5
189
100
AcDbEntity
8
0
100
AcDbPolyline
90
8
70
1
43
0.0
10
-7.4499999999999966
20
4.8599999999999959
10
-7.4499999999999975
20
6.3599999999999968
42
-0.41421356237309243
10
-7.1999999999999975
20
6.6099999999999968
10
-5.6999999999999975
20
6.6099999999999959
42
-0.41421356237309115
10
-5.4499999999999975
20
6.3599999999999968
10
-5.4499999999999975
20
4.8599999999999968
42
-0.41421356237309309
10
-5.6999999999999975
20
4.6099999999999968
10
-7.1999999999999975
20
4.6099999999999968
42
-0.41421356237309503
0
LWPOLYLINE
5
190
100
AcDbEntity
8
0
100
AcDbPolyline
90
64
70
1
43
0.0
10
-10.650000000000002
20
-6.9499999999999957
42
0.41421356237309492
10
-8.6500000000000021
20
-8.9499999999999975
10
-8.6199999999999992
20
-8.9499999999999957
10
-8.6199999999999974
20
-7.6200000000000001
42
-0.99999999999999989
10
-6.6199999999999983
20
-7.6200000000000001
10
-6.620000000000001
20
-8.9499999999999957
10
-6.0800000000000018
20
-8.9499999999999957
10
-6.0799999999999974
20
-7.6200000000000001
42
-0.99999999999999989
10
-4.0799999999999983
20
-7.6200000000000001
10
-4.0800000000000001
20
-8.9499999999999957
10
-3.54
20
-8.9499999999999957
10
-3.5399999999999974
20
-7.6200000000000001
42
-0.99999999999999989
10
-1.5399999999999971
20
-7.6200000000000001
10
-1.5399999999999996
20
-8.9499999999999957
10
-1.0000000000000009
20
-8.9499999999999957
10
-0.99999999999999756
20
-7.6200000000000001
42
-0.99999999999999989
10
1.0000000000000027
20
-7.6200000000000001
10
1.0000000000000009
20
-8.9499999999999957
10
1.5399999999999996
20
-8.9499999999999957
10
1.5400000000000025
20
-7.6200000000000001
42
-0.99999999999999989
10
3.5400000000000031
20
-7.6200000000000001
10
3.54
20
-8.9499999999999957
10
4.0800000000000001
20
-8.9499999999999957
10
4.0800000000000036
20
-7.6200000000000001
42
-0.99999999999999989
10
6.0800000000000036
20
-7.6200000000000001
10
6.080000000000001
20
-8.9499999999999957
10
6.6200000000000001
20
-8.9499999999999957
10
6.6200000000000037
20
-7.6200000000000001
42
-0.99999999999999989
10
8.6200000000000028
20
-7.6200000000000001
10
8.6199999999999992
20
-8.9499999999999957
10
8.6500000000000004
20
-8.9499999999999957
42
0.41421356237309459
10
10.650000000000002
20
-6.9499999999999957
10
10.649999999999999
20
6.9499999999999957
42
0.41421356237309492
10
8.6500000000000004
20
8.9499999999999975
10
8.6199999999999992
20
8.9499999999999957
10
8.6199999999999992
20
7.6200000000000001
42
-0.99999999999999989
10
6.6200000000000001
20
7.6200000000000001
10
6.6200000000000028
20
8.9499999999999957
10
6.080000000000001
20
8.9499999999999957
10
6.0800000000000001
20
7.6200000000000001
42
-0.99999999999999989
10
4.0800000000000001
20
7.6200000000000001
10
4.0800000000000018
20
8.9499999999999957
10
3.54
20
8.9499999999999957
10
3.54
20
7.6200000000000001
42
-0.99999999999999989
10
1.5399999999999994
20
7.6200000000000001
10
1.5400000000000034
20
8.9499999999999957
10
0.99999999999999967
20
8.9499999999999957
10
0.99999999999999967
20
7.6200000000000001
42
-0.99999999999999989
10
-1.0000000000000004
20
7.6200000000000001
10
-0.99999999999999578
20
8.9499999999999957
10
-1.5400000000000005
20
8.9499999999999957
10
-1.5400000000000003
20
7.6200000000000001
42
-0.99999999999999989
10
-3.5400000000000009
20
7.6200000000000001
10
-3.5399999999999965
20
8.9499999999999957
10
-4.0800000000000001
20
8.9499999999999957
10
-4.0800000000000001
20
7.6200000000000001
42
-0.99999999999999989
10
-6.0800000000000001
20
7.6200000000000001
10
-6.079999999999993
20
8.9499999999999957
10
-6.620000000000001
20
8.9499999999999957
10
-6.620000000000001
20
7.6200000000000001
42
-0.99999999999999989
10
-8.6199999999999992
20
7.6200000000000001
10
-8.6199999999999903
20
8.9499999999999957
10
-8.6500000000000004
20
8.9499999999999957
42
0.41421356237309492
10
-10.649999999999999
20
6.9499999999999957
0
ARC
5
191
100
AcDbEntity
8
0
100
AcDbCircle
10
7.6200000000000037
20
-7.6200000000000001
30
0
40
0.99999999999999978
210
0
220
0
230
1
100
AcDbArc
50
0
51
180
0
LINE
5
192
100
AcDbEntity
8
0
100
AcDbLine
10
10.650000000000002
20
-6.9499999999999957
30
0
11
10.649999999999999
21
6.9499999999999957
31
0
0
LINE
5
193
100
AcDbEntity
8
0
100
AcDbLine
10
8.6500000000000004
20
-8.9499999999999957
30
0
11
-8.6199999999999992
21
-8.9499999999999957
31
0
0
LINE
5
194
100
AcDbEntity
8
0
100
AcDbLine
10
-8.6500000000000004
20
8.9499999999999957
30
0
11
8.6199999999999992
21
8.9499999999999957
31
0
0
ARC
5
195
100
AcDbEntity
8
0
100
AcDbCircle
10
8.6499999999999986
20
6.9499999999999957
30
0
40
2.0000000000000009
210
0
220
0
230
1
100
AcDbArc
50
0
51
90.859468924835809
0
ARC
5
196
100
AcDbEntity
8
0
100
AcDbCircle
10
8.6500000000000004
20
-6.949999999999994
30
0
40
2.0002249873451756
210
0
220
0
230
1
100
AcDbArc
50
-90.859372243644756
51
0.85937224364575882
0
ARC
5
197
100
AcDbEntity
8
0
100
AcDbCircle
10
-8.6500000000000004
20
-6.9499999999999957
30
0
40
2.0002249873452023
210
0
220
0
230
1
100
AcDbArc
50
179.14062775630165
51
270.85937224364471
0
ARC
5
198
100
AcDbEntity
8
0
100
AcDbCircle
10
-8.6500000000000004
20
6.9499999999999948
30
0
40
1.9999999999999996
210
0
220
-0
230
1
100
AcDbArc
50
89.140531075163935
51
180
0
LINE
5
199
100
AcDbEntity
8
0
100
AcDbLine
10
8.6500000000000004
20
-8.9499999999999957
30
0
11
8.6199999999999992
21
-8.9499999999999957
31
0
0
LINE
5
200
100
AcDbEntity
8
0
100
AcDbLine
10
8.6199999999999992
20
-8.9499999999999957
30
0
11
8.6200000000000028
21
-7.6200000000000001
31
0
0
LINE
5
201
100
AcDbEntity
8
0
100
AcDbLine
10
6.6200000000000001
20
-8.9499999999999957
30
0
11
6.6200000000000037
21
-7.6200000000000001
31
0
0
LINE
5
202
100
AcDbEntity
8
0
100
AcDbLine
10
4.0800000000000001
20
-8.9499999999999957
30
0
11
4.0800000000000036
21
-7.6200000000000001
31
0
0
ARC
5
203
100
AcDbEntity
8
0
100
AcDbCircle
10
5.0800000000000036
20
-7.6200000000000001
30
0
40
0.99999999999999978
210
0
220
0
230
1
100
AcDbArc
50
0
51
180
0
LINE
5
204
100
AcDbEntity
8
0
100
AcDbLine
10
6.0800000000000001
20
-8.9499999999999957
30
0
11
6.0800000000000036
21
-7.6200000000000001
31
0
0
LINE
5
205
100
AcDbEntity
8
0
100
AcDbLine
10
3.54
20
-8.9499999999999957
30
0
11
3.5400000000000031
21
-7.6200000000000001
31
0
0
ARC
5
206
100
AcDbEntity
8
0
100
AcDbCircle
10
2.5400000000000036
20
-7.6200000000000001
30
0
40
0.99999999999999978
210
0
220
0
230
1
100
AcDbArc
50
0
51
180
0
LINE
5
207
100
AcDbEntity
8
0
100
AcDbLine
10
1.5400000000000003
20
-8.9499999999999957
30
0
11
1.5400000000000036
21
-7.6200000000000001
31
0
0
LINE
5
208
100
AcDbEntity
8
0
100
AcDbLine
10
0.99999999999999978
20
-8.9499999999999957
30
0
11
1.0000000000000031
21
-7.6200000000000001
31
0
0
ARC
5
209
100
AcDbEntity
8
0
100
AcDbCircle
10
3.3306690738754696e-15
20
-7.6200000000000001
30
0
40
0.99999999999999978
210
0
220
0
230
1
100
AcDbArc
50
0
51
180
0
LINE
5
210
100
AcDbEntity
8
0
100
AcDbLine
10
-0.99999999999999978
20
-8.9499999999999957
30
0
11
-0.99999999999999645
21
-7.6200000000000001
31
0
0
LINE
5
211
100
AcDbEntity
8
0
100
AcDbLine
10
-8.6199999999999992
20
-8.9499999999999957
30
0
11
-8.6199999999999974
21
-7.6200000000000001
31
0
0
ARC
5
212
100
AcDbEntity
8
0
100
AcDbCircle
10
-7.6199999999999966
20
-7.6200000000000001
30
0
40
0.99999999999999978
210
0
220
0
230
1
100
AcDbArc
50
0
51
180
0
LINE
5
213
100
AcDbEntity
8
0
100
AcDbLine
10
-6.6200000000000001
20
-8.9499999999999957
30
0
11
-6.6199999999999974
21
-7.6200000000000001
31
0
0
LINE
5
214
100
AcDbEntity
8
0
100
AcDbLine
10
-6.0800000000000001
20
-8.9499999999999957
30
0
11
-6.0799999999999965
21
-7.6200000000000001
31
0
0
ARC
5
215
100
AcDbEntity
8
0
100
AcDbCircle
10
-5.0799999999999965
20
-7.6200000000000001
30
0
40
0.99999999999999978
210
0
220
0
230
1
100
AcDbArc
50
0
51
180
0
LINE
5
216
100
AcDbEntity
8
0
100
AcDbLine
10
-4.0800000000000001
20
-8.9499999999999957
30
0
11
-4.0799999999999965
21
-7.6200000000000001
31
0
0
LINE
5
217
100
AcDbEntity
8
0
100
AcDbLine
10
-3.54
20
-8.9499999999999957
30
0
11
-3.5399999999999965
21
-7.6200000000000001
31
0
0
ARC
5
218
100
AcDbEntity
8
0
100
AcDbCircle
10
-2.5399999999999965
20
-7.6200000000000001
30
0
40
0.99999999999999978
210
0
220
0
230
1
100
AcDbArc
50
0
51
180
0
LINE
5
219
100
AcDbEntity
8
0
100
AcDbLine
10
-1.5400000000000003
20
-8.9499999999999957
30
0
11
-1.5399999999999969
21
-7.6200000000000001
31
0
0
LINE
5
220
100
AcDbEntity
8
0
100
AcDbLine
10
8.6199999999999992
20
8.9499999999999957
30
0
11
8.6200000000000028
21
7.6200000000000001
31
0
0
LINE
5
221
100
AcDbEntity
8
0
100
AcDbLine
10
6.6200000000000001
20
8.9499999999999957
30
0
11
6.6200000000000037
21
7.6200000000000001
31
0
0
ARC
5
222
100
AcDbEntity
8
0
100
AcDbCircle
10
7.6200000000000037
20
7.6200000000000001
30
0
40
0.99999999999999978
210
0
220
0
230
1
100
AcDbArc
50
-180
51
0
0
LINE
5
223
100
AcDbEntity
8
0
100
AcDbLine
10
6.0800000000000001
20
8.9499999999999957
30
0
11
6.0800000000000036
21
7.6200000000000001
31
0
0
ARC
5
224
100
AcDbEntity
8
0
100
AcDbCircle
10
5.0800000000000036
20
7.6200000000000001
30
0
40
0.99999999999999978
210
0
220
0
230
1
100
AcDbArc
50
-180
51
0
0
LINE
5
225
100
AcDbEntity
8
0
100
AcDbLine
10
4.0800000000000001
20
8.9499999999999957
30
0
11
4.0800000000000036
21
7.6200000000000001
31
0
0
LINE
5
226
100
AcDbEntity
8
0
100
AcDbLine
10
3.54
20
8.9499999999999957
30
0
11
3.5400000000000031
21
7.6200000000000001
31
0
0
ARC
5
227
100
AcDbEntity
8
0
100
AcDbCircle
10
2.5400000000000036
20
7.6200000000000001
30
0
40
0.99999999999999978
210
0
220
0
230
1
100
AcDbArc
50
-180
51
0
0
LINE
5
228
100
AcDbEntity
8
0
100
AcDbLine
10
1.5400000000000003
20
8.9499999999999957
30
0
11
1.5400000000000036
21
7.6200000000000001
31
0
0
LINE
5
229
100
AcDbEntity
8
0
100
AcDbLine
10
0.99999999999999978
20
8.9499999999999957
30
0
11
1.0000000000000031
21
7.6200000000000001
31
0
0
LINE
5
230
100
AcDbEntity
8
0
100
AcDbLine
10
-1.0000000000000009
20
8.9499999999999957
30
0
11
-0.99999999999999645
21
7.6200000000000001
31
0
0
ARC
5
231
100
AcDbEntity
8
0
100
AcDbCircle
10
4.4408920985006262e-15
20
7.6200000000000001
30
0
40
1.0000000000000009
210
0
220
0
230
1
100
AcDbArc
50
-180
51
0
0
LINE
5
232
100
AcDbEntity
8
0
100
AcDbLine
10
-1.5399999999999991
20
8.9499999999999957
30
0
11
-1.5399999999999969
21
7.6200000000000001
31
0
0
ARC
5
233
100
AcDbEntity
8
0
100
AcDbCircle
10
-2.5399999999999956
20
7.6200000000000001
30
0
40
1.0000000000000009
210
0
220
0
230
1
100
AcDbArc
50
-180
51
0
0
LINE
5
234
100
AcDbEntity
8
0
100
AcDbLine
10
-3.5400000000000009
20
8.9499999999999957
30
0
11
-3.5399999999999965
21
7.6200000000000001
31
0
0
LINE
5
235
100
AcDbEntity
8
0
100
AcDbLine
10
-4.0799999999999992
20
8.9499999999999957
30
0
11
-4.0799999999999965
21
7.6200000000000001
31
0
0
ARC
5
236
100
AcDbEntity
8
0
100
AcDbCircle
10
-5.0799999999999956
20
7.6200000000000001
30
0
40
1.0000000000000009
210
0
220
0
230
1
100
AcDbArc
50
-180
51
0
0
LINE
5
237
100
AcDbEntity
8
0
100
AcDbLine
10
-6.080000000000001
20
8.9499999999999957
30
0
11
-6.0799999999999965
21
7.6200000000000001
31
0
0
LINE
5
238
100
AcDbEntity
8
0
100
AcDbLine
10
-6.6199999999999992
20
8.9499999999999957
30
0
11
-6.6199999999999974
21
7.6200000000000001
31
0
0
ARC
5
239
100
AcDbEntity
8
0
100
AcDbCircle
10
-7.6199999999999957
20
7.6200000000000001
30
0
40
1.0000000000000009
210
0
220
0
230
1
100
AcDbArc
50
-180
51
0
0
LINE
5
240
100
AcDbEntity
8
0
100
AcDbLine
10
-8.620000000000001
20
8.9499999999999957
30
0
11
-8.6199999999999974
21
7.6200000000000001
31
0
0
LINE
5
241
100
AcDbEntity
8
0
100
AcDbLine
10
9.4200004474259913
20
-6.0000002849847078
30
0
11
9.6500004583504051
21
-6.0000002849847078
31
0
0
LINE
5
242
100
AcDbEntity
8
0
100
AcDbLine
10
9.6500004583504051
20
-5.7800002745352685
30
0
11
9.6500004583504051
21
-6.0000002849847078
31
0
0
LINE
5
243
100
AcDbEntity
8
0
100
AcDbLine
10
-2.7500001306179911
20
5.7600002735853195
30
0
11
-2.7500001306179911
21
6.0000002849847078
31
0
0
LINE
5
244
100
AcDbEntity
8
0
100
AcDbLine
10
-2.5200001196935773
20
6.0000002849847078
30
0
11
-2.7500001306179911
21
6.0000002849847078
31
0
0
LWPOLYLINE
5
245
100
AcDbEntity
8
0
100
AcDbPolyline
90
4
70
1
43
0.0
10
-2.7500001306179911
20
6.0000002849847078
10
9.6500004583504051
20
6.0000002849847078
10
9.6500004583504051
20
-6.0000002849847078
10
-2.7500001306179911
20
-6.0000002849847078
0
CIRCLE
5
246
100
AcDbEntity
8
0
100
AcDbCircle
10
-6.1499999999999977
20
-5.4499999999999975
30
0
40
0.64999999999999947
210
0
220
0
230
1
0
CIRCLE
5
247
100
AcDbEntity
8
0
100
AcDbCircle
10
-8.1499999999999968
20
-5.4499999999999975
30
0
40
0.59999999999999942
210
0
220
0
230
1
0
LWPOLYLINE
5
248
100
AcDbEntity
8
0
100
AcDbPolyline
90
4
70
1
43
0.0
10
-4.5499998982995749
20
-4.4999998994171619
10
-4.5499998982995749
20
4.4999998994171619
10
-11.950000567594543
20
4.4999998994171619
10
-11.950000567594543
20
-4.4999998994171619
0
LINE
5
249
100
AcDbEntity
8
0
100
AcDbLine
10
-10.650000000000002
20
-6.9499999999999957
30
0
11
-10.650000000000002
21
-4.4999998994171619
31
0
0
LINE
5
250
100
AcDbEntity
8
0
100
AcDbLine
10
-10.649999999999999
20
4.4999998994171619
30
0
11
-10.649999999999999
21
6.9499999999999957
31
0
0
LWPOLYLINE
5
251
100
AcDbEntity
8
0
100
AcDbPolyline
90
4
70
1
43
0.0
10
-5.1499998848885298
20
-1.4999999664723873
10
-5.9499998670071363
20
-1.4999999664723873
10
-5.9499998670071363
20
-0.4999999888241291
10
-5.1499998848885298
20
-0.4999999888241291
0
LWPOLYLINE
5
252
100
AcDbEntity
8
0
100
AcDbPolyline
90
4
70
1
43
0.0
10
-5.3499998804181814
20
-2.9999999329447746
10
-4.5499998982995749
20
-2.9999999329447746
10
-4.5499998982995749
20
-1.9999999552965164
10
-5.3499998804181814
20
-1.9999999552965164
0
LWPOLYLINE
5
253
100
AcDbEntity
8
0
100
AcDbPolyline
90
4
70
1
43
0.0
10
-6.1999998614192009
20
-1.8499999586492777
10
-6.1999998614192009
20
-1.1499999742954969
42
0.99999999999999989
10
-6.69999985024333
20
-1.1499999742954969
10
-6.69999985024333
20
-1.8499999586492777
42
0.99999999999999989
0
LWPOLYLINE
5
254
100
AcDbEntity
8
0
100
AcDbPolyline
90
4
70
1
43
0.0
10
-5.9499998670071363
20
0.4999999888241291
10
-5.1499998848885298
20
0.4999999888241291
10
-5.1499998848885298
20
1.4999999664723873
10
-5.9499998670071363
20
1.4999999664723873
0
LWPOLYLINE
5
255
100
AcDbEntity
8
0
100
AcDbPolyline
90
4
70
1
43
0.0
10
-6.69999985024333
20
1.1499999742954969
10
-6.69999985024333
20
1.8499999586492777
42
-0.99999999999999989
10
-6.1999998614192009
20
1.8499999586492777
10
-6.1999998614192009
20
1.1499999742954969
42
-0.99999999999999989
0
LWPOLYLINE
5
256
100
AcDbEntity
8
0
100
AcDbPolyline
90
4
70
1
43
0.0
10
-4.5499998982995749
20
2.9999999329447746
10
-4.5499998982995749
20
1.9999999552965164
10
-5.3499998804181814
20
1.9999999552965164
10
-5.3499998804181814
20
2.9999999329447746
0
LINE
5
257
100
AcDbEntity
8
0
100
AcDbLine
10
-4.5499998982995749
20
4.4999998994171619
30
0
11
-4.5499998982995749
21
-4.4999998994171619
31
0
0
CIRCLE
5
258
100
AcDbEntity
8
0
100
AcDbCircle
10
7.6200000000000037
20
-7.6200000000000001
30
0
40
0.50000000000000044
210
0
220
0
230
1
0
ENDSEC
0
SECTION
2
OBJECTS
0
DICTIONARY
5
C
100
AcDbDictionary
3
ACAD_GROUP
350
D
3
ACAD_MLINESTYLE
350
17
0
DICTIONARY
5
D
100
AcDbDictionary
0
DICTIONARY
5
1A
330
C
100
AcDbDictionary
0
DICTIONARY
5
17
100
AcDbDictionary
0
ENDSEC
0
EOF
