0
SECTION
2
HEADER
9
$INSUNITS
70
4
9
$ACADVER
1
AC1014
9
$HANDSEED
5
FFFF
0
ENDSEC
0
SECTION
2
TABLES
0
TABLE
2
VPORT
5
8
100
AcDbSymbolTable
0
ENDTAB
0
TABLE
2
LTYPE
5
5
100
AcDbSymbolTable
0
LTYPE
5
14
100
AcDbSymbolTableRecord
100
AcDbLinetypeTableRecord
2
BYBLOCK
70
0
0
LTYPE
5
15
100
AcDbSymbolTableRecord
100
AcDbLinetypeTableRecord
2
BYLAYER
70
0
0
ENDTAB
0
TABLE
2
LAYER
5
2
100
AcDbSymbolTable
70
2
0
LAYER
5
50
100
AcDbSymbolTableRecord
100
AcDbLayerTableRecord
2
0
70
0
6
CONTINUOUS
0
ENDTAB
0
TABLE
2
STYLE
5
3
100
AcDbSymbolTable
70
1
0
STYLE
5
11
100
AcDbSymbolTableRecord
100
AcDbTextStyleTableRecord
2
STANDARD
70
0
0
ENDTAB
0
TABLE
2
VIEW
5
6
100
AcDbSymbolTable
70
0
0
ENDTAB
0
TABLE
2
UCS
5
7
100
AcDbSymbolTable
70
0
0
ENDTAB
0
TABLE
2
APPID
5
9
100
AcDbSymbolTable
70
2
0
APPID
5
12
100
AcDbSymbolTableRecord
100
AcDbRegAppTableRecord
2
ACAD
70
0
0
ENDTAB
0
TABLE
2
DIMSTYLE
5
A
100
AcDbSymbolTable
70
1
0
ENDTAB
0
TABLE
2
BLOCK_RECORD
5
1
100
AcDbSymbolTable
70
1
0
BLOCK_RECORD
5
1F
100
AcDbSymbolTableRecord
100
AcDbBlockTableRecord
2
*MODEL_SPACE
0
BLOCK_RECORD
5
1B
100
AcDbSymbolTableRecord
100
AcDbBlockTableRecord
2
*PAPER_SPACE
0
ENDTAB
0
ENDSEC
0
SECTION
2
BLOCKS
0
BLOCK
5
20
100
AcDbEntity
100
AcDbBlockBegin
2
*MODEL_SPACE
0
ENDBLK
5
21
100
AcDbEntity
100
AcDbBlockEnd
0
BLOCK
5
1C
100
AcDbEntity
100
AcDbBlockBegin
2
*PAPER_SPACE
0
ENDBLK
5
1D
100
AcDbEntity
100
AcDbBlockEnd
0
ENDSEC
0
SECTION
2
ENTITIES
0
LWPOLYLINE
5
100
100
AcDbEntity
8
0
100
AcDbPolyline
90
10
70
1
43
0.0
10
34.25
20
15.605896468000001
10
40.700000000000003
20
15.605896468000001
10
34.25
20
15.605896468000001
10
34.25
20
43.405896468000009
10
61.750000000000007
20
43.405896468000009
10
61.750000000000007
20
15.605896468000001
10
55.300000000000004
20
15.605896468000001
10
61.750000000000007
20
15.605896468000001
10
61.750000000000007
20
43.405896468000009
10
34.25
20
43.405896468000009
0
LINE
5
101
100
AcDbEntity
8
0
100
AcDbLine
10
40.700000000000003
20
15.605896468000001
30
0
11
40.700000000000003
21
17.605896468000001
31
0
0
LINE
5
102
100
AcDbEntity
8
0
100
AcDbLine
10
40.700000000000003
20
17.605896468000001
30
0
11
55.300000000000004
21
17.605896468000001
31
0
0
LINE
5
103
100
AcDbEntity
8
0
100
AcDbLine
10
55.300000000000004
20
17.605896468000001
30
0
11
55.300000000000004
21
15.605896468000001
31
0
0
LWPOLYLINE
5
104
100
AcDbEntity
8
0
100
AcDbPolyline
90
4
70
1
43
0.0
10
45.189999999999998
20
40.705896468000006
10
43.189999999999998
20
40.705896468000006
10
43.189999999999998
20
42.705896468000006
10
45.189999999999998
20
42.705896468000006
0
LWPOLYLINE
5
105
100
AcDbEntity
8
0
100
AcDbPolyline
90
4
70
1
43
0.0
10
61.740000000000002
20
39.435896468000003
10
61.740000000000002
20
19.575896468
10
34.260000000000005
20
19.575896468
10
34.260000000000005
20
39.435896468000003
0
LINE
5
106
100
AcDbEntity
8
0
100
AcDbLine
10
44.629467916000003
20
39.595896535999998
30
0
11
44.629467916000003
21
40.395896518000001
31
0
0
LINE
5
107
100
AcDbEntity
8
0
100
AcDbLine
10
44.629467916000003
20
40.395896518000001
30
0
11
44.905047756000009
21
40.395896518000001
31
0
0
SPLINE
5
108
100
AcDbEntity
8
0
100
AcDbSpline
70
0
71
3
72
11
73
7
74
0
42
0.000000001
43
0.0000000001
44
0.0000000001
40
0
40
0
40
0
40
0
40
8.2357658520388268e-05
40
8.2357658520388268e-05
40
8.2357658520388268e-05
40
0.000143151
40
0.000143151
40
0.000143151
40
0.000143151
10
44.905047756000009
20
40.395896518000001
30
0
10
44.9324999847424
20
40.395783171943656
30
0
10
44.960008009355278
20
40.395672544423142
30
0
10
44.987312295308854
20
40.393031621358659
30
0
10
45.007467297401604
20
40.391082190782733
30
2.2204460492503131e-15
10
45.027485544998463
20
40.387756516594926
30
0
10
45.047476035000003
20
40.384436780000001
30
0
0
SPLINE
5
109
100
AcDbEntity
8
0
100
AcDbSpline
70
0
71
3
72
11
73
7
74
0
42
0.000000001
43
0.0000000001
44
0.0000000001
40
0
40
0
40
0
40
0
40
6.7610139158619535e-05
40
6.7610139158619535e-05
40
6.7610139158619535e-05
40
0.00013181099999999999
40
0.00013181099999999999
40
0.00013181099999999999
40
0.00013181099999999999
10
45.047476035000003
20
40.384436780000001
30
0
10
45.069168804298883
20
40.378326521021407
30
0
10
45.091023921561295
20
40.372205526624356
30
-2.2204460492503131e-15
10
45.111186846467035
20
40.362199329195661
30
-2.2204460492503131e-15
10
45.130333044835183
20
40.35269769975568
30
0
10
45.147605674963572
20
40.339870180032442
30
0
10
45.164802115000001
20
40.327138015999999
30
0
0
SPLINE
5
110
100
AcDbEntity
8
0
100
AcDbSpline
70
0
71
3
72
11
73
7
74
0
42
0.000000001
43
0.0000000001
44
0.0000000001
40
0
40
0
40
0
40
0
40
8.2630114977387081e-05
40
8.2630114977387081e-05
40
8.2630114977387081e-05
40
0.00016791199999999999
40
0.00016791199999999999
40
0.00016791199999999999
40
0.00016791199999999999
10
45.164802115000001
20
40.327138015999999
30
0
10
45.184549202027753
20
40.307936544612424
30
0
10
45.204371518042521
20
40.288733459741465
30
2.2204460492503131e-15
10
45.220122974507021
20
40.266223930897326
30
2.2204460492503131e-15
10
45.236379927550246
20
40.242992025056168
30
-2.2204460492503131e-15
10
45.247989224256592
20
40.21655236364473
30
0
10
45.259481709000006
20
40.190439456999997
30
0
0
SPLINE
5
111
100
AcDbEntity
8
0
100
AcDbSpline
70
0
71
3
72
11
73
7
74
0
42
0.000000001
43
0.0000000001
44
0.0000000001
40
0
40
0
40
0
40
0
40
9.2340144011464754e-05
40
9.2340144011464754e-05
40
9.2340144011464754e-05
40
0.00019377500000000001
40
0.00019377500000000001
40
0.00019377500000000001
40
0.00019377500000000001
10
45.259481709000006
20
40.190439456999997
30
0
10
45.268597498289097
20
40.161040021055939
30
0
10
45.27774196007001
20
40.131629459824076
30
0
10
45.283014815405579
20
40.101285361886816
30
0
10
45.288807001754606
20
40.067952630631972
30
0
10
45.289821228573857
20
40.034052433286753
30
0
10
45.290859382999997
20
40.000262194999998
30
0
0
SPLINE
5
112
100
AcDbEntity
8
0
100
AcDbSpline
70
0
71
3
72
11
73
7
74
0
42
0.000000001
43
0.0000000001
44
0.0000000001
40
0
40
0
40
0
40
0
40
8.1716000000000002e-05
40
8.1716000000000002e-05
40
8.1716000000000002e-05
40
0.00016343099999999999
40
0.00016343099999999999
40
0.00016343099999999999
40
0.00016343099999999999
10
45.290859382999997
20
40.000262194999998
30
0
10
45.290218565862006
20
39.973031144003244
30
0
10
45.289586788643874
20
39.945783621432305
30
0
10
45.286137261008165
20
39.918788380308101
30
0
10
45.282687775586076
20
39.891793469538307
30
0
10
45.276125801483559
20
39.865208206127754
30
0
10
45.269576948000001
20
39.838734204000005
30
0
0
SPLINE
5
113
100
AcDbEntity
8
0
100
AcDbSpline
70
0
71
3
72
11
73
7
74
0
42
0.000000001
43
0.0000000001
44
0.0000000001
40
0
40
0
40
0
40
0
40
6.4605999999999998e-05
40
6.4605999999999998e-05
40
6.4605999999999998e-05
40
0.00012921100000000001
40
0.00012921100000000001
40
0.00012921100000000001
40
0.00012921100000000001
10
45.269576948000001
20
39.838734204000005
30
0
10
45.262854835953419
20
39.818274839015309
30
0
10
45.256127959518423
20
39.797765600948253
30
2.2204460492503131e-15
10
45.247091338303669
20
39.778220580856981
30
2.2204460492503131e-15
10
45.238054856961696
20
39.758675863292105
30
0
10
45.22652030424026
20
39.740424927480674
30
0
10
45.215006809999998
20
39.722226644000003
30
0
0
SPLINE
5
114
100
AcDbEntity
8
0
100
AcDbSpline
70
0
71
3
72
11
73
7
74
0
42
0.000000001
43
0.0000000001
44
0.0000000001
40
0
40
0
40
0
40
0
40
5.4061391616921139e-05
40
5.4061391616921139e-05
40
5.4061391616921139e-05
40
0.000103354
40
0.000103354
40
0.000103354
40
0.000103354
10
45.215006809999998
20
39.722226644000003
30
0
10
45.204014364277171
20
39.707946810306694
30
0
10
45.193001270019941
20
39.693622578148798
30
-2.2204460492503131e-15
10
45.180150310171847
20
39.681026124044585
30
-2.2204460492503131e-15
10
45.168432940119146
20
39.669540809652844
30
2.2204460492503131e-15
10
45.15525968547788
20
39.659572221480765
30
0
10
45.142155330999998
20
39.649648302999999
30
0
0
SPLINE
5
115
100
AcDbEntity
8
0
100
AcDbSpline
70
0
71
3
72
11
73
7
74
0
42
0.000000001
43
0.0000000001
44
0.0000000001
40
0
40
0
40
0
40
0
40
4.9547733461754858e-05
40
4.9547733461754858e-05
40
4.9547733461754858e-05
40
0.000104094
40
0.000104094
40
0.000104094
40
0.000104094
10
45.142155330999998
20
39.649648302999999
30
0
10
45.127912311531574
20
39.641286402632318
30
0
10
45.113644071963385
20
39.632900963313553
30
-2.2204460492503131e-15
10
45.098499103032822
20
39.6263875913547
30
-2.2204460492503131e-15
10
45.081826261425697
20
39.619217129698669
30
0
10
45.064193976630762
20
39.614368422518986
30
0
10
45.046657365000009
20
39.609539144999999
30
0
0
SPLINE
5
116
100
AcDbEntity
8
0
100
AcDbSpline
70
0
71
3
72
11
73
7
74
0
42
0.000000001
43
0.0000000001
44
0.0000000001
40
0
40
0
40
0
40
0
40
6.0985964101202497e-05
40
6.0985964101202497e-05
40
6.0985964101202497e-05
40
0.00012951999999999999
40
0.00012951999999999999
40
0.00012951999999999999
40
0.00012951999999999999
10
45.046657365000009
20
39.609539144999999
30
0
10
45.026719862925042
20
39.605570090111428
30
0
10
45.006756428561644
20
39.601592551846437
30
0
10
44.98656217312714
20
39.599307113881125
30
0
10
44.963868528002465
20
39.59673881329153
30
0
10
44.940986610843616
20
39.596319396982096
30
0
10
44.918144386000009
20
39.595896535999998
30
0
0
LINE
5
117
100
AcDbEntity
8
0
100
AcDbLine
10
44.918144386000009
20
39.595896535999998
30
0
11
44.629467916000003
21
39.595896535999998
31
0
0
LINE
5
118
100
AcDbEntity
8
0
100
AcDbLine
10
47.063301545000009
20
39.876387649999998
30
0
11
47.169168036000002
21
39.849648260999999
31
0
0
SPLINE
5
119
100
AcDbEntity
8
0
100
AcDbSpline
70
0
71
3
72
11
73
7
74
0
42
0.000000001
43
0.0000000001
44
0.0000000001
40
0
40
0
40
0
40
0
40
0.00012443536169552024
40
0.00012443536169552024
40
0.00012443536169552024
40
0.00023625600000000001
40
0.00023625600000000001
40
0.00023625600000000001
40
0.00023625600000000001
10
47.169168036000002
20
39.849648260999999
30
0
10
47.156882259327048
20
39.81003088726289
30
0
10
47.144565815248527
20
39.769779706255044
30
0
10
47.122578660207154
20
39.734709641684461
30
0
10
47.102820468663168
20
39.703194829879934
30
0
10
47.075892985221238
20
39.676853010900672
30
0
10
47.049386243999997
20
39.650739664
30
0
0
SPLINE
5
120
100
AcDbEntity
8
0
100
AcDbSpline
70
0
71
3
72
11
73
7
74
0
42
0.000000001
43
0.0000000001
44
0.0000000001
40
0
40
0
40
0
40
0
40
0.00010932629728775195
40
0.00010932629728775195
40
0.00010932629728775195
40
0.000226195
40
0.000226195
40
0.000226195
40
0.000226195
10
47.049386243999997
20
39.650739664
30
0
10
47.018722057660341
20
39.631048627660981
30
0
10
46.987802805380277
20
39.611007694745972
30
0
10
46.953274650925714
20
39.599375362014591
30
0
10
46.9163644040934
20
39.586940516331893
30
-2.2204460492503131e-15
10
46.876837090665049
20
39.584662697731822
30
0
10
46.837926548000006
20
39.582253926999996
30
0
0
SPLINE
5
121
100
AcDbEntity
8
0
100
AcDbSpline
70
0
71
3
72
11
73
7
74
0
42
0.000000001
43
0.0000000001
44
0.0000000001
40
0
40
0
40
0
40
0
40
0.00011831817979486632
40
0.00011831817979486632
40
0.00011831817979486632
40
0.000219593
40
0.000219593
40
0.000219593
40
0.000219593
10
46.837926548000006
20
39.582253926999996
30
0
10
46.798512429931435
20
39.583672689596305
30
0
10
46.758661743752022
20
39.584998432283477
30
-2.2204460492503131e-15
10
46.720668715928468
20
39.595419102742518
30
-2.2204460492503131e-15
10
46.68814846360079
20
39.60433870857981
30
2.2204460492503131e-15
10
46.657721804719884
20
39.61973225220266
30
0
10
46.627558213
20
39.634914332999998
30
0
0
SPLINE
5
122
100
AcDbEntity
8
0
100
AcDbSpline
70
0
71
3
72
11
73
7
74
0
42
0.000000001
43
0.0000000001
44
0.0000000001
40
0
40
0
40
0
40
0
40
9.6505049522701707e-05
40
9.6505049522701707e-05
40
9.6505049522701707e-05
40
0.000199204
40
0.000199204
40
0.000199204
40
0.000199204
10
46.627558213
20
39.634914332999998
30
0
10
46.602211548687436
20
39.654722429046139
30
0
10
46.576742420028168
20
39.674461401992247
30
2.2204460492503131e-15
10
46.556207580152673
20
39.69937541339705
30
2.2204460492503131e-15
10
46.534354770233776
20
39.725888459461565
30
-2.2204460492503131e-15
10
46.519320028590698
20
39.756778727052676
30
0
10
46.50422934800001
20
39.787438148
30
0
0
SPLINE
5
123
100
AcDbEntity
8
0
100
AcDbSpline
70
0
71
3
72
11
73
7
74
0
42
0.000000001
43
0.0000000001
44
0.0000000001
40
0
40
0
40
0
40
0
40
0.00010842931851569184
40
0.00010842931851569184
40
0.00010842931851569184
40
0.00021991299999999999
40
0.00021991299999999999
40
0.00021991299999999999
40
0.00021991299999999999
10
46.50422934800001
20
39.787438148
30
0
10
46.491956280706852
20
39.821433837834739
30
0
10
46.479608495595848
20
39.855529664329168
30
0
10
46.472510438889714
20
39.890985124149068
30
0
10
46.465212435878925
20
39.927439334537468
30
-2.2204460492503131e-15
10
46.463588381796328
20
39.964759159796316
30
0
10
46.461937468000009
20
40.001899237000003
30
0
0
SPLINE
5
124
100
AcDbEntity
8
0
100
AcDbSpline
70
0
71
3
72
11
73
7
74
0
42
0.000000001
43
0.0000000001
44
0.0000000001
40
0
40
0
40
0
40
0
40
0.00011780127449124627
40
0.00011780127449124627
40
0.00011780127449124627
40
0.00022512000000000001
40
0.00022512000000000001
40
0.00022512000000000001
40
0.00022512000000000001
10
46.461937468000009
20
40.001899237000003
30
0
10
46.463519714566807
20
40.041134563159552
30
0
10
46.465051761388992
20
40.080640723530337
30
0
10
46.473874789458876
20
40.118884232233903
30
0
10
46.481912700183315
20
40.153724641480522
30
0
10
46.495866695500283
20
40.186914500263867
30
0
10
46.509686451
20
40.219907397000007
30
0
0
SPLINE
5
125
100
AcDbEntity
8
0
100
AcDbSpline
70
0
71
3
72
11
73
7
74
0
42
0.000000001
43
0.0000000001
44
0.0000000001
40
0
40
0
40
0
40
0
40
0.00010057935806169362
40
0.00010057935806169362
40
0.00010057935806169362
40
0.00019925300000000001
40
0.00019925300000000001
40
0.00019925300000000001
40
0.00019925300000000001
10
46.509686451
20
40.219907397000007
30
0
10
46.526937545737866
20
40.248654945627173
30
0
10
46.544110598420872
20
40.277560539939721
30
0
10
46.567530969748532
20
40.301762901705317
30
0
10
46.590507586213207
20
40.325506691931707
30
0
10
46.618101610734186
20
40.343323505842676
30
0
10
46.645566266000003
20
40.361244464000009
30
0
0
SPLINE
5
126
100
AcDbEntity
8
0
100
AcDbSpline
70
0
71
3
72
11
73
7
74
0
42
0.000000001
43
0.0000000001
44
0.0000000001
40
0
40
0
40
0
40
0
40
9.9638237652743849e-05
40
9.9638237652743849e-05
40
9.9638237652743849e-05
40
0.00020214199999999999
40
0.00020214199999999999
40
0.00020214199999999999
40
0.00020214199999999999
10
46.645566266000003
20
40.361244464000009
30
0
10
46.675692864270822
20
40.375225783570549
30
0
10
46.70600096479312
20
40.389347617470939
30
-2.2204460492503131e-15
10
46.738131087207449
20
40.397465461741163
30
-2.2204460492503131e-15
10
46.771185249040627
20
40.405816769426352
30
2.2204460492503131e-15
10
46.805511452908412
20
40.407655053545369
30
0
10
46.839563589999997
20
40.409539127999999
30
0
0
SPLINE
5
127
100
AcDbEntity
8
0
100
AcDbSpline
70
0
71
3
72
11
73
7
74
0
42
0.000000001
43
0.0000000001
44
0.0000000001
40
0
40
0
40
0
40
0
40
0.00011193225732365763
40
0.00011193225732365763
40
0.00011193225732365763
40
0.00021428500000000001
40
0.00021428500000000001
40
0.00021428500000000001
40
0.00021428500000000001
10
46.839563589999997
20
40.409539127999999
30
0
10
46.876818274085224
20
40.407494299335752
30
0
10
46.914491730401473
20
40.405589214757995
30
0
10
46.95006821972099
20
40.394259475706519
30
0
10
46.982599961184221
20
40.383899371358979
30
0
10
47.012178614463792
20
40.36600604770463
30
0
10
47.041473430000011
20
40.348420450000006
30
0
0
SPLINE
5
128
100
AcDbEntity
8
0
100
AcDbSpline
70
0
71
3
72
11
73
7
74
0
42
0.000000001
43
0.0000000001
44
0.0000000001
40
0
40
0
40
0
40
0
40
0.00010150043111514219
40
0.00010150043111514219
40
0.00010150043111514219
40
0.000209466
40
0.000209466
40
0.000209466
40
0.000209466
10
47.041473430000011
20
40.348420450000006
30
0
10
47.066535682858287
20
40.325691692071928
30
0
10
47.09184937903607
20
40.302948246425302
30
2.2204460492503131e-15
10
47.11091433177593
20
40.274887018160079
30
2.2204460492503131e-15
10
47.131193639417361
20
40.245038411213528
30
-2.2204460492503131e-15
10
47.143374330087028
20
40.210525560090673
30
0
10
47.155525427000001
20
40.176524157000003
30
0
0
LINE
5
129
100
AcDbEntity
8
0
100
AcDbLine
10
47.155525426999993
20
40.176524157000003
30
0
11
47.051296274999999
21
40.151967490000004
31
0
0
SPLINE
5
130
100
AcDbEntity
8
0
100
AcDbSpline
70
0
71
3
72
11
73
7
74
0
42
0.000000001
43
0.0000000001
44
0.0000000001
40
0
40
0
40
0
40
0
40
8.3177762126836405e-05
40
8.3177762126836405e-05
40
8.3177762126836405e-05
40
0.00015340800000000001
40
0.00015340800000000001
40
0.00015340800000000001
40
0.00015340800000000001
10
47.051296274999999
20
40.151967490000004
30
0
10
47.041969217189184
20
40.178077745883243
30
0
10
47.032509631703235
20
40.204669018823182
30
0
10
47.01718990132278
20
40.227410877125571
30
0
10
47.004254853766056
20
40.246612717586473
30
0
10
46.987319256295088
20
40.26290537712292
30
0
10
46.970532278999997
20
40.279116193
30
0
0
SPLINE
5
131
100
AcDbEntity
8
0
100
AcDbSpline
70
0
71
3
72
11
73
7
74
0
42
0.000000001
43
0.0000000001
44
0.0000000001
40
0
40
0
40
0
40
0
40
6.700644088598648e-05
40
6.700644088598648e-05
40
6.700644088598648e-05
40
0.00014189899999999999
40
0.00014189899999999999
40
0.00014189899999999999
40
0.00014189899999999999
10
46.970532278999997
20
40.279116193
30
0
10
46.951364221280528
20
40.290582829740558
30
0
10
46.931896687386683
20
40.302279509357739
30
0
10
46.910778025035512
20
40.308993394048812
30
0
10
46.887173866276591
20
40.316497448874919
30
0
10
46.862179489646067
20
40.317677900361481
30
0
10
46.837380867
20
40.31895251000001
30
0
0
SPLINE
5
132
100
AcDbEntity
8
0
100
AcDbSpline
70
0
71
3
72
11
73
7
74
0
42
0.000000001
43
0.0000000001
44
0.0000000001
40
0
40
0
40
0
40
0
40
8.5774763444049524e-05
40
8.5774763444049524e-05
40
8.5774763444049524e-05
40
0.00016339800000000001
40
0.00016339800000000001
40
0.00016339800000000001
40
0.00016339800000000001
10
46.837380867
20
40.31895251000001
30
0
10
46.808824145945785
20
40.317537146193175
30
0
10
46.779769114918004
20
40.316136470028226
30
0
10
46.752728564416032
20
40.307902032943808
30
0
10
46.728257788118455
20
40.300450148123097
30
0
10
46.705646814049224
20
40.287519192532159
30
0
10
46.683219712000003
20
40.274750599000001
30
0
0
SPLINE
5
133
100
AcDbEntity
8
0
100
AcDbSpline
70
0
71
3
72
11
73
7
74
0
42
0.000000001
43
0.0000000001
44
0.0000000001
40
0
40
0
40
0
40
0
40
7.4160791446777034e-05
40
7.4160791446777034e-05
40
7.4160791446777034e-05
40
0.00015012399999999999
40
0.00015012399999999999
40
0.00015012399999999999
40
0.00015012399999999999
10
46.683219712000003
20
40.274750599000001
30
0
10
46.664300523373363
20
40.258839099313796
30
0
10
46.645032663113135
20
40.24268897332022
30
-2.2204460492503131e-15
10
46.630491356051763
20
40.222977034788556
30
-2.2204460492503131e-15
10
46.615596634469242
20
40.202786013785982
30
0
10
46.605891453339687
20
40.179323779816791
30
0
10
46.596180242000003
20
40.156060242999999
30
0
0
SPLINE
5
134
100
AcDbEntity
8
0
100
AcDbSpline
70
0
71
3
72
11
73
7
74
0
42
0.000000001
43
0.0000000001
44
0.0000000001
40
0
40
0
40
0
40
0
40
7.8024314580391654e-05
40
7.8024314580391654e-05
40
7.8024314580391654e-05
40
0.000156336
40
0.000156336
40
0.000156336
40
0.000156336
10
46.596180242000003
20
40.156060242999999
30
0
10
46.588882582352575
20
40.131096861125101
30
0
10
46.58154994602333
20
40.10604801567596
30
0
10
46.577353518177205
20
40.080412185734076
30
0
10
46.573141634495329
20
40.054681936635752
30
0
10
46.572113344173083
20
40.028518040656316
30
0
10
46.571078043
20
40.002444917000005
30
0
0
SPLINE
5
135
100
AcDbEntity
8
0
100
AcDbSpline
70
0
71
3
72
11
73
7
74
0
42
0.000000001
43
0.0000000001
44
0.0000000001
40
0
40
0
40
0
40
0
40
9.6020193633695631e-05
40
9.6020193633695631e-05
40
9.6020193633695631e-05
40
0.00018162399999999999
40
0.00018162399999999999
40
0.00018162399999999999
40
0.00018162399999999999
10
46.571078043
20
40.002444917000005
30
0
10
46.572006945852841
20
39.970451639193655
30
0
10
46.572910968396144
20
39.938383222982836
30
0
10
46.578513126170989
20
39.906878855381144
30
0
10
46.583507555063974
20
39.878792119853863
30
0
10
46.59218856436658
20
39.851480241354615
30
0
10
46.600818674999999
20
39.824273074000004
30
0
0
SPLINE
5
136
100
AcDbEntity
8
0
100
AcDbSpline
70
0
71
3
72
11
73
7
74
0
42
0.000000001
43
0.0000000001
44
0.0000000001
40
0
40
0
40
0
40
0
40
7.6929566681348515e-05
40
7.6929566681348515e-05
40
7.6929566681348515e-05
40
0.00014975500000000001
40
0.00014975500000000001
40
0.00014975500000000001
40
0.00014975500000000001
10
46.600818674999999
20
39.824273074000004
30
0
10
46.611630788001328
20
39.801020427856074
30
0
10
46.622600473175879
20
39.777298838781185
30
-2.2204460492503131e-15
10
46.638813359284313
20
39.757765464339229
30
-2.2204460492503131e-15
10
46.654161300357266
20
39.739274180437903
30
0
10
46.673848352286768
20
39.724851162873044
30
0
10
46.693315249000008
20
39.710494064999999
30
0
0
SPLINE
5
137
100
AcDbEntity
8
0
100
AcDbSpline
70
0
71
3
72
11
73
7
74
0
42
0.000000001
43
0.0000000001
44
0.0000000001
40
0
40
0
40
0
40
0
40
7.1358599990458755e-05
40
7.1358599990458755e-05
40
7.1358599990458755e-05
40
0.00014276999999999999
40
0.00014276999999999999
40
0.00014276999999999999
40
0.00014276999999999999
10
46.693315249000008
20
39.710494064999999
30
0
10
46.714466924666446
20
39.699612764662497
30
0
10
46.735811943030434
20
39.688584724838677
30
0
10
46.758663099574953
20
39.68225398066005
30
0
10
46.781531164263697
20
39.675918552204912
30
0
10
46.805461253747879
20
39.674397050193981
30
0
10
46.829195362
20
39.672840618999999
30
0
0
SPLINE
5
138
100
AcDbEntity
8
0
100
AcDbSpline
70
0
71
3
72
11
73
7
74
0
42
0.000000001
43
0.0000000001
44
0.0000000001
40
0
40
0
40
0
40
0
40
8.3563365158764499e-05
40
8.3563365158764499e-05
40
8.3563365158764499e-05
40
0.00016272500000000001
40
0.00016272500000000001
40
0.00016272500000000001
40
0.00016272500000000001
10
46.829195362
20
39.672840618999999
30
0
10
46.856988015686831
20
39.674698245936597
30
0
10
46.88535681853125
20
39.676524364659727
30
-2.2204460492503131e-15
10
46.911323408668025
20
39.685664707462792
30
-2.2204460492503131e-15
10
46.93592219932917
20
39.694323579420917
30
0
10
46.958005306211241
20
39.70937219644069
30
0
10
46.979809146000008
20
39.724136674999997
30
0
0
SPLINE
5
139
100
AcDbEntity
8
0
100
AcDbSpline
70
0
71
3
72
11
73
7
74
0
42
0.000000001
43
0.0000000001
44
0.0000000001
40
0
40
0
40
0
40
0
40
8.2579229969596937e-05
40
8.2579229969596937e-05
40
8.2579229969596937e-05
40
0.000176551
40
0.000176551
40
0.000176551
40
0.000176551
10
46.979809146000008
20
39.724136674999997
30
0
10
46.998725774566182
20
39.744133483260896
30
0
10
47.017778842987553
20
39.764124193990725
30
0
10
47.031514386486108
20
39.787847332389454
30
0
10
47.047144870511737
20
39.814843288961413
30
2.2204460492503131e-15
10
47.055273104695374
20
39.845948855050011
30
0
10
47.063301545000009
20
39.876387649999998
30
0
0
LINE
5
140
100
AcDbEntity
8
0
100
AcDbLine
10
51.605729502000003
20
39.595896535999998
30
0
11
51.605729502000003
21
40.395896518000001
31
0
0
LINE
5
141
100
AcDbEntity
8
0
100
AcDbLine
10
51.605729502000003
20
40.395896518000001
30
0
11
51.881309193000007
21
40.395896518000001
31
0
0
SPLINE
5
142
100
AcDbEntity
8
0
100
AcDbSpline
70
0
71
3
72
14
73
10
74
0
42
0.000000001
43
0.0000000001
44
0.0000000001
40
0
40
0
40
0
40
0
40
7.1575999999999994e-05
40
7.1575999999999994e-05
40
7.1575999999999994e-05
40
8.2357658520401807e-05
40
8.2357658520401807e-05
40
8.2357658520401807e-05
40
0.000143151
40
0.000143151
40
0.000143151
40
0.000143151
10
51.881309193000007
20
40.395896518000001
30
0
10
51.905167577997425
20
40.395798010375152
30
0
10
51.929054828701659
20
40.395702035730849
30
0
10
51.952837966647294
20
40.393944503334183
30
0
10
51.95642047575474
20
40.393679762162009
30
0
10
51.959999256144968
20
40.39337735156969
30
2.2204460492503131e-15
10
51.963573732308852
20
40.393031621358659
30
2.2204460492503131e-15
10
51.983728734401623
20
40.39108219078274
30
0
10
52.003746981998475
20
40.387756516594926
30
0
10
52.023737472000001
20
40.384436780000001
30
0
0
SPLINE
5
143
100
AcDbEntity
8
0
100
AcDbSpline
70
0
71
3
72
11
73
7
74
0
42
0.000000001
43
0.0000000001
44
0.0000000001
40
0
40
0
40
0
40
0
40
6.7610010091082685e-05
40
6.7610010091082685e-05
40
6.7610010091082685e-05
40
0.00013181099999999999
40
0.00013181099999999999
40
0.00013181099999999999
40
0.00013181099999999999
10
52.023737472000001
20
40.384436780000001
30
0
10
52.045430236025467
20
40.378326505815252
30
0
10
52.067285343703233
20
40.372205495426741
30
0
10
52.087448283372844
20
40.362199329308275
30
0
10
52.106594570801576
20
40.352697692359371
30
-2.2204460492503131e-15
10
52.12386730546767
20
40.339870176693147
30
0
10
52.141063850000009
20
40.327138015999999
30
0
0
SPLINE
5
144
100
AcDbEntity
8
0
100
AcDbSpline
70
0
71
3
72
11
73
7
74
0
42
0.000000001
43
0.0000000001
44
0.0000000001
40
0
40
0
40
0
40
0
40
8.2630106870693935e-05
40
8.2630106870693935e-05
40
8.2630106870693935e-05
40
0.000167911
40
0.000167911
40
0.000167911
40
0.000167911
10
52.141063850000009
20
40.327138015999999
30
0
10
52.160810933832934
20
40.307936607264033
30
0
10
52.180633265977782
20
40.288733597742961
30
0
10
52.196384710556941
20
40.266223929747881
30
0
10
52.212641463847724
20
40.242992148217354
30
0
10
52.224250573708929
20
40.216552421909228
30
0
10
52.235742848000008
20
40.190439456999997
30
0
0
SPLINE
5
145
100
AcDbEntity
8
0
100
AcDbSpline
70
0
71
3
72
11
73
7
74
0
42
0.000000001
43
0.0000000001
44
0.0000000001
40
0
40
0
40
0
40
0
40
9.2340989119245995e-05
40
9.2340989119245995e-05
40
9.2340989119245995e-05
40
0.00019377500000000001
40
0.00019377500000000001
40
0.00019377500000000001
40
0.00019377500000000001
10
52.235742848000008
20
40.190439456999997
30
0
10
52.244859135137752
20
40.161040162038674
30
0
10
52.254004129040119
20
40.131629745210155
30
0
10
52.259277145695435
20
40.101285365107586
30
0
10
52.265069407982104
20
40.067952906674421
30
0
10
52.266083311993881
20
40.034052563327251
30
0
10
52.267121118000006
20
40.000262194999998
30
0
0
SPLINE
5
146
100
AcDbEntity
8
0
100
AcDbSpline
70
0
71
3
72
11
73
7
74
0
42
0.000000001
43
0.0000000001
44
0.0000000001
40
0
40
0
40
0
40
0
40
8.1716000000000002e-05
40
8.1716000000000002e-05
40
8.1716000000000002e-05
40
0.00016343099999999999
40
0.00016343099999999999
40
0.00016343099999999999
40
0.00016343099999999999
10
52.267121118000006
20
40.000262194999998
30
0
10
52.266480444464094
20
39.973031132012615
30
0
10
52.265848813416831
20
39.945783596467649
30
0
10
52.262399290164289
20
39.918788348852004
30
0
10
52.258949809125326
20
39.891793431590862
30
0
10
52.252387683884791
20
39.865208181028507
30
0
10
52.245838683000009
20
39.838734204000005
30
0
0
SPLINE
5
147
100
AcDbEntity
8
0
100
AcDbSpline
70
0
71
3
72
11
73
7
74
0
42
0.000000001
43
0.0000000001
44
0.0000000001
40
0
40
0
40
0
40
0
40
6.8822198946252755e-05
40
6.8822198946252755e-05
40
6.8822198946252755e-05
40
0.000129212
40
0.000129212
40
0.000129212
40
0.000129212
10
52.245838683000009
20
39.838734204000005
30
0
10
52.238677768825525
20
39.816939676358821
30
0
10
52.231501242017004
20
39.79506293703875
30
0
10
52.221554558638061
20
39.77440946682929
30
0
10
52.212826586565143
20
39.756286550443065
30
0
10
52.202030360761462
20
39.73923732728413
30
0
10
52.191268246999996
20
39.722226644000003
30
0
0
SPLINE
5
148
100
AcDbEntity
8
0
100
AcDbSpline
70
0
71
3
72
11
73
7
74
0
42
0.000000001
43
0.0000000001
44
0.0000000001
40
0
40
0
40
0
40
0
40
5.1677e-05
40
5.1677e-05
40
5.1677e-05
40
0.000103353
40
0.000103353
40
0.000103353
40
0.000103353
10
52.191268246999996
20
39.722226644000003
30
0
10
52.180760560551384
20
39.708576736575559
30
0
10
52.170241342315286
20
39.694895145508433
30
0
10
52.158101850208133
20
39.6827034543766
30
0
10
52.145962593011916
20
39.670511999165797
30
0
10
52.132155156621522
20
39.66005238149976
30
0
10
52.118417066000006
20
39.649648302999999
30
0
0
SPLINE
5
149
100
AcDbEntity
8
0
100
AcDbSpline
70
0
71
3
72
11
73
7
74
0
42
0.000000001
43
0.0000000001
44
0.0000000001
40
0
40
0
40
0
40
0
40
4.9547192494651321e-05
40
4.9547192494651321e-05
40
4.9547192494651321e-05
40
0.000104094
40
0.000104094
40
0.000104094
40
0.000104094
10
52.118417066000006
20
39.649648302999999
30
0
10
52.104174256010836
20
39.641286385897281
30
0
10
52.089906222368825
20
39.632900926500469
30
0
10
52.074761430158887
20
39.62638758968594
30
0
10
52.058088435710744
20
39.619217017317425
30
2.2204460492503131e-15
10
52.04045592542176
20
39.614368365447127
30
0
10
52.022919100000003
20
39.609539144999999
30
0
0
SPLINE
5
150
100
AcDbEntity
8
0
100
AcDbSpline
70
0
71
3
72
11
73
7
74
0
42
0.000000001
43
0.0000000001
44
0.0000000001
40
0
40
0
40
0
40
0
40
6.0985964101200939e-05
40
6.0985964101200939e-05
40
6.0985964101200939e-05
40
0.00012951999999999999
40
0.00012951999999999999
40
0.00012951999999999999
40
0.00012951999999999999
10
52.022919100000003
20
39.609539144999999
30
0
10
52.002981597925043
20
39.605570090111428
30
0
10
51.983018163561638
20
39.601592551846437
30
0
10
51.962823908127135
20
39.599307113881125
30
0
10
51.940130263002466
20
39.59673881329153
30
0
10
51.917248345843625
20
39.596319396982096
30
0
10
51.894406121000003
20
39.595896535999998
30
0
0
LINE
5
151
100
AcDbEntity
8
0
100
AcDbLine
10
51.894406121000003
20
39.595896535999998
30
0
11
51.605729502000003
21
39.595896535999998
31
0
0
LWPOLYLINE
5
152
100
AcDbEntity
8
0
100
AcDbPolyline
90
6
70
1
43
0.0
10
49.965348284999997
20
39.595896535999998
10
49.965348284999997
20
40.395896518000001
10
50.071214478000002
20
40.395896518000001
10
50.071214478000002
20
39.690303141000001
10
50.465211909000004
20
39.690303141000001
10
50.465211909000004
20
39.595896535999998
0
LINE
5
153
100
AcDbEntity
8
0
100
AcDbLine
10
48.381173056000009
20
39.852922493000008
30
0
11
48.481036466000006
21
39.861653680000003
31
0
0
SPLINE
5
154
100
AcDbEntity
8
0
100
AcDbSpline
70
0
71
3
72
11
73
7
74
0
42
0.000000001
43
0.0000000001
44
0.0000000001
40
0
40
0
40
0
40
0
40
5.6024368956886715e-05
40
5.6024368956886715e-05
40
5.6024368956886715e-05
40
0.00010497600000000001
40
0.00010497600000000001
40
0.00010497600000000001
40
0.00010497600000000001
10
48.481036466000006
20
39.861653680000003
30
0
10
48.483833347886439
20
39.843188974287301
30
0
10
48.486620618380016
20
39.824599956791495
30
0
10
48.492836992971675
20
39.807015294607183
30
0
10
48.498268587849083
20
39.791650589724433
30
0
10
48.506182756358015
20
39.777390221789133
30
0
10
48.514051478000006
20
39.763154321999998
30
0
0
SPLINE
5
155
100
AcDbEntity
8
0
100
AcDbSpline
70
0
71
3
72
11
73
7
74
0
42
0.000000001
43
0.0000000001
44
0.0000000001
40
0
40
0
40
0
40
0
40
4.8104887945753138e-05
40
4.8104887945753138e-05
40
4.8104887945753138e-05
40
0.00010308500000000001
40
0.00010308500000000001
40
0.00010308500000000001
40
0.00010308500000000001
10
48.514051478000006
20
39.763154321999998
30
0
10
48.524321569011597
20
39.750838449497429
30
0
10
48.534675135800981
20
39.738378065533439
30
0
10
48.547134442227957
20
39.728365771514589
30
0
10
48.561374451772238
20
39.716922505131819
30
0
10
48.578054184312151
20
39.708911978528405
30
0
10
48.594542783000001
20
39.700944358000001
30
0
0
SPLINE
5
156
100
AcDbEntity
8
0
100
AcDbSpline
70
0
71
3
72
11
73
7
74
0
42
0.000000001
43
0.0000000001
44
0.0000000001
40
0
40
0
40
0
40
0
40
6.0736817734025116e-05
40
6.0736817734025116e-05
40
6.0736817734025116e-05
40
0.00012588000000000001
40
0.00012588000000000001
40
0.00012588000000000001
40
0.00012588000000000001
10
48.594542783000001
20
39.700944358000001
30
0
10
48.613581261535721
20
39.694057108743301
30
0
10
48.632674446089126
20
39.687128621061035
30
0
10
48.652523799088797
20
39.683140748642792
30
0
10
48.67381319271459
20
39.678863562094548
30
0
10
48.695619424422773
20
39.678044035900662
30
0
10
48.717325967000001
20
39.677206212000002
30
0
0
SPLINE
5
157
100
AcDbEntity
8
0
100
AcDbSpline
70
0
71
3
72
11
73
7
74
0
42
0.000000001
43
0.0000000001
44
0.0000000001
40
0
40
0
40
0
40
0
40
5.7310832729151055e-05
40
5.7310832729151055e-05
40
5.7310832729151055e-05
40
0.000109054
40
0.000109054
40
0.000109054
40
0.000109054
10
48.717325967000001
20
39.677206212000002
30
0
10
48.736420855550477
20
39.677791492936208
30
0
10
48.755569581454843
20
39.67836520398081
30
2.2204460492503131e-15
10
48.774351516833939
20
39.681708300029896
30
2.2204460492503131e-15
10
48.791308814044811
20
39.684726619077665
30
-2.2204460492503131e-15
10
48.807838458615429
20
39.689987779419262
30
0
10
48.824283522000009
20
39.695214415000002
30
0
0
SPLINE
5
158
100
AcDbEntity
8
0
100
AcDbSpline
70
0
71
3
72
11
73
7
74
0
42
0.000000001
43
0.0000000001
44
0.0000000001
40
0
40
0
40
0
40
0
40
4.6014589677832778e-05
40
4.6014589677832778e-05
40
4.6014589677832778e-05
40
8.6094999999999995e-05
40
8.6094999999999995e-05
40
8.6094999999999995e-05
40
8.6094999999999995e-05
10
48.824283522000009
20
39.695214415000002
30
0
10
48.838349538220484
20
39.701334002034606
30
0
10
48.852551075606826
20
39.707485970405777
30
0
10
48.864734211952658
20
39.716564946359441
30
0
10
48.8753461745317
20
39.724473070371303
30
0
10
48.884388473564343
20
39.734606111812568
30
0
10
48.893314641000003
20
39.74460043900001
30
0
0
SPLINE
5
159
100
AcDbEntity
8
0
100
AcDbSpline
70
0
71
3
72
11
73
7
74
0
42
0.000000001
43
0.0000000001
44
0.0000000001
40
0
40
0
40
0
40
0
40
3.7160838927851338e-05
40
3.7160838927851338e-05
40
3.7160838927851338e-05
40
7.3447000000000003e-05
40
7.3447000000000003e-05
40
7.3447000000000003e-05
40
7.3447000000000003e-05
10
48.893314641000003
20
39.74460043900001
30
0
10
48.899855091305888
20
39.755123361727208
30
0
10
48.906499843331758
20
39.76577809099301
30
0
10
48.910299581141103
20
39.777410861400334
30
0
10
48.914009882150431
20
39.788769824031263
30
0
10
48.914985609426282
20
39.801018501366862
30
0
10
48.91596142600001
20
39.813086175999999
30
0
0
SPLINE
5
160
100
AcDbEntity
8
0
100
AcDbSpline
70
0
71
3
72
11
73
7
74
0
42
0.000000001
43
0.0000000001
44
0.0000000001
40
0
40
0
40
0
40
0
40
3.5894648932178717e-05
40
3.5894648932178717e-05
40
3.5894648932178717e-05
40
7.0642000000000006e-05
40
7.0642000000000006e-05
40
7.0642000000000006e-05
40
7.0642000000000006e-05
10
48.91596142600001
20
39.813086175999999
30
0
10
48.915118980257297
20
39.825025084179352
30
0
10
48.914289464316937
20
39.837147459923031
30
-2.2204460492503131e-15
10
48.910504619696091
20
39.848352308431565
30
-2.2204460492503131e-15
10
48.906840749768676
20
39.859199017241089
30
0
10
48.900424160047621
20
39.869101101116378
30
0
10
48.894133609000008
20
39.878843361000008
30
0
0
SPLINE
5
161
100
AcDbEntity
8
0
100
AcDbSpline
70
0
71
3
72
11
73
7
74
0
42
0.000000001
43
0.0000000001
44
0.0000000001
40
0
40
0
40
0
40
0
40
3.8952086368422968e-05
40
3.8952086368422968e-05
40
3.8952086368422968e-05
40
8.7307999999999998e-05
40
8.7307999999999998e-05
40
8.7307999999999998e-05
40
8.7307999999999998e-05
10
48.894133609000008
20
39.878843361000008
30
0
10
48.884978165860446
20
39.888052248121802
30
0
10
48.875753919405142
20
39.89734049697158
30
-2.2204460492503131e-15
10
48.865211053711441
20
39.904695979795385
30
-2.2204460492503131e-15
10
48.852122925437833
20
39.913827226034215
30
0
10
48.837024105711976
20
39.919964793904981
30
0
10
48.822100800000001
20
39.926046663999998
30
0
0
SPLINE
5
162
100
AcDbEntity
8
0
100
AcDbSpline
70
0
71
3
72
11
73
7
74
0
42
0.000000001
43
0.0000000001
44
0.0000000001
40
0
40
0
40
0
40
0
40
5.4137105702598164e-05
40
5.4137105702598164e-05
40
5.4137105702598164e-05
40
0.000147739
40
0.000147739
40
0.000147739
40
0.000147739
10
48.822100800000001
20
39.926046663999998
30
0
10
48.804916525043474
20
39.931555710192754
30
0
10
48.787726946996877
20
39.937066530263941
30
0
10
48.770395558209174
20
39.942076587545507
30
0
10
48.740429958824407
20
39.950738869099091
30
2.2204460492503131e-15
10
48.710040383038759
20
39.957904001986378
30
0
10
48.679672521000008
20
39.965064311000006
30
0
0
SPLINE
5
163
100
AcDbEntity
8
0
100
AcDbSpline
70
0
71
3
72
11
73
7
74
0
42
0.000000001
43
0.0000000001
44
0.0000000001
40
0
40
0
40
0
40
0
40
9.7270243471439782e-05
40
9.7270243471439782e-05
40
9.7270243471439782e-05
40
0.000162602
40
0.000162602
40
0.000162602
40
0.000162602
10
48.679672521000008
20
39.965064311000006
30
0
10
48.648136669464783
20
39.972598965774338
30
0
10
48.616560890013993
20
39.980136679819552
30
0
10
48.585947792034418
20
39.990780586489166
30
0
10
48.56538644261849
20
39.997929588015573
30
0
10
48.545290956448348
20
40.006472592106874
30
0
10
48.525238674000008
20
40.014996164999999
30
0
0
SPLINE
5
164
100
AcDbEntity
8
0
100
AcDbSpline
70
0
71
3
72
11
73
7
74
0
42
0.000000001
43
0.0000000001
44
0.0000000001
40
0
40
0
40
0
40
0
40
5.7281999999999998e-05
40
5.7281999999999998e-05
40
5.7281999999999998e-05
40
0.000114565
40
0.000114565
40
0.000114565
40
0.000114565
10
48.525238674000008
20
40.014996164999999
30
0
10
48.50870470905646
20
40.024547794097728
30
0
10
48.492085550599128
20
40.034094340313608
30
0
10
48.477585103116674
20
40.0465636287122
30
0
10
48.463084402492804
20
40.059033134793289
30
0
10
48.451435997868273
20
40.074309993899291
30
0
10
48.439835946999999
20
40.089484536999997
30
0
0
SPLINE
5
165
100
AcDbEntity
8
0
100
AcDbSpline
70
0
71
3
72
11
73
7
74
0
42
0.000000001
43
0.0000000001
44
0.0000000001
40
0
40
0
40
0
40
0
40
5.1755885426826559e-05
40
5.1755885426826559e-05
40
5.1755885426826559e-05
40
0.000104879
40
0.000104879
40
0.000104879
40
0.000104879
10
48.439835946999999
20
40.089484536999997
30
0
10
48.431721146675272
20
40.10470998818839
30
0
10
48.423492458776856
20
40.120068362157426
30
0
10
48.418757955156181
20
40.136619595171048
30
0
10
48.413898380709448
20
40.15360806016318
30
0
10
48.412833304620463
20
40.17141663832372
30
0
10
48.411732357000005
20
40.189075256000002
30
0
0
SPLINE
5
166
100
AcDbEntity
8
0
100
AcDbSpline
70
0
71
3
72
11
73
7
74
0
42
0.000000001
43
0.0000000001
44
0.0000000001
40
0
40
0
40
0
40
0
40
5.9375528593454462e-05
40
5.9375528593454462e-05
40
5.9375528593454462e-05
40
0.000120023
40
0.000120023
40
0.000120023
40
0.000120023
10
48.411732357000005
20
40.189075256000002
30
0
10
48.413205636047849
20
40.208812673293927
30
0
10
48.414646911100867
20
40.228758781977149
30
-2.2204460492503131e-15
10
48.420327347347936
20
40.247670050821647
30
-2.2204460492503131e-15
10
48.42612946992319
20
40.26698643694364
30
0
10
48.436188477653786
20
40.284712141144354
30
0
10
48.446111720000005
20
40.302308583000006
30
0
0
SPLINE
5
167
100
AcDbEntity
8
0
100
AcDbSpline
70
0
71
3
72
11
73
7
74
0
42
0.000000001
43
0.0000000001
44
0.0000000001
40
0
40
0
40
0
40
0
40
6.2886428416792392e-05
40
6.2886428416792392e-05
40
6.2886428416792392e-05
40
0.00013031300000000001
40
0.00013031300000000001
40
0.00013031300000000001
40
0.00013031300000000001
10
48.446111720000005
20
40.302308583000006
30
0
10
48.459098820532951
20
40.318763815503829
30
0
10
48.472196487758865
20
40.335440210314168
30
0
10
48.488403600423695
20
40.348625118480221
30
0
10
48.505780800397744
20
40.362761923139942
30
0
10
48.526275064372953
20
40.372531281948724
30
0
10
48.546521108999997
20
40.382254058000001
30
0
0
SPLINE
5
168
100
AcDbEntity
8
0
100
AcDbSpline
70
0
71
3
72
11
73
7
74
0
42
0.000000001
43
0.0000000001
44
0.0000000001
40
0
40
0
40
0
40
0
40
7.2738703459339791e-05
40
7.2738703459339791e-05
40
7.2738703459339791e-05
40
0.00015026300000000001
40
0.00015026300000000001
40
0.00015026300000000001
40
0.00015026300000000001
10
48.546521108999997
20
40.382254058000001
30
0
10
48.569437872528532
20
40.390173252735131
30
0
10
48.592471742587342
20
40.39814755677866
30
-2.2204460492503131e-15
10
48.616234107091394
20
40.402717823569063
30
-2.2204460492503131e-15
10
48.641559834726209
20
40.407588775360601
30
0
10
48.667504961760166
20
40.408557347048628
30
0
10
48.693314831999999
20
40.409539127999999
30
0
0
SPLINE
5
169
100
AcDbEntity
8
0
100
AcDbSpline
70
0
71
3
72
11
73
7
74
0
42
0.000000001
43
0.0000000001
44
0.0000000001
40
0
40
0
40
0
40
0
40
8.4127864820826107e-05
40
8.4127864820826107e-05
40
8.4127864820826107e-05
40
0.000160531
40
0.000160531
40
0.000160531
40
0.000160531
10
48.693314831999999
20
40.409539127999999
30
0
10
48.72134161419811
20
40.408597729195741
30
0
10
48.749533000148475
20
40.4076700311644
30
0
10
48.777012269067768
20
40.402376810205226
30
0
10
48.801968355880817
20
40.397569619658576
30
0
10
48.826148200374519
20
40.389199725779186
30
0
10
48.850204390000009
20
40.380889783000001
30
0
0
SPLINE
5
170
100
AcDbEntity
8
0
100
AcDbSpline
70
0
71
3
72
11
73
7
74
0
42
0.000000001
43
0.0000000001
44
0.0000000001
40
0
40
0
40
0
40
0
40
6.9952366475527114e-05
40
6.9952366475527114e-05
40
6.9952366475527114e-05
40
0.00013625700000000001
40
0.00013625700000000001
40
0.00013625700000000001
40
0.00013625700000000001
10
48.850204390000009
20
40.380889783000001
30
0
10
48.871127496210754
20
40.370596439268681
30
0
10
48.892328219706805
20
40.360232571680285
30
0
10
48.910299578862094
20
40.345487307136089
30
0
10
48.92733380433242
20
40.331510948492564
30
-2.2204460492503131e-15
10
48.941059904904449
20
40.313948068898036
30
0
10
48.954706233000003
20
40.296578714000006
30
0
0
SPLINE
5
171
100
AcDbEntity
8
0
100
AcDbSpline
70
0
71
3
72
11
73
7
74
0
42
0.000000001
43
0.0000000001
44
0.0000000001
40
0
40
0
40
0
40
0
40
6.5814148514421834e-05
40
6.5814148514421834e-05
40
6.5814148514421834e-05
40
0.000133659
40
0.000133659
40
0.000133659
40
0.000133659
10
48.954706233000003
20
40.296578714000006
30
0
10
48.965391128663001
20
40.277418286947658
30
0
10
48.976205561380667
20
40.258118242777776
30
0
10
48.982809822407972
20
40.237233574926464
30
0
10
48.989617858653709
20
40.215704508294422
30
-2.2204460492503131e-15
10
48.991790662707324
20
40.19302259831975
30
0
10
48.993997019000005
20
40.170521373
30
0
0
LINE
5
172
100
AcDbEntity
8
0
100
AcDbLine
10
48.993997019000012
20
40.170521373
30
0
11
48.892496268999999
21
40.162881546999998
31
0
0
SPLINE
5
173
100
AcDbEntity
8
0
100
AcDbSpline
70
0
71
3
72
11
73
7
74
0
42
0.000000001
43
0.0000000001
44
0.0000000001
40
0
40
0
40
0
40
0
40
6.938241415753423e-05
40
6.938241415753423e-05
40
6.938241415753423e-05
40
0.000130753
40
0.000130753
40
0.000130753
40
0.000130753
10
48.892496268999999
20
40.162881546999998
30
0
10
48.888754427208461
20
40.185705144493951
30
0
10
48.88501016127811
20
40.209144497746713
30
0
10
48.874555867718627
20
40.229457326996261
30
0
10
48.865308767742263
20
40.247424563309657
30
2.2204460492503131e-15
10
48.851047096098682
20
40.262562379265475
30
0
10
48.837107461000002
20
40.277479151000001
30
0
0
SPLINE
5
174
100
AcDbEntity
8
0
100
AcDbSpline
70
0
71
3
72
11
73
7
74
0
42
0.000000001
43
0.0000000001
44
0.0000000001
40
0
40
0
40
0
40
0
40
6.5447557687150555e-05
40
6.5447557687150555e-05
40
6.5447557687150555e-05
40
0.000147923
40
0.000147923
40
0.000147923
40
0.000147923
10
48.837107461000002
20
40.277479151000001
30
0
10
48.818337651903974
20
40.288598993263207
30
0
10
48.799224243820937
20
40.299962291587583
30
-2.2204460492503131e-15
10
48.7786490121687
20
40.306537831361183
30
-2.2204460492503131e-15
10
48.752720598776726
20
40.314824168857008
30
0
10
48.725029174821614
20
40.315468974896909
30
0
10
48.697680276
20
40.316224032999997
30
0
0
SPLINE
5
175
100
AcDbEntity
8
0
100
AcDbSpline
70
0
71
3
72
11
73
7
74
0
42
0.000000001
43
0.0000000001
44
0.0000000001
40
0
40
0
40
0
40
0
40
8.3940220699788319e-05
40
8.3940220699788319e-05
40
8.3940220699788319e-05
40
0.00014719200000000001
40
0.00014719200000000001
40
0.00014719200000000001
40
0.00014719200000000001
10
48.697680276
20
40.316224032999997
30
0
10
48.669703155335959
20
40.315799065434476
30
0
10
48.641139065973036
20
40.315418550611462
30
0
10
48.614665313747345
20
40.307424599986888
30
0
10
48.594716451103572
20
40.301400889345835
30
0
10
48.576143967726011
20
40.291153838285339
30
0
10
48.557707708000002
20
40.281026224000001
30
0
0
SPLINE
5
176
100
AcDbEntity
8
0
100
AcDbSpline
70
0
71
3
72
11
73
7
74
0
42
0.000000001
43
0.0000000001
44
0.0000000001
40
0
40
0
40
0
40
0
40
5.1319438344247857e-05
40
5.1319438344247857e-05
40
5.1319438344247857e-05
40
9.8961000000000003e-05
40
9.8961000000000003e-05
40
9.8961000000000003e-05
40
9.8961000000000003e-05
10
48.557707708000002
20
40.281026224000001
30
0
10
48.545229062137103
20
40.269321754463363
30
0
10
48.53236097575536
20
40.257541307212541
30
0
10
48.524761239671662
20
40.242213091607269
30
0
10
48.517706148913064
20
40.227983393224122
30
0
10
48.515810831541941
20
40.211923914931873
30
0
10
48.513778489000003
20
40.196169400000002
30
0
0
SPLINE
5
177
100
AcDbEntity
8
0
100
AcDbSpline
70
0
71
3
72
11
73
7
74
0
42
0.000000001
43
0.0000000001
44
0.0000000001
40
0
40
0
40
0
40
0
40
4.0390456260891771e-05
40
4.0390456260891771e-05
40
4.0390456260891771e-05
40
7.9882999999999994e-05
40
7.9882999999999994e-05
40
7.9882999999999994e-05
40
7.9882999999999994e-05
10
48.513778489000003
20
40.196169400000002
30
0
10
48.515000532346235
20
40.182757367780233
30
0
10
48.516143315740301
20
40.169082789839933
30
0
10
48.521554511457474
20
40.156878836706312
30
0
10
48.526845411915744
20
40.144946187324834
30
0
10
48.536023745510839
20
40.134973464506977
30
0
10
48.544883769000009
20
40.125228101000005
30
0
0
SPLINE
5
178
100
AcDbEntity
8
0
100
AcDbSpline
70
0
71
3
72
11
73
7
74
0
42
0.000000001
43
0.0000000001
44
0.0000000001
40
0
40
0
40
0
40
0
40
6.2105448443587944e-05
40
6.2105448443587944e-05
40
6.2105448443587944e-05
40
0.000170669
40
0.000170669
40
0.000170669
40
0.000170669
10
48.544883769000009
20
40.125228101000005
30
0
10
48.562966917907247
20
40.115150080741572
30
0
10
48.58107858961705
20
40.105050099049521
30
0
10
48.600068132598807
20
40.097056115226621
30
0
10
48.633262840634885
20
40.083082216049526
30
-2.2204460492503131e-15
10
48.66905207580615
20
40.075613690439766
30
0
10
48.704502026999997
20
40.068202102000001
30
0
0
SPLINE
5
179
100
AcDbEntity
8
0
100
AcDbSpline
70
0
71
3
72
11
73
7
74
0
42
0.000000001
43
0.0000000001
44
0.0000000001
40
0
40
0
40
0
40
0
40
0.00011223319119418561
40
0.00011223319119418561
40
0.00011223319119418561
40
0.000184532
40
0.000184532
40
0.000184532
40
0.000184532
10
48.704502026999997
20
40.068202102000001
30
0
10
48.741013070508934
20
40.06004510895545
30
0
10
48.777573495225226
20
40.051879606697042
30
0
10
48.813301363889643
20
40.040848786307436
30
0
10
48.836316679752315
20
40.03374290999907
30
0
10
48.858956862763698
20
40.025457605050427
30
0
10
48.88158206300001
20
40.017178887
30
0
0
SPLINE
5
180
100
AcDbEntity
8
0
100
AcDbSpline
70
0
71
3
72
11
73
7
74
0
42
0.000000001
43
0.0000000001
44
0.0000000001
40
0
40
0
40
0
40
0
40
7.1020935684027229e-05
40
7.1020935684027229e-05
40
7.1020935684027229e-05
40
0.000133101
40
0.000133101
40
0.000133101
40
0.000133101
10
48.88158206300001
20
40.017178887
30
0
10
48.902691883229053
20
40.006462499430285
30
0
10
48.9240526856928
20
39.995671046171381
30
-2.2204460492503131e-15
10
48.942291776684463
20
39.980685050502053
30
-2.2204460492503131e-15
10
48.958234736755628
20
39.967585651486381
30
0
10
48.971513284424262
20
39.951519609329551
30
0
10
48.984720152000001
20
39.935596371000003
30
0
0
SPLINE
5
181
100
AcDbEntity
8
0
100
AcDbSpline
70
0
71
3
72
11
73
7
74
0
42
0.000000001
43
0.0000000001
44
0.0000000001
40
0
40
0
40
0
40
0
40
5.8866367953374192e-05
40
5.8866367953374192e-05
40
5.8866367953374192e-05
40
0.000120343
40
0.000120343
40
0.000120343
40
0.000120343
10
48.984720152000001
20
39.935596371000003
30
0
10
48.994321784527877
20
39.918483300822103
30
0
10
49.004076038479162
20
39.901191235420811
30
0
10
49.009686153823566
20
39.882458678975226
30
0
10
49.015545034008603
20
39.862895479818619
30
-2.2204460492503131e-15
10
49.016754345657255
20
39.842250921016706
30
0
10
49.018008154000007
20
39.821817363000001
30
0
0
SPLINE
5
182
100
AcDbEntity
8
0
100
AcDbSpline
70
0
71
3
72
11
73
7
74
0
42
0.000000001
43
0.0000000001
44
0.0000000001
40
0
40
0
40
0
40
0
40
6.2837917217391741e-05
40
6.2837917217391741e-05
40
6.2837917217391741e-05
40
0.00012749500000000001
40
0.00012749500000000001
40
0.00012749500000000001
40
0.00012749500000000001
10
49.018008154000007
20
39.821817363000001
30
0
10
49.01641816130855
20
39.800931471739666
30
0
10
49.014866409725506
20
39.779849734992041
30
0
10
49.00886778158678
20
39.759811991976342
30
0
10
49.002695492412933
20
39.739194153793377
30
-2.2204460492503131e-15
10
48.991999555407361
20
39.720275705526042
30
0
10
48.981446069000008
20
39.701490038999999
30
0
0
SPLINE
5
183
100
AcDbEntity
8
0
100
AcDbSpline
70
0
71
3
72
11
73
7
74
0
42
0.000000001
43
0.0000000001
44
0.0000000001
40
0
40
0
40
0
40
0
40
6.7276986678203724e-05
40
6.7276986678203724e-05
40
6.7276986678203724e-05
40
0.00013881000000000001
40
0.00013881000000000001
40
0.00013881000000000001
40
0.00013881000000000001
10
48.981446069000008
20
39.701490038999999
30
0
10
48.967740075490795
20
39.683739708844577
30
0
10
48.953925370232952
20
39.665775993691568
30
0
10
48.936902921948857
20
39.651285344836538
30
0
10
48.918803612214603
20
39.635877999341901
30
0
10
48.897486261805795
20
39.624726891455509
30
0
10
48.876398246999997
20
39.613631898000001
30
0
0
SPLINE
5
184
100
AcDbEntity
8
0
100
AcDbSpline
70
0
71
3
72
11
73
7
74
0
42
0.000000001
43
0.0000000001
44
0.0000000001
40
0
40
0
40
0
40
0
40
7.6602022684997418e-05
40
7.6602022684997418e-05
40
7.6602022684997418e-05
40
0.00015853899999999999
40
0.00015853899999999999
40
0.00015853899999999999
40
0.00015853899999999999
10
48.876398246999997
20
39.613631898000001
30
0
10
48.852540242411521
20
39.604533324176899
30
0
10
48.828539241022511
20
39.595359470144011
30
0
10
48.80361561090961
20
39.590098494116212
30
0
10
48.776956172377986
20
39.58447111694867
30
2.2204460492503131e-15
10
48.749505814314688
20
39.583371658007337
30
0
10
48.722237389999997
20
39.582253926999996
30
0
0
SPLINE
5
185
100
AcDbEntity
8
0
100
AcDbSpline
70
0
71
3
72
11
73
7
74
0
42
0.000000001
43
0.0000000001
44
0.0000000001
40
0
40
0
40
0
40
0
40
0.00010031324977123761
40
0.00010031324977123761
40
0.00010031324977123761
40
0.00018597199999999999
40
0.00018597199999999999
40
0.00018597199999999999
40
0.00018597199999999999
10
48.722237389999997
20
39.582253926999996
30
0
10
48.688810409021428
20
39.58310231685364
30
0
10
48.655182591468744
20
39.583935078657412
30
0
10
48.622441929911915
20
39.590166592548499
30
0
10
48.594484265724809
20
39.595487760920193
30
-2.2204460492503131e-15
10
48.567282570853351
20
39.604730405543094
30
0
10
48.540245336000005
20
39.613904738999999
30
0
0
SPLINE
5
186
100
AcDbEntity
8
0
100
AcDbSpline
70
0
71
3
72
11
73
7
74
0
42
0.000000001
43
0.0000000001
44
0.0000000001
40
0
40
0
40
0
40
0
40
7.6807562921074661e-05
40
7.6807562921074661e-05
40
7.6807562921074661e-05
40
0.00015208299999999999
40
0.00015208299999999999
40
0.00015208299999999999
40
0.00015208299999999999
10
48.540245336000005
20
39.613904738999999
30
0
10
48.517429711288536
20
39.625521339243598
30
0
10
48.494248293273699
20
39.637289645367147
30
-2.2204460492503131e-15
10
48.4747612896048
20
39.653536313703867
30
-2.2204460492503131e-15
10
48.455663004712683
20
39.669458900147333
30
0
10
48.440370233028808
20
39.68936209570024
30
0
10
48.425102275
20
39.709129864000005
30
0
0
SPLINE
5
187
100
AcDbEntity
8
0
100
AcDbSpline
70
0
71
3
72
11
73
7
74
0
42
0.000000001
43
0.0000000001
44
0.0000000001
40
0
40
0
40
0
40
0
40
7.5044797771376949e-05
40
7.5044797771376949e-05
40
7.5044797771376949e-05
40
0.000152375
40
0.000152375
40
0.000152375
40
0.000152375
10
48.425102275
20
39.709129864000005
30
0
10
48.412945985036643
20
39.730992580191618
30
0
10
48.400615830074834
20
39.753087361944949
30
-2.2204460492503131e-15
10
48.393246571677864
20
39.776865180980437
30
-2.2204460492503131e-15
10
48.385652890849393
20
39.801367126607239
30
0
10
48.383426814229097
20
39.827273120429261
30
0
10
48.381173056000009
20
39.852922493000008
30
0
0
LINE
5
188
100
AcDbEntity
8
0
100
AcDbLine
10
47.870395821000002
20
39.876387649999998
30
0
11
47.976262014
21
39.849648260999999
31
0
0
SPLINE
5
189
100
AcDbEntity
8
0
100
AcDbSpline
70
0
71
3
72
11
73
7
74
0
42
0.000000001
43
0.0000000001
44
0.0000000001
40
0
40
0
40
0
40
0
40
0.00012443556881615756
40
0.00012443556881615756
40
0.00012443556881615756
40
0.00023625600000000001
40
0.00023625600000000001
40
0.00023625600000000001
40
0.00023625600000000001
10
47.976262014
20
39.849648260999999
30
0
10
47.963975984777257
20
39.810030893060869
30
0
10
47.951659282040531
20
39.769779738787619
30
0
10
47.929672043835438
20
39.734709644834375
30
0
10
47.909913847043114
20
39.703194917455228
30
0
10
47.882986524782424
20
39.676853057666975
30
0
10
47.856479924000006
20
39.650739664
30
0
0
SPLINE
5
190
100
AcDbEntity
8
0
100
AcDbSpline
70
0
71
3
72
11
73
7
74
0
42
0.000000001
43
0.0000000001
44
0.0000000001
40
0
40
0
40
0
40
0
40
0.00010932616485736675
40
0.00010932616485736675
40
0.00010932616485736675
40
0.000226195
40
0.000226195
40
0.000226195
40
0.000226195
10
47.856479924000006
20
39.650739664
30
0
10
47.825815840070476
20
39.631048629468282
30
0
10
47.794896689336326
20
39.611007696579613
30
0
10
47.760368627621247
20
39.599375361728676
30
0
10
47.723458393391041
20
39.58694048462683
30
-2.2204460492503131e-15
10
47.683931071370374
20
39.584662682706437
30
0
10
47.645020526000003
20
39.582253926999996
30
0
0
SPLINE
5
191
100
AcDbEntity
8
0
100
AcDbSpline
70
0
71
3
72
11
73
7
74
0
42
0.000000001
43
0.0000000001
44
0.0000000001
40
0
40
0
40
0
40
0
40
0.00011831869155354277
40
0.00011831869155354277
40
0.00011831869155354277
40
0.000219593
40
0.000219593
40
0.000219593
40
0.000219593
10
47.645020526000003
20
39.582253926999996
30
0
10
47.605606547884378
20
39.583672698615224
30
0
10
47.56575599423666
20
39.584998390412785
30
0
10
47.527762692523545
20
39.595419102928389
30
0
10
47.495242510749463
20
39.604338661112145
30
0
10
47.464815663743337
20
39.619732210935929
30
0
10
47.434651893000002
20
39.634914332999998
30
0
0
SPLINE
5
192
100
AcDbEntity
8
0
100
AcDbSpline
70
0
71
3
72
11
73
7
74
0
42
0.000000001
43
0.0000000001
44
0.0000000001
40
0
40
0
40
0
40
0
40
9.6504941372172132e-05
40
9.6504941372172132e-05
40
9.6504941372172132e-05
40
0.000199204
40
0.000199204
40
0.000199204
40
0.000199204
10
47.434651893000002
20
39.634914332999998
30
0
10
47.40930533925544
20
39.654722449230988
30
0
10
47.383836324149513
20
39.674461445361814
30
0
10
47.363301557688438
20
39.699375413520897
30
0
10
47.341448778393328
20
39.725888471196932
30
0
10
47.326414018396648
20
39.756778734997425
30
0
10
47.311323326000007
20
39.787438148
30
0
0
SPLINE
5
193
100
AcDbEntity
8
0
100
AcDbSpline
70
0
71
3
72
11
73
7
74
0
42
0.000000001
43
0.0000000001
44
0.0000000001
40
0
40
0
40
0
40
0
40
0.00010842926342996349
40
0.00010842926342996349
40
0.00010842926342996349
40
0.00021991299999999999
40
0.00021991299999999999
40
0.00021991299999999999
40
0.00021991299999999999
10
47.311323326000007
20
39.787438148
30
0
10
47.299050401041924
20
39.821433857685953
30
0
10
47.28670276448355
20
39.855529699638439
30
-2.2204460492503131e-15
10
47.279604713426302
20
39.890985129091234
30
-2.2204460492503131e-15
10
47.272306708909859
20
39.927439344789605
30
0
10
47.270682506402096
20
39.964759160744443
30
0
10
47.269031446000007
20
40.001899237000003
30
0
0
SPLINE
5
194
100
AcDbEntity
8
0
100
AcDbSpline
70
0
71
3
72
11
73
7
74
0
42
0.000000001
43
0.0000000001
44
0.0000000001
40
0
40
0
40
0
40
0
40
0.00011780125988765289
40
0.00011780125988765289
40
0.00011780125988765289
40
0.00022512000000000001
40
0.00022512000000000001
40
0.00022512000000000001
40
0.00022512000000000001
10
47.269031446000007
20
40.001899237000003
30
0
10
47.270613569260505
20
40.041134559326679
30
0
10
47.272145489605123
20
40.080640721591365
30
0
10
47.280968469215537
20
40.118884231992226
30
0
10
47.289006337882896
20
40.153724651845181
30
-2.2204460492503131e-15
10
47.302960356688928
20
40.186914507118757
30
0
10
47.316780131000009
20
40.219907397000007
30
0
0
SPLINE
5
195
100
AcDbEntity
8
0
100
AcDbSpline
70
0
71
3
72
11
73
7
74
0
42
0.000000001
43
0.0000000001
44
0.0000000001
40
0
40
0
40
0
40
0
40
0.00010057923284151414
40
0.00010057923284151414
40
0.00010057923284151414
40
0.00019925300000000001
40
0.00019925300000000001
40
0.00019925300000000001
40
0.00019925300000000001
10
47.316780131000009
20
40.219907397000007
30
0
10
47.334031216274994
20
40.248654951288771
30
0
10
47.351204254347692
20
40.277560551030177
30
2.2204460492503131e-15
10
47.37462464868878
20
40.301762900812804
30
2.2204460492503131e-15
10
47.397601345494735
20
40.32550673897574
30
-2.2204460492503131e-15
10
47.425195478475636
20
40.343323525890739
30
0
10
47.452660244
20
40.361244464000009
30
0
0
SPLINE
5
196
100
AcDbEntity
8
0
100
AcDbSpline
70
0
71
3
72
11
73
7
74
0
42
0.000000001
43
0.0000000001
44
0.0000000001
40
0
40
0
40
0
40
0
40
9.9637639872728162e-05
40
9.9637639872728162e-05
40
9.9637639872728162e-05
40
0.000202141
40
0.000202141
40
0.000202141
40
0.000202141
10
47.452660244
20
40.361244464000009
30
0
10
47.482786589546407
20
40.375225757885211
30
0
10
47.513094435065057
20
40.389347588540126
30
2.2204460492503131e-15
10
47.545224466050051
20
40.397465460544893
30
2.2204460492503131e-15
10
47.578278602430274
20
40.405816814095985
30
-2.2204460492503131e-15
10
47.612604971239463
20
40.407655085338391
30
0
10
47.646657269000002
20
40.409539127999999
30
0
0
SPLINE
5
197
100
AcDbEntity
8
0
100
AcDbSpline
70
0
71
3
72
11
73
7
74
0
42
0.000000001
43
0.0000000001
44
0.0000000001
40
0
40
0
40
0
40
0
40
0.00011193230443055777
40
0.00011193230443055777
40
0.00011193230443055777
40
0.000214286
40
0.000214286
40
0.000214286
40
0.000214286
10
47.646657269000002
20
40.409539127999999
30
0
10
47.683912014740137
20
40.407494280886674
30
0
10
47.721585521556008
20
40.405589144151435
30
0
10
47.757161898617909
20
40.394259476211928
30
0
10
47.789693826605848
20
40.383899344799616
30
0
10
47.819272532354816
20
40.366006024932581
30
0
10
47.848567408000008
20
40.348420450000006
30
0
0
SPLINE
5
198
100
AcDbEntity
8
0
100
AcDbSpline
70
0
71
3
72
11
73
7
74
0
42
0.000000001
43
0.0000000001
44
0.0000000001
40
0
40
0
40
0
40
0
40
0.00010150066118453974
40
0.00010150066118453974
40
0.00010150066118453974
40
0.000209466
40
0.000209466
40
0.000209466
40
0.000209466
10
47.848567408000008
20
40.348420450000006
30
0
10
47.873629801842043
20
40.325691741189601
30
0
10
47.898943654868972
20
40.302948347632217
30
0
10
47.918008605905996
20
40.274887020921881
30
0
10
47.938287822555345
20
40.245038440523118
30
0
10
47.950468257006548
20
40.210525566794004
30
0
10
47.962619107000002
20
40.176524157000003
30
0
0
LINE
5
199
100
AcDbEntity
8
0
100
AcDbLine
10
47.962619107000002
20
40.176524156999996
30
0
11
47.858390253000003
21
40.151967490000004
31
0
0
SPLINE
5
200
100
AcDbEntity
8
0
100
AcDbSpline
70
0
71
3
72
11
73
7
74
0
42
0.000000001
43
0.0000000001
44
0.0000000001
40
0
40
0
40
0
40
0
40
8.317765367597013e-05
40
8.317765367597013e-05
40
8.317765367597013e-05
40
0.00015340699999999999
40
0.00015340699999999999
40
0.00015340699999999999
40
0.00015340699999999999
10
47.858390253000003
20
40.151967490000004
30
0
10
47.849063201379742
20
40.178077670436487
30
0
10
47.839603652378912
20
40.204668880941838
30
0
10
47.824283879176875
20
40.227410877017888
30
0
10
47.811348942805608
20
40.24661261508021
30
0
10
47.794413450138023
20
40.262905328529193
30
0
10
47.777626554999998
20
40.279116193
30
0
0
SPLINE
5
201
100
AcDbEntity
8
0
100
AcDbSpline
70
0
71
3
72
11
73
7
74
0
42
0.000000001
43
0.0000000001
44
0.0000000001
40
0
40
0
40
0
40
0
40
6.700738336519063e-05
40
6.700738336519063e-05
40
6.700738336519063e-05
40
0.00014189899999999999
40
0.00014189899999999999
40
0.00014189899999999999
40
0.00014189899999999999
10
47.777626554999998
20
40.279116193
30
0
10
47.758458373722505
20
40.290582785300899
30
0
10
47.738990732140408
20
40.302279456792675
30
0
10
47.71787170892847
20
40.30899339256721
30
0
10
47.69426777588918
20
40.316497304507728
30
0
10
47.669273296812676
20
40.317677862476458
30
0
10
47.644474547000002
20
40.31895251000001
30
0
0
SPLINE
5
202
100
AcDbEntity
8
0
100
AcDbSpline
70
0
71
3
72
11
73
7
74
0
42
0.000000001
43
0.0000000001
44
0.0000000001
40
0
40
0
40
0
40
0
40
8.5774716673008735e-05
40
8.5774716673008735e-05
40
8.5774716673008735e-05
40
0.00016339699999999999
40
0.00016339699999999999
40
0.00016339699999999999
40
0.00016339699999999999
10
47.644474547000002
20
40.31895251000001
30
0
10
47.615917887681704
20
40.317537164377484
30
0
10
47.58686290707989
20
40.316136538311873
30
0
10
47.559822244289393
20
40.307902033026473
30
0
10
47.535351653538541
20
40.300450173934266
30
0
10
47.512740730360449
20
40.287519213838962
30
0
10
47.490313690000001
20
40.274750599000001
30
0
0
SPLINE
5
203
100
AcDbEntity
8
0
100
AcDbSpline
70
0
71
3
72
11
73
7
74
0
42
0.000000001
43
0.0000000001
44
0.0000000001
40
0
40
0
40
0
40
0
40
7.4160972753053504e-05
40
7.4160972753053504e-05
40
7.4160972753053504e-05
40
0.00015012399999999999
40
0.00015012399999999999
40
0.00015012399999999999
40
0.00015012399999999999
10
47.490313690000001
20
40.274750599000001
30
0
10
47.47139437461221
20
40.258839135885871
30
0
10
47.452126372261851
20
40.242689041611669
30
0
10
47.437585037445444
20
40.222977037109317
30
0
10
47.42269035939767
20
40.202786046086445
30
-2.2204460492503131e-15
10
47.412985303646018
20
40.179323788169896
30
0
10
47.403274218999996
20
40.156060242999999
30
0
0
SPLINE
5
204
100
AcDbEntity
8
0
100
AcDbSpline
70
0
71
3
72
11
73
7
74
0
42
0.000000001
43
0.0000000001
44
0.0000000001
40
0
40
0
40
0
40
0
40
7.8024394245868818e-05
40
7.8024394245868818e-05
40
7.8024394245868818e-05
40
0.000156336
40
0.000156336
40
0.000156336
40
0.000156336
10
47.403274218999996
20
40.156060242999999
30
0
10
47.395976291651927
20
40.131096886755522
30
0
10
47.388643380540913
20
40.106048057304548
30
-2.2204460492503131e-15
10
47.384446900494694
20
40.08041218871071
30
-2.2204460492503131e-15
10
47.380234973005734
20
40.054681953264605
30
0
10
47.37920685429345
20
40.028518043206304
30
0
10
47.378171723000008
20
40.002444917000005
30
0
0
SPLINE
5
205
100
AcDbEntity
8
0
100
AcDbSpline
70
0
71
3
72
11
73
7
74
0
42
0.000000001
43
0.0000000001
44
0.0000000001
40
0
40
0
40
0
40
0
40
9.602015315571251e-05
40
9.602015315571251e-05
40
9.602015315571251e-05
40
0.00018162399999999999
40
0.00018162399999999999
40
0.00018162399999999999
40
0.00018162399999999999
10
47.378171723000008
20
40.002444917000005
30
0
10
47.379100598796825
20
39.97045163787103
30
0
10
47.380004593576828
20
39.938383215722553
30
0
10
47.385606806228999
20
39.906878856349067
30
0
10
47.390601288513238
20
39.878792103036332
30
0
10
47.399282421388108
20
39.851480230650452
30
0
10
47.407912652999997
20
39.824273074000004
30
0
0
SPLINE
5
206
100
AcDbEntity
8
0
100
AcDbSpline
70
0
71
3
72
11
73
7
74
0
42
0.000000001
43
0.0000000001
44
0.0000000001
40
0
40
0
40
0
40
0
40
7.6929858497649633e-05
40
7.6929858497649633e-05
40
7.6929858497649633e-05
40
0.00014975500000000001
40
0.00014975500000000001
40
0.00014975500000000001
40
0.00014975500000000001
10
47.407912652999997
20
39.824273074000004
30
0
10
47.418724902339015
20
39.801020443315394
30
0
10
47.429694724801841
20
39.777298887144937
30
0
10
47.445907631115816
20
39.75776546881341
30
0
10
47.461255471597227
20
39.739274287602385
30
-2.2204460492503131e-15
10
47.48094226362565
20
39.724851221598477
30
0
10
47.500408929000002
20
39.710494064999999
30
0
0
SPLINE
5
207
100
AcDbEntity
8
0
100
AcDbSpline
70
0
71
3
72
11
73
7
74
0
42
0.000000001
43
0.0000000001
44
0.0000000001
40
0
40
0
40
0
40
0
40
7.1358585714829275e-05
40
7.1358585714829275e-05
40
7.1358585714829275e-05
40
0.00014276999999999999
40
0.00014276999999999999
40
0.00014276999999999999
40
0.00014276999999999999
10
47.500408929000002
20
39.710494064999999
30
0
10
47.521560705592769
20
39.699612764222778
30
0
10
47.542905826560087
20
39.688584724732706
30
0
10
47.565757074782802
20
39.682253981565545
30
0
10
47.588625240363982
20
39.675918551588694
30
0
10
47.612555429959713
20
39.674397049376672
30
0
10
47.636289638000008
20
39.672840618999999
30
0
0
SPLINE
5
208
100
AcDbEntity
8
0
100
AcDbSpline
70
0
71
3
72
11
73
7
74
0
42
0.000000001
43
0.0000000001
44
0.0000000001
40
0
40
0
40
0
40
0
40
8.3563365675909908e-05
40
8.3563365675909908e-05
40
8.3563365675909908e-05
40
0.00016272500000000001
40
0.00016272500000000001
40
0.00016272500000000001
40
0.00016272500000000001
10
47.636289638000008
20
39.672840618999999
30
0
10
47.664082291858819
20
39.674698245948093
30
0
10
47.692451094800859
20
39.676524364754627
30
0
10
47.718417684668033
20
39.685664707462792
30
0
10
47.743016474760836
20
39.694323579220864
30
0
10
47.765099581686599
20
39.709372196085425
30
0
10
47.786903422000002
20
39.724136674999997
30
0
0
SPLINE
5
209
100
AcDbEntity
8
0
100
AcDbSpline
70
0
71
3
72
11
73
7
74
0
42
0.000000001
43
0.0000000001
44
0.0000000001
40
0
40
0
40
0
40
0
40
8.2579229969594186e-05
40
8.2579229969594186e-05
40
8.2579229969594186e-05
40
0.000176551
40
0.000176551
40
0.000176551
40
0.000176551
10
47.786903422000002
20
39.724136674999997
30
0
10
47.805820050566183
20
39.744133483260896
30
0
10
47.82487311898754
20
39.764124193990725
30
0
10
47.838608662486095
20
39.787847332389454
30
0
10
47.85423914651173
20
39.814843288961413
30
2.2204460492503131e-15
10
47.862367380695368
20
39.845948855050011
30
0
10
47.870395821000002
20
39.876387649999998
30
0
0
LINE
5
210
100
AcDbEntity
8
0
100
AcDbLine
10
45.975716452999997
20
39.595896535999998
30
0
11
45.665757399
21
40.395896518000001
31
0
0
LINE
5
211
100
AcDbEntity
8
0
100
AcDbLine
10
45.665757399
20
40.395896518000001
30
0
11
45.780355077000003
21
40.395896518000001
31
0
0
LINE
5
212
100
AcDbEntity
8
0
100
AcDbLine
10
45.780355077000003
20
40.395896518000001
30
0
11
45.988267700999998
21
39.814723217999997
31
0
0
SPLINE
5
213
100
AcDbEntity
8
0
100
AcDbSpline
70
0
71
3
72
11
73
7
74
0
42
0.000000001
43
0.0000000001
44
0.0000000001
40
0
40
0
40
0
40
0
40
7.1490767023607045e-05
40
7.1490767023607045e-05
40
7.1490767023607045e-05
40
0.000137575
40
0.000137575
40
0.000137575
40
0.000137575
10
45.988267700999998
20
39.814723217999997
30
0
10
45.99617176224892
20
39.792241918297236
30
0
10
46.004077989483065
20
39.769754634381599
30
0
10
46.011323671220687
20
39.747056152081967
30
0
10
46.018021393737271
20
39.726074256727493
30
0
10
46.024154709569636
20
39.704911901770089
30
0
10
46.030286592000003
20
39.683754677000003
30
0
0
SPLINE
5
214
100
AcDbEntity
8
0
100
AcDbSpline
70
0
71
3
72
11
73
7
74
0
42
0.000000001
43
0.0000000001
44
0.0000000001
40
0
40
0
40
0
40
0
40
6.8490757865082475e-05
40
6.8490757865082475e-05
40
6.8490757865082475e-05
40
0.00013792000000000001
40
0.00013792000000000001
40
0.00013792000000000001
40
0.00013792000000000001
10
46.030286592000003
20
39.683754677000003
30
0
10
46.036747652037995
20
39.705651578685796
30
0
10
46.043210622302013
20
39.727555200102181
30
0
10
46.050341468908762
20
39.749239024347872
30
0
10
46.057570024864617
20
39.771219967921752
30
-2.2204460492503131e-15
10
46.065484882158856
20
39.79297505068439
30
0
10
46.073397141000001
20
39.81472321799999
30
6.6613381477509392e-15
0
LINE
5
215
100
AcDbEntity
8
0
100
AcDbLine
10
46.073397141000001
20
39.81472321799999
30
6.6613381477509392e-15
11
46.289495271000007
21
40.395896518000001
31
0
0
LINE
5
216
100
AcDbEntity
8
0
100
AcDbLine
10
46.289495271000007
20
40.395896518000001
30
0
11
46.397544484999997
21
40.395896518000001
31
0
0
LINE
5
217
100
AcDbEntity
8
0
100
AcDbLine
10
46.397544484999997
20
40.395896518000001
30
0
11
46.084311347000011
21
39.595896535999998
31
0
0
LINE
5
218
100
AcDbEntity
8
0
100
AcDbLine
10
46.084311347000011
20
39.595896535999998
30
0
11
45.975716452999997
21
39.595896535999998
31
0
0
LWPOLYLINE
5
219
100
AcDbEntity
8
0
100
AcDbPolyline
90
10
70
1
43
0.0
10
43.821282428000004
20
39.595896535999998
10
43.821282428000004
20
40.395896518000001
10
43.92987732200001
20
40.395896518000001
10
44.350068311999998
20
39.767792905
10
44.350068311999998
20
40.395896518000001
10
44.451569062000004
20
40.395896518000001
10
44.451569062000004
20
39.595896535999998
10
44.342974167000008
20
39.595896535999998
10
43.922783176999999
20
40.224545904999999
10
43.922783176999999
20
39.595896535999998
0
LINE
5
220
100
AcDbEntity
8
0
100
AcDbLine
10
50.824283401999999
20
39.852922493000008
30
0
11
50.924146812000004
21
39.861653680000003
31
0
0
SPLINE
5
221
100
AcDbEntity
8
0
100
AcDbSpline
70
0
71
3
72
11
73
7
74
0
42
0.000000001
43
0.0000000001
44
0.0000000001
40
0
40
0
40
0
40
0
40
5.6024650312935342e-05
40
5.6024650312935342e-05
40
5.6024650312935342e-05
40
0.00010497600000000001
40
0.00010497600000000001
40
0.00010497600000000001
40
0.00010497600000000001
10
50.924146812000004
20
39.861653680000003
30
0
10
50.926943989425162
20
39.843188976509055
30
0
10
50.929731560151438
20
39.82459999296357
30
-2.2204460492503131e-15
10
50.935947936665912
20
39.807015293046362
30
-2.2204460492503131e-15
10
50.941379474727228
20
39.791650720666489
30
2.2204460492503131e-15
10
50.94929337913041
20
39.777390260378681
30
0
10
50.957161825
20
39.763154321999998
30
0
0
SPLINE
5
222
100
AcDbEntity
8
0
100
AcDbSpline
70
0
71
3
72
11
73
7
74
0
42
0.000000001
43
0.0000000001
44
0.0000000001
40
0
40
0
40
0
40
0
40
4.8104887774443123e-05
40
4.8104887774443123e-05
40
4.8104887774443123e-05
40
0.00010308500000000001
40
0.00010308500000000001
40
0.00010308500000000001
40
0.00010308500000000001
10
50.957161825
20
39.763154321999998
30
0
10
50.967431915975034
20
39.750838449541284
30
0
10
50.977785482703041
20
39.738378065613738
30
0
10
50.990244789009765
20
39.728365771514589
30
0
10
51.004484798511683
20
39.716922504963634
30
0
10
51.021164531073438
20
39.708911978165546
30
0
10
51.037653130000002
20
39.700944358000001
30
0
0
SPLINE
5
223
100
AcDbEntity
8
0
100
AcDbSpline
70
0
71
3
72
11
73
7
74
0
42
0.000000001
43
0.0000000001
44
0.0000000001
40
0
40
0
40
0
40
0
40
6.0736817734020447e-05
40
6.0736817734020447e-05
40
6.0736817734020447e-05
40
0.00012588000000000001
40
0.00012588000000000001
40
0.00012588000000000001
40
0.00012588000000000001
10
51.037653130000002
20
39.700944358000001
30
0
10
51.056691608535722
20
39.694057108743294
30
0
10
51.075784793089127
20
39.687128621061035
30
-2.2204460492503131e-15
10
51.095634146088784
20
39.683140748642799
30
-2.2204460492503131e-15
10
51.116923539714577
20
39.678863562094548
30
0
10
51.13872977142276
20
39.678044035900662
30
0
10
51.160436314000002
20
39.677206212000002
30
0
0
SPLINE
5
224
100
AcDbEntity
8
0
100
AcDbSpline
70
0
71
3
72
11
73
7
74
0
42
0.000000001
43
0.0000000001
44
0.0000000001
40
0
40
0
40
0
40
0
40
5.7310832656784063e-05
40
5.7310832656784063e-05
40
5.7310832656784063e-05
40
0.000109054
40
0.000109054
40
0.000109054
40
0.000109054
10
51.160436314000002
20
39.677206212000002
30
0
10
51.179531202525432
20
39.67779149296598
30
0
10
51.198679927524665
20
39.678365203899737
30
0
10
51.217461863332673
20
39.681708300029889
30
0
10
51.234419160975918
20
39.684726619158887
30
0
10
51.250948805454314
20
39.689987779685879
30
0
10
51.267393868000006
20
39.695214415000002
30
0
0
SPLINE
5
225
100
AcDbEntity
8
0
100
AcDbSpline
70
0
71
3
72
11
73
7
74
0
42
0.000000001
43
0.0000000001
44
0.0000000001
40
0
40
0
40
0
40
0
40
4.6014095180861101e-05
40
4.6014095180861101e-05
40
4.6014095180861101e-05
40
8.6094999999999995e-05
40
8.6094999999999995e-05
40
8.6094999999999995e-05
40
8.6094999999999995e-05
10
51.267393868000006
20
39.695214415000002
30
0
10
51.28145964628257
20
39.701334081022686
30
0
10
51.295660926725439
20
39.707486127315299
30
0
10
51.307843963877566
20
39.716564946775954
30
0
10
51.318456085023989
20
39.72447311702777
30
0
10
51.327498596877525
20
39.734606126377166
30
0
10
51.336424988000005
20
39.74460043900001
30
0
0
SPLINE
5
226
100
AcDbEntity
8
0
100
AcDbSpline
70
0
71
3
72
11
73
7
74
0
42
0.000000001
43
0.0000000001
44
0.0000000001
40
0
40
0
40
0
40
0
40
3.7160838927852022e-05
40
3.7160838927852022e-05
40
3.7160838927852022e-05
40
7.3447000000000003e-05
40
7.3447000000000003e-05
40
7.3447000000000003e-05
40
7.3447000000000003e-05
10
51.336424988000005
20
39.74460043900001
30
0
10
51.342965438305875
20
39.755123361727208
30
0
10
51.349610190331745
20
39.76577809099301
30
0
10
51.353409928141083
20
39.777410861400334
30
0
10
51.357120229150425
20
39.788769824031263
30
0
10
51.358095956426268
20
39.801018501366862
30
0
10
51.359071772999997
20
39.813086175999999
30
0
0
SPLINE
5
227
100
AcDbEntity
8
0
100
AcDbSpline
70
0
71
3
72
11
73
7
74
0
42
0.000000001
43
0.0000000001
44
0.0000000001
40
0
40
0
40
0
40
0
40
3.5894648932177294e-05
40
3.5894648932177294e-05
40
3.5894648932177294e-05
40
7.0642000000000006e-05
40
7.0642000000000006e-05
40
7.0642000000000006e-05
40
7.0642000000000006e-05
10
51.359071772999997
20
39.813086175999999
30
0
10
51.358229327257298
20
39.825025084179352
30
0
10
51.357399811316931
20
39.837147459923024
30
0
10
51.353614966696085
20
39.848352308431551
30
0
10
51.349951096768677
20
39.859199017241089
30
0
10
51.343534507047622
20
39.869101101116378
30
0
10
51.337243956000009
20
39.878843361000008
30
0
0
SPLINE
5
228
100
AcDbEntity
8
0
100
AcDbSpline
70
0
71
3
72
11
73
7
74
0
42
0.000000001
43
0.0000000001
44
0.0000000001
40
0
40
0
40
0
40
0
40
3.8952086101331843e-05
40
3.8952086101331843e-05
40
3.8952086101331843e-05
40
8.7307999999999998e-05
40
8.7307999999999998e-05
40
8.7307999999999998e-05
40
8.7307999999999998e-05
10
51.337243956000009
20
39.878843361000008
30
0
10
51.328088512423086
20
39.888052247561426
30
0
10
51.318864265801238
20
39.897340497006127
30
0
10
51.308321400404964
20
39.904695979795378
30
0
10
51.295233272338564
20
39.913827226104367
30
-2.2204460492503131e-15
10
51.280134452885697
20
39.91996479383107
30
0
10
51.265211145999999
20
39.926046663999998
30
0
0
SPLINE
5
229
100
AcDbEntity
8
0
100
AcDbSpline
70
0
71
3
72
11
73
7
74
0
42
0.000000001
43
0.0000000001
44
0.0000000001
40
0
40
0
40
0
40
0
40
5.4137104833190015e-05
40
5.4137104833190015e-05
40
5.4137104833190015e-05
40
0.000147739
40
0.000147739
40
0.000147739
40
0.000147739
10
51.265211145999999
20
39.926046663999998
30
0
10
51.248026871744912
20
39.9315557102884
30
0
10
51.230837293747356
20
39.937066530336075
30
0
10
51.213505905209182
20
39.942076587545507
30
0
10
51.183540305496287
20
39.950738869193955
30
0
10
51.153150729973653
20
39.957904002001627
30
0
10
51.122782867000005
20
39.965064311000006
30
0
0
SPLINE
5
230
100
AcDbEntity
8
0
100
AcDbSpline
70
0
71
3
72
11
73
7
74
0
42
0.000000001
43
0.0000000001
44
0.0000000001
40
0
40
0
40
0
40
0
40
9.7270243467012524e-05
40
9.7270243467012524e-05
40
9.7270243467012524e-05
40
0.000162602
40
0.000162602
40
0.000162602
40
0.000162602
10
51.122782867000005
20
39.965064311000006
30
0
10
51.091247015520153
20
39.972598965999659
30
0
10
51.059671237022187
20
39.980136679816695
30
0
10
51.029058139034404
20
39.990780586489159
30
0
10
51.00849678961066
20
39.997929588018302
30
0
10
50.988401303449706
20
40.006472592106299
30
0
10
50.968349021000002
20
40.014996164999999
30
0
0
SPLINE
5
231
100
AcDbEntity
8
0
100
AcDbSpline
70
0
71
3
72
11
73
7
74
0
42
0.000000001
43
0.0000000001
44
0.0000000001
40
0
40
0
40
0
40
0
40
6.0403070787061167e-05
40
6.0403070787061167e-05
40
6.0403070787061167e-05
40
0.000114565
40
0.000114565
40
0.000114565
40
0.000114565
10
50.968349021000002
20
40.014996164999999
30
0
10
50.950914185364446
20
40.025068224783553
30
0
10
50.933329873634705
20
40.0351734016552
30
0
10
50.918349066721845
20
40.048625107381071
30
0
10
50.90491615026589
20
40.060686916885537
30
0
10
50.893914314773944
20
40.075136780610507
30
0
10
50.882946294
20
40.089484536999997
30
0
0
SPLINE
5
232
100
AcDbEntity
8
0
100
AcDbSpline
70
0
71
3
72
11
73
7
74
0
42
0.000000001
43
0.0000000001
44
0.0000000001
40
0
40
0
40
0
40
0
40
5.1755885426592615e-05
40
5.1755885426592615e-05
40
5.1755885426592615e-05
40
0.000104879
40
0.000104879
40
0.000104879
40
0.000104879
10
50.882946294
20
40.089484536999997
30
0
10
50.874831493456966
20
40.104709988597989
30
0
10
50.866602805773638
20
40.120068362168652
30
0
10
50.861868302156182
20
40.136619595171048
30
0
10
50.857008727712703
20
40.153608060151811
30
0
10
50.855943651620478
20
40.171416638323635
30
0
10
50.854842704000006
20
40.189075256000002
30
0
0
SPLINE
5
233
100
AcDbEntity
8
0
100
AcDbSpline
70
0
71
3
72
11
73
7
74
0
42
0.000000001
43
0.0000000001
44
0.0000000001
40
0
40
0
40
0
40
0
40
5.9375528518358649e-05
40
5.9375528518358649e-05
40
5.9375528518358649e-05
40
0.000120023
40
0.000120023
40
0.000120023
40
0.000120023
10
50.854842704000006
20
40.189075256000002
30
0
10
50.856315983045974
20
40.208812673268959
30
0
10
50.857757258119129
20
40.228758782028784
30
-2.2204460492503131e-15
10
50.863437694102899
20
40.247670050821647
30
-2.2204460492503131e-15
10
50.869239816423743
20
40.266986436939234
30
0
10
50.879298823890636
20
40.284712141546002
30
0
10
50.889222067000006
20
40.302308583000006
30
0
0
SPLINE
5
234
100
AcDbEntity
8
0
100
AcDbSpline
70
0
71
3
72
11
73
7
74
0
42
0.000000001
43
0.0000000001
44
0.0000000001
40
0
40
0
40
0
40
0
40
6.2886910610969937e-05
40
6.2886910610969937e-05
40
6.2886910610969937e-05
40
0.00013031300000000001
40
0.00013031300000000001
40
0.00013031300000000001
40
0.00013031300000000001
10
50.889222067000006
20
40.302308583000006
30
0
10
50.902209398316486
20
40.318763801775724
30
0
10
50.915307272421309
20
40.335440150592504
30
0
10
50.931514543766085
20
40.34862511854557
30
0
10
50.94889165636117
20
40.362761777814704
30
-2.2204460492503131e-15
10
50.969385649144208
20
40.372531204920904
30
0
10
50.989631455000008
20
40.382254058000001
30
0
0
SPLINE
5
235
100
AcDbEntity
8
0
100
AcDbSpline
70
0
71
3
72
11
73
7
74
0
42
0.000000001
43
0.0000000001
44
0.0000000001
40
0
40
0
40
0
40
0
40
7.2738702967977889e-05
40
7.2738702967977889e-05
40
7.2738702967977889e-05
40
0.00015026300000000001
40
0.00015026300000000001
40
0.00015026300000000001
40
0.00015026300000000001
10
50.989631455000008
20
40.382254058000001
30
0
10
51.012548219344794
20
40.390173252673236
30
0
10
51.035582089239298
20
40.398147556804844
30
-2.2204460492503131e-15
10
51.059344453591891
20
40.402717823569063
30
-2.2204460492503131e-15
10
51.084670181396874
20
40.407588775396476
30
0
10
51.11061530759801
20
40.40855734700461
30
0
10
51.13642517800001
20
40.409539127999999
30
0
0
SPLINE
5
236
100
AcDbEntity
8
0
100
AcDbSpline
70
0
71
3
72
11
73
7
74
0
42
0.000000001
43
0.0000000001
44
0.0000000001
40
0
40
0
40
0
40
0
40
8.4127864105203653e-05
40
8.4127864105203653e-05
40
8.4127864105203653e-05
40
0.000160531
40
0.000160531
40
0.000160531
40
0.000160531
10
51.13642517800001
20
40.409539127999999
30
0
10
51.164451961006627
20
40.408597729168591
30
0
10
51.192643346647998
20
40.407670031067944
30
0
10
51.22012261534244
20
40.402376810205226
30
0
10
51.245078702397322
20
40.39756961966026
30
0
10
51.269258547105693
20
40.389199725870355
30
0
10
51.293314736000006
20
40.380889783000001
30
0
0
SPLINE
5
237
100
AcDbEntity
8
0
100
AcDbSpline
70
0
71
3
72
11
73
7
74
0
42
0.000000001
43
0.0000000001
44
0.0000000001
40
0
40
0
40
0
40
0
40
6.9952366509636033e-05
40
6.9952366509636033e-05
40
6.9952366509636033e-05
40
0.00013625700000000001
40
0.00013625700000000001
40
0.00013625700000000001
40
0.00013625700000000001
10
51.293314736000006
20
40.380889783000001
30
0
10
51.314237843240313
20
40.370596439248573
30
0
10
51.335438566512508
20
40.36023257141818
30
0
10
51.353409925362456
20
40.345487307136089
30
0
10
51.370444150526296
20
40.331510948755003
30
-2.2204460492503131e-15
10
51.384170251540013
20
40.313948069361878
30
0
10
51.397816580000004
20
40.296578714000006
30
0
0
SPLINE
5
238
100
AcDbEntity
8
0
100
AcDbSpline
70
0
71
3
72
11
73
7
74
0
42
0.000000001
43
0.0000000001
44
0.0000000001
40
0
40
0
40
0
40
0
40
6.5814325154487825e-05
40
6.5814325154487825e-05
40
6.5814325154487825e-05
40
0.000133659
40
0.000133659
40
0.000133659
40
0.000133659
10
51.397816580000004
20
40.296578714000006
30
0
10
51.408501754963261
20
40.27741833821139
30
0
10
51.41931648878051
20
40.258118328483199
30
0
10
51.425920765995777
20
40.237233573604883
30
0
10
51.432728782931434
20
40.215704531095959
30
0
10
51.434901293494164
20
40.193022600735297
30
0
10
51.437107365999999
20
40.170521373
30
0
0
LINE
5
239
100
AcDbEntity
8
0
100
AcDbLine
10
51.437107365999999
20
40.170521373
30
0
11
51.335606616000007
21
40.162881546999998
31
0
0
SPLINE
5
240
100
AcDbEntity
8
0
100
AcDbSpline
70
0
71
3
72
11
73
7
74
0
42
0.000000001
43
0.0000000001
44
0.0000000001
40
0
40
0
40
0
40
0
40
6.9382177542036324e-05
40
6.9382177542036324e-05
40
6.9382177542036324e-05
40
0.000130753
40
0.000130753
40
0.000130753
40
0.000130753
10
51.335606616000007
20
40.162881546999998
30
0
10
51.331865045131622
20
40.185705148421427
30
0
10
51.328121066305116
20
40.209144541206598
30
0
10
51.31766680887354
20
40.229457330282656
30
0
10
51.308419673665441
20
40.247424661608598
30
-2.2204460492503131e-15
10
51.294157692890153
20
40.262562451160804
30
0
10
51.28021780800001
20
40.277479151000001
30
0
0
SPLINE
5
241
100
AcDbEntity
8
0
100
AcDbSpline
70
0
71
3
72
11
73
7
74
0
42
0.000000001
43
0.0000000001
44
0.0000000001
40
0
40
0
40
0
40
0
40
6.5447557881336083e-05
40
6.5447557881336083e-05
40
6.5447557881336083e-05
40
0.000147923
40
0.000147923
40
0.000147923
40
0.000147923
10
51.28021780800001
20
40.277479151000001
30
0
10
51.261447998848283
20
40.288598993296205
30
0
10
51.242334590706491
20
40.299962291624603
30
0
10
51.221759358971006
20
40.306537831361183
30
0
10
51.195830945612116
20
40.314824168766272
30
0
10
51.168139521756466
20
40.315468974871472
30
0
10
51.140790623000001
20
40.316224032999997
30
0
0
SPLINE
5
242
100
AcDbEntity
8
0
100
AcDbSpline
70
0
71
3
72
11
73
7
74
0
42
0.000000001
43
0.0000000001
44
0.0000000001
40
0
40
0
40
0
40
0
40
8.3939635210236106e-05
40
8.3939635210236106e-05
40
8.3939635210236106e-05
40
0.00014719200000000001
40
0.00014719200000000001
40
0.00014719200000000001
40
0.00014719200000000001
10
51.140790623000001
20
40.316224032999997
30
0
10
51.112813707733984
20
40.315798997168535
30
0
10
51.084249844607129
20
40.315418407584438
30
-2.2204460492503131e-15
10
51.057776256135057
20
40.307424599640129
30
-4.4408920985006262e-15
10
51.03782719308353
20
40.301400898740212
30
0
10
51.019254517417068
20
40.291153845656169
30
0
10
51.000818055000003
20
40.281026224000001
30
0
0
SPLINE
5
243
100
AcDbEntity
8
0
100
AcDbSpline
70
0
71
3
72
11
73
7
74
0
42
0.000000001
43
0.0000000001
44
0.0000000001
40
0
40
0
40
0
40
0
40
5.1320301683898765e-05
40
5.1320301683898765e-05
40
5.1320301683898765e-05
40
9.8961000000000003e-05
40
9.8961000000000003e-05
40
9.8961000000000003e-05
40
9.8961000000000003e-05
10
51.000818055000003
20
40.281026224000001
30
0
10
50.988339242778594
20
40.269321924958732
30
0
10
50.975470860678115
20
40.257541704044364
30
0
10
50.967870992464917
20
40.242213096300191
30
0
10
50.96081602558229
20
40.227983531134271
30
0
10
50.958920937593078
20
40.211924017236768
30
0
10
50.956888836000005
20
40.196169400000002
30
0
0
SPLINE
5
244
100
AcDbEntity
8
0
100
AcDbSpline
70
0
71
3
72
11
73
7
74
0
42
0.000000001
43
0.0000000001
44
0.0000000001
40
0
40
0
40
0
40
0
40
4.0390556516760549e-05
40
4.0390556516760549e-05
40
4.0390556516760549e-05
40
7.9882000000000005e-05
40
7.9882000000000005e-05
40
7.9882000000000005e-05
40
7.9882000000000005e-05
10
50.956888836000005
20
40.196169400000002
30
0
10
50.958111140343327
20
40.182757413375789
30
0
10
50.959254180768113
20
40.16908288684558
30
0
10
50.964665454319835
20
40.156878836849685
30
0
10
50.969956270343914
20
40.144946454821728
30
0
10
50.97913431483083
20
40.134973577974776
30
0
10
50.98799411600001
20
40.125228101000005
30
0
0
SPLINE
5
245
100
AcDbEntity
8
0
100
AcDbSpline
70
0
71
3
72
11
73
7
74
0
42
0.000000001
43
0.0000000001
44
0.0000000001
40
0
40
0
40
0
40
0
40
6.2104897044998884e-05
40
6.2104897044998884e-05
40
6.2104897044998884e-05
40
0.000170669
40
0.000170669
40
0.000170669
40
0.000170669
10
50.98799411600001
20
40.125228101000005
30
0
10
51.006077060483079
20
40.11515007377934
30
0
10
51.024188529394181
20
40.105050084186765
30
0
10
51.043177882505404
20
40.097056115158409
30
0
10
51.076372721951358
20
40.083082046801373
30
0
10
51.112162200732605
20
40.075613604494045
30
0
10
51.147612373999998
20
40.068202102000001
30
0
0
SPLINE
5
246
100
AcDbEntity
8
0
100
AcDbSpline
70
0
71
3
72
11
73
7
74
0
42
0.000000001
43
0.0000000001
44
0.0000000001
40
0
40
0
40
0
40
0
40
0.00011223262575576852
40
0.00011223262575576852
40
0.00011223262575576852
40
0.000184532
40
0.000184532
40
0.000184532
40
0.000184532
10
51.147612373999998
20
40.068202102000001
30
0
10
51.184123206788861
20
40.060045055108382
30
0
10
51.220683416447272
20
40.051879499577396
30
0
10
51.25641111845853
20
40.040848785408173
30
0
10
51.279426622918166
20
40.033742886151778
30
0
10
51.302067007587837
20
40.025457593179574
30
0
10
51.324692409000008
20
40.017178887
30
0
0
SPLINE
5
247
100
AcDbEntity
8
0
100
AcDbSpline
70
0
71
3
72
11
73
7
74
0
42
0.000000001
43
0.0000000001
44
0.0000000001
40
0
40
0
40
0
40
0
40
7.1020479079906003e-05
40
7.1020479079906003e-05
40
7.1020479079906003e-05
40
0.000133101
40
0.000133101
40
0.000133101
40
0.000133101
10
51.324692409000008
20
40.017178887
30
0
10
51.345801991880158
20
40.006462418432307
30
0
10
51.367162526446393
20
39.995670890328185
30
0
10
51.385401529450228
20
39.980685048414614
30
0
10
51.401344632372229
20
39.967585603233829
30
-2.2204460492503131e-15
10
51.414623403823043
20
39.951519591296062
30
0
10
51.427830499000002
20
39.935596371000003
30
0
0
SPLINE
5
248
100
AcDbEntity
8
0
100
AcDbSpline
70
0
71
3
72
11
73
7
74
0
42
0.000000001
43
0.0000000001
44
0.0000000001
40
0
40
0
40
0
40
0
40
5.8866367962464082e-05
40
5.8866367962464082e-05
40
5.8866367962464082e-05
40
0.000120343
40
0.000120343
40
0.000120343
40
0.000120343
10
51.427830499000002
20
39.935596371000003
30
0
10
51.437432131529363
20
39.91848330081946
30
0
10
51.447186385440929
20
39.901191235548445
30
0
10
51.452796500823567
20
39.882458678975226
30
0
10
51.458655381046754
20
39.862895479691232
30
0
10
51.459864692653603
20
39.842250921076143
30
0
10
51.461118501000001
20
39.821817363000001
30
0
0
SPLINE
5
249
100
AcDbEntity
8
0
100
AcDbSpline
70
0
71
3
72
11
73
7
74
0
42
0.000000001
43
0.0000000001
44
0.0000000001
40
0
40
0
40
0
40
0
40
6.2837450158240919e-05
40
6.2837450158240919e-05
40
6.2837450158240919e-05
40
0.00012749500000000001
40
0.00012749500000000001
40
0.00012749500000000001
40
0.00012749500000000001
10
51.461118501000001
20
39.821817363000001
30
0
10
51.459528221056495
20
39.800931362438718
30
0
10
51.457976139662762
20
39.779849589127132
30
0
10
51.451977532835535
20
39.759811992214637
30
0
10
51.445805175126331
20
39.739194002181371
30
0
10
51.435109560245593
20
39.720275654659417
30
0
10
51.424556416000009
20
39.701490038999999
30
0
0
SPLINE
5
250
100
AcDbEntity
8
0
100
AcDbSpline
70
0
71
3
72
11
73
7
74
0
42
0.000000001
43
0.0000000001
44
0.0000000001
40
0
40
0
40
0
40
0
40
6.7276986439439312e-05
40
6.7276986439439312e-05
40
6.7276986439439312e-05
40
0.00013881000000000001
40
0.00013881000000000001
40
0.00013881000000000001
40
0.00013881000000000001
10
51.424556416000009
20
39.701490038999999
30
0
10
51.410850422539426
20
39.683739708907567
30
0
10
51.397035716786938
20
39.66577599330995
30
-2.2204460492503131e-15
10
51.380013268713611
20
39.651285344836545
30
-2.2204460492503131e-15
10
51.361913959078834
20
39.635877999641565
30
0
10
51.340596608661556
20
39.624726891900472
30
0
10
51.319508593999998
20
39.613631898000001
30
0
0
SPLINE
5
251
100
AcDbEntity
8
0
100
AcDbSpline
70
0
71
3
72
11
73
7
74
0
42
0.000000001
43
0.0000000001
44
0.0000000001
40
0
40
0
40
0
40
0
40
7.6602606844457371e-05
40
7.6602606844457371e-05
40
7.6602606844457371e-05
40
0.00015853899999999999
40
0.00015853899999999999
40
0.00015853899999999999
40
0.00015853899999999999
10
51.319508593999998
20
39.613631898000001
30
0
10
51.295650387032893
20
39.604533321854312
30
0
10
51.271649188176596
20
39.595359467717365
30
-2.2204460492503131e-15
10
51.246725361427409
20
39.590098494472819
30
-2.2204460492503131e-15
10
51.220066105932247
20
39.584471203315196
30
0
10
51.192615959650958
20
39.583371700995166
30
0
10
51.165347736000008
20
39.582253926999996
30
0
0
SPLINE
5
252
100
AcDbEntity
8
0
100
AcDbSpline
70
0
71
3
72
11
73
7
74
0
42
0.000000001
43
0.0000000001
44
0.0000000001
40
0
40
0
40
0
40
0
40
0.00010031325035372268
40
0.00010031325035372268
40
0.00010031325035372268
40
0.00018597199999999999
40
0.00018597199999999999
40
0.00018597199999999999
40
0.00018597199999999999
10
51.165347736000008
20
39.582253926999996
30
0
10
51.131920754827327
20
39.583102316858565
30
0
10
51.098292937376932
20
39.583935078674891
30
0
10
51.065552275911905
20
39.590166592548499
30
0
10
51.037594612155686
20
39.595487760838182
30
-2.2204460492503131e-15
10
51.010392916669495
20
39.60473040560548
30
0
10
50.983355682000003
20
39.613904738999999
30
0
0
SPLINE
5
253
100
AcDbEntity
8
0
100
AcDbSpline
70
0
71
3
72
11
73
7
74
0
42
0.000000001
43
0.0000000001
44
0.0000000001
40
0
40
0
40
0
40
0
40
7.6807563696182016e-05
40
7.6807563696182016e-05
40
7.6807563696182016e-05
40
0.00015208299999999999
40
0.00015208299999999999
40
0.00015208299999999999
40
0.00015208299999999999
10
50.983355682000003
20
39.613904738999999
30
0
10
50.960540057860413
20
39.625521338952424
30
0
10
50.937358639537642
20
39.637289645147078
30
0
10
50.91787163560479
20
39.653536313703846
30
0
10
50.898773350843392
20
39.669458900038357
30
-2.2204460492503131e-15
10
50.88348057925031
20
39.689362095423924
30
0
10
50.868212622000009
20
39.709129864000005
30
0
0
SPLINE
5
254
100
AcDbEntity
8
0
100
AcDbSpline
70
0
71
3
72
11
73
7
74
0
42
0.000000001
43
0.0000000001
44
0.0000000001
40
0
40
0
40
0
40
0
40
7.5044797771372111e-05
40
7.5044797771372111e-05
40
7.5044797771372111e-05
40
0.000152375
40
0.000152375
40
0.000152375
40
0.000152375
10
50.868212622000009
20
39.709129864000005
30
0
10
50.856056332036637
20
39.730992580191618
30
0
10
50.843726177074814
20
39.753087361945006
30
0
10
50.836356918677872
20
39.77686518098043
30
0
10
50.828763237849415
20
39.80136712660719
30
-2.2204460492503131e-15
10
50.826537161219967
20
39.827273120427137
30
0
10
50.824283401999999
20
39.852922493000008
30
0
0
LINE
5
255
100
AcDbEntity
8
0
100
AcDbLine
10
49.733424228000004
20
39.876387649999998
30
0
11
49.839290421000008
21
39.849648260999999
31
0
0
SPLINE
5
256
100
AcDbEntity
8
0
100
AcDbSpline
70
0
71
3
72
11
73
7
74
0
42
0.000000001
43
0.0000000001
44
0.0000000001
40
0
40
0
40
0
40
0
40
0.00012443546549952751
40
0.00012443546549952751
40
0.00012443546549952751
40
0.00023625600000000001
40
0.00023625600000000001
40
0.00023625600000000001
40
0.00023625600000000001
10
49.839290421000008
20
39.849648260999999
30
0
10
49.82700462900668
20
39.810030894182475
30
0
10
49.814688167894019
20
39.769779726430471
30
0
10
49.792701046322208
20
39.73470964312466
30
0
10
49.772942919678663
20
39.703194870029314
30
0
10
49.74601555596557
20
39.676853030759062
30
0
10
49.719508927000007
20
39.650739664
30
0
0
SPLINE
5
257
100
AcDbEntity
8
0
100
AcDbSpline
70
0
71
3
72
11
73
7
74
0
42
0.000000001
43
0.0000000001
44
0.0000000001
40
0
40
0
40
0
40
0
40
0.00010932658372259045
40
0.00010932658372259045
40
0.00010932658372259045
40
0.00022619599999999999
40
0.00022619599999999999
40
0.00022619599999999999
40
0.00022619599999999999
10
49.719508927000007
20
39.650739664
30
0
10
49.688844595942221
20
39.631048597699575
30
0
10
49.65792518875557
20
39.611007660346608
30
0
10
49.623397033279488
20
39.599375361448772
30
0
10
49.586486656697481
20
39.586940508589883
30
-2.2204460492503131e-15
10
49.546959411544414
20
39.584662709016179
30
0
10
49.508048932999998
20
39.582253926999996
30
0
0
SPLINE
5
258
100
AcDbEntity
8
0
100
AcDbSpline
70
0
71
3
72
11
73
7
74
0
42
0.000000001
43
0.0000000001
44
0.0000000001
40
0
40
0
40
0
40
0
40
0.00011831869155354292
40
0.00011831869155354292
40
0.00011831869155354292
40
0.000219593
40
0.000219593
40
0.000219593
40
0.000219593
10
49.508048932999998
20
39.582253926999996
30
0
10
49.468634954884372
20
39.583672698615224
30
0
10
49.428784401236648
20
39.584998390412792
30
-2.2204460492503131e-15
10
49.39079109952354
20
39.595419102928396
30
-2.2204460492503131e-15
10
49.358270917749465
20
39.604338661112145
30
2.2204460492503131e-15
10
49.327844070743339
20
39.619732210935922
30
0
10
49.29768030000001
20
39.634914332999998
30
0
0
SPLINE
5
259
100
AcDbEntity
8
0
100
AcDbSpline
70
0
71
3
72
11
73
7
74
0
42
0.000000001
43
0.0000000001
44
0.0000000001
40
0
40
0
40
0
40
0
40
9.6504941372171034e-05
40
9.6504941372171034e-05
40
9.6504941372171034e-05
40
0.000199204
40
0.000199204
40
0.000199204
40
0.000199204
10
49.29768030000001
20
39.634914332999998
30
0
10
49.272333746255441
20
39.654722449230981
30
0
10
49.246864731149515
20
39.674461445361814
30
0
10
49.226329964688446
20
39.699375413520897
30
0
10
49.20447718539333
20
39.725888471196932
30
0
10
49.189442425396649
20
39.756778734997418
30
0
10
49.174351733000002
20
39.787438148
30
0
0
SPLINE
5
260
100
AcDbEntity
8
0
100
AcDbSpline
70
0
71
3
72
11
73
7
74
0
42
0.000000001
43
0.0000000001
44
0.0000000001
40
0
40
0
40
0
40
0
40
0.0001084293802218802
40
0.0001084293802218802
40
0.0001084293802218802
40
0.00021991299999999999
40
0.00021991299999999999
40
0.00021991299999999999
40
0.00021991299999999999
10
49.174351733000002
20
39.787438148
30
0
10
49.162078521424377
20
39.821433819626726
30
0
10
49.14973058728512
20
39.85552963304864
30
0
10
49.142632525537024
20
39.890985125696268
30
0
10
49.135334525534908
20
39.927439328913941
30
0
10
49.133710621089755
20
39.964759162112614
30
0
10
49.132059854000005
20
40.001899237000003
30
0
0
SPLINE
5
261
100
AcDbEntity
8
0
100
AcDbSpline
70
0
71
3
72
11
73
7
74
0
42
0.000000001
43
0.0000000001
44
0.0000000001
40
0
40
0
40
0
40
0
40
0.00011780125988762018
40
0.00011780125988762018
40
0.00011780125988762018
40
0.00022512000000000001
40
0.00022512000000000001
40
0.00022512000000000001
40
0.00022512000000000001
10
49.132059854000005
20
40.001899237000003
30
0
10
49.133641976267903
20
40.04113455932449
30
0
10
49.135173896605053
20
40.080640721591038
30
2.2204460492503131e-15
10
49.143996876215539
20
40.118884231992212
30
2.2204460492503131e-15
10
49.152034744882968
20
40.153724651845494
30
2.2204460492503131e-15
10
49.165988763688929
20
40.186914507118743
30
0
10
49.179808538000003
20
40.219907397000007
30
0
0
SPLINE
5
262
100
AcDbEntity
8
0
100
AcDbSpline
70
0
71
3
72
11
73
7
74
0
42
0.000000001
43
0.0000000001
44
0.0000000001
40
0
40
0
40
0
40
0
40
0.00010057923284129585
40
0.00010057923284129585
40
0.00010057923284129585
40
0.00019925300000000001
40
0.00019925300000000001
40
0.00019925300000000001
40
0.00019925300000000001
10
49.179808538000003
20
40.219907397000007
30
0
10
49.197059623274953
20
40.248654951288714
30
0
10
49.214232661336936
20
40.277560551019072
30
0
10
49.237653055688796
20
40.301762900812818
30
0
10
49.260629752505388
20
40.325506738986746
30
0
10
49.28822388617025
20
40.343323526343973
30
0
10
49.315688651000009
20
40.361244464000009
30
0
0
SPLINE
5
263
100
AcDbEntity
8
0
100
AcDbSpline
70
0
71
3
72
11
73
7
74
0
42
0.000000001
43
0.0000000001
44
0.0000000001
40
0
40
0
40
0
40
0
40
9.9638091072148911e-05
40
9.9638091072148911e-05
40
9.9638091072148911e-05
40
0.00020214199999999999
40
0.00020214199999999999
40
0.00020214199999999999
40
0.00020214199999999999
10
49.315688651000009
20
40.361244464000009
30
0
10
49.345815249356491
20
40.375225783610304
30
0
10
49.37612335128275
20
40.389347617493556
30
0
10
49.408253473675515
20
40.397465461988666
30
0
10
49.441307731381073
20
40.405816794133443
30
0
10
49.475634036533862
20
40.407655065540887
30
0
10
49.509686273
20
40.409539127999999
30
0
0
SPLINE
5
264
100
AcDbEntity
8
0
100
AcDbSpline
70
0
71
3
72
11
73
7
74
0
42
0.000000001
43
0.0000000001
44
0.0000000001
40
0
40
0
40
0
40
0
40
0.00011193239694063883
40
0.00011193239694063883
40
0.00011193239694063883
40
0.00021428500000000001
40
0.00021428500000000001
40
0.00021428500000000001
40
0.00021428500000000001
10
49.509686273
20
40.409539127999999
30
0
10
49.546940958679492
20
40.407494315407739
30
0
10
49.584614420605391
20
40.405589247829816
30
2.2204460492503131e-15
10
49.62019090078266
20
40.394259476743322
30
2.2204460492503131e-15
10
49.652722548932438
20
40.383899370156996
30
-2.2204460492503131e-15
10
49.682301101079076
20
40.366006046547646
30
0
10
49.711595815000003
20
40.348420450000006
30
0
0
SPLINE
5
265
100
AcDbEntity
8
0
100
AcDbSpline
70
0
71
3
72
11
73
7
74
0
42
0.000000001
43
0.0000000001
44
0.0000000001
40
0
40
0
40
0
40
0
40
0.00010150032088998304
40
0.00010150032088998304
40
0.00010150032088998304
40
0.000209466
40
0.000209466
40
0.000209466
40
0.000209466
10
49.711595815000003
20
40.348420450000006
30
0
10
49.736657953091317
20
40.325691672781304
30
0
10
49.761971530020887
20
40.302948208376648
30
-2.2204460492503131e-15
10
49.781036416350261
20
40.274887022490127
30
-2.2204460492503131e-15
10
49.801315696077246
20
40.245038397734021
30
0
10
49.813496402624835
20
40.210525555632543
30
0
10
49.825647514000011
20
40.176524157000003
30
0
0
LINE
5
266
100
AcDbEntity
8
0
100
AcDbLine
10
49.825647514000011
20
40.176524156999996
30
0
11
49.721418660000005
21
40.151967490000004
31
0
0
SPLINE
5
267
100
AcDbEntity
8
0
100
AcDbSpline
70
0
71
3
72
11
73
7
74
0
42
0.000000001
43
0.0000000001
44
0.0000000001
40
0
40
0
40
0
40
0
40
8.3177347072281512e-05
40
8.3177347072281512e-05
40
8.3177347072281512e-05
40
0.00015340800000000001
40
0.00015340800000000001
40
0.00015340800000000001
40
0.00015340800000000001
10
49.721418660000005
20
40.151967490000004
30
0
10
49.712091890603894
20
40.178077770681142
30
0
10
49.702632596408776
20
40.204669106822131
30
0
10
49.687312881191801
20
40.227410878502646
30
0
10
49.674377705447142
20
40.246612855123367
30
0
10
49.657441706199748
20
40.26290545894657
30
0
10
49.640654366000007
20
40.279116193
30
0
0
SPLINE
5
268
100
AcDbEntity
8
0
100
AcDbSpline
70
0
71
3
72
11
73
7
74
0
42
0.000000001
43
0.0000000001
44
0.0000000001
40
0
40
0
40
0
40
0
40
6.7006440885982062e-05
40
6.7006440885982062e-05
40
6.7006440885982062e-05
40
0.00014189899999999999
40
0.00014189899999999999
40
0.00014189899999999999
40
0.00014189899999999999
10
49.640654366000007
20
40.279116193
30
0
10
49.621486308280538
20
40.290582829740558
30
0
10
49.602018774386671
20
40.302279509357739
30
0
10
49.580900112035522
20
40.308993394048812
30
0
10
49.557295953276594
20
40.316497448874919
30
-2.2204460492503131e-15
10
49.53230157664607
20
40.317677900361481
30
0
10
49.507502954000003
20
40.31895251000001
30
0
0
SPLINE
5
269
100
AcDbEntity
8
0
100
AcDbSpline
70
0
71
3
72
11
73
7
74
0
42
0.000000001
43
0.0000000001
44
0.0000000001
40
0
40
0
40
0
40
0
40
8.5774136914159693e-05
40
8.5774136914159693e-05
40
8.5774136914159693e-05
40
0.00016339699999999999
40
0.00016339699999999999
40
0.00016339699999999999
40
0.00016339699999999999
10
49.507502954000003
20
40.31895251000001
30
0
10
49.478946500355917
20
40.317537104517854
30
0
10
49.449891741108694
20
40.31613641540369
30
-2.2204460492503131e-15
10
49.422851244217867
20
40.307902031953766
30
-2.2204460492503131e-15
10
49.398380455429525
20
40.300450177092557
30
0
10
49.375769340997024
20
40.287519218902084
30
0
10
49.353342097000009
20
40.274750599000001
30
0
0
SPLINE
5
270
100
AcDbEntity
8
0
100
AcDbSpline
70
0
71
3
72
11
73
7
74
0
42
0.000000001
43
0.0000000001
44
0.0000000001
40
0
40
0
40
0
40
0
40
7.4160606713319024e-05
40
7.4160606713319024e-05
40
7.4160606713319024e-05
40
0.00015012399999999999
40
0.00015012399999999999
40
0.00015012399999999999
40
0.00015012399999999999
10
49.353342097000009
20
40.274750599000001
30
0
10
49.334423036495508
20
40.258839063886214
30
0
10
49.315155318162205
20
40.242688905987769
30
0
10
49.300614039594571
20
40.222977035092697
30
0
10
49.285719273873539
20
40.202785983972959
30
-2.2204460492503131e-15
10
49.276013966464696
20
40.179323772521009
30
0
10
49.266302627000009
20
40.156060242999999
30
0
0
SPLINE
5
271
100
AcDbEntity
8
0
100
AcDbSpline
70
0
71
3
72
11
73
7
74
0
42
0.000000001
43
0.0000000001
44
0.0000000001
40
0
40
0
40
0
40
0
40
7.8024300582970918e-05
40
7.8024300582970918e-05
40
7.8024300582970918e-05
40
0.000156336
40
0.000156336
40
0.000156336
40
0.000156336
10
49.266302627000009
20
40.156060242999999
30
0
10
49.259004991274615
20
40.131096855722681
30
0
10
49.251672380504743
20
40.106048009706527
30
0
10
49.247475903453264
20
40.080412188053138
30
0
10
49.243263968876327
20
40.054681938058849
30
0
10
49.242235553983846
20
40.028518044338625
30
0
10
49.241200130000003
20
40.002444917000005
30
0
0
SPLINE
5
272
100
AcDbEntity
8
0
100
AcDbSpline
70
0
71
3
72
11
73
7
74
0
42
0.000000001
43
0.0000000001
44
0.0000000001
40
0
40
0
40
0
40
0
40
9.602025184459179e-05
40
9.602025184459179e-05
40
9.602025184459179e-05
40
0.00018162399999999999
40
0.00018162399999999999
40
0.00018162399999999999
40
0.00018162399999999999
10
49.241200130000003
20
40.002444917000005
30
0
10
49.242129308109185
20
39.970451637736112
30
0
10
49.243033611584821
20
39.938383225307369
30
-2.2204460492503131e-15
10
49.248635809686419
20
39.90687885396607
30
-2.2204460492503131e-15
10
49.253630268107365
20
39.87879215123111
30
0
10
49.262311110379741
20
39.851480261676791
30
0
10
49.270941059999998
20
39.824273074000004
30
0
0
SPLINE
5
273
100
AcDbEntity
8
0
100
AcDbSpline
70
0
71
3
72
11
73
7
74
0
42
0.000000001
43
0.0000000001
44
0.0000000001
40
0
40
0
40
0
40
0
40
7.6929448011496413e-05
40
7.6929448011496413e-05
40
7.6929448011496413e-05
40
0.00014975599999999999
40
0.00014975599999999999
40
0.00014975599999999999
40
0.00014975599999999999
10
49.270941059999998
20
39.824273074000004
30
0
10
49.281753060621185
20
39.801020359886522
30
0
10
49.292722658630183
20
39.777298701941334
30
0
10
49.308935445755694
20
39.757765464920823
30
0
10
49.32428355255999
20
39.739273998542885
30
0
10
49.343970841805664
20
39.724851075238689
30
0
10
49.363437931999997
20
39.710494064999999
30
0
0
SPLINE
5
274
100
AcDbEntity
8
0
100
AcDbSpline
70
0
71
3
72
11
73
7
74
0
42
0.000000001
43
0.0000000001
44
0.0000000001
40
0
40
0
40
0
40
0
40
7.1357867985335287e-05
40
7.1357867985335287e-05
40
7.1357867985335287e-05
40
0.000142769
40
0.000142769
40
0.000142769
40
0.000142769
10
49.363437931999997
20
39.710494064999999
30
0
10
49.384589251549642
20
39.699612792940187
30
0
10
49.40593391221212
20
39.688584755711119
30
0
10
49.428784886936576
20
39.682253980878066
30
0
10
49.451652918434483
20
39.675918480531401
30
0
10
49.475583179396132
20
39.67439700460168
30
0
10
49.499317449000003
20
39.672840618999999
30
0
0
SPLINE
5
275
100
AcDbEntity
8
0
100
AcDbSpline
70
0
71
3
72
11
73
7
74
0
42
0.000000001
43
0.0000000001
44
0.0000000001
40
0
40
0
40
0
40
0
40
8.356384464177716e-05
40
8.356384464177716e-05
40
8.356384464177716e-05
40
0.000162726
40
0.000162726
40
0.000162726
40
0.000162726
10
49.499317449000003
20
39.672840618999999
30
0
10
49.527110365913458
20
39.674698217245144
30
0
10
49.555479432016597
20
39.676524336970871
30
0
10
49.581446092019242
20
39.68566470742762
30
0
10
49.606044969465302
20
39.694323612833799
30
0
10
49.628128031512972
20
39.709372226740783
30
0
10
49.64993182900001
20
39.724136674999997
30
0
0
SPLINE
5
276
100
AcDbEntity
8
0
100
AcDbSpline
70
0
71
3
72
11
73
7
74
0
42
0.000000001
43
0.0000000001
44
0.0000000001
40
0
40
0
40
0
40
0
40
8.2579229969603605e-05
40
8.2579229969603605e-05
40
8.2579229969603605e-05
40
0.000176551
40
0.000176551
40
0.000176551
40
0.000176551
10
49.64993182900001
20
39.724136674999997
30
0
10
49.668848457566185
20
39.744133483260903
30
0
10
49.687901525987542
20
39.764124193990718
30
0
10
49.701637069486104
20
39.787847332389454
30
0
10
49.717267553511739
20
39.814843288961413
30
2.2204460492503131e-15
10
49.725395787695376
20
39.845948855050011
30
0
10
49.733424228000004
20
39.876387649999998
30
0
0
LWPOLYLINE
5
277
100
AcDbEntity
8
0
100
AcDbPolyline
90
8
70
1
43
0.0
10
52.324965040999999
20
39.595896535999998
10
52.63219599100001
20
40.395896518000001
10
52.746248286000004
20
40.395896518000001
10
53.073669713000001
20
39.595896535999998
10
52.953069251000002
20
39.595896535999998
10
52.859754603000006
20
39.838188522999999
10
52.525239032000002
20
39.838188522999999
10
52.437380593
20
39.595896535999998
0
LINE
5
278
100
AcDbEntity
8
0
100
AcDbLine
10
43.327421735999998
20
39.909675503000003
30
0
11
43.327421735999998
21
40.003536427
31
0
0
LINE
5
279
100
AcDbEntity
8
0
100
AcDbLine
10
43.327421735999998
20
40.003536427
30
0
11
43.666302901000009
21
40.004082107999999
31
0
0
LINE
5
280
100
AcDbEntity
8
0
100
AcDbLine
10
43.666302901000009
20
40.004082107999999
30
0
11
43.666302901000009
21
39.707219833000011
31
0
0
SPLINE
5
281
100
AcDbEntity
8
0
100
AcDbSpline
70
0
71
3
72
11
73
7
74
0
42
0.000000001
43
0.0000000001
44
0.0000000001
40
0
40
0
40
0
40
0
40
9.6301561427816426e-05
40
9.6301561427816426e-05
40
9.6301561427816426e-05
40
0.000186947
40
0.000186947
40
0.000186947
40
0.000186947
10
43.666302901000009
20
39.707219833000011
30
0
10
43.640599063483982
20
39.687990926095843
30
0
10
43.61487512532878
20
39.668725484050661
30
-2.2204460492503131e-15
10
43.587039748677924
20
39.652717792272213
30
-2.2204460492503131e-15
10
43.560839239704556
20
39.637650287443911
30
0
10
43.533047758334426
20
39.625634596935463
30
0
10
43.505320738999998
20
39.613631898000001
30
0
0
SPLINE
5
282
100
AcDbEntity
8
0
100
AcDbSpline
70
0
71
3
72
11
73
7
74
0
42
0.000000001
43
0.0000000001
44
0.0000000001
40
0
40
0
40
0
40
0
40
8.74366590651415e-05
40
8.74366590651415e-05
40
8.74366590651415e-05
40
0.00017398399999999999
40
0.00017398399999999999
40
0.00017398399999999999
40
0.00017398399999999999
10
43.505320738999998
20
39.613631898000001
30
0
10
43.47763941470344
20
39.604510046656578
30
0
10
43.449938878528975
20
39.595358107824048
30
0
10
43.421282510603305
20
39.590098494542019
30
0
10
43.392917606553524
20
39.584892376778924
30
0
10
43.363916404867581
20
39.583576535837061
30
0
10
43.335061561000003
20
39.582253926999996
30
0
0
SPLINE
5
283
100
AcDbEntity
8
0
100
AcDbSpline
70
0
71
3
72
11
73
7
74
0
42
0.000000001
43
0.0000000001
44
0.0000000001
40
0
40
0
40
0
40
0
40
0.00011339397300690841
40
0.00011339397300690841
40
0.00011339397300690841
40
0.000222034
40
0.000222034
40
0.000222034
40
0.000222034
10
43.335061561000003
20
39.582253926999996
30
0
10
43.297311601518345
20
39.584159775816296
30
0
10
43.259332697150484
20
39.586010501746628
30
0
10
43.222578582989911
20
39.594873273213103
30
0
10
43.187365353850566
20
39.603364480512923
30
-2.2204460492503131e-15
10
43.154020399474561
20
39.618122463659901
30
0
10
43.120873312999997
20
39.63273146200001
30
0
0
SPLINE
5
284
100
AcDbEntity
8
0
100
AcDbSpline
70
0
71
3
72
11
73
7
74
0
42
0.000000001
43
0.0000000001
44
0.0000000001
40
0
40
0
40
0
40
0
40
0.000104477
40
0.000104477
40
0.000104477
40
0.00020895500000000001
40
0.00020895500000000001
40
0.00020895500000000001
40
0.00020895500000000001
10
43.120873312999997
20
39.63273146200001
30
0
10
43.091265495701222
20
39.651067733517557
30
0
10
43.061427278919162
20
39.669366118840998
30
0
10
43.036724577261111
20
39.694095935689774
30
0
10
43.012021639161553
20
39.718825989239626
30
0
10
42.993697215096404
20
39.748947002059133
30
0
10
42.975443568000003
20
39.778706962000001
30
0
0
SPLINE
5
285
100
AcDbEntity
8
0
100
AcDbSpline
70
0
71
3
72
11
73
7
74
0
42
0.000000001
43
0.0000000001
44
0.0000000001
40
0
40
0
40
0
40
0
40
0.00010777665063039816
40
0.00010777665063039816
40
0.00010777665063039816
40
0.000220819
40
0.000220819
40
0.000220819
40
0.000220819
10
42.975443568000003
20
39.778706962000001
30
0
10
42.961220513018802
20
39.811697008973788
30
0
10
42.946875619895508
20
39.844823018754646
30
0
10
42.938608642601253
20
39.879798376733909
30
0
10
42.929937761384743
20
39.916482543600232
30
0
10
42.928156419685671
20
39.954416538235932
30
0
10
42.926330309000001
20
39.992076615000002
30
0
0
SPLINE
5
286
100
AcDbEntity
8
0
100
AcDbSpline
70
0
71
3
72
11
73
7
74
0
42
0.000000001
43
0.0000000001
44
0.0000000001
40
0
40
0
40
0
40
0
40
0.0001137250140653693
40
0.0001137250140653693
40
0.0001137250140653693
40
0.000225164
40
0.000225164
40
0.000225164
40
0.000225164
10
42.926330309000001
20
39.992076615000002
30
0
10
42.928270437468683
20
40.029935326868028
30
0
10
42.930166854132892
20
40.067986062146694
30
-2.2204460492503131e-15
10
42.938540394957691
20
40.104968853528291
30
-2.2204460492503131e-15
10
42.946745616173672
20
40.14120824028474
30
0
10
42.961021220733755
20
40.175735598370714
30
0
10
42.975170728000009
20
40.210084850000001
30
0
0
SPLINE
5
287
100
AcDbEntity
8
0
100
AcDbSpline
70
0
71
3
72
11
73
7
74
0
42
0.000000001
43
0.0000000001
44
0.0000000001
40
0
40
0
40
0
40
0
40
0.0001067775053458666
40
0.0001067775053458666
40
0.0001067775053458666
40
0.000208858
40
0.000208858
40
0.000208858
40
0.000208858
10
42.975170728000009
20
40.210084850000001
30
0
10
42.992677736658308
20
40.241074217118715
30
0
10
43.010171401409103
20
40.27237382500612
30
0
10
43.034720537604386
20
40.29828407901455
30
0
10
43.058189787593207
20
40.323054572923631
30
-2.2204460492503131e-15
10
43.087124083996017
20
40.341785689172653
30
0
10
43.115689125000003
20
40.360425943000003
30
0
0
SPLINE
5
288
100
AcDbEntity
8
0
100
AcDbSpline
70
0
71
3
72
11
73
7
74
0
42
0.000000001
43
0.0000000001
44
0.0000000001
40
0
40
0
40
0
40
0
40
0.00010548244596086622
40
0.00010548244596086622
40
0.00010548244596086622
40
0.000218779
40
0.000218779
40
0.000218779
40
0.000218779
10
43.115689125000003
20
40.360425943000003
30
0
10
43.147848106652951
20
40.374641506349882
30
0
10
43.180140148269885
20
40.388983288828193
30
0
10
43.214324828744054
20
40.39726086895503
30
0
10
43.251041900133245
20
40.406151649744317
30
0
10
43.289114115976368
20
40.407820947645341
30
0
10
43.326875981000008
20
40.409539127999999
30
0
0
SPLINE
5
289
100
AcDbEntity
8
0
100
AcDbSpline
70
0
71
3
72
11
73
7
74
0
42
0.000000001
43
0.0000000001
44
0.0000000001
40
0
40
0
40
0
40
0
40
8.3013155633235926e-05
40
8.3013155633235926e-05
40
8.3013155633235926e-05
40
0.000160347
40
0.000160347
40
0.000160347
40
0.000160347
10
43.326875981000008
20
40.409539127999999
30
0
10
43.354529521434259
20
40.408548296778079
30
0
10
43.382327752265738
20
40.40756891222567
30
0
10
43.409481683690004
20
40.402513230452463
30
0
10
43.434777889944201
20
40.397803431090729
30
0
10
43.45932881819671
20
40.389592387148021
30
0
10
43.483765464000001
20
40.381435463000003
30
0
0
SPLINE
5
290
100
AcDbEntity
8
0
100
AcDbSpline
70
0
71
3
72
11
73
7
74
0
42
0.000000001
43
0.0000000001
44
0.0000000001
40
0
40
0
40
0
40
0
40
6.8254000000000001e-05
40
6.8254000000000001e-05
40
6.8254000000000001e-05
40
0.00013650700000000001
40
0.00013650700000000001
40
0.00013650700000000001
40
0.00013650700000000001
10
43.483765464000001
20
40.381435463000003
30
0
10
43.504480524167491
20
40.372027182368782
30
0
10
43.525370930341367
20
40.362583049109126
30
0
10
43.543940706007049
20
40.349509105187018
30
0
10
43.562510209604014
20
40.33643535281329
30
2.2204460492503131e-15
10
43.578164404986381
20
40.319712098987218
30
0
10
43.593724559999998
20
40.303127179000001
30
0
0
SPLINE
5
291
100
AcDbEntity
8
0
100
AcDbSpline
70
0
71
3
72
11
73
7
74
0
42
0.000000001
43
0.0000000001
44
0.0000000001
40
0
40
0
40
0
40
0
40
6.7719099491177714e-05
40
6.7719099491177714e-05
40
6.7719099491177714e-05
40
0.000145348
40
0.000145348
40
0.000145348
40
0.000145348
10
43.593724559999998
20
40.303127179000001
30
0
10
43.606340593063351
20
40.284408635183325
30
0
10
43.619044697386059
20
40.265583514923179
30
-2.2204460492503131e-15
10
43.628785949930808
20
40.245282657051327
30
-2.2204460492503131e-15
10
43.63995270687694
20
40.222011035192523
30
0
10
43.647135154644339
20
40.197009044049324
30
0
10
43.654297630999999
20
40.172158489000005
30
0
0
LINE
5
292
100
AcDbEntity
8
0
100
AcDbLine
10
43.654297631000006
20
40.172158489000005
30
0
11
43.558799665000009
21
40.145964706000001
31
0
0
SPLINE
5
293
100
AcDbEntity
8
0
100
AcDbSpline
70
0
71
3
72
11
73
7
74
0
42
0.000000001
43
0.0000000001
44
0.0000000001
40
0
40
0
40
0
40
0
40
5.3251999999999998e-05
40
5.3251999999999998e-05
40
5.3251999999999998e-05
40
0.00010650300000000001
40
0.00010650300000000001
40
0.00010650300000000001
40
0.00010650300000000001
10
43.558799665000009
20
40.145964706000001
30
0
10
43.553458745171632
20
40.16289295005415
30
0
10
43.548119600653251
20
40.179852427030667
30
0
10
43.540754525764321
20
40.195982329411059
30
0
10
43.533389589181482
20
40.212111928893862
30
0
10
43.523708832746877
20
40.227107891835956
30
0
10
43.514052073999999
20
40.242008427000002
30
0
0
SPLINE
5
294
100
AcDbEntity
8
0
100
AcDbSpline
70
0
71
3
72
11
73
7
74
0
42
0.000000001
43
0.0000000001
44
0.0000000001
40
0
40
0
40
0
40
0
40
4.5291437989650012e-05
40
4.5291437989650012e-05
40
4.5291437989650012e-05
40
9.5685000000000003e-05
40
9.5685000000000003e-05
40
9.5685000000000003e-05
40
9.5685000000000003e-05
10
43.514052073999999
20
40.242008427000002
30
0
10
43.503861122078547
20
40.253148595907071
30
0
10
43.493632986656309
20
40.264370422143401
30
0
10
43.481582739899551
20
40.273454572995924
30
0
10
43.468175021263733
20
40.28356206217309
30
-2.2204460492503131e-15
10
43.452846711141085
20
40.290765582034318
30
0
10
43.437653672000003
20
40.29794299000001
30
0
0
SPLINE
5
295
100
AcDbEntity
8
0
100
AcDbSpline
70
0
71
3
72
11
73
7
74
0
42
0.000000001
43
0.0000000001
44
0.0000000001
40
0
40
0
40
0
40
0
40
5.4802153675149552e-05
40
5.4802153675149552e-05
40
5.4802153675149552e-05
40
0.000112991
40
0.000112991
40
0.000112991
40
0.000112991
10
43.437653672000003
20
40.29794299000001
30
0
10
43.420434581272445
20
40.304042971137733
30
0
10
43.403187706803344
20
40.310171740496507
30
0
10
43.385266257313958
20
40.313700074145693
30
0
10
43.366237288554103
20
40.317446453634965
30
0
10
43.346788300378748
20
40.318190928891553
30
0
10
43.327421735999998
20
40.31895251000001
30
0
0
SPLINE
5
296
100
AcDbEntity
8
0
100
AcDbSpline
70
0
71
3
72
11
73
7
74
0
42
0.000000001
43
0.0000000001
44
0.0000000001
40
0
40
0
40
0
40
0
40
6.7984206941204588e-05
40
6.7984206941204588e-05
40
6.7984206941204588e-05
40
0.000128233
40
0.000128233
40
0.000128233
40
0.000128233
10
43.327421735999998
20
40.31895251000001
30
0
10
43.304769978467277
20
40.318278513310446
30
0
10
43.282004911426206
20
40.317620020014324
30
0
10
43.259754668272734
20
40.313427308439636
30
0
10
43.240036113691069
20
40.309711654122495
30
0
10
43.22094173588625
20
40.303263330604651
30
0
10
43.201910149
20
40.296851555000003
30
0
0
SPLINE
5
297
100
AcDbEntity
8
0
100
AcDbSpline
70
0
71
3
72
11
73
7
74
0
42
0.000000001
43
0.0000000001
44
0.0000000001
40
0
40
0
40
0
40
0
40
5.4343766528809987e-05
40
5.4343766528809987e-05
40
5.4343766528809987e-05
40
0.00010419199999999999
40
0.00010419199999999999
40
0.00010419199999999999
40
0.00010419199999999999
10
43.201910149
20
40.296851555000003
30
0
10
43.185475471814875
20
40.289232042125164
30
0
10
43.168958062356886
20
40.281599975568966
30
0
10
43.154092916448413
20
40.271271698141419
30
0
10
43.140457474682776
20
40.261797817005665
30
-2.2204460492503131e-15
10
43.128465251100195
20
40.250234615264944
30
0
10
43.116507646000002
20
40.238734268999998
30
0
0
SPLINE
5
298
100
AcDbEntity
8
0
100
AcDbSpline
70
0
71
3
72
11
73
7
74
0
42
0.000000001
43
0.0000000001
44
0.0000000001
40
0
40
0
40
0
40
0
40
4.7619320241978849e-05
40
4.7619320241978849e-05
40
4.7619320241978849e-05
40
9.4291999999999998e-05
40
9.4291999999999998e-05
40
9.4291999999999998e-05
40
9.4291999999999998e-05
10
43.116507646000002
20
40.238734268999998
30
0
10
43.106346516159604
20
40.226539040964497
30
0
10
43.096156303349176
20
40.214320622512773
30
0
10
43.087653633634034
20
40.200944329600141
30
0
10
43.079319991350047
20
40.187833948513443
30
0
10
43.072662104027955
20
40.173687058474989
30
0
10
43.066030185999999
20
40.159607315000009
30
0
0
SPLINE
5
299
100
AcDbEntity
8
0
100
AcDbSpline
70
0
71
3
72
11
73
7
74
0
42
0.000000001
43
0.0000000001
44
0.0000000001
40
0
40
0
40
0
40
0
40
8.0882708822819751e-05
40
8.0882708822819751e-05
40
8.0882708822819751e-05
40
0.00016479799999999999
40
0.00016479799999999999
40
0.00016479799999999999
40
0.00016479799999999999
10
43.066030185999999
20
40.159607315000009
30
0
10
43.057147561969458
20
40.134151574333288
30
0
10
43.048234148738082
20
40.108672228593804
30
0
10
43.043110709635279
20
40.082254047871444
30
0
10
43.037795174456036
20
40.054845354963497
30
0
10
43.036633482212309
20
40.026633415581159
30
0
10
43.035470884000006
20
39.998625005000001
30
0
0
SPLINE
5
300
100
AcDbEntity
8
0
100
AcDbSpline
70
0
71
3
72
11
73
7
74
0
42
0.000000001
43
0.0000000001
44
0.0000000001
40
0
40
0
40
0
40
0
40
9.8918401149301877e-05
40
9.8918401149301877e-05
40
9.8918401149301877e-05
40
0.000184394
40
0.000184394
40
0.000184394
40
0.000184394
10
43.035470884000006
20
39.998625005000001
30
0
10
43.036503234017324
20
39.965668280271565
30
0
10
43.037484797734358
20
39.932557767992485
30
0
10
43.044679652833473
20
39.900398635169232
30
0
10
43.050896742283925
20
39.8726098607385
30
0
10
43.061648486669867
20
39.846053033035076
30
0
10
43.072305810000003
20
39.819634639999997
30
0
0
SPLINE
5
301
100
AcDbEntity
8
0
100
AcDbSpline
70
0
71
3
72
11
73
7
74
0
42
0.000000001
43
0.0000000001
44
0.0000000001
40
0
40
0
40
0
40
0
40
7.7667863844706338e-05
40
7.7667863844706338e-05
40
7.7667863844706338e-05
40
0.00015453299999999999
40
0.00015453299999999999
40
0.00015453299999999999
40
0.00015453299999999999
10
43.072305810000003
20
39.819634639999997
30
0
10
43.085721968690713
20
39.797492289356782
30
0
10
43.099336948702515
20
39.77493273001329
30
-2.2204460492503131e-15
10
43.117530981994811
20
39.756878847773798
30
-2.2204460492503131e-15
10
43.135536972851241
20
39.73901155945434
30
0
10
43.157651970413369
20
39.725819825072165
30
0
10
43.179536354000007
20
39.712676936999998
30
0
0
SPLINE
5
302
100
AcDbEntity
8
0
100
AcDbSpline
70
0
71
3
72
11
73
7
74
0
42
0.000000001
43
0.0000000001
44
0.0000000001
40
0
40
0
40
0
40
0
40
7.7297687969153544e-05
40
7.7297687969153544e-05
40
7.7297687969153544e-05
40
0.00015491999999999999
40
0.00015491999999999999
40
0.00015491999999999999
40
0.00015491999999999999
10
43.179536354000007
20
39.712676936999998
30
0
10
43.203232057230451
20
39.70255744365744
30
0
10
43.227089424709504
20
39.692339541576615
30
-2.2204460492503131e-15
10
43.252114842565526
20
39.686483079657997
30
-2.2204460492503131e-15
10
43.2772453586852
20
39.680602022586463
30
0
10
43.30324372532943
20
39.679186841821725
30
0
10
43.329058852000003
20
39.677751893
30
0
0
SPLINE
5
303
100
AcDbEntity
8
0
100
AcDbSpline
70
0
71
3
72
11
73
7
74
0
42
0.000000001
43
0.0000000001
44
0.0000000001
40
0
40
0
40
0
40
0
40
6.8340698236600347e-05
40
6.8340698236600347e-05
40
6.8340698236600347e-05
40
0.000137665
40
0.000137665
40
0.000137665
40
0.000137665
10
43.329058852000003
20
39.677751893
30
0
10
43.351811239025793
20
39.678879636675667
30
0
10
43.374668434394017
20
39.679997198049158
30
0
10
43.396998831715891
20
39.684368604169862
30
0
10
43.419650622557668
20
39.688802926394558
30
0
10
43.441515377914996
20
39.696533745711122
30
0
10
43.463301700000009
20
39.704218441000009
30
0
0
SPLINE
5
304
100
AcDbEntity
8
0
100
AcDbSpline
70
0
71
3
72
11
73
7
74
0
42
0.000000001
43
0.0000000001
44
0.0000000001
40
0
40
0
40
0
40
0
40
6.3816769908852085e-05
40
6.3816769908852085e-05
40
6.3816769908852085e-05
40
0.000114838
40
0.000114838
40
0.000114838
40
0.000114838
10
43.463301700000009
20
39.704218441000009
30
0
10
43.482912168037764
20
39.712461482898753
30
0
10
43.502603313322872
20
39.72072781731957
30
0
10
43.520873231215383
20
39.731571907403591
30
0
10
43.53547995113982
20
39.74024171027979
30
0
10
43.54905735818712
20
39.750481213499384
30
0
10
43.562619429000009
20
39.760698759999997
30
0
0
LINE
5
305
100
AcDbEntity
8
0
100
AcDbLine
10
43.562619429000009
20
39.760698759999997
30
0
11
43.562619429000009
21
39.909675503000003
31
0
0
LINE
5
306
100
AcDbEntity
8
0
100
AcDbLine
10
43.562619429000009
20
39.909675503000003
30
0
11
43.327421735999998
21
39.909675503000003
31
0
0
CIRCLE
5
307
100
AcDbEntity
8
0
100
AcDbCircle
10
51.810000000000009
20
41.705896467999999
30
0
40
1
210
0
220
-0
230
1
0
CIRCLE
5
308
100
AcDbEntity
8
0
100
AcDbCircle
10
49.270000000000003
20
41.705896467999999
30
0
40
1
210
0
220
-0
230
1
0
CIRCLE
5
309
100
AcDbEntity
8
0
100
AcDbCircle
10
46.730000000000004
20
41.705896467999999
30
0
40
1
210
0
220
-0
230
1
0
CIRCLE
5
310
100
AcDbEntity
8
0
100
AcDbCircle
10
36.25
20
41.405896468000009
30
0
40
1.5000000000000002
210
0
220
-0
230
1
0
CIRCLE
5
311
100
AcDbEntity
8
0
100
AcDbCircle
10
59.750000000000007
20
41.405896468000009
30
0
40
1.5000000000000002
210
0
220
-0
230
1
0
CIRCLE
5
312
100
AcDbEntity
8
0
100
AcDbCircle
10
36.25
20
17.605896468000001
30
0
40
1.5000000000000002
210
0
220
-0
230
1
0
CIRCLE
5
313
100
AcDbEntity
8
0
100
AcDbCircle
10
59.750000000000007
20
17.605896468000001
30
0
40
1.5000000000000002
210
0
220
-0
230
1
0
CIRCLE
5
314
100
AcDbEntity
8
0
100
AcDbCircle
10
36.25
20
41.405896468000009
30
0
40
1.4999999999999971
210
0
220
0
230
1
0
CIRCLE
5
315
100
AcDbEntity
8
0
100
AcDbCircle
10
36.25
20
17.605896468000001
30
0
40
1.5000000000000013
210
0
220
0
230
1
0
CIRCLE
5
316
100
AcDbEntity
8
0
100
AcDbCircle
10
59.750000000000007
20
17.605896468000001
30
0
40
1.5000000000000036
210
0
220
0
230
1
0
CIRCLE
5
317
100
AcDbEntity
8
0
100
AcDbCircle
10
59.750000000000007
20
41.405896468000009
30
0
40
1.5000000000000036
210
0
220
0
230
1
0
CIRCLE
5
318
100
AcDbEntity
8
0
100
AcDbCircle
10
51.810000000000009
20
41.705896467999999
30
0
40
0.99999999999999745
210
0
220
0
230
1
0
CIRCLE
5
319
100
AcDbEntity
8
0
100
AcDbCircle
10
49.270000000000003
20
41.705896467999999
30
0
40
0.99999999999999578
210
0
220
0
230
1
0
CIRCLE
5
320
100
AcDbEntity
8
0
100
AcDbCircle
10
46.730000000000004
20
41.705896467999999
30
0
40
1.0000000000000004
210
0
220
0
230
1
0
LWPOLYLINE
5
321
100
AcDbEntity
8
0
100
AcDbPolyline
90
4
70
1
43
0.0
10
43.189999999999998
20
42.705896468000006
10
45.189999999999998
20
42.705896468000006
10
45.189999999999998
20
40.705896468000006
10
43.189999999999998
20
40.705896468000006
0
LINE
5
322
100
AcDbEntity
8
0
100
AcDbLine
10
34.460001636762172
20
39.236251863621874
30
0
11
61.540002922993153
21
39.236251863621874
31
0
0
LINE
5
323
100
AcDbEntity
8
0
100
AcDbLine
10
61.540002922993153
20
39.236251863621874
30
0
11
61.540002922993153
21
19.7750009392621
31
0
0
LINE
5
324
100
AcDbEntity
8
0
100
AcDbLine
10
34.460001636762172
20
19.7750009392621
30
0
11
34.460001636762172
21
39.236251863621874
31
0
0
LINE
5
325
100
AcDbEntity
8
0
100
AcDbLine
10
34.460001636762172
20
22.387941321374534
30
0
11
61.349998628720641
21
22.387941321374534
31
0
0
LINE
5
326
100
AcDbEntity
8
0
100
AcDbLine
10
61.349998628720641
20
22.387941321374534
30
0
11
61.540002922993153
21
22.387941321374534
31
0
0
LINE
5
327
100
AcDbEntity
8
0
100
AcDbLine
10
40.700000000000003
20
17.605896468000001
30
0
11
40.700000000000003
21
15.605896468000001
31
0
0
LINE
5
328
100
AcDbEntity
8
0
100
AcDbLine
10
55.300000000000004
20
17.605896468000001
30
0
11
55.300000000000004
21
15.605896468000001
31
0
0
SPLINE
5
329
100
AcDbEntity
8
0
100
AcDbSpline
70
12
71
2
41
1
41
2.333333333333333
41
1
72
6
73
3
74
0
42
0.000000001
43
0.0000000001
44
0.0000000001
40
0
40
0
40
0
40
0.83301522323663679
40
0.83301522323663679
40
0.83301522323663679
10
43.722990765084134
20
22.387941321374534
30
0
10
45.000000670552254
20
16.000000238418579
30
0
10
41.139384442919237
20
17.605896468000001
30
0
0
SPLINE
5
330
100
AcDbEntity
8
0
100
AcDbSpline
70
12
71
2
41
1
41
2.333333333333333
41
1
72
6
73
3
74
0
42
0.000000001
43
0.0000000001
44
0.0000000001
40
0
40
0
40
0
40
0.83301522323663679
40
0.83301522323663679
40
0.83301522323663679
10
52.277013794671191
20
22.387941321374534
30
0
10
51.000003889203072
20
16.000000238418579
30
0
10
54.860620116836088
20
17.605896468000001
30
0
0
LINE
5
331
100
AcDbEntity
8
0
100
AcDbLine
10
61.540002922993153
20
19.7750009392621
30
0
11
51.79883587692526
21
19.775001001146922
31
0
0
LINE
5
332
100
AcDbEntity
8
0
100
AcDbLine
10
44.201168682830072
20
19.775001001146922
30
0
11
34.460001636762172
21
19.7750009392621
31
0
0
LINE
5
333
100
AcDbEntity
8
0
100
AcDbLine
10
40.700000000000003
20
17.605896468000001
30
0
11
44.350294244235769
21
17.605896468672888
31
0
0
LINE
5
334
100
AcDbEntity
8
0
100
AcDbLine
10
51.649710315519556
20
17.605896468672888
30
0
11
55.300000000000004
21
17.605896468000001
31
0
0
ENDSEC
0
SECTION
2
OBJECTS
0
DICTIONARY
5
C
100
AcDbDictionary
3
ACAD_GROUP
350
D
3
ACAD_MLINESTYLE
350
17
0
DICTIONARY
5
D
100
AcDbDictionary
0
DICTIONARY
5
1A
330
C
100
AcDbDictionary
0
DICTIONARY
5
17
100
AcDbDictionary
0
ENDSEC
0
EOF
