0
SECTION
2
HEADER
9
$INSUNITS
70
4
9
$ACADVER
1
AC1014
9
$HANDSEED
5
FFFF
0
ENDSEC
0
SECTION
2
TABLES
0
TABLE
2
VPORT
5
8
100
AcDbSymbolTable
0
ENDTAB
0
TABLE
2
LTYPE
5
5
100
AcDbSymbolTable
0
LTYPE
5
14
100
AcDbSymbolTableRecord
100
AcDbLinetypeTableRecord
2
BYBLOCK
70
0
0
LTYPE
5
15
100
AcDbSymbolTableRecord
100
AcDbLinetypeTableRecord
2
BYLAYER
70
0
0
ENDTAB
0
TABLE
2
LAYER
5
2
100
AcDbSymbolTable
70
2
0
LAYER
5
50
100
AcDbSymbolTableRecord
100
AcDbLayerTableRecord
2
0
70
0
6
CONTINUOUS
0
ENDTAB
0
TABLE
2
STYLE
5
3
100
AcDbSymbolTable
70
1
0
STYLE
5
11
100
AcDbSymbolTableRecord
100
AcDbTextStyleTableRecord
2
STANDARD
70
0
0
ENDTAB
0
TABLE
2
VIEW
5
6
100
AcDbSymbolTable
70
0
0
ENDTAB
0
TABLE
2
UCS
5
7
100
AcDbSymbolTable
70
0
0
ENDTAB
0
TABLE
2
APPID
5
9
100
AcDbSymbolTable
70
2
0
APPID
5
12
100
AcDbSymbolTableRecord
100
AcDbRegAppTableRecord
2
ACAD
70
0
0
ENDTAB
0
TABLE
2
DIMSTYLE
5
A
100
AcDbSymbolTable
70
1
0
ENDTAB
0
TABLE
2
BLOCK_RECORD
5
1
100
AcDbSymbolTable
70
1
0
BLOCK_RECORD
5
1F
100
AcDbSymbolTableRecord
100
AcDbBlockTableRecord
2
*MODEL_SPACE
0
BLOCK_RECORD
5
1B
100
AcDbSymbolTableRecord
100
AcDbBlockTableRecord
2
*PAPER_SPACE
0
ENDTAB
0
ENDSEC
0
SECTION
2
BLOCKS
0
BLOCK
5
20
100
AcDbEntity
100
AcDbBlockBegin
2
*MODEL_SPACE
0
ENDBLK
5
21
100
AcDbEntity
100
AcDbBlockEnd
0
BLOCK
5
1C
100
AcDbEntity
100
AcDbBlockBegin
2
*PAPER_SPACE
0
ENDBLK
5
1D
100
AcDbEntity
100
AcDbBlockEnd
0
ENDSEC
0
SECTION
2
ENTITIES
0
LWPOLYLINE
5
100
100
AcDbEntity
8
0
100
AcDbPolyline
90
16
70
1
43
0.0
10
-12.000000178813933
20
23.000000372529033
42
0.41421356237309698
10
-14.000000178813931
20
25.000000372529037
10
-17.00000029802321
20
25.000000372529037
42
-0.41421356237309548
10
-20.000000298023217
20
28.000000372529037
10
-20.000000298023206
20
36.000000581145301
42
-0.41421356237309481
10
-17.00000029802321
20
39.000000581145294
10
17.000003999998082
20
39.000000581142999
42
-0.41421320094536429
10
20.000000298023242
20
36.000000581145272
10
20.000000298023231
20
28.000000372529019
42
-0.41421356237309531
10
17.000000298023231
20
25.000000372529023
10
14.000000178813936
20
25.000000372529023
42
0.41421356237309437
10
12.000000178813934
20
23.000000372529019
10
12.000000178813933
20
14.000000178813934
42
-0.41421356237309503
10
10.000000178813933
20
12.000000178813934
10
-10.000000178813938
20
12.000000178813933
42
-0.41421356237309503
10
-12.000000178813936
20
14.000000178813931
0
LWPOLYLINE
5
101
100
AcDbEntity
8
0
100
AcDbPolyline
90
8
70
1
43
0.0
10
15.000000223517418
20
7.0000001341104507
42
0.41421356237309503
10
13.000000223517418
20
9.0000001341104507
10
-13.000000223517418
20
9.0000001341104507
42
0.41421356237309537
10
-15.000000223517418
20
7.0000001341104472
10
-15.000000223517418
20
-19.000000312924385
42
0.4142135623730957
10
-13.000000223517414
20
-21.000000312924385
10
13.000000223517418
20
-21.000000312924385
42
0.41421356237309537
10
15.000000223517418
20
-19.000000312924382
0
CIRCLE
5
102
100
AcDbEntity
8
0
100
AcDbCircle
10
-34.999996462778256
20
-42.499999999999645
30
0
40
1.7500000000000027
210
-3.2944368572595385e-83
220
2.5764595078388533e-231
230
1
0
CIRCLE
5
103
100
AcDbEntity
8
0
100
AcDbCircle
10
35.000003537219833
20
42.500000000001421
30
0
40
1.7500000000000027
210
-3.2944368572595385e-83
220
2.5764595078388533e-231
230
1
0
CIRCLE
5
104
100
AcDbEntity
8
0
100
AcDbCircle
10
35.000003537221488
20
-42.49999999999968
30
0
40
1.7500000000000027
210
-3.2944368572595385e-83
220
2.5764595078388533e-231
230
1
0
CIRCLE
5
105
100
AcDbEntity
8
0
100
AcDbCircle
10
-34.999996462779905
20
42.499999999998685
30
0
40
1.7500000000000027
210
-3.2944368572595385e-83
220
2.5764595078388533e-231
230
1
0
LWPOLYLINE
5
106
100
AcDbEntity
8
0
100
AcDbPolyline
90
18
70
1
43
0.0
10
38.675965155374158
20
-40.499008508881353
42
0.42776443959837007
10
38.675967022010227
20
40.49901046350756
42
-0.16928637833232094
10
37.476362116117116
20
42.842998817380391
42
0.39030311547074287
10
34.861789288219541
20
44.996176440354759
42
-0.16228532159023865
10
32.421131879733316
20
45.662333559329696
42
-7.9798540793501408e-05
10
32.420267147969184
20
45.660992156335396
42
0.31890563346015233
10
-32.420257939384612
20
45.66099367822644
42
-7.9794543191226728e-05
10
-32.42112262773275
20
45.662335013992902
42
-0.1622854973110634
10
-34.861782213779819
20
44.996176440351974
42
0.39030311547304092
10
-37.47635236451422
20
42.842998446545209
42
-0.16928637833176774
10
-38.675958080932503
20
40.49900850888023
42
0.42776443959834659
10
-38.675959947568586
20
-40.499010463505613
42
-0.16928637833232002
10
-37.476355041675546
20
-42.842998817378486
42
0.39030311547074542
10
-34.861782363201847
20
-44.996173741730175
42
-0.16928637833235932
10
-32.331261658117455
20
-45.724052621786541
42
0.31783305148658536
10
32.331270292981053
20
-45.724054828589814
42
-0.16928637833236582
10
34.861789288221296
20
-44.996176440352968
42
0.39030311547074442
10
37.476359438921151
20
-42.842998446561623
42
-0.16928637833231991
0
ENDSEC
0
SECTION
2
OBJECTS
0
DICTIONARY
5
C
100
AcDbDictionary
3
ACAD_GROUP
350
D
3
ACAD_MLINESTYLE
350
17
0
DICTIONARY
5
D
100
AcDbDictionary
0
DICTIONARY
5
1A
330
C
100
AcDbDictionary
0
DICTIONARY
5
17
100
AcDbDictionary
0
ENDSEC
0
EOF
