0
SECTION
2
HEADER
9
$INSUNITS
70
4
9
$ACADVER
1
AC1014
9
$HANDSEED
5
FFFF
0
ENDSEC
0
SECTION
2
TABLES
0
TABLE
2
VPORT
5
8
100
AcDbSymbolTable
0
ENDTAB
0
TABLE
2
LTYPE
5
5
100
AcDbSymbolTable
0
LTYPE
5
14
100
AcDbSymbolTableRecord
100
AcDbLinetypeTableRecord
2
BYBLOCK
70
0
0
LTYPE
5
15
100
AcDbSymbolTableRecord
100
AcDbLinetypeTableRecord
2
BYLAYER
70
0
0
LTYPE
5
16
100
AcDbSymbolTableRecord
100
AcDbLinetypeTableRecord
2
DASHED
70
0
3
Dashed __ __ __ __ __ __ __ __ __ __ __ __ __ _
72
65
73
2
40
0.75
49
0.5
74
0
49
-0.25
74
0
0
ENDTAB
0
TABLE
2
LAYER
5
2
100
AcDbSymbolTable
70
3
0
LAYER
5
50
100
AcDbSymbolTableRecord
100
AcDbLayerTableRecord
2
1
70
0
62
7
6
DASHED
0
LAYER
5
51
100
AcDbSymbolTableRecord
100
AcDbLayerTableRecord
2
0
70
0
62
7
6
CONTINUOUS
0
ENDTAB
0
TABLE
2
STYLE
5
3
100
AcDbSymbolTable
70
1
0
STYLE
5
11
100
AcDbSymbolTableRecord
100
AcDbTextStyleTableRecord
2
STANDARD
70
0
0
ENDTAB
0
TABLE
2
VIEW
5
6
100
AcDbSymbolTable
70
0
0
ENDTAB
0
TABLE
2
UCS
5
7
100
AcDbSymbolTable
70
0
0
ENDTAB
0
TABLE
2
APPID
5
9
100
AcDbSymbolTable
70
2
0
APPID
5
12
100
AcDbSymbolTableRecord
100
AcDbRegAppTableRecord
2
ACAD
70
0
0
ENDTAB
0
TABLE
2
DIMSTYLE
5
A
100
AcDbSymbolTable
70
1
0
ENDTAB
0
TABLE
2
BLOCK_RECORD
5
1
100
AcDbSymbolTable
70
1
0
BLOCK_RECORD
5
1F
100
AcDbSymbolTableRecord
100
AcDbBlockTableRecord
2
*MODEL_SPACE
0
BLOCK_RECORD
5
1B
100
AcDbSymbolTableRecord
100
AcDbBlockTableRecord
2
*PAPER_SPACE
0
ENDTAB
0
ENDSEC
0
SECTION
2
BLOCKS
0
BLOCK
5
20
100
AcDbEntity
100
AcDbBlockBegin
2
*MODEL_SPACE
0
ENDBLK
5
21
100
AcDbEntity
100
AcDbBlockEnd
0
BLOCK
5
1C
100
AcDbEntity
100
AcDbBlockBegin
2
*PAPER_SPACE
0
ENDBLK
5
1D
100
AcDbEntity
100
AcDbBlockEnd
0
ENDSEC
0
SECTION
2
ENTITIES
0
CIRCLE
5
100
100
AcDbEntity
8
0
100
AcDbCircle
10
-24.12266902925716
20
29.915390193617082
30
0
40
1.749999999999998
210
0
220
-0
230
1
0
CIRCLE
5
101
100
AcDbEntity
8
0
100
AcDbCircle
10
-50.975070562888376
20
-13.316034059778001
30
0
40
1.749999999999998
210
0
220
-0
230
1
0
CIRCLE
5
102
100
AcDbEntity
8
0
100
AcDbCircle
10
-24.122669029257246
20
-29.915390193617366
30
0
40
1.749999999999998
210
0
220
-0
230
1
0
CIRCLE
5
103
100
AcDbEntity
8
0
100
AcDbCircle
10
-50.975070562888341
20
13.316034059777788
30
0
40
1.749999999999998
210
0
220
-0
230
1
0
LWPOLYLINE
5
104
100
AcDbEntity
8
0
100
AcDbPolyline
90
28
70
1
43
0.0
10
-13.433718520392937
20
38.758571434589427
10
-13.834284513553923
20
39.221116852466118
42
0.33171716075678137
10
-16.752871609086196
20
39.863033189593509
42
-0.31193903789746302
10
-22.345894177489328
20
40.884553200810075
10
-22.876222932987631
20
41.414881951369331
42
0.41421356237309803
10
-29.947290744853092
20
41.414881918442106
10
-46.637664349488048
20
24.724508158365968
10
-60.934759460001686
20
10.427413047852189
42
0.24095386904597507
10
-62.335052001524865
20
6.0933697302060166
42
-0.080366682725004732
10
-62.335052001524843
20
-6.0933697302062138
42
0.24095386904597602
10
-60.934759460001715
20
-10.427413047852385
10
-46.637664349488119
20
-24.724508158366191
10
-29.947290744853206
20
-41.414881918442376
42
0.41421356237309875
10
-22.876222932987744
20
-41.414881951369615
10
-22.345894177489445
20
-40.884553200810373
42
-0.31193903789746502
10
-16.75287160908627
20
-39.863033189593835
42
0.33171716075676139
10
-13.834284513554099
20
-39.221116852466615
10
-13.433718520392926
20
-38.758571434589669
42
-0.33171716075678098
10
-10.515131424860655
20
-38.11665509746225
42
0.43567349809223588
10
-3.7631629040514447
20
-35.280606369046993
42
0.0046896221237142377
10
-3.118326925765408
20
-33.469260857343535
42
0.01863463034334284
10
-2.9014291914996369
20
-32.756401244486298
10
-2.8749868596661265
20
-32.756401244486277
42
0.16408966356045399
10
-2.8749868596421546
20
32.756401244414832
10
-2.9014291914995449
20
32.756401244485922
42
0.018634630343144467
10
-3.1183269257627444
20
33.469260857335748
42
0.0046896221237349538
10
-3.7631629040270029
20
35.280606369055498
42
0.43567349809223904
10
-10.515131424860694
20
38.11665509746198
42
-0.33171716075677576
0
ENDSEC
0
SECTION
2
OBJECTS
0
DICTIONARY
5
C
100
AcDbDictionary
3
ACAD_GROUP
350
D
3
ACAD_MLINESTYLE
350
17
0
DICTIONARY
5
D
100
AcDbDictionary
0
DICTIONARY
5
1A
330
C
100
AcDbDictionary
0
DICTIONARY
5
17
100
AcDbDictionary
0
ENDSEC
0
EOF
