0
SECTION
2
HEADER
9
$INSUNITS
70
4
9
$ACADVER
1
AC1014
9
$HANDSEED
5
FFFF
0
ENDSEC
0
SECTION
2
TABLES
0
TABLE
2
VPORT
5
8
100
AcDbSymbolTable
0
ENDTAB
0
TABLE
2
LTYPE
5
5
100
AcDbSymbolTable
0
LTYPE
5
14
100
AcDbSymbolTableRecord
100
AcDbLinetypeTableRecord
2
BYBLOCK
70
0
0
LTYPE
5
15
100
AcDbSymbolTableRecord
100
AcDbLinetypeTableRecord
2
BYLAYER
70
0
0
ENDTAB
0
TABLE
2
LAYER
5
2
100
AcDbSymbolTable
70
2
0
LAYER
5
50
100
AcDbSymbolTableRecord
100
AcDbLayerTableRecord
2
0
70
0
6
CONTINUOUS
0
ENDTAB
0
TABLE
2
STYLE
5
3
100
AcDbSymbolTable
70
1
0
STYLE
5
11
100
AcDbSymbolTableRecord
100
AcDbTextStyleTableRecord
2
STANDARD
70
0
0
ENDTAB
0
TABLE
2
VIEW
5
6
100
AcDbSymbolTable
70
0
0
ENDTAB
0
TABLE
2
UCS
5
7
100
AcDbSymbolTable
70
0
0
ENDTAB
0
TABLE
2
APPID
5
9
100
AcDbSymbolTable
70
2
0
APPID
5
12
100
AcDbSymbolTableRecord
100
AcDbRegAppTableRecord
2
ACAD
70
0
0
ENDTAB
0
TABLE
2
DIMSTYLE
5
A
100
AcDbSymbolTable
70
1
0
ENDTAB
0
TABLE
2
BLOCK_RECORD
5
1
100
AcDbSymbolTable
70
1
0
BLOCK_RECORD
5
1F
100
AcDbSymbolTableRecord
100
AcDbBlockTableRecord
2
*MODEL_SPACE
0
BLOCK_RECORD
5
1B
100
AcDbSymbolTableRecord
100
AcDbBlockTableRecord
2
*PAPER_SPACE
0
ENDTAB
0
ENDSEC
0
SECTION
2
BLOCKS
0
BLOCK
5
20
100
AcDbEntity
100
AcDbBlockBegin
2
*MODEL_SPACE
0
ENDBLK
5
21
100
AcDbEntity
100
AcDbBlockEnd
0
BLOCK
5
1C
100
AcDbEntity
100
AcDbBlockBegin
2
*PAPER_SPACE
0
ENDBLK
5
1D
100
AcDbEntity
100
AcDbBlockEnd
0
ENDSEC
0
SECTION
2
ENTITIES
0
LWPOLYLINE
5
100
100
AcDbEntity
8
0
100
AcDbPolyline
90
40
70
1
43
0.0
10
-102.97093975566509
20
-4.8809177557561316
10
-103.02030083654066
20
-4.8330967885916003
10
-103.05555926509109
20
-4.7777211891316167
10
-103.07570890749922
20
-4.7135385064449871
10
-103.08376776571934
20
-4.6418051841337373
10
-103.05958859432685
20
-4.5134358260896521
10
-102.98605133828814
20
-4.4114996957379873
10
-102.87020292929604
20
-4.3422792606307814
10
-102.71506656276911
20
-4.3183706486129658
10
-102.56093932628873
20
-4.3422792606307814
10
-102.44509091729662
20
-4.4114996957379873
10
-102.37155066502856
20
-4.5197300221122516
10
-102.34636555956749
20
-4.6632006594055824
10
-102.36248307625914
20
-4.7726874293818682
10
-102.4068088938304
20
-4.8595260236131912
10
-102.47934041554915
20
-4.921188083296042
10
-102.57604791268244
20
-4.9539115143402341
10
-102.57604791268244
20
-4.8293194724438742
10
-102.51258397973309
20
-4.80792399717203
10
-102.4652375634754
20
-4.770170549506993
10
-102.43702906284716
20
-4.7185722661947356
10
-102.42695573975777
20
-4.6556460271101283
10
-102.44609665161659
20
-4.5637774162579614
10
-102.50049599202583
20
-4.4958214100944378
10
-102.59015056500758
20
-4.4530304595507513
10
-102.71204316760192
20
-4.4391856239035281
10
-102.83494450074558
20
-4.4542869031527719
10
-102.92460206995668
20
-4.4970778536964593
10
-102.97899841413656
20
-4.5637774162579614
10
-102.99713359167544
20
-4.649355823758361
10
-102.98302774337232
20
-4.7261229058193566
10
-102.93971065635037
20
-4.7877887086311111
10
-102.87121165984533
20
-4.8280590361710214
10
-102.77853049571844
20
-4.8431643080910947
10
-102.77248650186482
20
-4.8431643080910947
10
-102.77248650186482
20
-4.6468389438834867
10
-102.68686125811882
20
-4.6468389438834867
10
-102.68686125811882
20
-4.9652354774417518
10
-103.0646266541119
20
-4.9652354774417518
10
-103.0646266541119
20
-4.9023132310279749
0
LWPOLYLINE
5
101
100
AcDbEntity
8
0
100
AcDbPolyline
90
35
70
1
43
0.0
10
-89.609533331592786
20
8.1368017042750491
10
-89.561180981266503
20
8.0436726571500277
10
-89.543046003476263
20
7.9203373083976203
10
-89.565210510250864
20
7.7856814901306626
10
-89.627668509131638
20
7.6875189327978237
10
-89.731425734438503
20
7.6258491373152388
10
-89.873468179189601
20
7.6044574051722957
10
-89.964131682469244
20
7.6107478580659933
10
-90.042706998293028
20
7.6271095735880889
10
-90.111209190776052
20
7.6547955017536307
10
-90.16661426550526
20
7.6925526925475696
10
-90.210940083076508
20
7.7403774028410099
10
-90.242166186161867
20
7.7970057027741095
10
-90.260301163952079
20
7.8637090084645145
10
-90.267351091874289
20
7.9379594601925652
10
-90.253248439549168
20
8.051223546316578
10
-90.214969412312271
20
8.1368017042750491
10
-90.15351734750007
20
8.1909168674621782
10
-90.073936097607714
20
8.2097917197302479
10
-90.073936097607714
20
8.0940144968602645
10
-90.121282513865424
20
8.0814261048150637
10
-90.156540742667261
20
8.0499668531726307
10
-90.178702253212521
20
8.0021421428791939
10
-90.185755177364072
20
7.9367027670486152
10
-90.170643594741023
20
7.8523810526921656
10
-90.123297178483313
20
7.7907152498804111
10
-90.043712932361615
20
7.7504449223405025
10
-89.931893652856616
20
7.7303098833415085
10
-89.990322322501655
20
7.8196616143188047
10
-90.009463434109094
20
7.9379594601925652
10
-89.994351851486016
20
8.0499668531726307
10
-89.948014165777607
20
8.138061891005977
10
-89.874473913509547
20
8.1972110634847812
10
-89.777766416376252
20
8.2173461024837717
10
-89.684079318180792
20
8.1972110634847812
0
LWPOLYLINE
5
102
100
AcDbEntity
8
0
100
AcDbPolyline
90
34
70
1
43
0.0
10
-89.98730192356382
20
8.3406777081072789
10
-90.106170931242374
20
8.3759142758974452
10
-90.19381383583557
20
8.4426175815878501
10
-90.247204245946904
20
8.5370030723148904
10
-90.266345357554343
20
8.6540444745866285
10
-90.242166186161867
20
8.7874435997096345
10
-90.170643594741023
20
8.8893837227321271
10
-90.054795185748901
20
8.9548228490207791
10
-89.897644154604109
20
8.9774787605654751
10
-89.740493323207943
20
8.9548228490207791
10
-89.624644914215835
20
8.8893837227321271
10
-89.554128256863549
20
8.7874435997096345
10
-89.528943151402487
20
8.6540444745866285
10
-89.545060668094138
20
8.5470708413563159
10
-89.590395415963314
20
8.4577191103790206
10
-89.662923741704105
20
8.3922797345484454
10
-89.75862550451744
20
8.3545225437545039
10
-89.75862550451744
20
8.4740770827722116
10
-89.69616750563668
20
8.5017667540666544
10
-89.650835753996859
20
8.5420368320646389
10
-89.622630249597961
20
8.593639108047725
10
-89.612556926508589
20
8.6540444745866285
10
-89.631697838367401
20
8.7371057526702263
10
-89.686093982798667
20
8.8012884353568559
10
-89.775751751758378
20
8.8428191991696181
10
-89.897644154604109
20
8.856660291687934
10
-90.020545687496394
20
8.8428191991696181
10
-90.109194326409551
20
8.8000319917548335
10
-90.163590670589457
20
8.7358493090682074
10
-90.181725848128323
20
8.6540444745866285
10
-90.169637660672436
20
8.5860844757522727
10
-90.132364767252739
20
8.528192245959346
10
-90.071921432989853
20
8.4866652252754839
10
-89.98730192356382
20
8.4614964265267467
0
LWPOLYLINE
5
103
100
AcDbEntity
8
0
100
AcDbPolyline
90
51
70
1
43
0.0
10
-90.114678449759836
20
-5.7422453147566008
10
-90.206350883337421
20
-5.71959139954732
10
-90.275858810140392
20
-5.6579255967355682
10
-90.32018462771164
20
-5.561021229798234
10
-90.336302144403291
20
-5.4313954281521273
10
-90.319175697413726
20
-5.3005131829039964
10
-90.271829281156016
20
-5.203608815966664
10
-90.193253965332246
20
-5.1406828264239852
10
-90.086472945360953
20
-5.1155137781333195
10
-90.086472945360953
20
-5.2300363041947682
10
-90.155980872163909
20
-5.2438811398419904
10
-90.208365547955296
20
-5.2854099073193384
10
-90.240600381589942
20
-5.3508530262788163
10
-90.251682634977257
20
-5.4364291879018731
10
-90.243623976505745
20
-5.5131982662982875
10
-90.218438871044683
20
-5.5723471892351668
10
-90.178142382709169
20
-5.6113610731730565
10
-90.124751972597835
20
-5.6264643487577164
10
-90.072367296806448
20
-5.6101026332356172
10
-90.04013246317183
20
-5.5635381096731091
10
-90.01797095262657
20
-5.4867710276121109
10
-89.994800711531994
20
-5.3848309045896166
10
-89.968609871750971
20
-5.2816345875070256
10
-89.934357377269095
20
-5.2061256958415356
10
-89.882981631775635
20
-5.1583029818835193
10
-89.807426714889687
20
-5.141941266361421
10
-89.722807205463653
20
-5.1620783016958294
10
-89.657328607896432
20
-5.2187103447578345
10
-89.615017454943057
20
-5.3068053825911825
10
-89.599908868549363
20
-5.4200694687151927
10
-89.615017454943057
20
-5.5459199505489911
10
-89.65934327251432
20
-5.6390487481320841
10
-89.729860129615204
20
-5.6981976710689644
10
-89.824552962130625
20
-5.7183329596098842
10
-89.826567626748499
20
-5.7183329596098842
10
-89.826567626748499
20
-5.603810433548432
10
-89.765118358417041
20
-5.5861902780889015
10
-89.719786606777205
20
-5.5496952703613021
10
-89.692587036446895
20
-5.4943216672367328
10
-89.682513713357508
20
-5.4238447885275045
10
-89.69057237182902
20
-5.354628346091129
10
-89.713742612923568
20
-5.3042885027163074
10
-89.747992111176103
20
-5.2715670680075313
10
-89.793323862815924
20
-5.2602408590286709
10
-89.843693873989437
20
-5.2715670680075313
10
-89.875928707624098
20
-5.3080638225286183
10
-89.898093214398699
20
-5.3722465052152444
10
-89.917231130028171
20
-5.4704093120900152
10
-89.943424966038521
20
-5.5849335849449506
10
-89.978683194840343
20
-5.6705099961099359
10
-90.032073804700303
20
-5.7233667193596327
0
LWPOLYLINE
5
104
100
AcDbEntity
8
0
100
AcDbPolyline
90
51
70
1
43
0.0
10
-92.767732219544428
20
-5.5469168824501676
10
-92.759673561072901
20
-5.6236859608465837
10
-92.734488455611853
20
-5.6828348837834621
10
-92.694191967276339
20
-5.7218485181794243
10
-92.640801557165005
20
-5.7369500469705965
10
-92.588416881373632
20
-5.7205883314485
10
-92.556182047738986
20
-5.674023807885991
10
-92.534020537193726
20
-5.5972564762830634
10
-92.510850296099164
20
-5.4953185991379128
10
-92.484659456318141
20
-5.3921220325133952
10
-92.450406961836251
20
-5.3166113940544193
10
-92.39903121634282
20
-5.2687884305544719
10
-92.323476299456857
20
-5.2524287113677914
10
-92.238856790030823
20
-5.2725637503667837
10
-92.173378192463616
20
-5.3291977897642049
10
-92.131067039510242
20
-5.4172910808040617
10
-92.115958453116519
20
-5.5305569137215613
10
-92.131067039510242
20
-5.6564056487618704
10
-92.175392857081491
20
-5.7495344463449634
10
-92.245909714182375
20
-5.8086833692818463
10
-92.340602546697795
20
-5.8288204046162519
10
-92.34261721131567
20
-5.8288204046162519
10
-92.34261721131567
20
-5.7142978785548051
10
-92.281167942984212
20
-5.6966777230952665
10
-92.235836191344376
20
-5.6601827153676698
10
-92.208636621014065
20
-5.604807365449612
10
-92.198563297924665
20
-5.5343322335338732
10
-92.206621956396191
20
-5.4651137947620807
10
-92.229792197490752
20
-5.4147742009291875
10
-92.264041695743259
20
-5.3820525166784838
10
-92.309373447383095
20
-5.370726557241551
10
-92.359743458556608
20
-5.3820525166784838
10
-92.391978292191254
20
-5.4185495207414984
10
-92.414142798965869
20
-5.4827341997635415
10
-92.433280714595327
20
-5.5808947607609678
10
-92.459474550605705
20
-5.6954192831578307
10
-92.494732779407514
20
-5.7809974411163045
10
-92.548123389267474
20
-5.8338541643659987
10
-92.630728034327007
20
-5.8527310129694818
10
-92.722400467904592
20
-5.8300788445536895
10
-92.791908394710561
20
-5.7684130417419333
10
-92.836234212281823
20
-5.6715069280111141
10
-92.852351728973446
20
-5.5418831227004217
10
-92.835225281983895
20
-5.4109988811168748
10
-92.787878865726185
20
-5.3140945141795459
10
-92.709303549899417
20
-5.2511702714303556
10
-92.602522529928123
20
-5.2259994763461979
10
-92.602522529928123
20
-5.3405237492011368
10
-92.672030456731079
20
-5.3543668380548706
10
-92.724415132522466
20
-5.3958973523257043
10
-92.756649966157113
20
-5.4613384749497698
0
LWPOLYLINE
5
105
100
AcDbEntity
8
0
100
AcDbPolyline
90
10
70
1
43
0.0
10
-79.588775684604585
20
7.8077256779894899
10
-79.564599509441436
20
7.7385092355531127
10
-79.523297087037363
20
7.693201405134551
10
-79.461845022225162
20
7.6705492367187622
10
-79.461845022225162
20
7.5849710787602875
10
-80.166003264695831
20
7.5849710787602875
10
-80.166003264695831
20
7.699495351615222
10
-79.668359930726282
20
7.699495351615222
10
-79.668359930726282
20
7.9033716049893821
10
-79.596834343076083
20
7.9033716049893821
0
LWPOLYLINE
5
106
100
AcDbEntity
8
0
100
AcDbPolyline
90
34
70
1
43
0.0
10
-80.024969949991274
20
8.1450047996155543
10
-80.112612854584484
20
8.2117043621770591
10
-80.166003264695831
20
8.3060898529040994
10
-80.185144376303271
20
8.4231312551758393
10
-80.160965204910767
20
8.5565303802988435
10
-80.089442613489922
20
8.6584705033213396
10
-79.973594204497829
20
8.7239136222808167
10
-79.816443173353022
20
8.7465655411546823
10
-79.659292341956856
20
8.7239136222808167
10
-79.543443932964749
20
8.6584705033213396
10
-79.472927275612477
20
8.5565303802988435
10
-79.4477421701514
20
8.4231312551758393
10
-79.463859686843051
20
8.3161576219455231
10
-79.509194434712228
20
8.2268058909682278
10
-79.581722760453019
20
8.1613627720087489
10
-79.677424523266353
20
8.1236093243437111
10
-79.677424523266353
20
8.2431676064903225
10
-79.614966524385594
20
8.2708532851139367
10
-79.569634772745758
20
8.3111236126538479
10
-79.541429268346874
20
8.3627218959661054
10
-79.531355945257488
20
8.4231312551758393
10
-79.5504968571163
20
8.506192533259437
10
-79.604893001547595
20
8.5703752159460613
10
-79.694550770507306
20
8.6119059797588253
10
-79.816443173353022
20
8.6257508154060485
10
-79.939344706245308
20
8.6119059797588253
10
-80.02799334515845
20
8.5691150292151406
10
-80.08238968933837
20
8.5049323465285109
10
-80.100524866877237
20
8.4231312551758393
10
-80.088436679421335
20
8.3551712563414817
10
-80.051163786001652
20
8.2972827696774551
10
-79.990720451738767
20
8.2557520058646929
10
-79.906100942312733
20
8.2305792144451253
10
-79.906100942312733
20
8.1097644886964915
0
LWPOLYLINE
5
107
100
AcDbEntity
8
0
100
AcDbPolyline
90
51
70
1
43
0.0
10
-84.934563529732856
20
-4.131833026217886
10
-84.934563529732856
20
-4.2463575486147489
10
-85.004071456535826
20
-4.2602003879265551
10
-85.056456132327213
20
-4.3017311517393173
10
-85.08869096596186
20
-4.3671722743633818
10
-85.099773219349146
20
-4.4527504323218547
10
-85.091714560877676
20
-4.5295195107182673
10
-85.0665294554166
20
-4.5886684336551475
10
-85.026232967081086
20
-4.6276823175930373
10
-84.972842556969752
20
-4.6427835968422793
10
-84.920457881178365
20
-4.6264238776555988
10
-84.888223047543718
20
-4.5798593540930899
10
-84.866061536998458
20
-4.5030902756966764
10
-84.842891295903911
20
-4.4011521490095973
10
-84.816700456122888
20
-4.2979558319270081
10
-84.782447961641026
20
-4.2224451934680314
10
-84.731072216147552
20
-4.1746222299680831
10
-84.655517299261604
20
-4.1582622612394768
10
-84.57089778983557
20
-4.1783975497803949
10
-84.505419192268363
20
-4.2350295928424009
10
-84.463108039314974
20
-4.3231246306757463
10
-84.447999452921266
20
-4.4363907131351743
10
-84.463108039314974
20
-4.5622391986335566
10
-84.507433856886237
20
-4.6553679962166505
10
-84.577950713987136
20
-4.7145171686954583
10
-84.672643546502542
20
-4.7346542040298623
10
-84.674658211120416
20
-4.7346542040298623
10
-84.674658211120416
20
-4.6201296816329993
10
-84.613208942788958
20
-4.6025115225088804
10
-84.567877191149122
20
-4.5660145184458667
10
-84.540677620818798
20
-4.5106409153212983
10
-84.53060429772944
20
-4.4401660329474861
10
-84.538662956200909
20
-4.3709475941756937
10
-84.561833197295485
20
-4.320607750800872
10
-84.596082695548006
20
-4.2878880628855853
10
-84.641414447187842
20
-4.2765601071132364
10
-84.691784458361354
20
-4.2878880628855853
10
-84.724019291995987
20
-4.3243830706131838
10
-84.746183798770602
20
-4.388567749635226
10
-84.765321714400059
20
-4.4867305565099951
10
-84.791515550410438
20
-4.6012530825714464
10
-84.826773779212274
20
-4.6868312405299157
10
-84.88016438907222
20
-4.7396879637796108
10
-84.962769034131753
20
-4.7585645628411655
10
-85.054441467709339
20
-4.7359126439673016
10
-85.123949394512294
20
-4.6742468411555453
10
-85.168275212083557
20
-4.5773424742182156
10
-85.18439272877518
20
-4.4477166725721062
10
-85.167266281785629
20
-4.316832430988562
10
-85.119919865527933
20
-4.219928313593158
10
-85.041344549704149
20
-4.1570038213020402
0
LWPOLYLINE
5
108
100
AcDbEntity
8
0
100
AcDbPolyline
90
51
70
1
43
0.0
10
-95.067681849692036
20
-5.2511815568641822
10
-95.016306104198591
20
-5.2033568465707472
10
-94.940751187312628
20
-5.1869988741775543
10
-94.856131677886594
20
-5.2071341627184733
10
-94.790653080319402
20
-5.2637662057804775
10
-94.748341927368003
20
-5.3518612436138246
10
-94.733233340974294
20
-5.4651253297378366
10
-94.748341927368003
20
-5.5909738152362189
10
-94.792667744937262
20
-5.6841028623612386
10
-94.86318460203816
20
-5.74325353209161
10
-94.957877434553581
20
-5.7633905674260157
10
-94.959892099171441
20
-5.7633905674260157
10
-94.959892099171441
20
-5.6488662945710777
10
-94.898442830839983
20
-5.631247885905033
10
-94.853111079200147
20
-5.5947511313839451
10
-94.825911508869837
20
-5.5393755319239579
10
-94.81583818578045
20
-5.4689006495501484
10
-94.823896844251976
20
-5.3996842071137721
10
-94.847067085346524
20
-5.3493443637389513
10
-94.881316583599045
20
-5.3166229290301743
10
-94.92664833523888
20
-5.3052967200513148
10
-94.977018346412393
20
-5.3166229290301743
10
-95.00925318004704
20
-5.3531196835512604
10
-95.031417686821641
20
-5.4173023662378892
10
-95.050555602451112
20
-5.5154651731126574
10
-95.076749438461476
20
-5.6299876991741087
10
-95.112007667263299
20
-5.7155658571325798
10
-95.165398277123245
20
-5.7684245767176865
10
-95.248002922182792
20
-5.7873011757792439
10
-95.339675355760377
20
-5.764647260569963
10
-95.409183282563333
20
-5.7029814577582085
10
-95.453509100134596
20
-5.6060770908208779
10
-95.469626616826247
20
-5.4764532855101855
10
-95.452500169836668
20
-5.3455670475912251
10
-95.405153753578972
20
-5.2486646769893088
10
-95.326578437755188
20
-5.1857386874466291
10
-95.219797417783894
20
-5.1605696391559617
10
-95.219797417783894
20
-5.2750921652174103
10
-95.289305344586865
20
-5.2889350045292174
10
-95.341690020378252
20
-5.3304657683419796
10
-95.373924854012898
20
-5.3959088873014611
10
-95.385007107400213
20
-5.4814870452599322
10
-95.376948448928687
20
-5.5582541273209305
10
-95.351763343467638
20
-5.6174032997997365
10
-95.311466855132139
20
-5.6564169341956996
10
-95.258076445020805
20
-5.6715182134449424
10
-95.205691769229404
20
-5.6551584942582611
10
-95.173456935594771
20
-5.6085939706957522
10
-95.151295425049511
20
-5.5318248922993387
10
-95.128125183954936
20
-5.4298887619476748
10
-95.101934344173912
20
-5.3266921953231581
0
LWPOLYLINE
5
109
100
AcDbEntity
8
0
100
AcDbPolyline
90
34
70
1
43
0.0
10
-92.048993692701202
20
8.4396511205018285
10
-92.121522018441979
20
8.3742080015423515
10
-92.217223781255313
20
8.3364545538773154
10
-92.217223781255313
20
8.4560128360239251
10
-92.154765782374554
20
8.4836987641894659
10
-92.109434030734718
20
8.5239728348582826
10
-92.081228526335821
20
8.5755671254997079
10
-92.071155203246462
20
8.63597648470944
10
-92.090296115105275
20
8.7190377627930378
10
-92.144692259536555
20
8.7832204454796639
10
-92.234350028496252
20
8.8247512092924296
10
-92.356242431341983
20
8.8385960449396528
10
-92.479143964234254
20
8.8247512092924296
10
-92.567792603147424
20
8.7819602587487431
10
-92.622188947327331
20
8.7177775760621135
10
-92.640324124866197
20
8.63597648470944
10
-92.628235937410309
20
8.5680202290039897
10
-92.590963043990627
20
8.5101279992110577
10
-92.530519709727713
20
8.4685972353982955
10
-92.445900200301708
20
8.4434244439787243
10
-92.445900200301708
20
8.3226097182300922
10
-92.564769207980234
20
8.3578500291491586
10
-92.652412112573458
20
8.4245495917106581
10
-92.705802522684792
20
8.5189390751085305
10
-92.724943634292231
20
8.63597648470944
10
-92.700764462899741
20
8.7693796025032746
10
-92.629241871478882
20
8.8713157328549386
10
-92.513393462486775
20
8.9367588518144192
10
-92.356242431341983
20
8.9594107706882831
10
-92.199091599945802
20
8.9367588518144192
10
-92.083243190953709
20
8.8713157328549386
10
-92.012726533601437
20
8.7693796025032746
10
-91.987541428140375
20
8.63597648470944
10
-92.003658944831997
20
8.5290065946080276
0
LWPOLYLINE
5
110
100
AcDbEntity
8
0
100
AcDbPolyline
90
34
70
1
43
0.0
10
-87.448122300997952
20
8.3514567639210195
10
-87.566991308676506
20
8.3866970748400842
10
-87.654634213269702
20
8.4533966374015854
10
-87.708024623381036
20
8.5477861207994579
10
-87.727165734988475
20
8.6648235304003673
10
-87.702986563595985
20
8.7982266481942002
10
-87.63146397217514
20
8.9001627785458659
10
-87.515615563183047
20
8.9656058975053465
10
-87.358464532038226
20
8.9882578163792104
10
-87.201313700642061
20
8.9656058975053465
10
-87.085465291649967
20
8.9001627785458659
10
-87.014948634297696
20
8.7982266481942002
10
-86.989763528836619
20
8.6648235304003673
10
-87.00588104552827
20
8.5578536402989531
10
-87.051215793397446
20
8.4684981661927559
10
-87.123744119138252
20
8.4030550472332788
10
-87.219445881951572
20
8.3653015995682409
10
-87.219445881951572
20
8.4848598817148524
10
-87.156987883070798
20
8.5125458098803932
10
-87.111656131430976
20
8.5528198805492082
10
-87.083450627032093
20
8.6044141711906352
10
-87.073377303942706
20
8.6648235304003673
10
-87.092518215801519
20
8.7478848084839669
10
-87.146914360232799
20
8.8120674911705912
10
-87.23657212919251
20
8.8535982549833534
10
-87.358464532038226
20
8.8674430906305766
10
-87.481366064930512
20
8.8535982549833534
10
-87.570014703843668
20
8.8108073044396704
10
-87.624411048023603
20
8.7466246217530355
10
-87.642546225562441
20
8.6648235304003673
10
-87.630458038106568
20
8.5968672746949171
10
-87.593185144686871
20
8.538975044901985
10
-87.532741810423985
20
8.4974442810892228
10
-87.448122300997952
20
8.4722714896696534
0
LWPOLYLINE
5
111
100
AcDbEntity
8
0
100
AcDbPolyline
90
34
70
1
43
0.0
10
-77.655019915885276
20
8.3040636433399264
10
-77.70841032599661
20
8.3984491340669685
10
-77.727551437604049
20
8.5154905363387101
10
-77.703372266211545
20
8.6488896614617126
10
-77.631849674790715
20
8.7508297844842069
10
-77.516001265798607
20
8.8162729034436875
10
-77.358850234653815
20
8.8389248223175532
10
-77.201699403257635
20
8.8162729034436875
10
-77.085850994265542
20
8.7508297844842069
10
-77.015334336913256
20
8.6488896614617126
10
-76.990149231452193
20
8.5154905363387101
10
-77.00626674814383
20
8.4085169031083922
10
-77.051601496013006
20
8.3191651721310969
10
-77.124129821753812
20
8.2537220531716198
10
-77.219831584567146
20
8.2159686055065784
10
-77.219831584567146
20
8.3355268876531952
10
-77.157373585686372
20
8.3632125662768075
10
-77.112041834046551
20
8.4034828938167152
10
-77.083836329647653
20
8.4550811771289744
10
-77.073763006558266
20
8.5154905363387101
10
-77.092903918417079
20
8.5985518144223061
10
-77.147300062848373
20
8.6627344971089357
10
-77.23695783180807
20
8.7042652609216926
10
-77.358850234653815
20
8.718110096568914
10
-77.481751767546086
20
8.7042652609216926
10
-77.570400406459243
20
8.6614743103780079
10
-77.624796750639149
20
8.59729162769138
10
-77.642931928178015
20
8.5154905363387101
10
-77.630843740722142
20
8.4475305375043561
10
-77.593570847302431
20
8.389642050840326
10
-77.533127513039545
20
8.3481112870275638
10
-77.448508003613512
20
8.3229384956079944
10
-77.448508003613512
20
8.2021237698593588
10
-77.567377011292066
20
8.2373640807784234
0
LWPOLYLINE
5
112
100
AcDbEntity
8
0
100
AcDbPolyline
90
10
70
1
43
0.0
10
-108.36601883807455
20
6.6921491717172943
10
-108.25873255395979
20
6.6921491717172943
10
-108.24664456625256
20
6.548680281217452
10
-108.21038030350785
20
6.4448526230597647
10
-108.14842666990172
20
6.3768964921252769
10
-108.05624857268343
20
6.3429156193113556
10
-108.05624857268343
20
6.214548382373648
10
-109.11248593638942
20
6.214548382373648
10
-109.11248593638942
20
6.3863347916560542
10
-108.36601883807455
20
6.3863347916560542
0
LWPOLYLINE
5
113
100
AcDbEntity
8
0
100
AcDbPolyline
90
6
70
1
43
0.0
10
-110.797325626937
20
1.4479930123553197
10
-110.797325626937
20
0.77973183485840813
10
-110.92425489107605
20
0.77973183485840813
10
-110.92425489107605
20
1.6216674558567723
10
-109.87557461704765
20
1.6216674558567723
10
-109.87557461704765
20
1.4479930123553197
0
LWPOLYLINE
5
114
100
AcDbEntity
8
0
100
AcDbPolyline
90
10
70
1
43
0.0
10
-84.610686459682171
20
7.1371652792833506
10
-84.586510284519036
20
7.0679450937180714
10
-84.54520786211495
20
7.0226410064284117
10
-84.483755797302749
20
6.9999888380126229
10
-84.483755797302749
20
6.9144106800541483
10
-85.187914039773403
20
6.9144106800541483
10
-85.187914039773403
20
7.0289349529090872
10
-84.690270705803869
20
7.0289349529090872
10
-84.690270705803869
20
7.2328112062832473
10
-84.618745118153669
20
7.2328112062832473
0
LWPOLYLINE
5
115
100
AcDbEntity
8
0
100
AcDbPolyline
90
17
70
1
43
0.0
10
-87.027036622004943
20
7.2918021750071915
10
-87.003866380910381
20
7.1609199297590624
10
-87.027036622004943
20
7.0312941281129548
10
-87.095538614739354
20
6.93690489425701
10
-87.146914360232799
20
6.9029247700688661
10
-87.209372359113573
20
6.8790124149221494
10
-87.366523390258379
20
6.858877375923158
10
-87.524682952203847
20
6.8790124149221494
10
-87.637507966028778
20
6.93690489425701
10
-87.706009958763161
20
7.0312941281129548
10
-87.728171469308421
20
7.1609199297590624
10
-87.706009958763161
20
7.2918021750071915
10
-87.637507966028778
20
7.3861914088631364
10
-87.524682952203847
20
7.4453403318000166
10
-87.366523390258379
20
7.4642151840680837
10
-87.209372359113573
20
7.4453403318000166
10
-87.096547545037282
20
7.3861914088631364
0
LWPOLYLINE
5
116
100
AcDbEntity
8
0
100
AcDbPolyline
90
11
70
1
43
0.0
10
-77.53514217765742
20
6.7045106221117479
10
-77.53514217765742
20
6.8291024144661838
10
-77.70841032599661
20
6.8291024144661838
10
-77.70841032599661
20
6.9423665005901958
10
-77.53514217765742
20
6.9423665005901958
10
-77.53514217765742
20
7.3262101457787709
10
-77.446493338995637
20
7.3262101457787709
10
-77.024401725934069
20
6.9436269368630477
10
-77.024401725934069
20
6.8291024144661838
10
-77.454551997467149
20
6.8291024144661838
10
-77.454551997467149
20
6.7045106221117479
0
LWPOLYLINE
5
117
100
AcDbEntity
8
0
100
AcDbPolyline
90
13
70
1
43
0.0
10
-111.68734327211132
20
1.6367687351060156
10
-111.68734327211132
20
1.1837078988552818
10
-111.70698625213561
20
1.0138117696692639
10
-111.76440689035149
20
0.88921985254436509
10
-111.85960488713604
20
0.81371008748213347
10
-111.98955614820193
20
0.78728247448306643
10
-112.1300867954951
20
0.82126072710675624
10
-112.23283738761322
20
0.92131306545163216
10
-112.2857250304389
20
1.0761075410755172
10
-112.29328002275592
20
1.2705436233544476
10
-112.29328002275592
20
1.4630946659174526
10
-112.73602354613972
20
1.4630946659174526
10
-112.73602354613972
20
1.6367687351060156
0
LWPOLYLINE
5
118
100
AcDbEntity
8
0
100
AcDbPolyline
90
28
70
1
43
0.0
10
-111.98653415127509
20
-4.8570766749367822
10
-112.06662216342558
20
-4.8457507154998494
10
-112.13310879242192
20
-4.8117668481828062
10
-112.18599613562466
20
-4.758911996497563
10
-112.22377139683277
20
-4.6834052259384524
10
-112.25248276462099
20
-4.7513613568729411
10
-112.29176902429252
20
-4.7947805292176398
10
-112.4171893873287
20
-4.8268681274320491
10
-112.58642690806609
20
-4.8400847412782602
10
-112.66500392175317
20
-4.8551860205275048
10
-112.70731427571205
20
-4.8986051928722034
10
-112.73602354613972
20
-4.8986051928722034
10
-112.73602354613972
20
-4.7003911705907289
10
-112.68313590331405
20
-4.6777392517168623
10
-112.5939842973666
20
-4.6664132922799304
10
-112.45798664546363
20
-4.6569719982460311
10
-112.36883503951618
20
-4.6380953991844756
10
-112.31896939361732
20
-4.5927911871238543
10
-112.29781301814614
20
-4.509728162246768
10
-112.29328002275592
20
-4.3775852311838577
10
-112.29328002275592
20
-4.1982537969701861
10
-112.73602354613972
20
-4.1982537969701861
10
-112.73602354613972
20
-4.0226916935625789
10
-111.68734327211132
20
-4.0226916935625789
10
-111.68734327211132
20
-4.4606486303738349
10
-111.70698625213561
20
-4.6305447595598537
10
-111.76440689035149
20
-4.7551366766852512
10
-111.85960488713604
20
-4.8306490619377138
0
LWPOLYLINE
5
119
100
AcDbEntity
8
0
100
AcDbPolyline
90
34
70
1
43
0.0
10
-74.592257907043461
20
8.3868338491694949
10
-74.664786232784266
20
8.3213907302100143
10
-74.7604879955976
20
8.28363728254498
10
-74.7604879955976
20
8.4031955646915897
10
-74.698029996716841
20
8.4308812433152056
10
-74.652698245077005
20
8.4711515708551133
10
-74.624492740678107
20
8.5227498541673725
10
-74.614419417588735
20
8.5831592133771029
10
-74.633560329447548
20
8.6662204914607024
10
-74.687956473878828
20
8.730403174147332
10
-74.777614242838538
20
8.7719339379600942
10
-74.899506645684269
20
8.7857787736073156
10
-75.022408178576541
20
8.7719339379600942
10
-75.111056817489711
20
8.7291429874164059
10
-75.165453161669603
20
8.6649603047297745
10
-75.18358833920847
20
8.5831592133771029
10
-75.171500151752596
20
8.5151992145427524
10
-75.134227258332899
20
8.4573107278787241
10
-75.07378392407
20
8.4157799640659618
10
-74.98916441464398
20
8.3906071726463907
10
-74.98916441464398
20
8.2697924468977568
10
-75.108033422322521
20
8.3050327578168215
10
-75.195676326915731
20
8.3717323203783245
10
-75.249066737027064
20
8.4661178111053648
10
-75.268207848634503
20
8.5831592133771029
10
-75.244028677242014
20
8.7165583385001089
10
-75.172506085821169
20
8.8184984615226032
10
-75.056657676829076
20
8.8839413309401571
10
-74.899506645684269
20
8.9065934993559459
10
-74.742355814288089
20
8.8839413309401571
10
-74.626507405295982
20
8.8184984615226032
10
-74.555990747943724
20
8.7165583385001089
10
-74.530805642482662
20
8.5831592133771029
10
-74.546923159174284
20
8.4761855801467885
0
LWPOLYLINE
5
120
100
AcDbEntity
8
0
100
AcDbPolyline
90
40
70
1
43
0.0
10
-82.567817323685802
20
6.7063206009011989
10
-82.567817323685802
20
7.306624649296376
10
-82.564793928518611
20
7.306624649296376
10
-82.463051168081009
20
7.290262933774283
10
-82.382460987890738
20
7.2386646504620211
10
-82.315973659774215
20
7.1518297993596036
10
-82.253515660893441
20
7.0284981937360902
10
-82.221280827258809
20
6.9542442484210643
10
-82.191057662012682
20
6.8988686489610807
10
-82.156808163760161
20
6.8585983214211721
10
-82.117520405973963
20
6.8346859662744519
10
-82.071179923784825
20
6.8258786335058819
10
-82.021818643160628
20
6.838463282422178
10
-81.982531085123043
20
6.8736996006704132
10
-81.957345979661966
20
6.9278147638575476
10
-81.947272656572608
20
7.0008085224416501
10
-81.958354909959908
20
7.0725458374237293
10
-81.990589743594569
20
7.1266610006108611
10
-82.040959754768068
20
7.1606408752570738
10
-82.109461747502465
20
7.1719650879005181
10
-82.117520405973963
20
7.1719650879005181
10
-82.117520405973963
20
7.2864856176265524
10
-82.103417753648827
20
7.2864856176265524
10
-82.003686661599744
20
7.2663505786275628
10
-81.928131744713795
20
7.2072016556906799
10
-81.880785328456085
20
7.1153330448385121
10
-81.863659081215147
20
6.9945183190898774
10
-81.878770663838196
20
6.8774769168181438
10
-81.921081816791585
20
6.7868649991099232
10
-81.987569144908122
20
6.7277160761730403
10
-82.072188654334127
20
6.7063206009011989
10
-82.139681916519223
20
6.7189050002755657
10
-82.199116320484194
20
6.7528848749217785
10
-82.249486331657693
20
6.8120337978586587
10
-82.292803418679654
20
6.8950953254841867
10
-82.323023587696426
20
6.96934927079921
10
-82.394549175346611
20
7.1090388488159135
10
-82.433836933132795
20
7.1543429361055715
10
-82.48118334939052
20
7.1807761637979928
10
-82.48118334939052
20
6.7063206009011989
0
LWPOLYLINE
5
121
100
AcDbEntity
8
0
100
AcDbPolyline
90
10
70
1
43
0.0
10
-77.004252083525955
20
7.7629085178816286
10
-77.004252083525955
20
7.6773303599231557
10
-77.70841032599661
20
7.6773303599231557
10
-77.70841032599661
20
7.7918546327780946
10
-77.210766992027061
20
7.7918546327780946
10
-77.210766992027061
20
7.9957308861522547
10
-77.139241404376861
20
7.9957308861522547
10
-77.131182745905363
20
7.9000849591523581
10
-77.107006570742229
20
7.8308685167159853
10
-77.065704148338142
20
7.7855606862974192
0
LWPOLYLINE
5
122
100
AcDbEntity
8
0
100
AcDbPolyline
90
35
70
1
43
0.0
10
-74.802799148550974
20
7.174901290193767
10
-74.790711160843713
20
7.0805120563378221
10
-74.80783441185531
20
6.9584368943163311
10
-74.855180828113006
20
6.8640516531312183
10
-74.928721080381081
20
6.803642293921488
10
-75.022408178576541
20
6.7822505617785467
10
-75.123145004945584
20
6.8061591737963623
10
-75.201720320769368
20
6.8690854128809642
10
-75.251081401644939
20
6.9685046633577556
10
-75.26921358295445
20
7.0956135851289925
10
-75.254104996560741
20
7.2113945511278761
10
-75.213808508225242
20
7.3020064688360931
10
-75.149335844726593
20
7.3636760147767522
10
-75.066730999918448
20
7.3913619429422983
10
-75.066730999918448
20
7.2743205406705584
10
-75.116092080794033
20
7.2554419452735885
10
-75.152359239893784
20
7.2176884976085498
10
-75.175529680736958
20
7.1660904638382199
10
-75.182579408910556
20
7.0993906517347893
10
-75.171500151752596
20
7.0201029466700149
10
-75.140271252186523
20
6.9584368943163311
10
-75.090907175081583
20
6.9181668163183518
10
-75.02744324213225
20
6.9043219806711313
10
-74.96397950893153
20
6.9181668163183518
10
-74.914618228307319
20
6.9571804507143131
10
-74.882380398443331
20
7.0188462535260676
10
-74.871301341033998
20
7.0993906517347893
10
-74.888424392296969
20
7.1925196988598117
10
-74.935770808554665
20
7.2655134574439124
10
-74.935770808554665
20
7.3661928946516264
10
-74.565058136964524
20
7.296972709086349
10
-74.565058136964524
20
6.8300715289430762
10
-74.647662981772683
20
6.8300715289430762
10
-74.647662981772683
20
7.2126547378588013
10
-74.836042912483563
20
7.2478913056489631
0
LWPOLYLINE
5
123
100
AcDbEntity
8
0
100
AcDbPolyline
90
10
70
1
43
0.0
10
-74.647662981772683
20
7.898537193754378
10
-74.606360559368611
20
7.8532293633358163
10
-74.54490849455641
20
7.8305771949200249
10
-74.54490849455641
20
7.7449990369615529
10
-75.249066737027064
20
7.7449990369615529
10
-75.249066737027064
20
7.8595233098164918
10
-74.75142340305753
20
7.8595233098164918
10
-74.75142340305753
20
8.0633995631906501
10
-74.679897815407315
20
8.0633995631906501
10
-74.671839156935818
20
7.9677536361907553
0
LWPOLYLINE
5
124
100
AcDbEntity
8
0
100
AcDbPolyline
90
7
70
1
43
0.0
10
-100.56418421665791
20
-4.68661794992056
10
-100.56418421665791
20
-4.5607694644221777
10
-99.864055303423015
20
-4.2788639459206825
10
-99.864055303423015
20
-4.3984202317318779
10
-100.45941806105311
20
-4.6236917108359528
10
-99.864055303423015
20
-4.8426692434593557
10
-99.864055303423015
20
-4.9622275256059689
0
LWPOLYLINE
5
125
100
AcDbEntity
8
0
100
AcDbPolyline
90
10
70
1
43
0.0
10
-109.00066695650739
20
-4.3209550596863044
10
-109.11248593638942
20
-4.3209550596863044
10
-109.11248593638942
20
-3.4733594534721357
10
-109.00066695650739
20
-3.4733594534721357
10
-109.00066695650739
20
-3.8150423662534516
10
-108.13936067912127
20
-3.8150423662534516
10
-108.13936067912127
20
-3.5545321982528333
10
-108.02754169923924
20
-3.5545321982528333
10
-108.02754169923924
20
-3.9811628013142686
10
-109.00066695650739
20
-3.9811628013142686
0
LWPOLYLINE
5
126
100
AcDbEntity
8
0
100
AcDbPolyline
90
40
70
1
43
0.0
10
-84.545715880352489
20
-5.7213150343595887
10
-84.472175628084401
20
-5.8295451111919263
10
-84.446990522623338
20
-5.9730140016917677
10
-84.463108039314974
20
-6.0825045147969581
10
-84.507433856886237
20
-6.16933936589938
10
-84.579965378604982
20
-6.2310071650465506
10
-84.676672875738291
20
-6.2637266034199088
10
-84.676672875738291
20
-6.1391365578589667
10
-84.613208942788958
20
-6.117741082587119
10
-84.565862526531248
20
-6.0799876349220838
10
-84.537654025902995
20
-6.0283876048163361
10
-84.527580702813623
20
-5.9654631125252191
10
-84.546721614672435
20
-5.8735927548795619
10
-84.601120955081683
20
-5.805634752380624
10
-84.690775528063412
20
-5.7628455486304242
10
-84.812668130657784
20
-5.7490027093186171
10
-84.935569463801414
20
-5.7641039885678627
10
-85.025227033012527
20
-5.8068931923180598
10
-85.079623377192419
20
-5.8735927548795619
10
-85.097758554731286
20
-5.9591709128380357
10
-85.083652706428182
20
-6.0359399912344465
10
-85.040335619406221
20
-6.0976060435881285
10
-84.971836622901193
20
-6.1378781179215274
10
-84.879155458774292
20
-6.1529793971707711
10
-84.873111464920669
20
-6.1529793971707711
10
-84.873111464920669
20
-5.9566540329631614
10
-84.787486221174674
20
-5.9566540329631614
10
-84.787486221174674
20
-6.2750528123987683
10
-85.165251617167741
20
-6.2750528123987683
10
-85.165251617167741
20
-6.2121283201076505
10
-85.071564718720921
20
-6.1907348411712215
10
-85.120925799596492
20
-6.1429118776712741
10
-85.156184228146941
20
-6.0875382745467057
10
-85.176333870555055
20
-6.0233535955246627
10
-85.18439272877518
20
-5.9516202732134111
10
-85.16021355738269
20
-5.8232529115047429
10
-85.086676301343971
20
-5.7213150343595887
10
-84.970827892351878
20
-5.6520983423812856
10
-84.815691525824946
20
-5.6281859872345681
10
-84.661564289344568
20
-5.6520983423812856
0
LWPOLYLINE
5
127
100
AcDbEntity
8
0
100
AcDbPolyline
90
35
70
1
43
0.0
10
-108.34637555842733
20
4.9365464789728453
10
-108.27535593404077
20
4.9610860577528655
10
-108.22246829121509
20
5.0082805499098759
10
-108.19073492650006
20
5.0800149951597939
10
-108.1786469387928
20
5.174401359283582
10
-108.20282291420732
20
5.3027689705341796
10
-108.27384493557737
20
5.395267674751814
10
-108.39321920739937
20
5.4556757862519101
10
-108.55943443158701
20
5.4839910591571339
10
-108.47330482256638
20
5.349960468188069
10
-108.44308455367528
20
5.1706260394712711
10
-108.46726082871274
20
5.0045052300975668
10
-108.53676945463589
20
4.870475013441391
10
-108.64707743605452
20
4.7836392889422275
10
-108.79062768329105
20
4.7515460760344608
10
-108.93266932904764
20
4.7836392889422275
10
-109.04448830892967
20
4.8742503332537019
10
-109.11550793331625
20
5.0139439039412315
10
-109.14270860226398
20
5.1970536524703403
10
-109.11097493792602
20
5.4009306544702795
10
-109.01728793960487
20
5.5500621503756964
10
-108.86164970466109
20
5.6425612289062173
10
-108.64707743605452
20
5.6727667819078276
10
-108.51259317959844
20
5.6652157679703175
10
-108.39321920739937
20
5.6387855347810163
10
-108.29197691713824
20
5.597257016845596
10
-108.20886720768388
20
5.540623850844919
10
-108.1423826760481
20
5.4688897799078884
10
-108.095539326699
20
5.3839417153148794
10
-108.06682765928784
20
5.2876673169720467
10
-108.05624857268343
20
5.1762890191897393
10
-108.07589394969121
20
5.0101682098160305
10
-108.13331668526764
20
4.8818009728783256
10
-108.22397719231795
20
4.7987405681914685
10
-108.34637555842733
20
4.7628720354713945
0
LWPOLYLINE
5
128
100
AcDbEntity
8
0
100
AcDbPolyline
90
53
70
1
43
0.0
10
-79.839613614196224
20
6.9343289337837755
10
-79.841628278814085
20
6.99599473659553
10
-79.762044032692387
20
6.99599473659553
10
-79.763052763241689
20
6.9469135827000716
10
-79.757008769388051
20
6.8751800108468952
10
-79.736858927231324
20
6.8223215408037134
10
-79.703618359276732
20
6.7921187327632975
10
-79.654254082423165
20
6.7807907769909503
10
-79.607916596463383
20
6.7921187327632975
10
-79.573664101981507
20
6.8210648476597635
10
-79.552511521734175
20
6.8688858148242948
10
-79.544452863262677
20
6.9343289337837755
10
-79.554526186352064
20
7.0085793855118261
10
-79.582731690750961
20
7.0614378555550106
10
-79.629072172940084
20
7.094157543470299
10
-79.693541840209363
20
7.1042250629697934
10
-79.693541840209363
20
7.2162327054917874
10
-79.686492112035793
20
7.2162327054917874
10
-79.592805013840319
20
7.1973541100948157
10
-79.522288356488062
20
7.1407220670328053
10
-79.477965335397528
20
7.0538834728014832
10
-79.461845022225162
20
6.9406193866774739
10
-79.474941940230352
20
6.8198046609288383
10
-79.512214833650049
20
6.7317093735535671
10
-79.571649437363646
20
6.6775942103664354
10
-79.650224753187416
20
6.6587156149694637
10
-79.736858927231324
20
6.6876619794078573
10
-79.791258267640586
20
6.769466564347506
10
-79.818457837970897
20
6.7090574546797015
10
-79.85573093113922
20
6.6637493747192122
10
-79.904086277694859
20
6.6360636960955972
10
-79.963520681659816
20
6.6259961765961028
10
-80.054184184939473
20
6.6486480954699694
10
-80.124701042040385
20
6.7115743345545749
10
-80.169026859611634
20
6.8097368918874146
10
-80.186150110623217
20
6.9406193866774739
10
-80.169026859611634
20
7.0639547354298848
10
-80.122686377422497
20
7.1570837825549045
10
-80.05015485570371
20
7.2162327054917874
10
-79.953447358570443
20
7.236367744490777
10
-79.946394434418892
20
7.236367744490777
10
-79.946394434418892
20
7.1205867784918908
10
-80.0128817625354
20
7.1067419428446676
10
-80.061237109091053
20
7.0702451883235788
10
-80.091457278107811
20
7.0123564521176274
10
-80.101530601197197
20
6.9330687470528485
10
-80.092466208405725
20
6.856301415449928
10
-80.065266438326788
20
6.798409185656995
10
-80.021949351304826
20
6.7619121815939787
10
-79.963520681659816
20
6.7480710890756646
10
-79.912144936166371
20
6.760655737991959
10
-79.872857178380173
20
6.7958920562401959
10
-79.848678006987669
20
6.8550409791770717
0
LWPOLYLINE
5
129
100
AcDbEntity
8
0
100
AcDbPolyline
90
10
70
1
43
0.0
10
-87.10662086812664
20
7.9802015107776425
10
-87.065318445722568
20
7.9348974234879854
10
-87.003866380910381
20
7.9122415119432876
10
-87.003866380910381
20
7.8266633539848147
10
-87.708024623381036
20
7.8266633539848147
10
-87.708024623381036
20
7.9411876268397519
10
-87.210381289411487
20
7.9411876268397519
10
-87.210381289411487
20
8.145063880213911
10
-87.138855701761301
20
8.145063880213911
10
-87.130797043289789
20
8.0494179532140198
0
LWPOLYLINE
5
130
100
AcDbEntity
8
0
100
AcDbPolyline
90
10
70
1
43
0.0
10
-84.586510284519036
20
7.8255646150538034
10
-84.54520786211495
20
7.7802605277641446
10
-84.483755797302749
20
7.7576046162194467
10
-84.483755797302749
20
7.6720264582609747
10
-85.187914039773403
20
7.6720264582609747
10
-85.187914039773403
20
7.7865507311159154
10
-84.690270705803869
20
7.7865507311159154
10
-84.690270705803869
20
7.990426984490071
10
-84.618745118153669
20
7.990426984490071
10
-84.610686459682171
20
7.8947810574901789
0
LWPOLYLINE
5
131
100
AcDbEntity
8
0
100
AcDbPolyline
90
34
70
1
43
0.0
10
-82.079238582256338
20
8.2039337486488062
10
-82.079238582256338
20
8.3234920307954177
10
-82.016780583375564
20
8.35117770941903
10
-81.971448831735756
20
8.3914520296297734
10
-81.943243327336859
20
8.4430463202712005
10
-81.933170004247472
20
8.5034556794809326
10
-81.952310916106285
20
8.5865169575645339
10
-82.006707060537565
20
8.6506996402511582
10
-82.096364829497261
20
8.6922304040639187
10
-82.218257232343007
20
8.7060752397111418
10
-82.341158765235292
20
8.6922304040639187
10
-82.429807404148434
20
8.6494394535202304
10
-82.484203748328341
20
8.5852567708336061
10
-82.502338925867207
20
8.5034556794809326
10
-82.490250738411319
20
8.4354994237754823
10
-82.452977844991636
20
8.377607193982552
10
-82.392534510728723
20
8.3360764301697881
10
-82.307915001302717
20
8.3109036387502204
10
-82.307915001302717
20
8.190088913001583
10
-82.426784008981258
20
8.2253292239206495
10
-82.514426913574468
20
8.2920287864821507
10
-82.567817323685802
20
8.3864182698800249
10
-82.586958435293241
20
8.5034556794809326
10
-82.562779263900751
20
8.636858797274769
10
-82.491256672479892
20
8.738794927626433
10
-82.375408263487799
20
8.8042380465859118
10
-82.218257232343007
20
8.8268899654597774
10
-82.061106400946812
20
8.8042380465859118
10
-81.945257991954719
20
8.738794927626433
10
-81.874741334602447
20
8.636858797274769
10
-81.849556229141385
20
8.5034556794809326
10
-81.865673745833021
20
8.3964857893795202
10
-81.911008493702184
20
8.3071303152733265
10
-81.983536819442989
20
8.2416871963138423
0
LWPOLYLINE
5
132
100
AcDbEntity
8
0
100
AcDbPolyline
90
34
70
1
43
0.0
10
-85.012631226816353
20
8.3428073853653828
10
-84.928011717390319
20
8.3176345939458134
10
-84.928011717390319
20
8.196819868197176
10
-85.046880725068874
20
8.2320601791162424
10
-85.134523629662084
20
8.2987597416777437
10
-85.187914039773403
20
8.3931492250756179
10
-85.207055151380871
20
8.5101866346765256
10
-85.182875979988353
20
8.643589752470362
10
-85.111353388567522
20
8.7455258828220259
10
-84.995504979575415
20
8.8109690017815012
10
-84.838353948430623
20
8.8336209206553704
10
-84.681203117034443
20
8.8109690017815012
10
-84.565354708042335
20
8.7455258828220259
10
-84.494838050690078
20
8.643589752470362
10
-84.469652945229001
20
8.5101866346765256
10
-84.485770461920637
20
8.4032167445751131
10
-84.531105209789814
20
8.3138612704689141
10
-84.603633535530619
20
8.248418151509437
10
-84.699335298343954
20
8.2106647038444009
10
-84.699335298343954
20
8.3302229859910106
10
-84.63687729946318
20
8.357908664614623
10
-84.591545547823358
20
8.3981829848253664
10
-84.563340043424461
20
8.4497772754667935
10
-84.553266720335074
20
8.5101866346765256
10
-84.572407632193887
20
8.5932479127601233
10
-84.626803776625167
20
8.657430595446753
10
-84.716461545584878
20
8.6989613592595116
10
-84.838353948430623
20
8.7128061949067348
10
-84.961255481322894
20
8.6989613592595116
10
-85.04990412023605
20
8.6561704087158287
10
-85.104300464415957
20
8.5919877260292026
10
-85.122435641954837
20
8.5101866346765256
10
-85.110347454498935
20
8.4422303789710753
10
-85.073074561079238
20
8.384338149178145
0
LWPOLYLINE
5
133
100
AcDbEntity
8
0
100
AcDbPolyline
90
10
70
1
43
0.0
10
-82.070173989716267
20
7.9836960292944781
10
-81.998648402066038
20
7.9836960292944781
10
-81.990589743594569
20
7.8880501022945833
10
-81.96641356843142
20
7.8188336598582042
10
-81.925111146027348
20
7.7735295725685516
10
-81.863659081215147
20
7.7508736610238538
10
-81.863659081215147
20
7.6652955030653835
10
-82.567817323685802
20
7.6652955030653835
10
-82.567817323685802
20
7.7798197759203198
10
-82.070173989716267
20
7.7798197759203198
0
LWPOLYLINE
5
134
100
AcDbEntity
8
0
100
AcDbPolyline
90
40
70
1
43
0.0
10
-107.74869268397981
20
7.8009906979446324
10
-107.77891285299658
20
7.8752428964661725
10
-107.85043844064677
20
8.0149362176117744
10
-107.88972619843298
20
8.0602403049014359
10
-107.93707261469069
20
8.0866697894649526
10
-107.93707261469069
20
7.6122159733616446
10
-108.02370658898596
20
7.6122159733616446
10
-108.02370658898596
20
8.2125182749633385
10
-108.02068319381877
20
8.2125182749633385
10
-107.91894043338118
20
8.1961585557766536
10
-107.8383502531909
20
8.1445602724643962
10
-107.77186292507437
20
8.0577234250265626
10
-107.70940492619361
20
7.9343918194030527
10
-107.67717009255897
20
7.8601396208815144
10
-107.64694692731285
20
7.8047660177569451
10
-107.61269742906035
20
7.7644939434235427
10
-107.57340967127412
20
7.7405833350703146
10
-107.527069189085
20
7.7317722591728426
10
-107.47770790846079
20
7.7443586548826282
10
-107.43842035042321
20
7.7795972190082026
10
-107.41323524496215
20
7.8337123821953369
10
-107.40316192187277
20
7.9067041444440234
10
-107.41424417526007
20
7.9784394630906892
10
-107.44647900889473
20
8.0325546262778236
10
-107.49684902006823
20
8.0665345009240355
10
-107.56535101280262
20
8.0778604603609665
10
-107.57340967127412
20
8.0778604603609665
10
-107.57340967127412
20
8.1923829864224178
10
-107.559307018949
20
8.1923829864224178
10
-107.4595759268999
20
8.1722479474234255
10
-107.38402101001395
20
8.1130990244865444
10
-107.33667459375624
20
8.0212266705054738
10
-107.31954834651532
20
7.9004119447568382
10
-107.33465992913837
20
7.7833725388205171
10
-107.37697108209176
20
7.692760371570369
10
-107.44345841020828
20
7.6336097018400029
10
-107.52807791963431
20
7.6122159733616446
10
-107.59557118181938
20
7.6248023690714284
10
-107.65500558578435
20
7.6587804969241553
10
-107.70537559695785
20
7.7179294198610338
0
LWPOLYLINE
5
135
100
AcDbEntity
8
0
100
AcDbPolyline
90
34
70
1
43
0.0
10
-112.90697174505085
20
8.9966731358243113
10
-112.74982071390605
20
9.0193260528658836
10
-112.59266988250987
20
8.9966731358243113
10
-112.47682147351779
20
8.9312317636583174
10
-112.40630481616552
20
8.82929288834546
10
-112.38111971070444
20
8.6958927650547473
10
-112.39723722739609
20
8.5889208786179196
10
-112.44257197526525
20
8.4995674008471376
10
-112.51510030100604
20
8.4341252800553654
10
-112.61080206381941
20
8.3963708342226226
10
-112.61080206381941
20
8.5159271200338171
10
-112.54834406493862
20
8.5436147949928447
10
-112.5030123132988
20
8.5838861207004626
10
-112.4748068088999
20
8.6354844040127237
10
-112.46473348581051
20
8.6958927650547473
10
-112.48387439766933
20
8.7789530449706366
10
-112.53827054210062
20
8.8431367258249729
10
-112.62792831106033
20
8.8846674896377387
10
-112.74982071390605
20
8.8985103289495449
10
-112.87272224679833
20
8.8846674896377387
10
-112.9613708857115
20
8.8418782858875371
10
-113.0157672298914
20
8.7776946050332008
10
-113.03390240743028
20
8.6958927650547473
10
-113.02181421997439
20
8.6279337643880982
10
-112.98454132655468
20
8.5700432813886565
10
-112.92409799229179
20
8.5285125175758978
10
-112.83947848286576
20
8.5033427206594485
10
-112.83947848286576
20
8.3825269967431026
10
-112.95834749054433
20
8.4177643131590507
10
-113.04599039513752
20
8.4844648738882569
10
-113.09938080524886
20
8.5788523609507177
10
-113.11852191685631
20
8.6958927650547473
10
-113.09434274546379
20
8.82929288834546
10
-113.02282015404295
20
8.9312317636583174
0
LWPOLYLINE
5
136
100
AcDbEntity
8
0
100
AcDbPolyline
90
35
70
1
43
0.0
10
-99.688309088770126
20
8.2034922817550679
10
-99.688309088770126
20
7.7365911016117961
10
-99.770913933578271
20
7.7365911016117961
10
-99.770913933578271
20
8.1191743105275211
10
-99.959293864289137
20
8.1544108783176839
10
-99.926050100356576
20
8.0814171197335796
10
-99.913962112649301
20
7.9870316290065402
10
-99.931085363660912
20
7.8649564669850536
10
-99.978431779918608
20
7.7705709762580089
10
-100.05197203218668
20
7.7101618665902061
10
-100.14565913038214
20
7.6887663913183601
10
-100.24639595675119
20
7.7126787464650759
10
-100.32497127257497
20
7.7756049855496867
10
-100.37433235345054
20
7.8750242360264755
10
-100.39246453476004
20
8.0021329082557813
10
-100.37735594836634
20
8.1179138742546701
10
-100.33705946003083
20
8.2085260415048111
10
-100.27258679653218
20
8.270191844316571
10
-100.18998195172404
20
8.2978795192756003
10
-100.18998195172404
20
8.1808401133392756
10
-100.23934303259963
20
8.161961517942304
10
-100.27561019169937
20
8.1242080702772679
10
-100.29878063254257
20
8.0726097869650104
10
-100.30583036071616
20
8.0059082280680922
10
-100.29475110355818
20
7.9266222697968081
10
-100.26352220399211
20
7.8649564669850536
10
-100.21415812688718
20
7.824686139445145
10
-100.15069419393784
20
7.8108413037979219
10
-100.08723046073712
20
7.824686139445145
10
-100.03786918011292
20
7.8636980270476142
10
-100.00563135024892
20
7.9253658261947857
10
-99.9945522928396
20
8.0059082280680922
10
-100.01167534410256
20
8.0990372751931172
10
-100.05902176036025
20
8.1720290374417992
10
-100.05902176036025
20
8.2727087241914443
0
LWPOLYLINE
5
137
100
AcDbEntity
8
0
100
AcDbPolyline
90
34
70
1
43
0.0
10
-94.70097119782568
20
8.5064585697080872
10
-94.773499523566485
20
8.4410191938775103
10
-94.86920128637982
20
8.4032620030835687
10
-94.86920128637982
20
8.5228165421012818
10
-94.80674328749906
20
8.5505062133957246
10
-94.761411535859224
20
8.5907762913937091
10
-94.733206031460341
20
8.6423785673767934
10
-94.72313270837094
20
8.7027839339156987
10
-94.742273620229753
20
8.7858452119992965
10
-94.796669764661047
20
8.8500278946859225
10
-94.886327533620758
20
8.8915586584986848
10
-95.008219936466503
20
8.9054014978104927
10
-95.13112146935876
20
8.8915586584986848
10
-95.219770108271931
20
8.8487694547484885
10
-95.274166452451823
20
8.7845887683972723
10
-95.292301629990703
20
8.7027839339156987
10
-95.280213442534816
20
8.6348239350813412
10
-95.242940549115104
20
8.5769317052884109
10
-95.182497214852219
20
8.5354046846045541
10
-95.097877705426185
20
8.5102358858558151
10
-95.097877705426185
20
8.3894171674363527
10
-95.216746713104754
20
8.4246537352265083
10
-95.304389617697964
20
8.4913570409169168
10
-95.357780027809298
20
8.5857425316439588
10
-95.376921139416723
20
8.7027839339156987
10
-95.352741968024219
20
8.8361850553741164
10
-95.281219376603389
20
8.9381231820611937
10
-95.165370967611281
20
9.0035643046852609
10
-95.008219936466503
20
9.0262182198945418
10
-94.851069105070309
20
9.0035643046852609
10
-94.735220696078215
20
8.9381231820611937
10
-94.66470403872593
20
8.8361850553741164
10
-94.639518933264881
20
8.7027839339156987
10
-94.655636449956518
20
8.5958103006853825
0
LWPOLYLINE
5
138
100
AcDbEntity
8
0
100
AcDbPolyline
90
34
70
1
43
0.0
10
-110.43029748859581
20
8.5946622622887148
10
-110.39302459517612
20
8.5367717792892748
10
-110.33258126091323
20
8.495241265018441
10
-110.2479617514872
20
8.4700702203923548
10
-110.2479617514872
20
8.3492554946437245
10
-110.36683075916574
20
8.3844940587693007
10
-110.45447366375896
20
8.4511936213308019
10
-110.50786407387029
20
8.5455808588513307
10
-110.52700518547773
20
8.6626222611230688
10
-110.50282601408523
20
8.7960213862460748
10
-110.43130342266439
20
8.8979595129331539
10
-110.31545501367228
20
8.9634026318926345
10
-110.15830398252749
20
8.9860545507665002
10
-110.00115315113132
20
8.9634026318926345
10
-109.8853047421392
20
8.8979595129331539
10
-109.81478808478695
20
8.7960213862460748
10
-109.78960297932588
20
8.6626222611230688
10
-109.8057204960175
20
8.5556486278927544
10
-109.85105524388669
20
8.4662949005800474
10
-109.92358356962748
20
8.4008537779559784
10
-110.01928533244083
20
8.3630983339555307
10
-110.01928533244083
20
8.4826566161021422
10
-109.95682733356006
20
8.5103425442676812
10
-109.91149558192022
20
8.550614618601081
10
-109.88329007752134
20
8.6022129019133367
10
-109.87321675443197
20
8.6626222611230688
10
-109.89235766629076
20
8.7456817924131798
10
-109.94675381072206
20
8.8098662218932979
10
-110.03641157968175
20
8.851394989370645
10
-110.15830398252749
20
8.8652398250178663
10
-110.28120551541977
20
8.851394989370645
10
-110.36985415433293
20
8.8086060351623718
10
-110.42425049851282
20
8.7444233524757422
10
-110.4423856760517
20
8.6626222611230688
0
LWPOLYLINE
5
139
100
AcDbEntity
8
0
100
AcDbPolyline
90
53
70
1
43
0.0
10
-105.0344314981315
20
7.644277987015502
10
-105.08883083854074
20
7.7260808251616631
10
-105.11603040887107
20
7.6656714659519309
10
-105.15330350203939
20
7.6203673786622712
10
-105.20165884859502
20
7.5926797037032445
10
-105.26109325255999
20
7.582610187868335
10
-105.35175675583965
20
7.6052641030776114
10
-105.42227361294053
20
7.6681883458268052
10
-105.46659943051179
20
7.7663511527015716
10
-105.48372268152337
20
7.8972353942851203
10
-105.46659943051179
20
8.0205687467021143
10
-105.42025894832265
20
8.1136977938271357
10
-105.34772742660388
20
8.1728467167640151
10
-105.2510199294706
20
8.1929817557630074
10
-105.24396700531906
20
8.1929817557630074
10
-105.24396700531906
20
8.0772007897641185
10
-105.31045433343557
20
8.0633559541169006
10
-105.3588096799912
20
8.0268611959312253
10
-105.38902984900798
20
7.9689707129317844
10
-105.39910317209734
20
7.88968450511857
10
-105.3900387793059
20
7.8129154267221557
10
-105.36283900922696
20
7.7550249437227148
10
-105.319521922205
20
7.7185301855370403
10
-105.26109325255999
20
7.7046853498898216
10
-105.20971750706653
20
7.7172697492641884
10
-105.17042974928033
20
7.7525080638478405
10
-105.14625057788784
20
7.8116589831201333
10
-105.1371861850964
20
7.8909429450560031
10
-105.13920084971426
20
7.952608997409687
10
-105.05961660359254
20
7.952608997409687
10
-105.06062533414186
20
7.9035275939723038
10
-105.05458134028822
20
7.8317940221191273
10
-105.0344314981315
20
7.7789355520759411
10
-105.00119093017689
20
7.7487327440355269
10
-104.95182665332334
20
7.7374067845985977
10
-104.90548916736356
20
7.7487327440355269
10
-104.87123667288168
20
7.7776791084739223
10
-104.85008409263435
20
7.8255000756384563
10
-104.84202543416285
20
7.8909429450560031
10
-104.85209875725221
20
7.9651933967840582
10
-104.88030426165112
20
8.0180518668272391
10
-104.92664474384026
20
8.0507715547425285
10
-104.99111441110954
20
8.0608390742420255
10
-104.99111441110954
20
8.1728467167640151
10
-104.98406468293595
20
8.1728467167640151
10
-104.89037758474049
20
8.153968121367047
10
-104.81986092738822
20
8.097336078305041
10
-104.7755379062977
20
8.0105012272026208
10
-104.75941759312533
20
7.8972353942851203
10
-104.77251451113051
20
7.7764186722010686
10
-104.80978740455022
20
7.6883253811612136
10
-104.86922200826382
20
7.6342084711805906
10
-104.94779732408759
20
7.6153336189125254
0
LWPOLYLINE
5
140
100
AcDbEntity
8
0
100
AcDbPolyline
90
34
70
1
43
0.0
10
-107.79704803053545
20
8.840508251524053
10
-107.88569666944859
20
8.7977210441092684
10
-107.94009301362851
20
8.7335363650872289
10
-107.95822819116738
20
8.6517335269410633
10
-107.94614000371149
20
8.5837755244421281
10
-107.90886711029181
20
8.5258850414426846
10
-107.84842377602891
20
8.4843542776299223
10
-107.76380426660288
20
8.4591854788811851
10
-107.76380426660288
20
8.3383687567971325
10
-107.88267327428143
20
8.3736070713807838
10
-107.97031617887463
20
8.440306633942285
10
-108.02370658898596
20
8.5346941210047422
10
-108.0428477005934
20
8.6517335269410633
10
-108.01866852920092
20
8.7851346483994845
10
-107.94714593778008
20
8.8870727750865637
10
-107.83129752878796
20
8.9525158940460425
10
-107.67414649764316
20
8.9751678129199099
10
-107.516995666247
20
8.9525158940460425
10
-107.40114725725489
20
8.8870727750865637
10
-107.33063059990261
20
8.7851346483994845
10
-107.30544549444156
20
8.6517335269410633
10
-107.32156301113319
20
8.5447616405042393
10
-107.36689775900237
20
8.4554081627334554
10
-107.43942608474316
20
8.3899670401093918
10
-107.5351278475565
20
8.3522115961089405
10
-107.5351278475565
20
8.4717698782555502
10
-107.47266984867572
20
8.4994555568791625
10
-107.42733809703591
20
8.5397278807544907
10
-107.39913259263702
20
8.5913261640667482
10
-107.38905926954764
20
8.6517335269410633
10
-107.40820018140646
20
8.7347948050246611
10
-107.46259632583772
20
8.7989774877112925
10
-107.55225409479743
20
8.840508251524053
10
-107.67414649764316
20
8.8543530871712743
0
LWPOLYLINE
5
141
100
AcDbEntity
8
0
100
AcDbPolyline
90
34
70
1
43
0.0
10
-102.32446710765252
20
8.7162973657063283
10
-102.34360801951134
20
8.7993568969964393
10
-102.3980041639426
20
8.8635415760184841
10
-102.48766193290231
20
8.9050720902893197
10
-102.60955433574804
20
8.9189131828076373
10
-102.73245586864033
20
8.9050720902893197
10
-102.82110450755349
20
8.862281139745626
10
-102.87550085173339
20
8.7980984570590017
10
-102.89363602927226
20
8.7162973657063283
10
-102.88154784181637
20
8.6483376164139045
10
-102.84427494839669
20
8.5904471334144574
10
-102.78383161413379
20
8.5489163696016988
10
-102.69921210470777
20
8.5237455745175374
10
-102.69921210470777
20
8.4029308487689072
10
-102.81808111238631
20
8.4381674165590681
10
-102.90572401697951
20
8.5048687259140632
10
-102.95911442709084
20
8.5992562129765204
10
-102.97825553869828
20
8.7162973657063283
10
-102.9540763673058
20
8.849696740371261
10
-102.88255377588496
20
8.9516366138518322
10
-102.76670536689284
20
9.0170759896824038
10
-102.60955433574804
20
9.0397299048916846
10
-102.45240350435188
20
9.0170759896824038
10
-102.33655509535977
20
8.9516366138518322
10
-102.26603843800748
20
8.849696740371261
10
-102.24085333254644
20
8.7162973657063283
10
-102.25697084923807
20
8.6093237324760139
10
-102.30230559710725
20
8.5199720014987221
10
-102.37483392284804
20
8.4545291320811664
10
-102.47053568566137
20
8.4167756844161303
10
-102.47053568566137
20
8.5363299738919132
10
-102.40807768678062
20
8.5640196451863559
10
-102.36274593514079
20
8.6042899727262672
10
-102.3345404307419
20
8.6558882560385264
0
LWPOLYLINE
5
142
100
AcDbEntity
8
0
100
AcDbPolyline
90
34
70
1
43
0.0
10
-100.1970348758756
20
8.5646800153989471
10
-100.11241536644957
20
8.5395109671082814
10
-100.11241536644957
20
8.4186962413596476
10
-100.23128437412811
20
8.4539328091498067
10
-100.31892727872133
20
8.520632371711315
10
-100.37231768883267
20
8.6150216055672573
10
-100.39145880044011
20
8.7320610115035802
10
-100.36727962904762
20
8.8654621329619978
10
-100.29575703762676
20
8.9674002596490823
10
-100.17990862863468
20
9.0328413822731477
10
-100.02275759748986
20
9.0554935506889365
10
-99.865606766093691
20
9.0328413822731477
10
-99.74975835710157
20
8.9674002596490823
10
-99.679241699749326
20
8.8654621329619978
10
-99.654056594288249
20
8.7320610115035802
10
-99.670174110979872
20
8.6250891250667561
10
-99.715508858849063
20
8.5357356472959722
10
-99.788037184589854
20
8.4702945246719032
10
-99.883738947403202
20
8.4325390806714555
10
-99.883738947403202
20
8.55209536648265
10
-99.821280948522428
20
8.579783290983606
10
-99.775949196882593
20
8.620055365317004
10
-99.747743692483709
20
8.671653648629265
10
-99.737670369394323
20
8.7320610115035802
10
-99.75681128125315
20
8.8151205427936929
10
-99.811207425684429
20
8.8793049722738076
10
-99.900865194644126
20
8.9208357360865698
10
-100.02275759748986
20
8.9346785753983777
10
-100.14565913038214
20
8.9208357360865698
10
-100.2343077692953
20
8.87804653233637
10
-100.28870411347521
20
8.8138638496497421
10
-100.30683929101407
20
8.7320610115035802
10
-100.29475110355818
20
8.6641030090046414
10
-100.25747821013849
20
8.6062105296697862
0
LWPOLYLINE
5
143
100
AcDbEntity
8
0
100
AcDbPolyline
90
34
70
1
43
0.0
10
-97.693898739473738
20
8.4315009447317095
10
-97.781541644066934
20
8.498200507293209
10
-97.834932054178267
20
8.592587994355668
10
-97.854073165785707
20
8.7096274002919909
10
-97.829893994393217
20
8.8430285217504121
10
-97.758371402972386
20
8.9449663988955628
10
-97.642522993980265
20
9.0104095178550416
10
-97.485371962835472
20
9.0330616862708357
10
-97.328221131439278
20
9.0104095178550416
10
-97.212372722447199
20
8.9449663988955628
10
-97.141856065094913
20
8.8430285217504121
10
-97.116670959633851
20
8.7096274002919909
10
-97.132788476325501
20
8.6026575101905784
10
-97.178123224194678
20
8.5133020360843794
10
-97.250651549935469
20
8.4478606639183873
10
-97.346353312748803
20
8.4101054694598645
10
-97.346353312748803
20
8.5296637516064777
10
-97.283895313868044
20
8.5573494302300901
10
-97.238563562228222
20
8.5976217541054147
10
-97.210358057829325
20
8.649220037417674
10
-97.200284734739938
20
8.7096274002919909
10
-97.219425646598751
20
8.7926886783755887
10
-97.273821791030031
20
8.8568713610622183
10
-97.363479559989742
20
8.8984021248749769
10
-97.485371962835472
20
8.9122469605221983
10
-97.608273495727758
20
8.8984021248749769
10
-97.6969221346409
20
8.8556149174601941
10
-97.751318478820821
20
8.7914302384381511
10
-97.769453656359673
20
8.7096274002919909
10
-97.757365468903799
20
8.6416693977930503
10
-97.720092575484102
20
8.5837789147936085
10
-97.659649241221217
20
8.5422481509808446
10
-97.575029731795183
20
8.5170791026901771
10
-97.575029731795183
20
8.3962626301480547
0
LWPOLYLINE
5
144
100
AcDbEntity
8
0
100
AcDbPolyline
90
40
70
1
43
0.0
10
-110.57973136140362
20
-0.73990326316653476
10
-110.71421561785969
20
-0.80408407428870898
10
-110.79581462847358
20
-0.90413903282431818
10
-110.82301260081492
20
-1.0325066440749164
10
-110.80185862232722
20
-1.1476572671664131
10
-110.73688299179429
20
-1.2401559713840438
10
-110.6341300026927
20
-1.3005614626939088
10
-110.49511275084639
20
-1.3232137558806645
10
-110.48604436308246
20
-1.3232137558806645
10
-110.48604436308246
20
-1.0287253352563597
10
-110.35760410048002
20
-1.0287253352563597
10
-110.35760410048002
20
-1.5063261246000037
10
-110.92425489107605
20
-1.5063261246000037
10
-110.92425489107605
20
-1.4119371402859837
10
-110.78372664076632
20
-1.379849542071574
10
-110.85776826207969
20
-1.3081121023185305
10
-110.91065560528243
20
-1.2250546921347993
10
-110.94087587417351
20
-1.1287806681048584
10
-110.95296386188076
20
-1.021174695631738
10
-110.91669959913605
20
-0.82862664757185289
10
-110.80639161771744
20
-0.67571683735100141
10
-110.6326190042293
20
-0.57189179938354817
10
-110.39991475406183
20
-0.53602888135682702
10
-110.16872150235781
20
-0.57189179938354817
10
-109.9949485892467
20
-0.67571683735100141
10
-109.88464060782806
20
-0.83806794160575349
10
-109.84686294963649
20
-1.0532679085395036
10
-109.87104162165741
20
-1.2175040525101777
10
-109.9375279510308
20
-1.3477563291638084
10
-110.04632523360897
20
-1.440255033381439
10
-110.1913864793089
20
-1.4893401799477268
10
-110.1913864793089
20
-1.3024521171031878
10
-110.09619087950783
20
-1.2703589041954211
10
-110.02517095549834
20
-1.2137287326978674
10
-109.98286060153944
20
-1.1363313077294801
10
-109.96775061690539
20
-1.0419419491025705
10
-109.99645958771012
20
-0.90413903282431818
10
-110.07805650096346
20
-0.80219940888567765
10
-110.21254285478008
20
-0.73801260875725472
10
-110.39538175867162
20
-0.71725134429266868
0
LWPOLYLINE
5
145
100
AcDbEntity
8
0
100
AcDbPolyline
90
12
70
1
43
0.0
10
-112.73602354613972
20
-3.7414202610973746
10
-112.73602354613972
20
-2.9108105995354814
10
-111.68734327211132
20
-2.9108105995354814
10
-111.68734327211132
20
-3.7263189818481313
10
-111.81427253625037
20
-3.7263189818481313
10
-111.81427253625037
20
-3.084482048533812
10
-112.1285757970317
20
-3.084482048533812
10
-112.1285757970317
20
-3.6696828213443311
10
-112.25399376308442
20
-3.6696828213443311
10
-112.25399376308442
20
-3.084482048533812
10
-112.60909428200067
20
-3.084482048533812
10
-112.60909428200067
20
-3.7414202610973746
0
LWPOLYLINE
5
146
100
AcDbEntity
8
0
100
AcDbPolyline
90
12
70
1
43
0.0
10
-112.73602354613972
20
-2.4747443171335037
10
-112.31141440130031
20
-2.1689243223789099
10
-112.73602354613972
20
-1.8687762908521521
10
-112.73602354613972
20
-1.6705622685706789
10
-112.19808442295485
20
-2.0802009379735908
10
-111.6858322736479
20
-1.6932141874445439
10
-111.6858322736479
20
-1.8914282097260171
10
-112.07417715574263
20
-2.1745902966005004
10
-111.6858322736479
20
-2.4634127430032162
10
-111.6858322736479
20
-2.6540761256600676
10
-112.19657342449145
20
-2.2651987207217426
10
-112.73602354613972
20
-2.6748430048180105
0
LWPOLYLINE
5
147
100
AcDbEntity
8
0
100
AcDbPolyline
90
27
70
1
43
0.0
10
-108.98555697187331
20
-2.8938242805703176
10
-108.94022432136467
20
-2.9429038124432494
10
-108.87978168622197
20
-2.976882065066937
10
-108.87978168622197
20
-3.1411178347247217
10
-108.98857896880014
20
-3.0901480227554012
10
-109.07017558243054
20
-3.0014246383500809
10
-109.1215522267928
20
-2.8806080410369947
10
-109.14119520681709
20
-2.733363830724842
10
-109.11248593638942
20
-2.5634677015388241
10
-109.0278673258322
20
-2.4332098101918387
10
-108.89186997355216
20
-2.3482617455988297
10
-108.70600907273382
20
-2.3199494671967305
10
-108.52468146692864
20
-2.3501524000081075
10
-108.38717521354575
20
-2.4351004646011165
10
-108.30255420600503
20
-2.5672430213511355
10
-108.27233393711396
20
-2.7390238159401861
10
-108.30104320754162
20
-2.9145859193477941
10
-108.37961782424522
20
-3.0467284760978117
10
-108.50957118267162
20
-3.1297918752877885
10
-108.6833440957827
20
-3.1599948080991656
10
-108.74529742976588
20
-3.1581041536898891
10
-108.74529742976588
20
-2.4936209161950584
10
-108.74983042515611
20
-2.4936209161950584
10
-108.8661827000513
20
-2.5124978895695049
10
-108.95231230907193
20
-2.5653523669418554
10
-109.00519995189761
20
-2.6465251117225552
10
-109.02182093499508
20
-2.7541310841956745
0
LWPOLYLINE
5
148
100
AcDbEntity
8
0
100
AcDbPolyline
90
34
70
1
43
0.0
10
-108.9009359643326
20
2.5089042944155904
10
-109.03240032122241
20
2.6089566327609659
10
-109.11248593638942
20
2.7505374890417622
10
-109.14119520681709
20
2.9260965979462483
10
-109.10493094407238
20
3.1261982801338761
10
-108.99764495958055
20
3.2791054701644962
10
-108.82387234609241
20
3.3772671541005916
10
-108.58814579937523
20
3.4112480269145151
10
-108.35241955228096
20
3.3772671541005916
10
-108.1786469387928
20
3.2791054701644962
10
-108.07287195276439
20
3.1261982801338761
10
-108.03509429457279
20
2.9260965979462483
10
-108.05927056961025
20
2.7656391426038973
10
-108.12727269141402
20
2.631608551634832
10
-108.23606518002521
20
2.5334468676987343
10
-108.37961782424522
20
2.4768137016980574
10
-108.37961782424522
20
2.6561485047277444
10
-108.28593292328462
20
2.6976800171662862
10
-108.21793319846432
20
2.758088128666385
10
-108.175624941866
20
2.8354855536347712
10
-108.16051495723192
20
2.9260965979462483
10
-108.18922632502014
20
3.0506888893845341
10
-108.27082293865054
20
3.146962913414475
10
-108.40530719510664
20
3.2092586848207283
10
-108.58814579937523
20
3.2300233181013294
10
-108.77249570173015
20
3.2092586848207283
10
-108.90546895972281
20
3.1450752535083204
10
-108.98706797033671
20
3.0488012294783795
10
-109.01426594267805
20
2.9260965979462483
10
-108.99613396111717
20
2.8241595941978392
10
-108.94022432136467
20
2.7373238696986757
10
-108.84955931997034
20
2.6750280982924224
10
-108.72263005583129
20
2.6372715313532979
10
-108.72263005583129
20
2.4560494427303459
0
LWPOLYLINE
5
149
100
AcDbEntity
8
0
100
AcDbPolyline
90
24
70
1
43
0.0
10
-108.47179382410296
20
1.4177874593537099
10
-108.57907980859478
20
1.4102368197290871
10
-109.11248593638942
20
1.4102368197290871
10
-109.11248593638942
20
1.5763576291027936
10
-108.60627808055904
20
1.5763576291027936
10
-108.51561517652526
20
1.5857989231366942
10
-108.44761754906551
20
1.6141138217290263
10
-108.40681819357003
20
1.6707469877297032
10
-108.39170820893597
20
1.7613580320411804
10
-108.40984019049685
20
1.8746239897296424
10
-108.4581948379323
20
1.9595720543226536
10
-108.53676945463589
20
2.0143145659140527
10
-108.6440554391277
20
2.0313064995750696
10
-109.11248593638942
20
2.0313064995750696
10
-109.11248593638942
20
2.1974273089487761
10
-108.02754169923924
20
2.1974273089487761
10
-108.02754169923924
20
2.0313064995750696
10
-108.41890618127729
20
2.0313064995750696
10
-108.35695254767117
20
1.9803363132903629
10
-108.31162019678547
20
1.9123775621656436
10
-108.2829109263578
20
1.8312048173849438
10
-108.27233393711396
20
1.7368184532611575
10
-108.30104320754162
20
1.5631440097597071
10
-108.38263982117203
20
1.4517687064805207
0
LWPOLYLINE
5
150
100
AcDbEntity
8
0
100
AcDbPolyline
90
35
70
1
43
0.0
10
-97.275836455647919
20
8.0828976104621972
10
-97.355420901518244
20
8.1231679380021067
10
-97.46623105097666
20
8.1420465333990766
10
-97.408811311629577
20
8.0526930556282927
10
-97.388664465702192
20
7.9331367698170974
10
-97.404781982393814
20
7.8223895635679597
10
-97.451122464582937
20
7.7330340894617589
10
-97.524659720621671
20
7.6751456027977323
10
-97.620361483435005
20
7.653750127525889
10
-97.715054315950425
20
7.6751456027977323
10
-97.789600302538446
20
7.7355509693366358
10
-97.836946718796156
20
7.8286800164616555
10
-97.855078900105653
20
7.9507549289412172
10
-97.833923323628966
20
8.0866711834810232
10
-97.771468320977561
20
8.1860941770867139
10
-97.667707899692715
20
8.2477599798984649
10
-97.524659720621671
20
8.2678952684393892
10
-97.435002151410572
20
8.2628615086896389
10
-97.355420901518244
20
8.2452431000235933
10
-97.287924643103793
20
8.2175571718580542
10
-97.232519568374585
20
8.1797999810641127
10
-97.188196547284065
20
8.1319790138995796
10
-97.156967647717991
20
8.0753469708375754
10
-97.137826536110552
20
8.0111622918155305
10
-97.130773811707627
20
7.9369100932939922
10
-97.143870729712802
20
7.8261631365867812
10
-97.182152553430427
20
7.7405847290863816
10
-97.242592891463957
20
7.6852131222972275
10
-97.324191802203543
20
7.6613007671505118
10
-97.324191802203543
20
7.777081733149398
10
-97.276845385945848
20
7.7934434486714954
10
-97.241586957395398
20
7.8249064434428339
10
-97.220431380918697
20
7.8727274106073653
10
-97.212372722447199
20
7.9356536496919716
10
-97.228490039390209
20
8.021231807650441
0
LWPOLYLINE
5
151
100
AcDbEntity
8
0
100
AcDbPolyline
90
24
70
1
43
0.0
10
-108.51561517652526
20
-1.8234720787915304
10
-108.44761754906551
20
-1.7951541856960751
10
-108.40681819357003
20
-1.7385240141985214
10
-108.39170820893597
20
-1.6479099753839233
10
-108.40984019049685
20
-1.534644017695459
10
-108.4581948379323
20
-1.44969595310245
10
-108.53676945463589
20
-1.3949508213208184
10
-108.6440554391277
20
-1.3779645023556508
10
-109.11248593638942
20
-1.3779645023556508
10
-109.11248593638942
20
-1.2118380782885885
10
-108.30104320754162
20
-1.2118380782885885
10
-108.30104320754162
20
-1.3704138627310292
10
-108.4249501751309
20
-1.3704138627310292
10
-108.35997454459799
20
-1.4251533798193061
10
-108.31162019678547
20
-1.4950001651630718
10
-108.2829109263578
20
-1.576178524637124
10
-108.27233393711396
20
-1.6724525486670672
10
-108.30104320754162
20
-1.8461239976653965
10
-108.38263982117203
20
-1.9574996752574725
10
-108.47179382410296
20
-1.9914775535682705
10
-108.57907980859478
20
-1.9990285675057828
10
-109.11248593638942
20
-1.9990285675057828
10
-109.11248593638942
20
-1.8329077581320752
10
-108.60627808055904
20
-1.8329077581320752
0
LWPOLYLINE
5
152
100
AcDbEntity
8
0
100
AcDbPolyline
90
12
70
1
43
0.0
10
-112.60909428200067
20
-1.4685729264768943
10
-112.73602354613972
20
-1.4685729264768943
10
-112.73602354613972
20
-0.63796326491500244
10
-111.68734327211132
20
-0.63796326491500244
10
-111.68734327211132
20
-1.453471647227651
10
-111.81427253625037
20
-1.453471647227651
10
-111.81427253625037
20
-0.81164032860668645
10
-112.1285757970317
20
-0.81164032860668645
10
-112.1285757970317
20
-1.3968414757300973
10
-112.25399376308442
20
-1.3968414757300973
10
-112.25399376308442
20
-0.81164032860668645
10
-112.60909428200067
20
-0.81164032860668645
0
LWPOLYLINE
5
153
100
AcDbEntity
8
0
100
AcDbPolyline
90
18
70
1
43
0.0
10
-110.16418820734465
20
0.55319991948101777
10
-109.99041559385648
20
0.45692589545107687
10
-109.88464060782806
20
0.30402169992358008
10
-109.84686294963649
20
0.10203235782979547
10
-109.85744233586381
20
-0.0017923058247681922
10
-109.88464060782806
20
-0.096181664451677751
10
-109.99192659231989
20
-0.25097651438845237
10
-110.07050120902348
20
-0.30572164617008291
10
-110.16569950543098
20
-0.34725053841839326
10
-110.39991475406183
20
-0.38311907113847132
10
-110.6356410011561
20
-0.34725053841839326
10
-110.80941361464426
20
-0.25097651438845237
10
-110.91669959913605
20
-0.096181664451677751
10
-110.95296386188076
20
0.10203235782979547
10
-110.91669959913605
20
0.30213104551430225
10
-110.80941361464426
20
0.45504123004804331
10
-110.6356410011561
20
0.55319991948101777
10
-110.39991475406183
20
0.58718378679806227
0
LWPOLYLINE
5
154
100
AcDbEntity
8
0
100
AcDbPolyline
90
34
70
1
43
0.0
10
-105.32254252089145
20
8.3440012858874724
10
-105.41018542548466
20
8.4107028447843888
10
-105.46357583559599
20
8.5050883355114326
10
-105.48271694720343
20
8.6221294882412423
10
-105.45853777581094
20
8.7555306096996599
10
-105.38701518439009
20
8.857468736386739
10
-105.271166775398
20
8.9229098590108045
10
-105.11401574425319
20
8.9455637742200871
10
-104.95686491285701
20
8.9229098590108045
10
-104.84101650386492
20
8.857468736386739
10
-104.77049984651265
20
8.7555306096996599
10
-104.74531474105157
20
8.6221294882412423
10
-104.76143225774322
20
8.5151576018044128
10
-104.8067670056124
20
8.4258041240336308
10
-104.87929533135318
20
8.3603610050741501
10
-104.97499709416651
20
8.3226075574091141
10
-104.97499709416651
20
8.4421638432203121
10
-104.91253909528575
20
8.4698517677212664
10
-104.86720734364593
20
8.5101220952611776
10
-104.83900183924703
20
8.5617203785734368
10
-104.82892851615766
20
8.6221294882412423
10
-104.84806942801647
20
8.7051907663248365
10
-104.90246557244775
20
8.7693736985533945
10
-104.99212334140748
20
8.8109042128242301
10
-105.11401574425319
20
8.824747301677963
10
-105.23691727714547
20
8.8109042128242301
10
-105.32556591605862
20
8.7681152586159588
10
-105.37996226023853
20
8.7039323263874024
10
-105.39809743777739
20
8.6221294882412423
10
-105.38600925032154
20
8.5541694894068865
10
-105.34873635690182
20
8.4962810027428617
10
-105.28829302263894
20
8.4547502389300977
10
-105.20367351321291
20
8.4295794438459417
10
-105.20367351321291
20
8.3087627217618909
0
LWPOLYLINE
5
155
100
AcDbEntity
8
0
100
AcDbPolyline
90
11
70
1
43
0.0
10
-102.27510582702831
20
7.7875252715825578
10
-102.70525609856138
20
7.7875252715825578
10
-102.70525609856138
20
7.6629352260216121
10
-102.78584627875165
20
7.6629352260216121
10
-102.78584627875165
20
7.7875252715825578
10
-102.95911442709084
20
7.7875252715825578
10
-102.95911442709084
20
7.9007911045000601
10
-102.78584627875165
20
7.9007911045000601
10
-102.78584627875165
20
8.2846330028951485
10
-102.69719744008988
20
8.2846330028951485
10
-102.27510582702831
20
7.9020497939794243
0
LWPOLYLINE
5
156
100
AcDbEntity
8
0
100
AcDbPolyline
90
10
70
1
43
0.0
10
-109.80370583139964
20
7.8244620847075197
10
-110.50786407387029
20
7.8244620847075197
10
-110.50786407387029
20
7.938986357562456
10
-110.01022073990075
20
7.938986357562456
10
-110.01022073990075
20
8.1428626109366178
10
-109.93869515225055
20
8.1428626109366178
10
-109.93063649377903
20
8.0472166839367194
10
-109.9064603186159
20
7.9779982451649323
10
-109.86515789621181
20
7.9326924110817849
10
-109.80370583139964
20
7.9100402426659899
0
LWPOLYLINE
5
157
100
AcDbEntity
8
0
100
AcDbPolyline
90
17
70
1
43
0.0
10
-112.91603913407165
20
7.6677011709122622
10
-113.02886414789657
20
7.7255916539117031
10
-113.09736614063098
20
7.8199791409741604
10
-113.11952765117624
20
7.9496049426202697
10
-113.09736614063098
20
8.0804871878683961
10
-113.02886414789657
20
8.1748744253889285
10
-112.91603913407165
20
8.2340243464935181
10
-112.75787957212617
20
8.2529021932647062
10
-112.60072854098138
20
8.2340243464935181
10
-112.48790372690507
20
8.1748744253889285
10
-112.41839280387276
20
8.0804871878683961
10
-112.3952225627782
20
7.9496049426202697
10
-112.41839280387276
20
7.8199791409741604
10
-112.48689479660715
20
7.7255916539117031
10
-112.53827054210062
20
7.6916117792654903
10
-112.60072854098138
20
7.6677011709122622
10
-112.75787957212617
20
7.6475641355778512
0
LWPOLYLINE
5
158
100
AcDbEntity
8
0
100
AcDbPolyline
90
22
70
1
43
0.0
10
-112.47461002554459
20
6.0465399130937847
10
-112.56527292957838
20
5.995569726811576
10
-112.61967127124453
20
5.9087340023124106
10
-112.63780355242837
20
5.784145079690135
10
-112.61967127124453
20
5.6633281080641602
10
-112.56527292957838
20
5.5764923835649949
10
-112.47309692972064
20
5.5255225715956735
10
-112.3446566671182
20
5.5085336324402734
10
-111.68734327211132
20
5.5085336324402734
10
-111.68734327211132
20
5.3329715290326662
10
-112.33710167480115
20
5.3329715290326662
10
-112.52749527138678
20
5.3612894221281238
10
-112.66047092636293
20
5.4443498268149764
10
-112.73753454460312
20
5.5840433975025068
10
-112.76473251694446
20
5.784145079690135
10
-112.73753454460312
20
5.9861314272807986
10
-112.66047092636293
20
6.1258249979683281
10
-112.52598427292338
20
6.2088850283422925
10
-112.33710167480115
20
6.2353156358444828
10
-111.68734327211132
20
6.2353156358444828
10
-111.68734327211132
20
6.0616411923430302
10
-112.3446566671182
20
6.0616411923430302
0
LWPOLYLINE
5
159
100
AcDbEntity
8
0
100
AcDbPolyline
90
10
70
1
43
0.0
10
-97.299452259358148
20
-6.3689764173391321
10
-97.299452259358148
20
-6.4746898638385222
10
-97.998572442043738
20
-6.4746898638385222
10
-97.998572442043738
20
-6.3400320492361564
10
-97.42537419118824
20
-6.0052698074849626
10
-97.998572442043738
20
-6.0052698074849626
10
-97.998572442043738
20
-5.9008167972584253
10
-97.299452259358148
20
-5.9008167972584253
10
-97.299452259358148
20
-6.0379914917356645
10
-97.872650709962258
20
-6.3689764173391321
0
LWPOLYLINE
5
160
100
AcDbEntity
8
0
100
AcDbPolyline
90
31
70
1
43
0.0
10
-92.181965352704864
20
7.6191091032103975
10
-92.231326433580449
20
7.6266637355058498
10
-92.271623121664575
20
7.6480552181068662
10
-92.304866685848523
20
7.6832917858970262
10
-92.329042861011672
20
7.7336336256072613
10
-92.357251361639911
20
7.6707111296515595
10
-92.396539119426109
20
7.6254032992329961
10
-92.445900200301708
20
7.5989740642114061
10
-92.505334604266665
20
7.5889062951699815
10
-92.594992373226361
20
7.6102980273129202
10
-92.664500300029317
20
7.6681905066477825
10
-92.70882611760058
20
7.7625797405037256
10
-92.725949368612177
20
7.8896849191460561
10
-92.70882611760058
20
8.0180540276482191
10
-92.664500300029317
20
8.1124432615041631
10
-92.594992373226361
20
8.1703319977101163
10
-92.505334604266665
20
8.1904670367091104
10
-92.445900200301708
20
8.1816599534824679
10
-92.396539119426109
20
8.1539702821880216
10
-92.357251361639911
20
8.1099226385003842
10
-92.329042861011672
20
8.0457399558137581
10
-92.271623121664575
20
8.1338349936471026
10
-92.231326433580449
20
8.1552304689189459
10
-92.181965352704864
20
8.1615246649415454
10
-92.110442761284034
20
8.142646069544579
10
-92.053023021936937
20
8.0885309063574446
10
-92.015749928768599
20
8.0029527483989717
10
-92.001644280214123
20
7.8896849191460561
10
-92.015749928768599
20
7.7776810197529711
10
-92.053023021936937
20
7.6921028617944991
10
-92.110442761284034
20
7.6392443917513164
0
LWPOLYLINE
5
161
100
AcDbEntity
8
0
100
AcDbPolyline
90
17
70
1
43
0.0
10
-95.267143834041605
20
-6.5134519628793166
10
-95.379968847866522
20
-6.4555634762152883
10
-95.448470840600919
20
-6.3611742423593407
10
-95.470632351146179
20
-6.2315501875067216
10
-95.448470840600919
20
-6.1006659459231773
10
-95.379968847866522
20
-6.0062787084026459
10
-95.267143834041605
20
-5.9471297854657674
10
-95.108984272096123
20
-5.9282529368622843
10
-94.951833240951316
20
-5.9471297854657674
10
-94.839008426875026
20
-6.0062787084026459
10
-94.769497503844704
20
-6.1006659459231773
10
-94.746327262750128
20
-6.2315501875067216
10
-94.769497503844704
20
-6.3611742423593407
10
-94.837999496577098
20
-6.4555634762152883
10
-94.889375242070571
20
-6.4895413545260849
10
-94.951833240951316
20
-6.5134519628793166
10
-95.108984272096123
20
-6.5335889982137214
0
LWPOLYLINE
5
162
100
AcDbEntity
8
0
100
AcDbPolyline
90
42
70
1
43
0.0
10
-108.99764495958055
20
0.30213104551430225
10
-109.01728793960487
20
0.24927619382905775
10
-109.01275494421463
20
0.20963234129667052
10
-109.11550793331625
20
0.20963234129667052
10
-109.12759622064642
20
0.30213104551430225
10
-109.09888695021876
20
0.42105736273099881
10
-109.06262059011351
20
0.4493752558264541
10
-109.01124394575123
20
0.45881654986035469
10
-109.00671095036101
20
0.45881654986035469
10
-109.10493094407238
20
0.61549606520016287
10
-109.13666221142688
20
0.79105779429537781
10
-109.1200412283294
20
0.92131007094850892
10
-109.07319757935736
20
1.0156994295754185
10
-108.99915595804399
20
1.0742198811693604
10
-108.89942496586919
20
1.0930968545438069
10
-108.78760568636423
20
1.0723322212632058
10
-108.71205306658744
20
1.0043734701384865
10
-108.66369871877494
20
0.88921985254436509
10
-108.63650044681066
20
0.72687136847984668
10
-108.62441245910341
20
0.58529313238878444
10
-108.60930007748586
20
0.50978074713631916
10
-108.57756881013137
20
0.47957781432494295
10
-108.51410417806184
20
0.47202717470032018
10
-108.4597058363957
20
0.48524378854653216
10
-108.4204171797407
20
0.52488764107891939
10
-108.39775220278959
20
0.59095910661037365
10
-108.39019721047254
20
0.68345781082850277
10
-108.40077419971641
20
0.77973183485840813
10
-108.42797217205774
20
0.84768796579293149
10
-108.47330482256638
20
0.88921985254436509
10
-108.53676945463589
20
0.90243347188695422
10
-108.53676945463589
20
1.0515649677923733
10
-108.52770346385543
20
1.0515649677923733
10
-108.42192817820411
20
1.0270253890123526
10
-108.34184256303712
20
0.9534032838562756
10
-108.29046591867484
20
0.83636200635599955
10
-108.27233393711396
20
0.67779183660691356
10
-108.28895492021144
20
0.51544672135790837
10
-108.33428757072006
20
0.4002957239535232
10
-108.40984019049685
20
0.33422425842206671
10
-108.51712617498865
20
0.31157233954820285
10
-108.93720232443786
20
0.31157233954820285
0
LWPOLYLINE
5
163
100
AcDbEntity
8
0
100
AcDbPolyline
90
51
70
1
43
0.0
10
-87.173236191765469
20
-5.2287451045428917
10
-87.20748569001799
20
-5.1960234202921871
10
-87.252817441657811
20
-5.1846974608552552
10
-87.30318745283131
20
-5.1960234202921871
10
-87.33542228646597
20
-5.2325204243552026
10
-87.357586793240571
20
-5.2967031070418287
10
-87.376724708870043
20
-5.394865664374672
10
-87.402918544880421
20
-5.5093881904361197
10
-87.438176773682244
20
-5.5949665979365202
10
-87.49156738354219
20
-5.6478230716442877
10
-87.574172028601708
20
-5.6667019165831842
10
-87.665844462179308
20
-5.6440477518319767
10
-87.735352388982264
20
-5.5823819490202222
10
-87.779678206553513
20
-5.4854778316248174
10
-87.795795723245163
20
-5.355852029978708
10
-87.778669276255599
20
-5.2249695351886523
10
-87.731322859997903
20
-5.1280654177932474
10
-87.652747544174119
20
-5.0651391787086419
10
-87.545966524202825
20
-5.0399703799599029
10
-87.545966524202825
20
-5.1544929060213516
10
-87.615474451005781
20
-5.1683357453331578
10
-87.667859126797197
20
-5.2098662596039933
10
-87.700093960431815
20
-5.2753093785634757
10
-87.71117621381913
20
-5.3608877860638717
10
-87.703117555347632
20
-5.43765486812487
10
-87.677932449886555
20
-5.4968037910617511
10
-87.637635961551069
20
-5.5358176749996382
10
-87.584245551439736
20
-5.5509189542488837
10
-87.531860875648348
20
-5.5345592350622024
10
-87.499626042013702
20
-5.4879947114996934
10
-87.477464531468442
20
-5.4112256331032782
10
-87.454294290373866
20
-5.3092875064161991
10
-87.428103450592857
20
-5.2060909397916832
10
-87.393850956110981
20
-5.1305822976681217
10
-87.342475210617522
20
-5.0827593341681752
10
-87.266920293731573
20
-5.0663976186460786
10
-87.182300784305539
20
-5.0865346539804843
10
-87.116822186738318
20
-5.1431666970424939
10
-87.074511033784958
20
-5.231261984417765
10
-87.05940244739125
20
-5.344526070541777
10
-87.074511033784958
20
-5.470376302833647
10
-87.118836851356207
20
-5.5635053499586675
10
-87.189353708457105
20
-5.6226542728955478
10
-87.284046540972497
20
-5.6427893118945409
10
-87.286061205590386
20
-5.6427893118945409
10
-87.286061205590386
20
-5.5282667858330914
10
-87.224611937258913
20
-5.5106486267089743
10
-87.179280185619092
20
-5.4741516226459588
10
-87.152080615288767
20
-5.4187782690633153
10
-87.142007292199395
20
-5.3483013903540861
10
-87.150065950670893
20
-5.2790846983757858
0
LWPOLYLINE
5
164
100
AcDbEntity
8
0
100
AcDbPolyline
90
13
70
1
43
0.0
10
-112.73602354613972
20
7.39250356212243
10
-111.68734327211132
20
7.39250356212243
10
-111.68734327211132
20
7.1603086670270404
10
-112.61211627892749
20
6.9205657524972519
10
-111.68734327211132
20
6.678935178061316
10
-111.68734327211132
20
6.4486309373751993
10
-112.73602354613972
20
6.4486309373751993
10
-112.73602354613972
20
6.5958747733744616
10
-111.78405226735927
20
6.5958747733744616
10
-112.73602354613972
20
6.8393930077165566
10
-112.73602354613972
20
7.0017384972779517
10
-111.78405226735927
20
7.2471470117164349
10
-112.73602354613972
20
7.2471470117164349
0
LWPOLYLINE
5
165
100
AcDbEntity
8
0
100
AcDbPolyline
90
34
70
1
43
0.0
10
-99.979903712415108
20
-6.4120159630601412
10
-100.07560547522844
20
-6.4497731538540828
10
-100.07560547522844
20
-6.3302111285785667
10
-100.01314747634768
20
-6.3025291930838563
10
-99.967815724707862
20
-6.2622551224150422
10
-99.939610220308964
20
-6.2106568391027821
10
-99.929536897219577
20
-6.1502512230219537
10
-99.94867780907839
20
-6.0671899449383577
10
-100.00307395350967
20
-6.0030072622517281
10
-100.09273172246938
20
-5.9614727553100622
10
-100.21462412531513
20
-5.9476279196628399
10
-100.3375256582074
20
-5.9614727553100622
10
-100.42617429712055
20
-6.0042637058537487
10
-100.48057064130046
20
-6.0684463885403783
10
-100.49870581883934
20
-6.1502512230219537
10
-100.48661763138344
20
-6.2182074787274058
10
-100.44934473796374
20
-6.2760959653914314
10
-100.38890140370086
20
-6.3176304723331
10
-100.30428189427482
20
-6.3427995206237622
10
-100.30428189427482
20
-6.4636142463723987
10
-100.42315090195338
20
-6.428373935453334
10
-100.51079380654657
20
-6.3616781160207374
10
-100.56418421665791
20
-6.2672888821647899
10
-100.58332532826535
20
-6.1502512230219537
10
-100.55914615687286
20
-6.0168483547700466
10
-100.487623565452
20
-5.9149122244183827
10
-100.37177515645992
20
-5.8494651127880726
10
-100.21462412531513
20
-5.8268169370431107
10
-100.05747329391895
20
-5.8494651127880726
10
-99.941624884926838
20
-5.9149122244183827
10
-99.871108227574567
20
-6.0168483547700466
10
-99.845923122113504
20
-6.1502512230219537
10
-99.862040638805141
20
-6.2572211131233662
10
-99.907375386674317
20
-6.346576587229567
0
LWPOLYLINE
5
166
100
AcDbEntity
8
0
100
AcDbPolyline
90
40
70
1
43
0.0
10
-89.889025625629273
20
-6.4671376619192342
10
-89.94846002959423
20
-6.4331595340665091
10
-89.998830040767729
20
-6.3740106111296306
10
-90.04214712778969
20
-6.2909493330460329
10
-90.072367296806448
20
-6.2166971345244937
10
-90.143892884456648
20
-6.0770038133788891
10
-90.18318064224286
20
-6.0316997260892302
10
-90.230527058500556
20
-6.0052702415257144
10
-90.230527058500556
20
-6.4797240576290207
10
-90.317161032795852
20
-6.4797240576290207
10
-90.317161032795852
20
-5.8794217560273303
10
-90.314137637628676
20
-5.8794217560273303
10
-90.212394877191059
20
-5.8957814752140125
10
-90.131804697000774
20
-5.9473797585262673
10
-90.065317368884266
20
-6.0342166059641045
10
-90.002859370003492
20
-6.1575482115876117
10
-89.970624536368845
20
-6.2318004101091526
10
-89.940401371122718
20
-6.2871740132337193
10
-89.906151872870197
20
-6.3274460875671217
10
-89.866864115084013
20
-6.3513566959203498
10
-89.820523632894862
20
-6.3601677718178227
10
-89.771162352270665
20
-6.3475813761080406
10
-89.731874794233093
20
-6.3123428119824618
10
-89.70668968877203
20
-6.2582276487953319
10
-89.696616365682644
20
-6.1852358865466393
10
-89.707698619069944
20
-6.1135005678999779
10
-89.739933452704591
20
-6.059385404712847
10
-89.790303463878104
20
-6.0254055300666316
10
-89.858805456612487
20
-6.0140795706296988
10
-89.866864115084013
20
-6.0140795706296988
10
-89.866864115084013
20
-5.8995570445682501
10
-89.852761462758863
20
-5.8995570445682501
10
-89.75303037070978
20
-5.919692083567238
10
-89.677475453823831
20
-5.97884100650412
10
-89.630129037566135
20
-6.0707133604851924
10
-89.613002790325169
20
-6.1915280862338271
10
-89.628114372948247
20
-6.3085674921701482
10
-89.670425525901635
20
-6.399179659420299
10
-89.736912854018144
20
-6.458330329150666
10
-89.821532363444177
20
-6.4797240576290207
0
LWPOLYLINE
5
167
100
AcDbEntity
8
0
100
AcDbPolyline
90
12
70
1
43
0.0
10
-97.913953132366331
20
-5.7195927123000541
10
-97.998572442043738
20
-5.7195927123000541
10
-97.998572442043738
20
-5.1658531874673894
10
-97.299452259358148
20
-5.1658531874673894
10
-97.299452259358148
20
-5.7095251928005606
10
-97.384071768784167
20
-5.7095251928005606
10
-97.384071768784167
20
-5.2816341534662765
10
-97.593607275971721
20
-5.2816341534662765
10
-97.593607275971721
20
-5.671769748800112
10
-97.677217855099826
20
-5.671769748800112
10
-97.677217855099826
20
-5.2816341534662765
10
-97.913953132366331
20
-5.2816341534662765
0
LWPOLYLINE
5
168
100
AcDbEntity
8
0
100
AcDbPolyline
90
53
70
1
43
0.0
10
-87.452279625755992
20
-6.0341818499142477
10
-87.37269537963428
20
-6.0341818499142477
10
-87.373704110183596
20
-6.0832630038097069
10
-87.367660116329958
20
-6.1549983224563736
10
-87.347510274173231
20
-6.2078550457060677
10
-87.314269706218624
20
-6.238057853746481
10
-87.264905429365058
20
-6.249385809518829
10
-87.218567943405304
20
-6.238057853746481
10
-87.184315448923414
20
-6.2091134856435071
10
-87.163162868676082
20
-6.1612907716854837
10
-87.15510421020457
20
-6.0958476527260057
10
-87.165177533293956
20
-6.0215972009979524
10
-87.19338303769284
20
-5.9687404777482556
10
-87.239723519881977
20
-5.9360190430394812
10
-87.30419318715127
20
-5.9259515235399842
10
-87.30419318715127
20
-5.8139458773534098
10
-87.297143458977686
20
-5.8139458773534098
10
-87.203456360782226
20
-5.8328224764149672
10
-87.132939703429955
20
-5.8894545194769723
10
-87.088616682339435
20
-5.9762913669148068
10
-87.072496369167069
20
-6.0895571998323064
10
-87.085593287172259
20
-6.2103719255809429
10
-87.122866180591956
20
-6.2984672129562131
10
-87.182300784305539
20
-6.3525823761433466
10
-87.260876100129323
20
-6.3714589752049005
10
-87.347510274173231
20
-6.3425146071019238
10
-87.401909614582479
20
-6.2607117689557645
10
-87.429109184912789
20
-6.3211191318300806
10
-87.466382278081127
20
-6.3664252154551537
10
-87.514737624636751
20
-6.3941128904141813
10
-87.574172028601708
20
-6.4041804099136783
10
-87.66483553188138
20
-6.3815284910398127
10
-87.735352388982264
20
-6.3186022519552063
10
-87.779678206553513
20
-6.2204396946223639
10
-87.796801457565124
20
-6.0895571998323064
10
-87.779678206553513
20
-5.9662235978733857
10
-87.733337724364418
20
-5.873094800290291
10
-87.660806202645631
20
-5.8139458773534098
10
-87.56409870551235
20
-5.7938088420190015
10
-87.557045781360785
20
-5.7938088420190015
10
-87.557045781360785
20
-5.909591554811378
10
-87.623533109477307
20
-5.9234346436651117
10
-87.671888456032931
20
-5.9599313981861997
10
-87.702108625049704
20
-6.0178218811856414
10
-87.71218194813909
20
-6.0971078394569282
10
-87.703117555347632
20
-6.1738751710598532
10
-87.675917785268695
20
-6.2317674008527844
10
-87.632600698246748
20
-6.2682624085803837
10
-87.574172028601708
20
-6.2821054974341184
10
-87.522796283108278
20
-6.2695208485178195
10
-87.483508525322065
20
-6.2342845302695862
10
-87.459329353929576
20
-6.1751336109972907
10
-87.450264961138117
20
-6.0958476527260057
0
LWPOLYLINE
5
169
100
AcDbEntity
8
0
100
AcDbPolyline
90
10
70
1
43
0.0
10
-102.49142840325641
20
-5.2257475170068197
10
-103.0646266541119
20
-5.2257475170068197
10
-103.0646266541119
20
-5.1212907636513796
10
-102.3655064714263
20
-5.1212907636513796
10
-102.3655064714263
20
-5.2584672049221108
10
-102.93870492203042
20
-5.5894558736544813
10
-102.3655064714263
20
-5.5894558736544813
10
-102.3655064714263
20
-5.6951655770249658
10
-103.0646266541119
20
-5.6951655770249658
10
-103.0646266541119
20
-5.5605097587580143
0
LWPOLYLINE
5
170
100
AcDbEntity
8
0
100
AcDbPolyline
90
8
70
1
43
0.0
10
-110.61599772150888
20
4.3872142388824038
10
-110.61599772150888
20
4.9101188659737787
10
-110.92425489107605
20
5.0479247767551527
10
-110.92425489107605
20
5.2215962257534843
10
-109.87406361858422
20
4.7439980566000717
10
-109.87406361858422
20
4.5514470140370644
10
-110.92425489107605
20
4.0719589391001554
10
-110.92425489107605
20
4.249408328101028
0
LWPOLYLINE
5
171
100
AcDbEntity
8
0
100
AcDbPolyline
90
24
70
1
43
0.0
10
-108.35997454459799
20
-0.28873570151780603
10
-108.31162019678547
20
-0.35857649785532519
10
-108.2829109263578
20
-0.43975485732937969
10
-108.27233393711396
20
-0.53602888135682702
10
-108.30104320754162
20
-0.70970033035515634
10
-108.38263982117203
20
-0.82107600794723234
10
-108.47179382410296
20
-0.85505987526427685
10
-108.57907980859478
20
-0.8626105148888974
10
-109.11248593638942
20
-0.8626105148888974
10
-109.11248593638942
20
-0.69648409082183393
10
-108.60627808055904
20
-0.69648409082183393
10
-108.51561517652526
20
-0.68704841148129026
10
-108.44761754906551
20
-0.65873051838583496
10
-108.40681819357003
20
-0.60210034688828129
10
-108.39170820893597
20
-0.51148630807368312
10
-108.40984019049685
20
-0.39822035038771464
10
-108.4581948379323
20
-0.31327228579470567
10
-108.53676945463589
20
-0.25852715401307291
10
-108.6440554391277
20
-0.24154083504790647
10
-109.11248593638942
20
-0.24154083504790647
10
-109.11248593638942
20
-0.07542002567419992
10
-108.30104320754162
20
-0.07542002567419992
10
-108.30104320754162
20
-0.23399019542328592
10
-108.4249501751309
20
-0.23399019542328592
0
LWPOLYLINE
5
172
100
AcDbEntity
8
0
100
AcDbPolyline
90
34
70
1
43
0.0
10
-100.55914615687286
20
-5.2592325765632211
10
-100.487623565452
20
-5.157292453540725
10
-100.37177515645992
20
-5.0918533272520765
10
-100.21462412531513
20
-5.0692011588362851
10
-100.05747329391895
20
-5.0918533272520765
10
-99.941624884926838
20
-5.157292453540725
10
-99.871108227574567
20
-5.2592325765632211
10
-99.845923122113504
20
-5.3926317016862244
10
-99.862040638805141
20
-5.4996053349165415
10
-99.907375386674317
20
-5.5889570658938332
10
-99.979903712415108
20
-5.6544001848533174
10
-100.07560547522844
20
-5.6921536325183499
10
-100.07560547522844
20
-5.5725990935006431
10
-100.01314747634768
20
-5.5449094222061994
10
-99.967815724707862
20
-5.5046393442082167
10
-99.939610220308964
20
-5.4530410608959556
10
-99.929536897219577
20
-5.3926317016862244
10
-99.94867780907839
20
-5.3095741667315313
10
-100.00307395350967
20
-5.2453877409159988
10
-100.09273172246938
20
-5.2038607202321412
10
-100.21462412531513
20
-5.1900158845849163
10
-100.3375256582074
20
-5.2038607202321412
10
-100.42617429712055
20
-5.2466479276469249
10
-100.48057064130046
20
-5.310830610333551
10
-100.49870581883934
20
-5.3926317016862244
10
-100.48661763138344
20
-5.4605917005205793
10
-100.44934473796374
20
-5.5184839303135123
10
-100.38890140370086
20
-5.5600146941262718
10
-100.30428189427482
20
-5.5851837424169384
10
-100.30428189427482
20
-5.7059984681655731
10
-100.42315090195338
20
-5.6707619003754122
10
-100.51079380654657
20
-5.6040623378139074
10
-100.56418421665791
20
-5.5096731039579634
10
-100.58332532826535
20
-5.3926317016862244
0
LWPOLYLINE
5
173
100
AcDbEntity
8
0
100
AcDbPolyline
90
6
70
1
43
0.0
10
-112.60909428200067
20
4.8572613940983045
10
-112.60909428200067
20
4.189000216600931
10
-112.73602354613972
20
4.189000216600931
10
-112.73602354613972
20
5.0309328430966316
10
-111.68734327211132
20
5.0309328430966316
10
-111.68734327211132
20
4.8572613940983045
0
LWPOLYLINE
5
174
100
AcDbEntity
8
0
100
AcDbPolyline
90
13
70
1
43
0.0
10
-95.357780027809298
20
8.1314260004169867
10
-95.194585202559495
20
8.0886387930021986
10
-95.043478365016938
20
8.0156450344180996
10
-94.901439116243836
20
7.9111882810626577
10
-94.765440865094988
20
7.7727514035190737
10
-94.765440865094988
20
8.2509842825635982
10
-94.673771427746743
20
8.2509842825635982
10
-94.673771427746743
20
7.6519404208993436
10
-94.757382206623475
20
7.6519404208993436
10
-94.892371527474381
20
7.7865962391662968
10
-95.036425440865386
20
7.8897925562488869
10
-95.191561607643678
20
7.9627863148329903
10
-95.357780027809298
20
8.004317078645748
0
LWPOLYLINE
5
175
100
AcDbEntity
8
0
100
AcDbPolyline
90
8
70
1
43
0.0
10
-110.61599772150888
20
2.1143669042619218
10
-110.61599772150888
20
2.6372745258564212
10
-110.92425489107605
20
2.7750774421346747
10
-110.92425489107605
20
2.9487515113232377
10
-109.87406361858422
20
2.4711507219795914
10
-109.87406361858422
20
2.2786026739197074
10
-110.92425489107605
20
1.799114224667413
10
-110.92425489107605
20
1.9765609934780515
0
LWPOLYLINE
5
176
100
AcDbEntity
8
0
100
AcDbPolyline
90
12
70
1
43
0.0
10
-112.60909428200067
20
2.2880409734504847
10
-112.60909428200067
20
2.0464077788243129
10
-112.73602354613972
20
2.0464077788243129
10
-112.73602354613972
20
2.7033429968847544
10
-112.60909428200067
20
2.7033429968847544
10
-112.60909428200067
20
2.4617124224488141
10
-111.81427253625037
20
2.4617124224488141
10
-111.81427253625037
20
2.7033429968847544
10
-111.68734327211132
20
2.7033429968847544
10
-111.68734327211132
20
2.0464077788243129
10
-111.81427253625037
20
2.0464077788243129
10
-111.81427253625037
20
2.2880409734504847
0
LWPOLYLINE
5
177
100
AcDbEntity
8
0
100
AcDbPolyline
90
8
70
1
43
0.0
10
-111.81427253625037
20
3.0280365961977784
10
-111.81427253625037
20
3.4244620205704912
10
-112.73602354613972
20
3.4244620205704912
10
-112.73602354613972
20
3.5981360897590542
10
-111.81427253625037
20
3.5981360897590542
10
-111.81427253625037
20
3.9964491740379215
10
-111.68734327211132
20
3.9964491740379215
10
-111.68734327211132
20
3.0280365961977784
0
LWPOLYLINE
5
178
100
AcDbEntity
8
0
100
AcDbPolyline
90
4
70
1
43
0.0
10
-108.76645170787653
20
3.8510926236319265
10
-108.76645170787653
20
4.3079261595047385
10
-108.64707743605452
20
4.3079261595047385
10
-108.64707743605452
20
3.8510926236319265
0
LWPOLYLINE
5
179
100
AcDbEntity
8
0
100
AcDbPolyline
90
10
70
1
43
0.0
10
-110.92425489107605
20
3.2828807899768053
10
-110.06445721516985
20
3.7850211581004722
10
-110.92425489107605
20
3.7850211581004722
10
-110.92425489107605
20
3.9417036679434014
10
-109.87557461704765
20
3.9417036679434014
10
-109.87557461704765
20
3.7359420005404287
10
-110.73537199333087
20
3.2394642378223404
10
-109.87557461704765
20
3.2394642378223404
10
-109.87557461704765
20
3.080894442386144
10
-110.92425489107605
20
3.080894442386144
0
LWPOLYLINE
5
180
100
AcDbEntity
8
0
100
AcDbPolyline
90
6
70
1
43
0.0
10
-112.73602354613972
20
-0.35669183245229386
10
-112.73602354613972
20
0.48524378854653216
10
-111.68734327211132
20
0.48524378854653216
10
-111.68734327211132
20
0.31157233954820285
10
-112.60909428200067
20
0.31157233954820285
10
-112.60909428200067
20
-0.35669183245229386
0
LWPOLYLINE
5
181
100
AcDbEntity
8
0
100
AcDbPolyline
90
12
70
1
43
0.0
10
-84.550750943908184
20
-5.1449230915692024
10
-84.550750943908184
20
-4.9838362914871688
10
-84.466131434482151
20
-4.9838362914871688
10
-84.466131434482151
20
-5.4217931035274622
10
-84.550750943908184
20
-5.4217931035274622
10
-84.550750943908184
20
-5.260706053903502
10
-85.080632307490333
20
-5.260706053903502
10
-85.080632307490333
20
-5.4217931035274622
10
-85.165251617167741
20
-5.4217931035274622
10
-85.165251617167741
20
-4.9838362914871688
10
-85.080632307490333
20
-4.9838362914871688
10
-85.080632307490333
20
-5.1449230915692024
0
LWPOLYLINE
5
182
100
AcDbEntity
8
0
100
AcDbPolyline
90
10
70
1
43
0.0
10
-92.231806862108641
20
-6.2353142218852051
10
-92.190504439704569
20
-6.2806200559683507
10
-92.129052374892368
20
-6.3032742207195582
10
-92.129052374892368
20
-6.3888503823426168
10
-92.833210617366007
20
-6.3888503823426168
10
-92.833210617366007
20
-6.2743278562811682
10
-92.335567283393488
20
-6.2743278562811682
10
-92.335567283393488
20
-6.0704518524489366
10
-92.264041695743259
20
-6.0704518524489366
10
-92.255983037271761
20
-6.1660977794488314
0
LWPOLYLINE
5
183
100
AcDbEntity
8
0
100
AcDbPolyline
90
13
70
1
43
0.0
10
-102.37155066502856
20
-6.2400940259601567
10
-102.38766798197156
20
-6.3067975811924901
10
-102.45314957576812
20
-6.4087374546730613
10
-102.50150172634579
20
-6.4439740224632196
10
-102.56194506060868
20
-6.4691430707538888
10
-102.71506656276911
20
-6.4892781097528793
10
-102.86516466976235
20
-6.4666261908790137
10
-102.97496908490082
20
-6.4037036949233119
10
-103.04246534331526
20
-6.3017638214427425
10
-103.0646266541119
20
-6.1645873801720157
10
-103.0646266541119
20
-5.8738765252373621
10
-102.3655064714263
20
-5.8738765252373621
10
-102.3655064714263
20
-6.1645873801720157
0
ENDSEC
0
SECTION
2
OBJECTS
0
DICTIONARY
5
C
100
AcDbDictionary
3
ACAD_GROUP
350
D
3
ACAD_MLINESTYLE
350
17
0
DICTIONARY
5
D
100
AcDbDictionary
0
DICTIONARY
5
1A
330
C
100
AcDbDictionary
0
DICTIONARY
5
17
100
AcDbDictionary
0
ENDSEC
0
EOF
