0
SECTION
2
HEADER
9
$INSUNITS
70
4
9
$ACADVER
1
AC1014
9
$HANDSEED
5
FFFF
0
ENDSEC
0
SECTION
2
TABLES
0
TABLE
2
VPORT
5
8
100
AcDbSymbolTable
0
ENDTAB
0
TABLE
2
LTYPE
5
5
100
AcDbSymbolTable
0
LTYPE
5
14
100
AcDbSymbolTableRecord
100
AcDbLinetypeTableRecord
2
BYBLOCK
70
0
0
LTYPE
5
15
100
AcDbSymbolTableRecord
100
AcDbLinetypeTableRecord
2
BYLAYER
70
0
0
LTYPE
5
16
100
AcDbSymbolTableRecord
100
AcDbLinetypeTableRecord
2
DASHED
70
0
3
Dashed __ __ __ __ __ __ __ __ __ __ __ __ __ _
72
65
73
2
40
0.75
49
0.5
74
0
49
-0.25
74
0
0
ENDTAB
0
TABLE
2
LAYER
5
2
100
AcDbSymbolTable
70
3
0
LAYER
5
50
100
AcDbSymbolTableRecord
100
AcDbLayerTableRecord
2
1
70
0
62
7
6
DASHED
0
LAYER
5
51
100
AcDbSymbolTableRecord
100
AcDbLayerTableRecord
2
0
70
0
62
7
6
CONTINUOUS
0
ENDTAB
0
TABLE
2
STYLE
5
3
100
AcDbSymbolTable
70
1
0
STYLE
5
11
100
AcDbSymbolTableRecord
100
AcDbTextStyleTableRecord
2
STANDARD
70
0
0
ENDTAB
0
TABLE
2
VIEW
5
6
100
AcDbSymbolTable
70
0
0
ENDTAB
0
TABLE
2
UCS
5
7
100
AcDbSymbolTable
70
0
0
ENDTAB
0
TABLE
2
APPID
5
9
100
AcDbSymbolTable
70
2
0
APPID
5
12
100
AcDbSymbolTableRecord
100
AcDbRegAppTableRecord
2
ACAD
70
0
0
ENDTAB
0
TABLE
2
DIMSTYLE
5
A
100
AcDbSymbolTable
70
1
0
ENDTAB
0
TABLE
2
BLOCK_RECORD
5
1
100
AcDbSymbolTable
70
1
0
BLOCK_RECORD
5
1F
100
AcDbSymbolTableRecord
100
AcDbBlockTableRecord
2
*MODEL_SPACE
0
BLOCK_RECORD
5
1B
100
AcDbSymbolTableRecord
100
AcDbBlockTableRecord
2
*PAPER_SPACE
0
ENDTAB
0
ENDSEC
0
SECTION
2
BLOCKS
0
BLOCK
5
20
100
AcDbEntity
100
AcDbBlockBegin
2
*MODEL_SPACE
0
ENDBLK
5
21
100
AcDbEntity
100
AcDbBlockEnd
0
BLOCK
5
1C
100
AcDbEntity
100
AcDbBlockBegin
2
*PAPER_SPACE
0
ENDBLK
5
1D
100
AcDbEntity
100
AcDbBlockEnd
0
ENDSEC
0
SECTION
2
ENTITIES
0
CIRCLE
5
100
100
AcDbEntity
8
0
100
AcDbCircle
10
26.12745070870281
20
-49.815527878452315
30
0
40
1.7500000000000071
210
0
220
-0
230
1
0
CIRCLE
5
101
100
AcDbEntity
8
0
100
AcDbCircle
10
49.815527878452244
20
-26.127450708702931
30
0
40
1.7500000000000071
210
0
220
-0
230
1
0
CIRCLE
5
102
100
AcDbEntity
8
0
100
AcDbCircle
10
45.657523672914877
20
-69.345601132488184
30
0
40
1.749999999999998
210
0
220
-0
230
1
0
CIRCLE
5
103
100
AcDbEntity
8
0
100
AcDbCircle
10
69.330736467863346
20
-45.680092438529591
30
0
40
1.749999999999998
210
0
220
-0
230
1
0
LWPOLYLINE
5
104
100
AcDbEntity
8
0
100
AcDbPolyline
90
36
70
1
43
0.0
10
15.598689424542158
20
-66.594499999357765
10
16.796691199910036
20
-71.709053347887405
42
0.43420950978557221
10
23.132351144954917
20
-75.348566025637126
42
0.046346779064744333
10
36.615502288562155
20
-69.798403017329804
42
-0.32820814503785156
10
43.645436101165544
20
-70.869047482373944
10
43.889756651339454
20
-71.113368047303069
42
0.41421356985354235
10
47.425290632878294
20
-71.113368108915139
10
71.094651487568797
20
-47.444007474662698
42
0.41421356510086982
10
71.094651487568797
20
-43.916177402396393
10
70.834998729505486
20
-43.65414586905726
42
-0.32704940740537525
10
69.784698877419885
20
-36.641613968289278
42
0.046440514914909296
10
75.348566025637183
20
-23.132351144954875
42
0.43420950978556783
10
71.709053347887405
20
-16.796691199910033
10
66.594499999357751
20
-15.598689424542167
42
0.39299827350395239
10
60.682053924375879
20
-18.974719145403974
42
-0.025925429768299736
10
58.392455507887739
20
-25.152987394883482
42
-0.53000736716197749
10
55.141408876128033
20
-25.775971360231893
10
52.654208051525657
20
-23.288770535629499
42
0.99999998709521587
10
46.976847705378866
20
-28.96613088177628
10
51.881824638379626
20
-33.871107814777062
42
-0.36377259836270681
10
52.10671560638567
20
-36.431330250802809
42
-0.0045919534504959836
10
51.428804622153621
20
-37.382210879831121
42
-0.46094075465502321
10
48.396811361575622
20
-37.620504016292664
10
35.846810746615823
20
-25.070503401332836
42
0.43212062847875982
10
28.567615913022543
20
-25.291674192169737
42
-0.030383963596661848
10
25.291674192169744
20
-28.56761591302255
42
0.4321206284787607
10
25.070503401332836
20
-35.84681074661583
10
37.620504016292628
20
-48.396811361575629
42
-0.46094075465500139
10
37.382210879830723
20
-51.428804622153962
42
-0.004591953450492986
10
36.431330250802986
20
-52.106715606385521
42
-0.36377259836271114
10
33.871107814776991
20
-51.881824638379669
10
28.96613088177623
20
-46.976847705378894
42
0.99999999999999989
10
23.288770535629439
20
-52.654208051525664
10
25.775971360231836
20
-55.141408876128075
42
-0.53000736716197228
10
25.152987394883439
20
-58.392455507887803
42
-0.025925429768299736
10
18.974719145403906
20
-60.682053924375879
42
0.39299827350395311
0
ENDSEC
0
SECTION
2
OBJECTS
0
DICTIONARY
5
C
100
AcDbDictionary
3
ACAD_GROUP
350
D
3
ACAD_MLINESTYLE
350
17
0
DICTIONARY
5
D
100
AcDbDictionary
0
DICTIONARY
5
1A
330
C
100
AcDbDictionary
0
DICTIONARY
5
17
100
AcDbDictionary
0
ENDSEC
0
EOF
