0
SECTION
2
HEADER
9
$INSUNITS
70
4
9
$ACADVER
1
AC1014
9
$HANDSEED
5
FFFF
0
ENDSEC
0
SECTION
2
TABLES
0
TABLE
2
VPORT
5
8
100
AcDbSymbolTable
0
ENDTAB
0
TABLE
2
LTYPE
5
5
100
AcDbSymbolTable
0
LTYPE
5
14
100
AcDbSymbolTableRecord
100
AcDbLinetypeTableRecord
2
BYBLOCK
70
0
0
LTYPE
5
15
100
AcDbSymbolTableRecord
100
AcDbLinetypeTableRecord
2
BYLAYER
70
0
0
LTYPE
5
16
100
AcDbSymbolTableRecord
100
AcDbLinetypeTableRecord
2
DASHED
70
0
3
Dashed __ __ __ __ __ __ __ __ __ __ __ __ __ _
72
65
73
2
40
0.75
49
0.5
74
0
49
-0.25
74
0
0
ENDTAB
0
TABLE
2
LAYER
5
2
100
AcDbSymbolTable
70
3
0
LAYER
5
50
100
AcDbSymbolTableRecord
100
AcDbLayerTableRecord
2
1
70
0
62
7
6
DASHED
0
LAYER
5
51
100
AcDbSymbolTableRecord
100
AcDbLayerTableRecord
2
0
70
0
62
7
6
CONTINUOUS
0
ENDTAB
0
TABLE
2
STYLE
5
3
100
AcDbSymbolTable
70
1
0
STYLE
5
11
100
AcDbSymbolTableRecord
100
AcDbTextStyleTableRecord
2
STANDARD
70
0
0
ENDTAB
0
TABLE
2
VIEW
5
6
100
AcDbSymbolTable
70
0
0
ENDTAB
0
TABLE
2
UCS
5
7
100
AcDbSymbolTable
70
0
0
ENDTAB
0
TABLE
2
APPID
5
9
100
AcDbSymbolTable
70
2
0
APPID
5
12
100
AcDbSymbolTableRecord
100
AcDbRegAppTableRecord
2
ACAD
70
0
0
ENDTAB
0
TABLE
2
DIMSTYLE
5
A
100
AcDbSymbolTable
70
1
0
ENDTAB
0
TABLE
2
BLOCK_RECORD
5
1
100
AcDbSymbolTable
70
1
0
BLOCK_RECORD
5
1F
100
AcDbSymbolTableRecord
100
AcDbBlockTableRecord
2
*MODEL_SPACE
0
BLOCK_RECORD
5
1B
100
AcDbSymbolTableRecord
100
AcDbBlockTableRecord
2
*PAPER_SPACE
0
ENDTAB
0
ENDSEC
0
SECTION
2
BLOCKS
0
BLOCK
5
20
100
AcDbEntity
100
AcDbBlockBegin
2
*MODEL_SPACE
0
ENDBLK
5
21
100
AcDbEntity
100
AcDbBlockEnd
0
BLOCK
5
1C
100
AcDbEntity
100
AcDbBlockBegin
2
*PAPER_SPACE
0
ENDBLK
5
1D
100
AcDbEntity
100
AcDbBlockEnd
0
ENDSEC
0
SECTION
2
ENTITIES
0
LWPOLYLINE
5
100
100
AcDbEntity
8
0
100
AcDbPolyline
90
42
70
1
43
0.0
10
-99.725942588934885
20
-40.13709474723435
42
0.53774961779422326
10
-86.647622844452002
20
-42.807002410886085
10
-84.725173463154817
20
-40.884553029588837
42
-0.41421356237309948
10
-77.654105651289328
20
-40.884553029588787
10
-40.884553200810323
20
-77.654105822510829
42
-0.41421356237309692
10
-40.884553200810323
20
-84.725173634376318
10
-42.807002410886035
20
-86.647622844452016
42
0.53774961779422414
10
-40.13709474723435
20
-99.725942588934913
42
0.19368759647460046
10
40.137094747234357
20
-99.725942588934913
42
0.53774961779422248
10
42.807002410886042
20
-86.647622844452016
10
40.884553200810331
20
-84.725173634376318
42
-0.41421356237309725
10
40.884553200810331
20
-77.654105822510829
10
77.654105651289299
20
-40.88455302958878
42
-0.41421356237309875
10
84.725173463154817
20
-40.884553029588815
10
86.647622844451973
20
-42.807002410886064
42
0.53774961779422392
10
99.725942588934885
20
-40.137094747234357
42
0.1936875964746004
10
99.725942588934871
20
40.137094747234315
42
0.53774961779422248
10
86.647622844452016
20
42.807002410886021
10
84.72517363437629
20
40.884553200810345
42
-0.41421356237309503
10
77.654105822510815
20
40.884553200810352
10
40.884553029588773
20
77.654105651289285
42
-0.41421356237309431
10
40.88455302958878
20
84.725173463154775
10
42.807002410886021
20
86.647622844452002
42
0.53774961779422426
10
40.137094747234386
20
99.725942588934871
42
0.0055185121388874542
10
37.92616248069065
20
100.58755489374752
42
-1.0611620686783194e-05
10
37.925622847752003
20
100.58594507212442
42
0.0066700826134215982
10
37.801383281091233
20
100.63451406965717
42
0.020198283688363714
10
29.557475535923551
20
103.35669131673708
42
0.35574991189755284
10
23.752790884814566
20
100.86798555277753
42
-0.60529734086113263
10
-23.752790884814559
20
100.86798555277751
42
0.35574991189756033
10
-29.557475535923665
20
103.35669131673711
42
0.020198283688363024
10
-37.801383281091169
20
100.63451406965724
42
0.0066700826133685338
10
-37.925622847786286
20
100.58594507222668
42
-1.0611623956278979e-05
10
-37.92616248066934
20
100.58755489368387
42
0.0055185121388975147
10
-40.1370947472343
20
99.725942588934871
42
0.53774961779422503
10
-42.807002410886057
20
86.647622844451973
10
-40.884553029588808
20
84.725173463154775
42
-0.41421356237309653
10
-40.884553029588773
20
77.654105651289285
10
-77.654105822510815
20
40.884553200810373
42
-0.41421356237309764
10
-84.72517363437629
20
40.884553200810359
10
-86.647622844452016
20
42.807002410886042
42
0.53774961779422448
10
-99.725942588934885
20
40.137094747234379
42
0.19368759647460054
0
LWPOLYLINE
5
101
100
AcDbEntity
8
0
100
AcDbPolyline
90
10
70
1
43
0.0
10
-32.01444036979435
20
97.372098713178048
42
0.017290154527498859
10
-38.6661984175933
20
94.927209481430097
42
0.29031727052320688
10
-39.908843201754202
20
93.182501998724206
42
-0.067867125195998454
10
-40.035976011517775
20
92.519012659585954
42
0.28491504644131693
10
-39.554788629392654
20
90.466476874824082
10
-35.227698780096411
20
86.139387025527867
42
0.41421356237309137
10
-32.399271655350226
20
86.139387025527867
10
-26.183543101137442
20
92.355115579740811
42
0.36538745468109596
10
-25.965212799530377
20
94.924664821550678
42
-0.0048422207367642637
10
-26.316227191517655
20
95.430993239229664
42
0.33470747488348485
0
LWPOLYLINE
5
102
100
AcDbEntity
8
0
100
AcDbPolyline
90
10
70
1
43
0.0
10
39.554788629392654
20
90.466476874824082
10
35.227698780096411
20
86.139387025527881
42
-0.41421356237309137
10
32.399271655350226
20
86.139387025527881
10
26.183543101137445
20
92.355115579740811
42
-0.36538745468109801
10
25.965212799530093
20
94.924664821550678
42
0.0048422207367656758
10
26.316227191517648
20
95.43099323922965
42
-0.33470747488348684
10
32.014440369794073
20
97.372098713177039
42
-0.017290154527500025
10
38.66619841759352
20
94.927209481428889
42
-0.29031727052311163
10
39.908843201754351
20
93.182501998723581
42
0.067867125195934908
10
40.035976011517761
20
92.519012659585954
42
-0.28491504644131849
0
CIRCLE
5
103
100
AcDbEntity
8
0
100
AcDbCircle
10
69.345601132488099
20
-45.657523672914913
30
0
40
1.749999999999998
210
0
220
0
230
1
0
CIRCLE
5
104
100
AcDbEntity
8
0
100
AcDbCircle
10
-45.657523672914934
20
-69.345601132488099
30
0
40
1.749999999999998
210
0
220
0
230
1
0
CIRCLE
5
105
100
AcDbEntity
8
0
100
AcDbCircle
10
-69.345601132488099
20
45.65752367291492
30
0
40
1.749999999999998
210
0
220
0
230
1
0
CIRCLE
5
106
100
AcDbEntity
8
0
100
AcDbCircle
10
69.330736467863375
20
45.680092438529549
30
0
40
1.749999999999998
210
0
220
0
230
1
0
CIRCLE
5
107
100
AcDbEntity
8
0
100
AcDbCircle
10
-93.316915437571907
20
42.405227192140515
30
0
40
1.7500000000000071
210
0
220
0
230
1
0
CIRCLE
5
108
100
AcDbEntity
8
0
100
AcDbCircle
10
42.405227192140501
20
-93.31691543757195
30
0
40
1.749999999999998
210
0
220
0
230
1
0
CIRCLE
5
109
100
AcDbEntity
8
0
100
AcDbCircle
10
93.316915437571907
20
-42.405227192140543
30
0
40
1.7500000000000071
210
0
220
0
230
1
0
CIRCLE
5
110
100
AcDbEntity
8
0
100
AcDbCircle
10
45.68009243852952
20
-69.330736467863375
30
0
40
1.749999999999998
210
0
220
0
230
1
0
CIRCLE
5
111
100
AcDbEntity
8
0
100
AcDbCircle
10
-69.330736467863375
20
-45.680092438529499
30
0
40
1.749999999999998
210
0
220
0
230
1
0
CIRCLE
5
112
100
AcDbEntity
8
0
100
AcDbCircle
10
-45.680092438529513
20
69.330736467863375
30
0
40
1.749999999999998
210
0
220
0
230
1
0
CIRCLE
5
113
100
AcDbEntity
8
0
100
AcDbCircle
10
45.657523672914905
20
69.345601132488127
30
0
40
1.749999999999998
210
0
220
0
230
1
0
CIRCLE
5
114
100
AcDbEntity
8
0
100
AcDbCircle
10
-93.316915437571907
20
-42.405227192140543
30
0
40
1.7499999999999893
210
0
220
0
230
1
0
CIRCLE
5
115
100
AcDbEntity
8
0
100
AcDbCircle
10
-42.405227192140501
20
-93.31691543757195
30
0
40
1.749999999999998
210
0
220
0
230
1
0
CIRCLE
5
116
100
AcDbEntity
8
0
100
AcDbCircle
10
93.316915437571907
20
42.405227192140515
30
0
40
1.7499999999999893
210
0
220
0
230
1
0
CIRCLE
5
117
100
AcDbEntity
8
0
100
AcDbCircle
10
39.208926160654194
20
-15.520848990904774
30
0
40
1.749999999999998
210
0
220
-0
230
1
0
CIRCLE
5
118
100
AcDbEntity
8
0
100
AcDbCircle
10
15.520848990904824
20
-39.208926160654144
30
0
40
1.749999999999998
210
0
220
-0
230
1
0
CIRCLE
5
119
100
AcDbEntity
8
0
100
AcDbCircle
10
26.127450708702877
20
-49.815527878452258
30
0
40
1.7500000000000027
210
0
220
-0
230
1
0
CIRCLE
5
120
100
AcDbEntity
8
0
100
AcDbCircle
10
49.815527878452258
20
-26.127450708702842
30
0
40
1.7500000000000071
210
0
220
-0
230
1
0
CIRCLE
5
121
100
AcDbEntity
8
0
100
AcDbCircle
10
-42.405227192140515
20
93.316915437571907
30
0
40
1.749999999999998
210
0
220
-0
230
1
0
CIRCLE
5
122
100
AcDbEntity
8
0
100
AcDbCircle
10
-26.127450708702838
20
49.815527878452279
30
0
40
1.7500000000000027
210
0
220
-0
230
1
0
LWPOLYLINE
5
123
100
AcDbEntity
8
0
100
AcDbPolyline
90
8
70
1
43
0.0
10
-24.085081160475774
20
35.808279215905863
42
0.47202936936555456
10
-23.340101714770238
20
43.492644758841337
10
-42.121989896665127
20
62.274533160481916
42
0.41421356237309725
10
-49.193057708530631
20
62.274533160481937
10
-62.292673861162953
20
49.174917007849579
42
0.38483252243270183
10
-62.632226818138754
20
42.479683463515499
10
-43.492646840683832
20
23.340099572057191
42
0.47202941894195133
10
-35.808280659153056
20
24.085079014740774
42
-0.096947439283342596
0
CIRCLE
5
124
100
AcDbEntity
8
0
100
AcDbCircle
10
-49.815527878452258
20
-26.127450708702842
30
0
40
1.7500000000000071
210
0
220
-0
230
1
0
CIRCLE
5
125
100
AcDbEntity
8
0
100
AcDbCircle
10
-49.815527878452258
20
26.127450708702895
30
0
40
1.7500000000000071
210
0
220
-0
230
1
0
CIRCLE
5
126
100
AcDbEntity
8
0
100
AcDbCircle
10
-15.520848990904771
20
39.208926160654215
30
0
40
1.749999999999998
210
0
220
-0
230
1
0
CIRCLE
5
127
100
AcDbEntity
8
0
100
AcDbCircle
10
-26.127450708702877
20
-49.815527878452258
30
0
40
1.7500000000000027
210
0
220
-0
230
1
0
CIRCLE
5
128
100
AcDbEntity
8
0
100
AcDbCircle
10
-39.208926160654144
20
15.520848990904845
30
0
40
1.7500000000000027
210
0
220
-0
230
1
0
CIRCLE
5
129
100
AcDbEntity
8
0
100
AcDbCircle
10
-15.520848990904824
20
-39.208926160654144
30
0
40
1.749999999999998
210
0
220
-0
230
1
0
CIRCLE
5
130
100
AcDbEntity
8
0
100
AcDbCircle
10
-39.208926160654194
20
-15.520848990904774
30
0
40
1.749999999999998
210
0
220
-0
230
1
0
CIRCLE
5
131
100
AcDbEntity
8
0
100
AcDbCircle
10
42.405227192140515
20
93.316915437571907
30
0
40
1.749999999999998
210
0
220
-0
230
1
0
LWPOLYLINE
5
132
100
AcDbEntity
8
0
100
AcDbPolyline
90
12
70
1
43
0.0
10
17.125043577460513
20
34.095605946616097
42
0.2370239786738576
10
-17.125043577460531
20
34.095605946616075
10
-17.196476971462538
20
34.167039340618089
10
-17.415197250011826
20
33.948319062068833
42
0.15697639663007665
10
-33.948319062068805
20
17.415197250011847
10
-34.167039340618061
20
17.196476971462591
10
-34.095605946616061
20
17.125043577460591
42
1.6213143586396943
10
34.095605946616054
20
17.125043577460577
10
34.167039340618061
20
17.196476971462591
10
33.948319062068812
20
17.41519725001185
42
0.15697639663007673
10
17.415197250011822
20
33.948319062068812
10
17.196476971462538
20
34.167039340618089
0
LWPOLYLINE
5
133
100
AcDbEntity
8
0
100
AcDbPolyline
90
12
70
1
43
0.0
10
38.586455990732432
20
65.810067066414732
10
15.805944101400524
20
43.029555396828059
42
-0.26683871052846642
10
10.996347526642536
20
41.730137023310654
42
0.12954438179863606
10
-10.996347487048837
20
41.730136873056253
42
-0.26683871052846658
10
-15.805944211273278
20
43.029555286955308
10
-38.586455990732425
20
65.810067066414732
42
-0.41421356237309281
10
-38.586455990732411
20
72.881134878280164
10
-24.728526435111938
20
86.739064433900722
42
-0.36472155475579149
10
-18.314254034168421
20
87.291667594816801
42
0.31675782108433165
10
18.314254034168385
20
87.291667594816786
42
-0.36472155475579188
10
24.728526435111906
20
86.739064433900737
10
38.586455990732418
20
72.881134878280179
42
-0.41421356237309304
0
LWPOLYLINE
5
134
100
AcDbEntity
8
0
100
AcDbPolyline
90
8
70
1
43
0.0
10
62.632226818138754
20
42.479683463515499
10
43.492646840683818
20
23.340099572057198
42
-0.47202941894195177
10
35.808280530220983
20
24.085078928019538
42
0.096947439283342526
10
24.085081073754534
20
35.808279086973812
42
-0.47202936936555678
10
23.340101604897491
20
43.492644868714095
10
42.121989896665141
20
62.274533160481923
42
-0.41421356237309687
10
49.193057708530631
20
62.274533160481937
10
62.292673861162946
20
49.174917007849572
42
-0.38483252243270177
0
CIRCLE
5
135
100
AcDbEntity
8
0
100
AcDbCircle
10
49.815527878452258
20
26.127450708702892
30
0
40
1.7500000000000027
210
0
220
-0
230
1
0
CIRCLE
5
136
100
AcDbEntity
8
0
100
AcDbCircle
10
15.520848990904771
20
39.208926160654208
30
0
40
1.749999999999998
210
0
220
-0
230
1
0
CIRCLE
5
137
100
AcDbEntity
8
0
100
AcDbCircle
10
39.208926160654144
20
15.520848990904836
30
0
40
1.749999999999998
210
0
220
-0
230
1
0
CIRCLE
5
138
100
AcDbEntity
8
0
100
AcDbCircle
10
26.127450708702838
20
49.815527878452279
30
0
40
1.7500000000000071
210
0
220
-0
230
1
0
LWPOLYLINE
5
139
100
AcDbEntity
8
0
100
AcDbPolyline
90
17
70
1
43
0.0
10
65.810067066414732
20
-38.586455990732489
10
63.957663433694762
20
-36.734052358012455
10
43.029555286955308
20
-15.805944211273273
42
-0.26683871052846753
10
41.730136873056253
20
-10.996347487048848
42
0.12954436096321012
10
41.730137774384573
20
10.996344066589362
42
-0.26683866119552885
10
43.029555931209117
20
15.805940033006687
10
66.167760001062547
20
38.944148834573625
42
-0.38483258143121235
10
72.862994341930417
20
38.604596527082087
10
77.6541056512892
20
33.813485217723269
42
0.41421356237309503
10
84.725173463154675
20
33.813485217723233
10
88.006823331676912
20
37.095135086245477
42
-0.54786385778427704
10
96.236837095948715
20
35.280606369046822
42
-0.1775242420307504
10
96.236837095948729
20
-35.280606369046879
42
-0.54786385778428248
10
88.006823331676927
20
-37.095135086245648
10
84.725173463154817
20
-33.813485217723354
42
0.41421356237309359
10
77.654105651289328
20
-33.81348521772334
10
72.881134878280179
20
-38.586455990732475
42
-0.41421356237309159
0
LWPOLYLINE
5
140
100
AcDbEntity
8
0
100
AcDbPolyline
90
8
70
1
43
0.0
10
42.479683463515471
20
-62.632226818138783
42
0.38483252243270294
10
49.174917007849565
20
-62.292673861162989
10
62.274533160481937
20
-49.193057708530674
42
0.41421356237309431
10
62.274533160481923
20
-42.121989896665184
10
43.492644980671791
20
-23.340101716855195
42
0.4720293691724759
10
35.808279200694017
20
-24.085081183091823
42
-0.096947438964580232
10
24.085079037356891
20
-35.808280643941153
42
0.47202941874887161
10
23.340099684014906
20
-43.492646952641522
0
LWPOLYLINE
5
141
100
AcDbEntity
8
0
100
AcDbPolyline
90
17
70
1
43
0.0
10
-77.654105651288731
20
-33.813485217723837
42
0.41421356237309948
10
-84.725173463154206
20
-33.813485217723773
10
-88.006823331676941
20
-37.09513508624562
42
-0.54786385778427649
10
-96.236837095948644
20
-35.280606369046993
42
-0.17752424203075073
10
-96.236837095948658
20
35.280606369046801
42
-0.54786385778427626
10
-88.006823331676912
20
37.095135086245499
10
-84.725173463154675
20
33.81348521772324
42
0.41421356237309653
10
-77.6541056512892
20
33.813485217723276
10
-72.862994341930403
20
38.604596527082087
42
-0.38483258143121185
10
-66.167760001062547
20
38.944148834573618
10
-43.029555931209131
20
15.805940033006664
42
-0.26683866119552946
10
-41.730137774384595
20
10.996344066589378
42
0.12954436096320998
10
-41.73013687305626
20
-10.996347487048839
42
-0.26683871052846742
10
-43.029555286955308
20
-15.805944211273264
10
-63.957663433694734
20
-36.73405235801247
10
-66.167760001062575
20
-38.944148834573653
42
-0.38483258143121218
10
-72.862994341930431
20
-38.604596527082123
0
LWPOLYLINE
5
142
100
AcDbEntity
8
0
100
AcDbPolyline
90
27
70
1
43
0.0
10
29.641733892934962
20
-59.222367294768375
42
0.4472133644084777
10
32.276964638044745
20
-61.857597500979196
42
-0.21342166460945272
10
36.090705549664918
20
-63.314317299676794
10
38.944148834573596
20
-66.167760001062575
42
-0.38483258143121502
10
38.604596527082066
20
-72.86299434193046
10
33.814585544799073
20
-77.653005324213439
42
0.40509955788900559
10
33.703791085296324
20
-84.611965516244027
10
33.813485388944862
20
-84.725173634376318
10
37.095135086245442
20
-88.006823331676969
42
-0.54786385778427904
10
35.280606369046865
20
-96.236837095948744
42
-0.1775242420307504
10
-35.280606369046829
20
-96.236837095948701
42
-0.54786385778427504
10
-37.095135086245485
20
-88.006823331676927
10
-33.813485388944862
20
-84.725173634376318
10
-33.758636768071071
20
-84.668568059203153
42
0.40960430112841467
10
-33.813924484932066
20
-77.653666384080609
10
-38.586455990732446
20
-72.881134878280193
42
-0.38272818336180703
10
-38.949086357438567
20
-66.214416643132338
42
-0.0023458716975154497
10
-38.944148834573632
20
-66.167760001062547
10
-36.090705176229321
20
-63.314316926241261
42
-0.21342189851283871
10
-32.276959797270898
20
-61.857597376500635
42
0.44721390132087546
10
-29.64172694297001
20
-59.222365061099154
42
-0.21342189851283896
10
-28.185006613326664
20
-55.408619980036832
10
-15.805940033006705
20
-43.029555931209131
42
-0.26683866119552968
10
-10.996344066589357
20
-41.730137774384588
42
0.12954436096321023
10
10.996347487049212
20
-41.730136873057589
42
-0.26683847174144787
10
15.805940033006696
20
-43.029555931209131
10
28.185013314335571
20
-55.408626681044368
42
-0.21342166460945236
0
LWPOLYLINE
5
143
100
AcDbEntity
8
0
100
AcDbPolyline
90
8
70
1
43
0.0
10
-62.632227219209824
20
-42.479683955393071
42
0.38483248599979847
10
-62.292673861162974
20
-49.174917007849608
10
-49.193057708530652
20
-62.274533160481973
42
0.41421356237309576
10
-42.121989896665156
20
-62.274533160481951
10
-23.340099684014902
20
-43.492646952641508
42
0.47202941874887233
10
-24.085079037356895
20
-35.808280643941174
42
-0.096947438964580343
10
-35.808279200694017
20
-24.08508118309182
42
0.47202936917247518
10
-43.492644980671798
20
-23.340101716855202
0
CIRCLE
5
144
100
AcDbEntity
8
0
100
AcDbCircle
10
-32.137853880005771
20
-59.361470467911687
30
0
40
1.749999999999998
210
0
220
-0
230
1
0
CIRCLE
5
145
100
AcDbEntity
8
0
100
AcDbCircle
10
32.137860954448755
20
-59.361470467911758
30
0
40
1.749999999999998
210
0
220
-0
230
1
0
ENDSEC
0
SECTION
2
OBJECTS
0
DICTIONARY
5
C
100
AcDbDictionary
3
ACAD_GROUP
350
D
3
ACAD_MLINESTYLE
350
17
0
DICTIONARY
5
D
100
AcDbDictionary
0
DICTIONARY
5
1A
330
C
100
AcDbDictionary
0
DICTIONARY
5
17
100
AcDbDictionary
0
ENDSEC
0
EOF
