0
SECTION
2
HEADER
9
$INSUNITS
70
4
9
$ACADVER
1
AC1014
9
$HANDSEED
5
FFFF
0
ENDSEC
0
SECTION
2
TABLES
0
TABLE
2
VPORT
5
8
100
AcDbSymbolTable
0
ENDTAB
0
TABLE
2
LTYPE
5
5
100
AcDbSymbolTable
0
LTYPE
5
14
100
AcDbSymbolTableRecord
100
AcDbLinetypeTableRecord
2
BYBLOCK
70
0
0
LTYPE
5
15
100
AcDbSymbolTableRecord
100
AcDbLinetypeTableRecord
2
BYLAYER
70
0
0
LTYPE
5
16
100
AcDbSymbolTableRecord
100
AcDbLinetypeTableRecord
2
DASHED
70
0
3
Dashed __ __ __ __ __ __ __ __ __ __ __ __ __ _
72
65
73
2
40
0.75
49
0.5
74
0
49
-0.25
74
0
0
ENDTAB
0
TABLE
2
LAYER
5
2
100
AcDbSymbolTable
70
3
0
LAYER
5
50
100
AcDbSymbolTableRecord
100
AcDbLayerTableRecord
2
1
70
0
62
7
6
DASHED
0
LAYER
5
51
100
AcDbSymbolTableRecord
100
AcDbLayerTableRecord
2
0
70
0
62
7
6
CONTINUOUS
0
ENDTAB
0
TABLE
2
STYLE
5
3
100
AcDbSymbolTable
70
1
0
STYLE
5
11
100
AcDbSymbolTableRecord
100
AcDbTextStyleTableRecord
2
STANDARD
70
0
0
ENDTAB
0
TABLE
2
VIEW
5
6
100
AcDbSymbolTable
70
0
0
ENDTAB
0
TABLE
2
UCS
5
7
100
AcDbSymbolTable
70
0
0
ENDTAB
0
TABLE
2
APPID
5
9
100
AcDbSymbolTable
70
2
0
APPID
5
12
100
AcDbSymbolTableRecord
100
AcDbRegAppTableRecord
2
ACAD
70
0
0
ENDTAB
0
TABLE
2
DIMSTYLE
5
A
100
AcDbSymbolTable
70
1
0
ENDTAB
0
TABLE
2
BLOCK_RECORD
5
1
100
AcDbSymbolTable
70
1
0
BLOCK_RECORD
5
1F
100
AcDbSymbolTableRecord
100
AcDbBlockTableRecord
2
*MODEL_SPACE
0
BLOCK_RECORD
5
1B
100
AcDbSymbolTableRecord
100
AcDbBlockTableRecord
2
*PAPER_SPACE
0
ENDTAB
0
ENDSEC
0
SECTION
2
BLOCKS
0
BLOCK
5
20
100
AcDbEntity
100
AcDbBlockBegin
2
*MODEL_SPACE
0
ENDBLK
5
21
100
AcDbEntity
100
AcDbBlockEnd
0
BLOCK
5
1C
100
AcDbEntity
100
AcDbBlockBegin
2
*PAPER_SPACE
0
ENDBLK
5
1D
100
AcDbEntity
100
AcDbBlockEnd
0
ENDSEC
0
SECTION
2
ENTITIES
0
LWPOLYLINE
5
100
100
AcDbEntity
8
0
100
AcDbPolyline
90
40
70
1
43
0.0
10
42.807002410886042
20
86.647622844452016
42
0.53774961779422092
10
40.137094747234421
20
99.725942588934885
42
0.005518512138888711
10
37.92616248069065
20
100.58755489374752
42
-1.0611620686783194e-05
10
37.925622847752003
20
100.58594507212442
42
0.42925273542087428
10
31.321013749703841
20
97.597357022057025
42
9.0889135152906407e-05
10
31.285529523166829
20
97.608737531308492
42
-0.61717798063227369
10
-31.285529523165046
20
97.608737531304882
42
9.088913507656181e-05
10
-31.321013749679235
20
97.597357022064926
42
0.42925273542045783
10
-37.925622847715488
20
100.58594507201542
42
-1.0611623956278979e-05
10
-37.92616248066934
20
100.58755489368387
42
0.0055185121388987724
10
-40.137094747234386
20
99.725942588934828
42
0.53774961779422037
10
-42.807002410886042
20
86.647622844452016
10
-40.884553029588787
20
84.725173463154789
42
-0.41421356237309431
10
-40.884553029588766
20
77.654105651289299
10
-77.654105822510815
20
40.884553200810352
42
-0.4142135623730947
10
-84.72517363437629
20
40.884553200810345
10
-86.647622844451973
20
42.807002410886064
42
0.53774961779422104
10
-99.725942588934856
20
40.137094747234421
42
0.19368759647460065
10
-99.725942588934871
20
-40.137094747234343
42
0.53774961779422159
10
-86.647622844452016
20
-42.807002410886021
10
-84.725173463154817
20
-40.88455302958883
42
-0.41421356237309798
10
-77.654105651289314
20
-40.884553029588787
10
-40.884553200810331
20
-77.654105822510843
42
-0.41421356237309764
10
-40.884553200810331
20
-84.725173634376304
10
-42.807002410886057
20
-86.647622844451959
42
0.53774961779422426
10
-40.137094747234386
20
-99.725942588934871
42
0.19368759647460054
10
40.137094747234329
20
-99.725942588934927
42
0.53774961779422459
10
42.807002410886064
20
-86.647622844451973
10
40.884553200810331
20
-84.725173634376304
42
-0.41421356237309692
10
40.884553200810331
20
-77.654105822510829
10
77.654105651289299
20
-40.884553029588787
42
-0.41421356237309903
10
84.725173463154817
20
-40.884553029588815
10
86.647622844452002
20
-42.807002410886057
42
0.53774961779422503
10
99.725942588934885
20
-40.137094747234372
42
0.1936875964746004
10
99.725942588934871
20
40.137094747234315
42
0.53774961779422426
10
86.647622844452002
20
42.807002410886085
10
84.72517363437629
20
40.884553200810345
42
-0.41421356237309503
10
77.654105822510815
20
40.884553200810352
10
40.884553029588773
20
77.654105651289285
42
-0.41421356237309431
10
40.88455302958878
20
84.725173463154775
0
CIRCLE
5
101
100
AcDbEntity
8
0
100
AcDbCircle
10
45.657523672914905
20
69.345601132488127
30
0
40
1.749999999999998
210
0
220
0
230
1
0
CIRCLE
5
102
100
AcDbEntity
8
0
100
AcDbCircle
10
-45.657523672914934
20
-69.345601132488099
30
0
40
1.749999999999998
210
0
220
0
230
1
0
CIRCLE
5
103
100
AcDbEntity
8
0
100
AcDbCircle
10
-69.345601132488099
20
45.65752367291492
30
0
40
1.749999999999998
210
0
220
0
230
1
0
CIRCLE
5
104
100
AcDbEntity
8
0
100
AcDbCircle
10
45.68009243852952
20
-69.330736467863375
30
0
40
1.749999999999998
210
0
220
0
230
1
0
CIRCLE
5
105
100
AcDbEntity
8
0
100
AcDbCircle
10
69.330736467863375
20
45.680092438529549
30
0
40
1.749999999999998
210
0
220
0
230
1
0
CIRCLE
5
106
100
AcDbEntity
8
0
100
AcDbCircle
10
-69.330736467863375
20
-45.680092438529499
30
0
40
1.749999999999998
210
0
220
0
230
1
0
CIRCLE
5
107
100
AcDbEntity
8
0
100
AcDbCircle
10
-45.680092438529513
20
69.330736467863375
30
0
40
1.749999999999998
210
0
220
0
230
1
0
CIRCLE
5
108
100
AcDbEntity
8
0
100
AcDbCircle
10
69.345601132488099
20
-45.657523672914913
30
0
40
1.749999999999998
210
0
220
0
230
1
0
ARC
5
109
100
AcDbEntity
8
0
100
AcDbCircle
10
-37.911736009445249
20
93.074971247646033
30
0
40
1.9999999999999702
210
0
220
0
230
1
100
AcDbArc
50
112.16228216903819
51
176.91798480813145
0
ARC
5
110
100
AcDbEntity
8
0
100
AcDbCircle
10
0
20
0
30
0
40
102.49999999999999
210
0
220
0
230
1
100
AcDbArc
50
111.60641621775513
51
112.16228216903814
0
ARC
5
111
100
AcDbEntity
8
0
100
AcDbCircle
10
-37.006981393569646
20
93.438393223214121
30
0
40
2.0000000000000151
210
0
220
-0
230
1
100
AcDbArc
50
28.483421043247866
51
111.60641621775483
0
ARC
5
112
100
AcDbEntity
8
0
100
AcDbCircle
10
-37.006981392282803
20
93.438393223632886
30
0
40
2.0000000007187921
210
0
220
-0
230
1
100
AcDbArc
50
28.222404199500669
51
28.483421050284484
0
ARC
5
113
100
AcDbEntity
8
0
100
AcDbCircle
10
-1.1102230246251565e-14
20
113.29999759718777
30
0
40
40.000000000000007
210
0
220
0
230
1
100
AcDbArc
50
208.22240419945149
51
208.67177949335473
0
ARC
5
114
100
AcDbEntity
8
0
100
AcDbCircle
10
-2.0596813001816372e-05
20
113.30000450153854
30
0
40
39.999975195589656
210
0
220
0
230
1
100
AcDbArc
50
208.67180232563254
51
224.07790295678927
0
ARC
5
115
100
AcDbEntity
8
0
100
AcDbCircle
10
-32.327768450546664
20
81.996404401582922
30
0
40
5.0000000000000036
210
0
220
-0
230
1
100
AcDbArc
50
43.918432311594472
51
44.077902968266443
0
ARC
5
116
100
AcDbEntity
8
0
100
AcDbCircle
10
-2.0596813001816372e-05
20
113.30000450153854
30
0
40
40.000006904353256
210
0
220
0
230
1
100
AcDbArc
50
224.09783676009783
51
243.49609184781087
0
ARC
5
117
100
AcDbEntity
8
0
100
AcDbCircle
10
-1.1102230246251565e-14
20
113.29999759718777
30
0
40
40.000009917139693
210
0
220
0
230
1
100
AcDbArc
50
243.49606103229121
51
296.50392932669746
0
ARC
5
118
100
AcDbEntity
8
0
100
AcDbCircle
10
-2.0596813001816372e-05
20
113.30000450153854
30
0
40
40.000015370249415
210
-0
220
0
230
1
100
AcDbArc
50
296.50395131542751
51
331.77759849309786
0
ARC
5
119
100
AcDbEntity
8
0
100
AcDbCircle
10
37.006967811765705
20
93.438398602389
30
0
40
2.0000000000000067
210
0
220
-0
230
1
100
AcDbArc
50
68.393592110512898
51
151.77759849309743
0
ARC
5
120
100
AcDbEntity
8
0
100
AcDbCircle
10
0
20
0
30
0
40
102.49999999999997
210
0
220
-0
230
1
100
AcDbArc
50
67.837717830961864
51
68.39359211051331
0
ARC
5
121
100
AcDbEntity
8
0
100
AcDbCircle
10
37.911736009445235
20
93.074971247646005
30
0
40
1.9999999999999858
210
0
220
-0
230
1
100
AcDbArc
50
3.0820151918685639
51
67.837717830961594
0
ARC
5
122
100
AcDbEntity
8
0
100
AcDbCircle
10
42.405227192140515
20
93.316915437571907
30
0
40
2.4999999999999152
210
0
220
0
230
1
100
AcDbArc
50
183.08201519186903
51
198.61220003875653
0
ARC
5
123
100
AcDbEntity
8
0
100
AcDbCircle
10
38.140575067019576
20
91.880690437197188
30
0
40
1.9999999999999898
210
0
220
0
230
1
100
AcDbArc
50
-45.000000000000561
51
18.612200038756775
0
LINE
5
124
100
AcDbEntity
8
0
100
AcDbLine
10
39.554788629392654
20
90.466476874824082
30
0
11
33.813485217723269
21
84.725173463154761
31
0
0
ARC
5
125
100
AcDbEntity
8
0
100
AcDbCircle
10
37.349019123656007
20
81.189639557222009
30
0
40
5.0000000000000053
210
0
220
0
230
1
100
AcDbArc
50
134.99999999999991
51
225.00000000000011
0
LINE
5
126
100
AcDbEntity
8
0
100
AcDbLine
10
33.813485217723269
20
77.654105651289257
30
0
11
38.586455082042292
21
72.881135786970304
31
0
0
ARC
5
127
100
AcDbEntity
8
0
100
AcDbCircle
10
35.050921176109526
20
69.345601881037524
30
0
40
4.9999999999999991
210
-0
220
0
230
1
100
AcDbArc
50
-44.999999999999851
51
45.000000000000121
0
LINE
5
128
100
AcDbEntity
8
0
100
AcDbLine
10
38.586455082042271
20
65.810067975104801
30
0
11
30.501156507479593
21
57.724769400542087
31
0
0
LINE
5
129
100
AcDbEntity
8
0
100
AcDbLine
10
30.501156507479593
20
57.724769400542087
30
0
11
25.966832206425753
21
53.190446026747736
31
0
0
ARC
5
130
100
AcDbEntity
8
0
100
AcDbCircle
10
22.431298661997573
20
56.725980294185007
30
0
40
5.0000000000000009
210
0
220
0
230
1
100
AcDbArc
50
248.42454520981073
51
314.99999414156804
0
ARC
5
131
100
AcDbEntity
8
0
100
AcDbCircle
10
0
20
0
30
0
40
56
210
0
220
-0
230
1
100
AcDbArc
50
68.424545209810603
51
111.57545668870812
0
ARC
5
132
100
AcDbEntity
8
0
100
AcDbCircle
10
-22.43130054163576
20
56.725979550914857
30
0
40
4.9999999999999991
210
0
220
0
230
1
100
AcDbArc
50
225.00000027634317
51
291.57545668870807
0
LINE
5
133
100
AcDbEntity
8
0
100
AcDbLine
10
-25.966834430516272
20
53.19044562792989
30
0
11
-30.501160742524025
21
57.724771896198646
31
0
0
LINE
5
134
100
AcDbEntity
8
0
100
AcDbLine
10
-30.501160742524025
20
57.724771896198646
30
0
11
-38.586461812743231
21
65.810067975104801
31
0
0
ARC
5
135
100
AcDbEntity
8
0
100
AcDbCircle
10
-35.050927906810486
20
69.345601881037524
30
0
40
5.0000000000000053
210
0
220
0
230
1
100
AcDbArc
50
134.9999999999998
51
224.99999999999983
0
LINE
5
136
100
AcDbEntity
8
0
100
AcDbLine
10
-38.586448467862525
20
72.881122442089591
30
0
11
-33.813468767766075
21
77.654102142186105
31
0
0
ARC
5
137
100
AcDbEntity
8
0
100
AcDbCircle
10
-37.349002673698848
20
81.1896360481188
30
0
40
4.9999999999999929
210
-0
220
0
230
1
100
AcDbArc
50
-44.999999999999389
51
45.000056867423574
0
LINE
5
138
100
AcDbEntity
8
0
100
AcDbLine
10
-33.813472276869312
20
84.725173463151279
30
0
11
-39.554786836751134
21
90.466476626261937
31
0
0
ARC
5
139
100
AcDbEntity
8
0
100
AcDbCircle
10
-38.140574678019313
20
91.880691592274943
30
0
40
2.0000000000000098
210
0
220
0
230
1
100
AcDbArc
50
161.38781547976075
51
225.00005686742372
0
ARC
5
140
100
AcDbEntity
8
0
100
AcDbCircle
10
-42.405227192140515
20
93.316915437571907
30
0
40
2.4999999999999827
210
-0
220
0
230
1
100
AcDbArc
50
341.38781547976038
51
356.91798480813168
0
CIRCLE
5
141
100
AcDbEntity
8
0
100
AcDbCircle
10
-42.405227192140515
20
93.316915437571907
30
0
40
1.749999999999998
210
0
220
0
230
1
0
LWPOLYLINE
5
142
100
AcDbEntity
8
0
100
AcDbPolyline
90
11
70
1
43
0.0
10
-35.545764018480938
20
44.939701136641844
42
0.31292411514209229
10
-37.476358578899735
20
42.842998817359053
42
-0.16928637833308427
10
-38.675963484782663
20
40.499010463468359
42
0.043840076042326606
10
-45.144676872096589
20
33.135451560435783
42
-0.45953606230319238
10
-52.710985860256741
20
32.558440476760829
10
-61.916840386078384
20
41.764296885160128
42
-0.44421789843376353
10
-62.292673861162946
20
49.174917007849579
10
-49.1915358385274
20
62.276055030485168
42
-0.41421356237309614
10
-42.120468026661904
20
62.276055030485168
10
-34.097316708222152
20
54.252903712045395
10
-32.55844133801051
20
52.710984601278668
42
-0.53578461510647779
0
LWPOLYLINE
5
143
100
AcDbEntity
8
0
100
AcDbPolyline
90
10
70
1
43
0.0
10
-32.558440477081753
20
-52.710985860029226
42
0.53578475422963101
10
-35.545763514029737
20
-44.939701249488131
42
-0.31292417189354077
10
-37.476358578896985
20
-42.842998817378955
42
0.16928637833230595
10
-38.675963484789989
20
-40.499010463506274
42
-0.043840069815823779
10
-45.14467604839534
20
-33.135452682669666
42
0.45953602381587721
10
-52.710984601506212
20
-32.558441337689558
10
-62.274533160481923
20
-42.121989896665184
42
0.41421356237309581
10
-62.274533160481937
20
-49.193057708530674
10
-49.174917007849565
20
-62.292673861162996
42
0.44421789843376203
10
-41.764296885160128
20
-61.916840386078434
0
LWPOLYLINE
5
144
100
AcDbEntity
8
0
100
AcDbPolyline
90
10
70
1
43
0.0
10
35.572964838184376
20
-44.933456655501459
42
0.30986264298266725
10
37.476358578896971
20
-42.84299881737897
42
-0.16928637833230553
10
38.675963484789989
20
-40.499010463506281
42
0.043840076042420385
10
45.144676872096582
20
-33.135451560435811
42
-0.45953606230319466
10
52.710985860256756
20
-32.558440476760822
10
61.916840386078405
20
-41.764296885160157
42
-0.44421789843376353
10
62.292673861162974
20
-49.174917007849608
10
49.193057708530652
20
-62.274533160481973
42
-0.41421356237309653
10
42.121989896665156
20
-62.274533160481951
10
33.18336060862039
20
-53.335903872437086
42
-0.58758163316843393
0
LWPOLYLINE
5
145
100
AcDbEntity
8
0
100
AcDbPolyline
90
17
70
1
43
0.0
10
-24.682693182269873
20
-51.906307265195586
42
0.49174589186460249
10
-25.698742197528581
20
-44.051953980101345
42
-3.6987004512434218
10
25.698744354293737
20
-44.051952721901642
42
0.49174581317785787
10
24.682694827473508
20
-51.906305160633899
10
25.966834430516283
20
-53.19044562792989
10
38.586455990732475
20
-65.810067066414746
42
-0.41421356237309304
10
38.586455990732453
20
-72.881134878280207
10
33.813485217723247
20
-77.654105651289228
42
0.41421356237309598
10
33.813485217723233
20
-84.725173463154704
10
37.095135086245435
20
-88.006823331676941
42
-0.5478638577842796
10
35.280606369046843
20
-96.236837095948658
42
-0.1775242420307504
10
-35.280606369046829
20
-96.236837095948658
42
-0.54786385778427416
10
-37.095135086245477
20
-88.006823331676927
10
-33.813485217723233
20
-84.725173463154718
42
0.41421356237309725
10
-33.813485217723255
20
-77.654105651289228
10
-38.604596527082066
20
-72.86299434193046
42
-0.44421795933089603
10
-38.22876226363762
20
-65.452373576421607
0
CIRCLE
5
146
100
AcDbEntity
8
0
100
AcDbCircle
10
42.405227192140515
20
93.316915437571907
30
0
40
1.749999999999998
210
0
220
0
230
1
0
CIRCLE
5
147
100
AcDbEntity
8
0
100
AcDbCircle
10
35
20
42.5
30
0
40
1.7500000000000071
210
0
220
-0
230
1
0
LWPOLYLINE
5
148
100
AcDbEntity
8
0
100
AcDbPolyline
90
20
70
1
43
0.0
10
-65.45237357642155
20
38.228762263637634
42
0.44421795933089625
10
-72.862994341930403
20
38.604596527082073
10
-76.253127275575423
20
35.21446359343706
42
-0.19891236737965534
10
-79.788661181508161
20
33.749997499369798
10
-82.590617932935757
20
33.749997499369798
42
-0.1989123673796595
10
-86.126151838868509
20
35.214463593437074
10
-88.006823331676912
20
37.095135086245492
42
0.54786385778428004
10
-96.236837095948658
20
35.280606369046787
42
0.17752424203075073
10
-96.236837095948687
20
-35.280606369046986
42
0.54786385778427771
10
-88.006823331676927
20
-37.09513508624562
10
-86.126151838868466
20
-35.21446359343701
42
-0.1989123673796587
10
-82.590617932935714
20
-33.749997499369726
10
-79.788661181508417
20
-33.749997499369712
42
-0.1989123673796572
10
-76.253127275575679
20
-35.214463593436967
10
-72.881134878280179
20
-38.586455990732482
42
0.41421356237309281
10
-65.810067066414732
20
-38.586455990732489
10
-53.190445627929883
20
-25.966834430516297
42
0.29894674855236331
10
-52.076309095921836
20
-20.592669349698394
42
-0.19053822798140091
10
-52.076309778268211
20
20.592667624128886
42
0.29894671299501768
10
-53.190446026747736
20
25.966832206425721
0
LWPOLYLINE
5
149
100
AcDbEntity
8
0
100
AcDbPolyline
90
20
70
1
43
0.0
10
65.452373576421579
20
-38.22876226363767
42
0.44421795933089581
10
72.862994341930431
20
-38.604596527082116
10
76.25312727557565
20
-35.214463593436982
42
-0.19891236737965801
10
79.788661181508388
20
-33.749997499369726
10
82.590617932935714
20
-33.749997499369726
42
-0.19891236737965326
10
86.126151838868452
20
-35.214463593436989
10
88.006823331676927
20
-37.095135086245648
42
0.54786385778427849
10
96.236837095948729
20
-35.280606369046957
42
0.17752424203075068
10
96.236837095948644
20
35.280606369046822
42
0.5478638577842756
10
88.006823331676912
20
37.095135086245499
10
86.126151838868509
20
35.214463593437088
42
-0.1989123673796587
10
82.590617932935757
20
33.749997499369805
10
79.788661181508132
20
33.749997499369812
42
-0.19891236737965892
10
76.253127275575395
20
35.214463593437074
10
72.881134878280221
20
38.586455990732418
42
0.41421356237309287
10
65.810067066414774
20
38.586455990732432
10
53.190445627929918
20
25.966834430516261
42
0.29894674855236247
10
52.076309095921843
20
20.592669349698379
42
-0.19053822798140091
10
52.076309778268204
20
-20.5926676241289
42
0.29894671299501768
10
53.19044602674775
20
-25.966832206425721
0
CIRCLE
5
150
100
AcDbEntity
8
0
100
AcDbCircle
10
35
20
-42.5
30
0
40
1.749999999999998
210
0
220
-0
230
1
0
LWPOLYLINE
5
151
100
AcDbEntity
8
0
100
AcDbPolyline
90
11
70
1
43
0.0
10
32.558440477081817
20
52.710985860029176
42
0.53578475422962457
10
35.545763514029765
20
44.939701249488124
42
-0.31292417189353661
10
37.476358578896971
20
42.84299881737897
42
0.16928637833230589
10
38.675963484790003
20
40.499010463506266
42
-0.04384006981582389
10
45.144676048395354
20
33.13545268266963
42
0.45953602381587755
10
52.710984601506247
20
32.558441337689509
10
62.274533160481965
20
42.12198989666512
42
0.41421356237309653
10
62.274533160481987
20
49.193057708530631
10
49.191532473176906
20
62.276058395835676
42
0.41421356237309503
10
42.120464661311431
20
62.276058395835669
10
34.097309977521185
20
54.252903712045395
0
CIRCLE
5
152
100
AcDbEntity
8
0
100
AcDbCircle
10
-35
20
42.5
30
0
40
1.7500000000000071
210
0
220
-0
230
1
0
CIRCLE
5
153
100
AcDbEntity
8
0
100
AcDbCircle
10
-35
20
-42.5
30
0
40
1.749998927116394
210
0
220
-0
230
1
0
CIRCLE
5
154
100
AcDbEntity
8
0
100
AcDbCircle
10
-93.316915437571907
20
-42.405227192140543
30
0
40
1.7499999999999893
210
0
220
0
230
1
0
CIRCLE
5
155
100
AcDbEntity
8
0
100
AcDbCircle
10
93.316915437571907
20
42.405227192140515
30
0
40
1.7499999999999893
210
0
220
0
230
1
0
CIRCLE
5
156
100
AcDbEntity
8
0
100
AcDbCircle
10
-42.405227192140501
20
-93.31691543757195
30
0
40
1.749999999999998
210
0
220
0
230
1
0
CIRCLE
5
157
100
AcDbEntity
8
0
100
AcDbCircle
10
-93.316915437571907
20
42.405227192140515
30
0
40
1.7500000000000071
210
0
220
0
230
1
0
CIRCLE
5
158
100
AcDbEntity
8
0
100
AcDbCircle
10
93.316915437571907
20
-42.405227192140543
30
0
40
1.7500000000000071
210
0
220
0
230
1
0
CIRCLE
5
159
100
AcDbEntity
8
0
100
AcDbCircle
10
42.405227192140501
20
-93.31691543757195
30
0
40
1.749999999999998
210
0
220
0
230
1
0
ENDSEC
0
SECTION
2
OBJECTS
0
DICTIONARY
5
C
100
AcDbDictionary
3
ACAD_GROUP
350
D
3
ACAD_MLINESTYLE
350
17
0
DICTIONARY
5
D
100
AcDbDictionary
0
DICTIONARY
5
1A
330
C
100
AcDbDictionary
0
DICTIONARY
5
17
100
AcDbDictionary
0
ENDSEC
0
EOF
